%TF.GenerationSoftware,KiCad,Pcbnew,9.0.0*%
%TF.CreationDate,2025-04-05T18:35:05-05:00*%
%TF.ProjectId,Model I RS232,4d6f6465-6c20-4492-9052-533233322e6b,1.1*%
%TF.SameCoordinates,Original*%
%TF.FileFunction,Drillmap*%
%TF.FilePolarity,Positive*%
%FSLAX45Y45*%
G04 Gerber Fmt 4.5, Leading zero omitted, Abs format (unit mm)*
G04 Created by KiCad (PCBNEW 9.0.0) date 2025-04-05 18:35:05*
%MOMM*%
%LPD*%
G01*
G04 APERTURE LIST*
%ADD10C,0.200000*%
%ADD11C,0.100000*%
G04 APERTURE END LIST*
D10*
X7590000Y-7460000D02*
X19010000Y-7460000D01*
X19010000Y-14860000D01*
X7590000Y-14860000D01*
X7590000Y-7460000D01*
D11*
X7755000Y-13040000D02*
X7795000Y-13080000D01*
X7795000Y-13040000D02*
X7755000Y-13080000D01*
X7755000Y-13170000D02*
X7795000Y-13210000D01*
X7795000Y-13170000D02*
X7755000Y-13210000D01*
X8460000Y-13040000D02*
X8500000Y-13080000D01*
X8500000Y-13040000D02*
X8460000Y-13080000D01*
X8460000Y-13170000D02*
X8500000Y-13210000D01*
X8500000Y-13170000D02*
X8460000Y-13210000D01*
X8920000Y-9260000D02*
X8960000Y-9300000D01*
X8960000Y-9260000D02*
X8920000Y-9300000D01*
X8920000Y-9487000D02*
X8960000Y-9527000D01*
X8960000Y-9487000D02*
X8920000Y-9527000D01*
X9062000Y-8598000D02*
X9102000Y-8638000D01*
X9102000Y-8598000D02*
X9062000Y-8638000D01*
X9140000Y-8850000D02*
X9180000Y-8890000D01*
X9180000Y-8850000D02*
X9140000Y-8890000D01*
X9180000Y-12850000D02*
X9220000Y-12890000D01*
X9220000Y-12850000D02*
X9180000Y-12890000D01*
X9190000Y-11692500D02*
X9230000Y-11732500D01*
X9230000Y-11692500D02*
X9190000Y-11732500D01*
X9266000Y-12760000D02*
X9306000Y-12800000D01*
X9306000Y-12760000D02*
X9266000Y-12800000D01*
X9270000Y-11770000D02*
X9310000Y-11810000D01*
X9310000Y-11770000D02*
X9270000Y-11810000D01*
X9280000Y-10180000D02*
X9320000Y-10220000D01*
X9320000Y-10180000D02*
X9280000Y-10220000D01*
X9280000Y-10961500D02*
X9320000Y-11001500D01*
X9320000Y-10961500D02*
X9280000Y-11001500D01*
X9325000Y-8725000D02*
X9365000Y-8765000D01*
X9365000Y-8725000D02*
X9325000Y-8765000D01*
X9355000Y-12395000D02*
X9395000Y-12435000D01*
X9395000Y-12395000D02*
X9355000Y-12435000D01*
X9370000Y-10000000D02*
X9410000Y-10040000D01*
X9410000Y-10000000D02*
X9370000Y-10040000D01*
X9400000Y-9490000D02*
X9440000Y-9530000D01*
X9440000Y-9490000D02*
X9400000Y-9530000D01*
X9430000Y-8560000D02*
X9470000Y-8600000D01*
X9470000Y-8560000D02*
X9430000Y-8600000D01*
X9460000Y-10080000D02*
X9500000Y-10120000D01*
X9500000Y-10080000D02*
X9460000Y-10120000D01*
X9460000Y-12540000D02*
X9500000Y-12580000D01*
X9500000Y-12540000D02*
X9460000Y-12580000D01*
X9482500Y-8262500D02*
X9522500Y-8302500D01*
X9522500Y-8262500D02*
X9482500Y-8302500D01*
X9540000Y-10240000D02*
X9580000Y-10280000D01*
X9580000Y-10240000D02*
X9540000Y-10280000D01*
X9540000Y-12640000D02*
X9580000Y-12680000D01*
X9580000Y-12640000D02*
X9540000Y-12680000D01*
X9650000Y-10806500D02*
X9690000Y-10846500D01*
X9690000Y-10806500D02*
X9650000Y-10846500D01*
X9650000Y-11990000D02*
X9690000Y-12030000D01*
X9690000Y-11990000D02*
X9650000Y-12030000D01*
X9720000Y-12320000D02*
X9760000Y-12360000D01*
X9760000Y-12320000D02*
X9720000Y-12360000D01*
X9837301Y-8257301D02*
X9877301Y-8297301D01*
X9877301Y-8257301D02*
X9837301Y-8297301D01*
X9840644Y-8363560D02*
X9880644Y-8403560D01*
X9880644Y-8363560D02*
X9840644Y-8403560D01*
X9942500Y-13750000D02*
X9982500Y-13790000D01*
X9982500Y-13750000D02*
X9942500Y-13790000D01*
X9980000Y-7980000D02*
X10020000Y-8020000D01*
X10020000Y-7980000D02*
X9980000Y-8020000D01*
X9985000Y-8090000D02*
X10025000Y-8130000D01*
X10025000Y-8090000D02*
X9985000Y-8130000D01*
X10020000Y-14240000D02*
X10060000Y-14280000D01*
X10060000Y-14240000D02*
X10020000Y-14280000D01*
X10050000Y-8470000D02*
X10090000Y-8510000D01*
X10090000Y-8470000D02*
X10050000Y-8510000D01*
X10140000Y-11160000D02*
X10180000Y-11200000D01*
X10180000Y-11160000D02*
X10140000Y-11200000D01*
X10140000Y-11890000D02*
X10180000Y-11930000D01*
X10180000Y-11890000D02*
X10140000Y-11930000D01*
X10160000Y-9055000D02*
X10200000Y-9095000D01*
X10200000Y-9055000D02*
X10160000Y-9095000D01*
X10230000Y-10070000D02*
X10270000Y-10110000D01*
X10270000Y-10070000D02*
X10230000Y-10110000D01*
X10240000Y-11160000D02*
X10280000Y-11200000D01*
X10280000Y-11160000D02*
X10240000Y-11200000D01*
X10240000Y-11890000D02*
X10280000Y-11930000D01*
X10280000Y-11890000D02*
X10240000Y-11930000D01*
X10310000Y-10884000D02*
X10350000Y-10924000D01*
X10350000Y-10884000D02*
X10310000Y-10924000D01*
X10330000Y-10240000D02*
X10370000Y-10280000D01*
X10370000Y-10240000D02*
X10330000Y-10280000D01*
X10340000Y-10361000D02*
X10380000Y-10401000D01*
X10380000Y-10361000D02*
X10340000Y-10401000D01*
X10340000Y-11160000D02*
X10380000Y-11200000D01*
X10380000Y-11160000D02*
X10340000Y-11200000D01*
X10340000Y-11890000D02*
X10380000Y-11930000D01*
X10380000Y-11890000D02*
X10340000Y-11930000D01*
X10397500Y-9050000D02*
X10437500Y-9090000D01*
X10437500Y-9050000D02*
X10397500Y-9090000D01*
X10440000Y-10950000D02*
X10480000Y-10990000D01*
X10480000Y-10950000D02*
X10440000Y-10990000D01*
X10475000Y-9350000D02*
X10515000Y-9390000D01*
X10515000Y-9350000D02*
X10475000Y-9390000D01*
X10555000Y-9255000D02*
X10595000Y-9295000D01*
X10595000Y-9255000D02*
X10555000Y-9295000D01*
X10635000Y-9150000D02*
X10675000Y-9190000D01*
X10675000Y-9150000D02*
X10635000Y-9190000D01*
X10640000Y-10615000D02*
X10680000Y-10655000D01*
X10680000Y-10615000D02*
X10640000Y-10655000D01*
X10640000Y-10740000D02*
X10680000Y-10780000D01*
X10680000Y-10740000D02*
X10640000Y-10780000D01*
X10641928Y-11070603D02*
X10681928Y-11110603D01*
X10681928Y-11070603D02*
X10641928Y-11110603D01*
X10760000Y-8110000D02*
X10800000Y-8150000D01*
X10800000Y-8110000D02*
X10760000Y-8150000D01*
X10775000Y-7920000D02*
X10815000Y-7960000D01*
X10815000Y-7920000D02*
X10775000Y-7960000D01*
X11060000Y-9840000D02*
X11100000Y-9880000D01*
X11100000Y-9840000D02*
X11060000Y-9880000D01*
X11070000Y-8772500D02*
X11110000Y-8812500D01*
X11110000Y-8772500D02*
X11070000Y-8812500D01*
X11100000Y-12050000D02*
X11140000Y-12090000D01*
X11140000Y-12050000D02*
X11100000Y-12090000D01*
X11165000Y-8145000D02*
X11205000Y-8185000D01*
X11205000Y-8145000D02*
X11165000Y-8185000D01*
X11230000Y-14210000D02*
X11270000Y-14250000D01*
X11270000Y-14210000D02*
X11230000Y-14250000D01*
X11260000Y-8080000D02*
X11300000Y-8120000D01*
X11300000Y-8080000D02*
X11260000Y-8120000D01*
X11300000Y-11260000D02*
X11340000Y-11300000D01*
X11340000Y-11260000D02*
X11300000Y-11300000D01*
X11300000Y-11790000D02*
X11340000Y-11830000D01*
X11340000Y-11790000D02*
X11300000Y-11830000D01*
X11389199Y-11260801D02*
X11429199Y-11300801D01*
X11429199Y-11260801D02*
X11389199Y-11300801D01*
X11390000Y-11790000D02*
X11430000Y-11830000D01*
X11430000Y-11790000D02*
X11390000Y-11830000D01*
X11390000Y-12460000D02*
X11430000Y-12500000D01*
X11430000Y-12460000D02*
X11390000Y-12500000D01*
X11400000Y-12560000D02*
X11440000Y-12600000D01*
X11440000Y-12560000D02*
X11400000Y-12600000D01*
X11453801Y-11106199D02*
X11493801Y-11146199D01*
X11493801Y-11106199D02*
X11453801Y-11146199D01*
X11480000Y-9730000D02*
X11520000Y-9770000D01*
X11520000Y-9730000D02*
X11480000Y-9770000D01*
X11480000Y-10020000D02*
X11520000Y-10060000D01*
X11520000Y-10020000D02*
X11480000Y-10060000D01*
X11520000Y-13496000D02*
X11560000Y-13536000D01*
X11560000Y-13496000D02*
X11520000Y-13536000D01*
X11625000Y-8692500D02*
X11665000Y-8732500D01*
X11665000Y-8692500D02*
X11625000Y-8732500D01*
X11697132Y-8615000D02*
X11737132Y-8655000D01*
X11737132Y-8615000D02*
X11697132Y-8655000D01*
X11700000Y-9350000D02*
X11740000Y-9390000D01*
X11740000Y-9350000D02*
X11700000Y-9390000D01*
X11780000Y-9260000D02*
X11820000Y-9300000D01*
X11820000Y-9260000D02*
X11780000Y-9300000D01*
X11800000Y-8503765D02*
X11840000Y-8543765D01*
X11840000Y-8503765D02*
X11800000Y-8543765D01*
X11877500Y-9460000D02*
X11917500Y-9500000D01*
X11917500Y-9460000D02*
X11877500Y-9500000D01*
X11954540Y-9523757D02*
X11994540Y-9563757D01*
X11994540Y-9523757D02*
X11954540Y-9563757D01*
X11980000Y-10360000D02*
X12020000Y-10400000D01*
X12020000Y-10360000D02*
X11980000Y-10400000D01*
X11990000Y-9990000D02*
X12030000Y-10030000D01*
X12030000Y-9990000D02*
X11990000Y-10030000D01*
X12000000Y-13222500D02*
X12040000Y-13262500D01*
X12040000Y-13222500D02*
X12000000Y-13262500D01*
X12000000Y-13349500D02*
X12040000Y-13389500D01*
X12040000Y-13349500D02*
X12000000Y-13389500D01*
X12042500Y-11670000D02*
X12082500Y-11710000D01*
X12082500Y-11670000D02*
X12042500Y-11710000D01*
X12070000Y-10110000D02*
X12110000Y-10150000D01*
X12110000Y-10110000D02*
X12070000Y-10150000D01*
X12079389Y-10371043D02*
X12119389Y-10411043D01*
X12119389Y-10371043D02*
X12079389Y-10411043D01*
X12080000Y-12271758D02*
X12120000Y-12311758D01*
X12120000Y-12271758D02*
X12080000Y-12311758D01*
X12100000Y-9860000D02*
X12140000Y-9900000D01*
X12140000Y-9860000D02*
X12100000Y-9900000D01*
X12180000Y-10620000D02*
X12220000Y-10660000D01*
X12220000Y-10620000D02*
X12180000Y-10660000D01*
X12262400Y-11612400D02*
X12302400Y-11652400D01*
X12302400Y-11612400D02*
X12262400Y-11652400D01*
X12272598Y-8407598D02*
X12312598Y-8447598D01*
X12312598Y-8407598D02*
X12272598Y-8447598D01*
X12298051Y-10428051D02*
X12338051Y-10468051D01*
X12338051Y-10428051D02*
X12298051Y-10468051D01*
X12310100Y-12680000D02*
X12350100Y-12720000D01*
X12350100Y-12680000D02*
X12310100Y-12720000D01*
X12330000Y-13100000D02*
X12370000Y-13140000D01*
X12370000Y-13100000D02*
X12330000Y-13140000D01*
X12340000Y-7980000D02*
X12380000Y-8020000D01*
X12380000Y-7980000D02*
X12340000Y-8020000D01*
X12340000Y-10872500D02*
X12380000Y-10912500D01*
X12380000Y-10872500D02*
X12340000Y-10912500D01*
X12340000Y-11372500D02*
X12380000Y-11412500D01*
X12380000Y-11372500D02*
X12340000Y-11412500D01*
X12340000Y-12840000D02*
X12380000Y-12880000D01*
X12380000Y-12840000D02*
X12340000Y-12880000D01*
X12450000Y-11452500D02*
X12490000Y-11492500D01*
X12490000Y-11452500D02*
X12450000Y-11492500D01*
X12620000Y-10740000D02*
X12660000Y-10780000D01*
X12660000Y-10740000D02*
X12620000Y-10780000D01*
X12630000Y-9980000D02*
X12670000Y-10020000D01*
X12670000Y-9980000D02*
X12630000Y-10020000D01*
X12640000Y-8230000D02*
X12680000Y-8270000D01*
X12680000Y-8230000D02*
X12640000Y-8270000D01*
X12640000Y-8412500D02*
X12680000Y-8452500D01*
X12680000Y-8412500D02*
X12640000Y-8452500D01*
X12640000Y-10100000D02*
X12680000Y-10140000D01*
X12680000Y-10100000D02*
X12640000Y-10140000D01*
X12660000Y-8567500D02*
X12700000Y-8607500D01*
X12700000Y-8567500D02*
X12660000Y-8607500D01*
X12670000Y-8870000D02*
X12710000Y-8910000D01*
X12710000Y-8870000D02*
X12670000Y-8910000D01*
X12706010Y-8689777D02*
X12746010Y-8729777D01*
X12746010Y-8689777D02*
X12706010Y-8729777D01*
X12730000Y-12300000D02*
X12770000Y-12340000D01*
X12770000Y-12300000D02*
X12730000Y-12340000D01*
X12800000Y-8490000D02*
X12840000Y-8530000D01*
X12840000Y-8490000D02*
X12800000Y-8530000D01*
X12810000Y-8740000D02*
X12850000Y-8780000D01*
X12850000Y-8740000D02*
X12810000Y-8780000D01*
X12840000Y-13080000D02*
X12880000Y-13120000D01*
X12880000Y-13080000D02*
X12840000Y-13120000D01*
X12860000Y-12720000D02*
X12900000Y-12760000D01*
X12900000Y-12720000D02*
X12860000Y-12760000D01*
X12860000Y-13340000D02*
X12900000Y-13380000D01*
X12900000Y-13340000D02*
X12860000Y-13380000D01*
X12980000Y-8980000D02*
X13020000Y-9020000D01*
X13020000Y-8980000D02*
X12980000Y-9020000D01*
X13040000Y-7810000D02*
X13080000Y-7850000D01*
X13080000Y-7810000D02*
X13040000Y-7850000D01*
X13050000Y-9840000D02*
X13090000Y-9880000D01*
X13090000Y-9840000D02*
X13050000Y-9880000D01*
X13180000Y-8240000D02*
X13220000Y-8280000D01*
X13220000Y-8240000D02*
X13180000Y-8280000D01*
X13180000Y-8870000D02*
X13220000Y-8910000D01*
X13220000Y-8870000D02*
X13180000Y-8910000D01*
X13256529Y-11038471D02*
X13296529Y-11078471D01*
X13296529Y-11038471D02*
X13256529Y-11078471D01*
X13260000Y-9360000D02*
X13300000Y-9400000D01*
X13300000Y-9360000D02*
X13260000Y-9400000D01*
X13290000Y-10370000D02*
X13330000Y-10410000D01*
X13330000Y-10370000D02*
X13290000Y-10410000D01*
X13330000Y-10970000D02*
X13370000Y-11010000D01*
X13370000Y-10970000D02*
X13330000Y-11010000D01*
X13400000Y-11250000D02*
X13440000Y-11290000D01*
X13440000Y-11250000D02*
X13400000Y-11290000D01*
X13400000Y-13250000D02*
X13440000Y-13290000D01*
X13440000Y-13250000D02*
X13400000Y-13290000D01*
X13510000Y-9790000D02*
X13550000Y-9830000D01*
X13550000Y-9790000D02*
X13510000Y-9830000D01*
X13680000Y-9660000D02*
X13720000Y-9700000D01*
X13720000Y-9660000D02*
X13680000Y-9700000D01*
X13680000Y-10880000D02*
X13720000Y-10920000D01*
X13720000Y-10880000D02*
X13680000Y-10920000D01*
X13830000Y-9990000D02*
X13870000Y-10030000D01*
X13870000Y-9990000D02*
X13830000Y-10030000D01*
X13830000Y-11260000D02*
X13870000Y-11300000D01*
X13870000Y-11260000D02*
X13830000Y-11300000D01*
X13940000Y-11850000D02*
X13980000Y-11890000D01*
X13980000Y-11850000D02*
X13940000Y-11890000D01*
X13997500Y-11941381D02*
X14037500Y-11981381D01*
X14037500Y-11941381D02*
X13997500Y-11981381D01*
X14035071Y-9234929D02*
X14075071Y-9274929D01*
X14075071Y-9234929D02*
X14035071Y-9274929D01*
X14090000Y-10280000D02*
X14130000Y-10320000D01*
X14130000Y-10280000D02*
X14090000Y-10320000D01*
X14094801Y-11625199D02*
X14134801Y-11665199D01*
X14134801Y-11625199D02*
X14094801Y-11665199D01*
X14110000Y-9790000D02*
X14150000Y-9830000D01*
X14150000Y-9790000D02*
X14110000Y-9830000D01*
X14110000Y-13520000D02*
X14150000Y-13560000D01*
X14150000Y-13520000D02*
X14110000Y-13560000D01*
X14130000Y-9500000D02*
X14170000Y-9540000D01*
X14170000Y-9500000D02*
X14130000Y-9540000D01*
X14140000Y-8310000D02*
X14180000Y-8350000D01*
X14180000Y-8310000D02*
X14140000Y-8350000D01*
X14170000Y-10110000D02*
X14210000Y-10150000D01*
X14210000Y-10110000D02*
X14170000Y-10150000D01*
X14175000Y-8870000D02*
X14215000Y-8910000D01*
X14215000Y-8870000D02*
X14175000Y-8910000D01*
X14289000Y-8599000D02*
X14329000Y-8639000D01*
X14329000Y-8599000D02*
X14289000Y-8639000D01*
X14290000Y-8490000D02*
X14330000Y-8530000D01*
X14330000Y-8490000D02*
X14290000Y-8530000D01*
X14300000Y-9990000D02*
X14340000Y-10030000D01*
X14340000Y-9990000D02*
X14300000Y-10030000D01*
X14366600Y-11330000D02*
X14406600Y-11370000D01*
X14406600Y-11330000D02*
X14366600Y-11370000D01*
X14366600Y-11630000D02*
X14406600Y-11670000D01*
X14406600Y-11630000D02*
X14366600Y-11670000D01*
X14460000Y-11020000D02*
X14500000Y-11060000D01*
X14500000Y-11020000D02*
X14460000Y-11060000D01*
X14460000Y-11330000D02*
X14500000Y-11370000D01*
X14500000Y-11330000D02*
X14460000Y-11370000D01*
X14580000Y-11020000D02*
X14620000Y-11060000D01*
X14620000Y-11020000D02*
X14580000Y-11060000D01*
X14590000Y-11330000D02*
X14630000Y-11370000D01*
X14630000Y-11330000D02*
X14590000Y-11370000D01*
X14630000Y-10740000D02*
X14670000Y-10780000D01*
X14670000Y-10740000D02*
X14630000Y-10780000D01*
X14660000Y-8980000D02*
X14700000Y-9020000D01*
X14700000Y-8980000D02*
X14660000Y-9020000D01*
X14660000Y-10370000D02*
X14700000Y-10410000D01*
X14700000Y-10370000D02*
X14660000Y-10410000D01*
X14670000Y-9110000D02*
X14710000Y-9150000D01*
X14710000Y-9110000D02*
X14670000Y-9150000D01*
X14670000Y-9490000D02*
X14710000Y-9530000D01*
X14710000Y-9490000D02*
X14670000Y-9530000D01*
X14680398Y-8490000D02*
X14720398Y-8530000D01*
X14720398Y-8490000D02*
X14680398Y-8530000D01*
X14690000Y-9840000D02*
X14730000Y-9880000D01*
X14730000Y-9840000D02*
X14690000Y-9880000D01*
X14810000Y-8220000D02*
X14850000Y-8260000D01*
X14850000Y-8220000D02*
X14810000Y-8260000D01*
X14810000Y-8335000D02*
X14850000Y-8375000D01*
X14850000Y-8335000D02*
X14810000Y-8375000D01*
X14810000Y-8435000D02*
X14850000Y-8475000D01*
X14850000Y-8435000D02*
X14810000Y-8475000D01*
X14815000Y-11055000D02*
X14855000Y-11095000D01*
X14855000Y-11055000D02*
X14815000Y-11095000D01*
X14854900Y-8767751D02*
X14894900Y-8807751D01*
X14894900Y-8767751D02*
X14854900Y-8807751D01*
X14930000Y-11980000D02*
X14970000Y-12020000D01*
X14970000Y-11980000D02*
X14930000Y-12020000D01*
X14950000Y-9650000D02*
X14990000Y-9690000D01*
X14990000Y-9650000D02*
X14950000Y-9690000D01*
X14990000Y-12970000D02*
X15030000Y-13010000D01*
X15030000Y-12970000D02*
X14990000Y-13010000D01*
X15010000Y-9350000D02*
X15050000Y-9390000D01*
X15050000Y-9350000D02*
X15010000Y-9390000D01*
X15087500Y-8557551D02*
X15127500Y-8597551D01*
X15127500Y-8557551D02*
X15087500Y-8597551D01*
X15090000Y-9850000D02*
X15130000Y-9890000D01*
X15130000Y-9850000D02*
X15090000Y-9890000D01*
X15250000Y-13074900D02*
X15290000Y-13114900D01*
X15290000Y-13074900D02*
X15250000Y-13114900D01*
X15390000Y-10860000D02*
X15430000Y-10900000D01*
X15430000Y-10860000D02*
X15390000Y-10900000D01*
X15460000Y-7810000D02*
X15500000Y-7850000D01*
X15500000Y-7810000D02*
X15460000Y-7850000D01*
X15510000Y-13250000D02*
X15550000Y-13290000D01*
X15550000Y-13250000D02*
X15510000Y-13290000D01*
X15590000Y-11980000D02*
X15630000Y-12020000D01*
X15630000Y-11980000D02*
X15590000Y-12020000D01*
X15600000Y-12280000D02*
X15640000Y-12320000D01*
X15640000Y-12280000D02*
X15600000Y-12320000D01*
X15634801Y-11765199D02*
X15674801Y-11805199D01*
X15674801Y-11765199D02*
X15634801Y-11805199D01*
X15640000Y-12120000D02*
X15680000Y-12160000D01*
X15680000Y-12120000D02*
X15640000Y-12160000D01*
X15650000Y-9930000D02*
X15690000Y-9970000D01*
X15690000Y-9930000D02*
X15650000Y-9970000D01*
X15690000Y-9270000D02*
X15730000Y-9310000D01*
X15730000Y-9270000D02*
X15690000Y-9310000D01*
X15890600Y-12210000D02*
X15930600Y-12250000D01*
X15930600Y-12210000D02*
X15890600Y-12250000D01*
X15990000Y-12230000D02*
X16030000Y-12270000D01*
X16030000Y-12230000D02*
X15990000Y-12270000D01*
X16010000Y-11710000D02*
X16050000Y-11750000D01*
X16050000Y-11710000D02*
X16010000Y-11750000D01*
X16012400Y-11607500D02*
X16052400Y-11647500D01*
X16052400Y-11607500D02*
X16012400Y-11647500D01*
X16020000Y-12680000D02*
X16060000Y-12720000D01*
X16060000Y-12680000D02*
X16020000Y-12720000D01*
X16090000Y-9790000D02*
X16130000Y-9830000D01*
X16130000Y-9790000D02*
X16090000Y-9830000D01*
X16150000Y-8110000D02*
X16190000Y-8150000D01*
X16190000Y-8110000D02*
X16150000Y-8150000D01*
X16150000Y-8320000D02*
X16190000Y-8360000D01*
X16190000Y-8320000D02*
X16150000Y-8360000D01*
X16170000Y-12100000D02*
X16210000Y-12140000D01*
X16210000Y-12100000D02*
X16170000Y-12140000D01*
X16210000Y-10860000D02*
X16250000Y-10900000D01*
X16250000Y-10860000D02*
X16210000Y-10900000D01*
X16220000Y-9400000D02*
X16260000Y-9440000D01*
X16260000Y-9400000D02*
X16220000Y-9440000D01*
X16250000Y-9760000D02*
X16290000Y-9800000D01*
X16290000Y-9760000D02*
X16250000Y-9800000D01*
X16250000Y-10120000D02*
X16290000Y-10160000D01*
X16290000Y-10120000D02*
X16250000Y-10160000D01*
X16340000Y-11270000D02*
X16380000Y-11310000D01*
X16380000Y-11270000D02*
X16340000Y-11310000D01*
X16370000Y-9760000D02*
X16410000Y-9800000D01*
X16410000Y-9760000D02*
X16370000Y-9800000D01*
X16370000Y-10120000D02*
X16410000Y-10160000D01*
X16410000Y-10120000D02*
X16370000Y-10160000D01*
X16420000Y-11030000D02*
X16460000Y-11070000D01*
X16460000Y-11030000D02*
X16420000Y-11070000D01*
X16470000Y-12835100D02*
X16510000Y-12875100D01*
X16510000Y-12835100D02*
X16470000Y-12875100D01*
X16480000Y-9760000D02*
X16520000Y-9800000D01*
X16520000Y-9760000D02*
X16480000Y-9800000D01*
X16480000Y-10120000D02*
X16520000Y-10160000D01*
X16520000Y-10120000D02*
X16480000Y-10160000D01*
X16580000Y-12840000D02*
X16620000Y-12880000D01*
X16620000Y-12840000D02*
X16580000Y-12880000D01*
X16590000Y-9620000D02*
X16630000Y-9660000D01*
X16630000Y-9620000D02*
X16590000Y-9660000D01*
X16600000Y-12100000D02*
X16640000Y-12140000D01*
X16640000Y-12100000D02*
X16600000Y-12140000D01*
X16690000Y-10470000D02*
X16730000Y-10510000D01*
X16730000Y-10470000D02*
X16690000Y-10510000D01*
X16700000Y-10760000D02*
X16740000Y-10800000D01*
X16740000Y-10760000D02*
X16700000Y-10800000D01*
X16715100Y-11980000D02*
X16755100Y-12020000D01*
X16755100Y-11980000D02*
X16715100Y-12020000D01*
X16730000Y-11607500D02*
X16770000Y-11647500D01*
X16770000Y-11607500D02*
X16730000Y-11647500D01*
X16730000Y-11710000D02*
X16770000Y-11750000D01*
X16770000Y-11710000D02*
X16730000Y-11750000D01*
X16793000Y-13223000D02*
X16833000Y-13263000D01*
X16833000Y-13223000D02*
X16793000Y-13263000D01*
X16810000Y-11360000D02*
X16850000Y-11400000D01*
X16850000Y-11360000D02*
X16810000Y-11400000D01*
X16820000Y-11160000D02*
X16860000Y-11200000D01*
X16860000Y-11160000D02*
X16820000Y-11200000D01*
X16850000Y-10590000D02*
X16890000Y-10630000D01*
X16890000Y-10590000D02*
X16850000Y-10630000D01*
X16880000Y-10218000D02*
X16920000Y-10258000D01*
X16920000Y-10218000D02*
X16880000Y-10258000D01*
X16940000Y-11680000D02*
X16980000Y-11720000D01*
X16980000Y-11680000D02*
X16940000Y-11720000D01*
X16960000Y-10990000D02*
X17000000Y-11030000D01*
X17000000Y-10990000D02*
X16960000Y-11030000D01*
X16970000Y-13440000D02*
X17010000Y-13480000D01*
X17010000Y-13440000D02*
X16970000Y-13480000D01*
X17050000Y-9430000D02*
X17090000Y-9470000D01*
X17090000Y-9430000D02*
X17050000Y-9470000D01*
X17050000Y-10431900D02*
X17090000Y-10471900D01*
X17090000Y-10431900D02*
X17050000Y-10471900D01*
X17080000Y-12170000D02*
X17120000Y-12210000D01*
X17120000Y-12170000D02*
X17080000Y-12210000D01*
X17090000Y-11360000D02*
X17130000Y-11400000D01*
X17130000Y-11360000D02*
X17090000Y-11400000D01*
X17100000Y-13520000D02*
X17140000Y-13560000D01*
X17140000Y-13520000D02*
X17100000Y-13560000D01*
X17180000Y-13790000D02*
X17220000Y-13830000D01*
X17220000Y-13790000D02*
X17180000Y-13830000D01*
X17261399Y-10580999D02*
X17301399Y-10620999D01*
X17301399Y-10580999D02*
X17261399Y-10620999D01*
X17540000Y-13020000D02*
X17580000Y-13060000D01*
X17580000Y-13020000D02*
X17540000Y-13060000D01*
X17550000Y-14320000D02*
X17590000Y-14360000D01*
X17590000Y-14320000D02*
X17550000Y-14360000D01*
X17700000Y-9770000D02*
X17740000Y-9810000D01*
X17740000Y-9770000D02*
X17700000Y-9810000D01*
X17740000Y-10450000D02*
X17780000Y-10490000D01*
X17780000Y-10450000D02*
X17740000Y-10490000D01*
X17840000Y-11120000D02*
X17880000Y-11160000D01*
X17880000Y-11120000D02*
X17840000Y-11160000D01*
X17890000Y-12230000D02*
X17930000Y-12270000D01*
X17930000Y-12230000D02*
X17890000Y-12270000D01*
X17980000Y-8660000D02*
X18020000Y-8700000D01*
X18020000Y-8660000D02*
X17980000Y-8700000D01*
X18040000Y-10720000D02*
X18080000Y-10760000D01*
X18080000Y-10720000D02*
X18040000Y-10760000D01*
X18280000Y-12230000D02*
X18320000Y-12270000D01*
X18320000Y-12230000D02*
X18280000Y-12270000D01*
X18298000Y-13790000D02*
X18338000Y-13830000D01*
X18338000Y-13790000D02*
X18298000Y-13830000D01*
X18550000Y-12710000D02*
X18590000Y-12750000D01*
X18590000Y-12710000D02*
X18550000Y-12750000D01*
X18590000Y-10648500D02*
X18630000Y-10688500D01*
X18630000Y-10648500D02*
X18590000Y-10688500D01*
X18593949Y-10173551D02*
X18633949Y-10213551D01*
X18633949Y-10173551D02*
X18593949Y-10213551D01*
X18670000Y-11210000D02*
X18710000Y-11250000D01*
X18710000Y-11210000D02*
X18670000Y-11250000D01*
X18676773Y-10698204D02*
X18716773Y-10738204D01*
X18716773Y-10698204D02*
X18676773Y-10738204D01*
X18747500Y-11030000D02*
X18787500Y-11070000D01*
X18787500Y-11030000D02*
X18747500Y-11070000D01*
X18760000Y-14010000D02*
X18800000Y-14050000D01*
X18800000Y-14010000D02*
X18760000Y-14050000D01*
X10278000Y-12246000D02*
G75*
G02*
X10198000Y-12246000I-40000J0D01*
G01*
X10198000Y-12246000D02*
G75*
G02*
X10278000Y-12246000I40000J0D01*
G01*
X10278000Y-12500000D02*
G75*
G02*
X10198000Y-12500000I-40000J0D01*
G01*
X10198000Y-12500000D02*
G75*
G02*
X10278000Y-12500000I40000J0D01*
G01*
X10278000Y-12754000D02*
G75*
G02*
X10198000Y-12754000I-40000J0D01*
G01*
X10198000Y-12754000D02*
G75*
G02*
X10278000Y-12754000I40000J0D01*
G01*
X10278000Y-13008000D02*
G75*
G02*
X10198000Y-13008000I-40000J0D01*
G01*
X10198000Y-13008000D02*
G75*
G02*
X10278000Y-13008000I40000J0D01*
G01*
X10278000Y-13262000D02*
G75*
G02*
X10198000Y-13262000I-40000J0D01*
G01*
X10198000Y-13262000D02*
G75*
G02*
X10278000Y-13262000I40000J0D01*
G01*
X10278000Y-13516000D02*
G75*
G02*
X10198000Y-13516000I-40000J0D01*
G01*
X10198000Y-13516000D02*
G75*
G02*
X10278000Y-13516000I40000J0D01*
G01*
X10278000Y-13770000D02*
G75*
G02*
X10198000Y-13770000I-40000J0D01*
G01*
X10198000Y-13770000D02*
G75*
G02*
X10278000Y-13770000I40000J0D01*
G01*
X10278000Y-14024000D02*
G75*
G02*
X10198000Y-14024000I-40000J0D01*
G01*
X10198000Y-14024000D02*
G75*
G02*
X10278000Y-14024000I40000J0D01*
G01*
X11040000Y-12246000D02*
G75*
G02*
X10960000Y-12246000I-40000J0D01*
G01*
X10960000Y-12246000D02*
G75*
G02*
X11040000Y-12246000I40000J0D01*
G01*
X11040000Y-12500000D02*
G75*
G02*
X10960000Y-12500000I-40000J0D01*
G01*
X10960000Y-12500000D02*
G75*
G02*
X11040000Y-12500000I40000J0D01*
G01*
X11040000Y-12754000D02*
G75*
G02*
X10960000Y-12754000I-40000J0D01*
G01*
X10960000Y-12754000D02*
G75*
G02*
X11040000Y-12754000I40000J0D01*
G01*
X11040000Y-13008000D02*
G75*
G02*
X10960000Y-13008000I-40000J0D01*
G01*
X10960000Y-13008000D02*
G75*
G02*
X11040000Y-13008000I40000J0D01*
G01*
X11040000Y-13262000D02*
G75*
G02*
X10960000Y-13262000I-40000J0D01*
G01*
X10960000Y-13262000D02*
G75*
G02*
X11040000Y-13262000I40000J0D01*
G01*
X11040000Y-13516000D02*
G75*
G02*
X10960000Y-13516000I-40000J0D01*
G01*
X10960000Y-13516000D02*
G75*
G02*
X11040000Y-13516000I40000J0D01*
G01*
X11040000Y-13770000D02*
G75*
G02*
X10960000Y-13770000I-40000J0D01*
G01*
X10960000Y-13770000D02*
G75*
G02*
X11040000Y-13770000I40000J0D01*
G01*
X11040000Y-14024000D02*
G75*
G02*
X10960000Y-14024000I-40000J0D01*
G01*
X10960000Y-14024000D02*
G75*
G02*
X11040000Y-14024000I40000J0D01*
G01*
X13786000Y-12500000D02*
G75*
G02*
X13706000Y-12500000I-40000J0D01*
G01*
X13706000Y-12500000D02*
G75*
G02*
X13786000Y-12500000I40000J0D01*
G01*
X13786000Y-14024000D02*
G75*
G02*
X13706000Y-14024000I-40000J0D01*
G01*
X13706000Y-14024000D02*
G75*
G02*
X13786000Y-14024000I40000J0D01*
G01*
X14040000Y-12500000D02*
G75*
G02*
X13960000Y-12500000I-40000J0D01*
G01*
X13960000Y-12500000D02*
G75*
G02*
X14040000Y-12500000I40000J0D01*
G01*
X14040000Y-14024000D02*
G75*
G02*
X13960000Y-14024000I-40000J0D01*
G01*
X13960000Y-14024000D02*
G75*
G02*
X14040000Y-14024000I40000J0D01*
G01*
X14294000Y-12500000D02*
G75*
G02*
X14214000Y-12500000I-40000J0D01*
G01*
X14214000Y-12500000D02*
G75*
G02*
X14294000Y-12500000I40000J0D01*
G01*
X14294000Y-14024000D02*
G75*
G02*
X14214000Y-14024000I-40000J0D01*
G01*
X14214000Y-14024000D02*
G75*
G02*
X14294000Y-14024000I40000J0D01*
G01*
X14548000Y-12500000D02*
G75*
G02*
X14468000Y-12500000I-40000J0D01*
G01*
X14468000Y-12500000D02*
G75*
G02*
X14548000Y-12500000I40000J0D01*
G01*
X14548000Y-14024000D02*
G75*
G02*
X14468000Y-14024000I-40000J0D01*
G01*
X14468000Y-14024000D02*
G75*
G02*
X14548000Y-14024000I40000J0D01*
G01*
X14802000Y-12500000D02*
G75*
G02*
X14722000Y-12500000I-40000J0D01*
G01*
X14722000Y-12500000D02*
G75*
G02*
X14802000Y-12500000I40000J0D01*
G01*
X14802000Y-14024000D02*
G75*
G02*
X14722000Y-14024000I-40000J0D01*
G01*
X14722000Y-14024000D02*
G75*
G02*
X14802000Y-14024000I40000J0D01*
G01*
X15056000Y-12500000D02*
G75*
G02*
X14976000Y-12500000I-40000J0D01*
G01*
X14976000Y-12500000D02*
G75*
G02*
X15056000Y-12500000I40000J0D01*
G01*
X15056000Y-14024000D02*
G75*
G02*
X14976000Y-14024000I-40000J0D01*
G01*
X14976000Y-14024000D02*
G75*
G02*
X15056000Y-14024000I40000J0D01*
G01*
X15310000Y-12500000D02*
G75*
G02*
X15230000Y-12500000I-40000J0D01*
G01*
X15230000Y-12500000D02*
G75*
G02*
X15310000Y-12500000I40000J0D01*
G01*
X15310000Y-14024000D02*
G75*
G02*
X15230000Y-14024000I-40000J0D01*
G01*
X15230000Y-14024000D02*
G75*
G02*
X15310000Y-14024000I40000J0D01*
G01*
X15564000Y-12500000D02*
G75*
G02*
X15484000Y-12500000I-40000J0D01*
G01*
X15484000Y-12500000D02*
G75*
G02*
X15564000Y-12500000I40000J0D01*
G01*
X15564000Y-14024000D02*
G75*
G02*
X15484000Y-14024000I-40000J0D01*
G01*
X15484000Y-14024000D02*
G75*
G02*
X15564000Y-14024000I40000J0D01*
G01*
X15818000Y-12500000D02*
G75*
G02*
X15738000Y-12500000I-40000J0D01*
G01*
X15738000Y-12500000D02*
G75*
G02*
X15818000Y-12500000I40000J0D01*
G01*
X15818000Y-14024000D02*
G75*
G02*
X15738000Y-14024000I-40000J0D01*
G01*
X15738000Y-14024000D02*
G75*
G02*
X15818000Y-14024000I40000J0D01*
G01*
X16072000Y-12500000D02*
G75*
G02*
X15992000Y-12500000I-40000J0D01*
G01*
X15992000Y-12500000D02*
G75*
G02*
X16072000Y-12500000I40000J0D01*
G01*
X16072000Y-14024000D02*
G75*
G02*
X15992000Y-14024000I-40000J0D01*
G01*
X15992000Y-14024000D02*
G75*
G02*
X16072000Y-14024000I40000J0D01*
G01*
X16290000Y-10500000D02*
G75*
G02*
X16210000Y-10500000I-40000J0D01*
G01*
X16210000Y-10500000D02*
G75*
G02*
X16290000Y-10500000I40000J0D01*
G01*
X16326000Y-12500000D02*
G75*
G02*
X16246000Y-12500000I-40000J0D01*
G01*
X16246000Y-12500000D02*
G75*
G02*
X16326000Y-12500000I40000J0D01*
G01*
X16326000Y-14024000D02*
G75*
G02*
X16246000Y-14024000I-40000J0D01*
G01*
X16246000Y-14024000D02*
G75*
G02*
X16326000Y-14024000I40000J0D01*
G01*
X16540000Y-10500000D02*
G75*
G02*
X16460000Y-10500000I-40000J0D01*
G01*
X16460000Y-10500000D02*
G75*
G02*
X16540000Y-10500000I40000J0D01*
G01*
X16580000Y-12500000D02*
G75*
G02*
X16500000Y-12500000I-40000J0D01*
G01*
X16500000Y-12500000D02*
G75*
G02*
X16580000Y-12500000I40000J0D01*
G01*
X16580000Y-14024000D02*
G75*
G02*
X16500000Y-14024000I-40000J0D01*
G01*
X16500000Y-14024000D02*
G75*
G02*
X16580000Y-14024000I40000J0D01*
G01*
X16834000Y-12500000D02*
G75*
G02*
X16754000Y-12500000I-40000J0D01*
G01*
X16754000Y-12500000D02*
G75*
G02*
X16834000Y-12500000I40000J0D01*
G01*
X16834000Y-14024000D02*
G75*
G02*
X16754000Y-14024000I-40000J0D01*
G01*
X16754000Y-14024000D02*
G75*
G02*
X16834000Y-14024000I40000J0D01*
G01*
X17088000Y-12500000D02*
G75*
G02*
X17008000Y-12500000I-40000J0D01*
G01*
X17008000Y-12500000D02*
G75*
G02*
X17088000Y-12500000I40000J0D01*
G01*
X17088000Y-14024000D02*
G75*
G02*
X17008000Y-14024000I-40000J0D01*
G01*
X17008000Y-14024000D02*
G75*
G02*
X17088000Y-14024000I40000J0D01*
G01*
X17342000Y-12500000D02*
G75*
G02*
X17262000Y-12500000I-40000J0D01*
G01*
X17262000Y-12500000D02*
G75*
G02*
X17342000Y-12500000I40000J0D01*
G01*
X17342000Y-14024000D02*
G75*
G02*
X17262000Y-14024000I-40000J0D01*
G01*
X17262000Y-14024000D02*
G75*
G02*
X17342000Y-14024000I40000J0D01*
G01*
X17540000Y-9476000D02*
G75*
G02*
X17460000Y-9476000I-40000J0D01*
G01*
X17460000Y-9476000D02*
G75*
G02*
X17540000Y-9476000I40000J0D01*
G01*
X17540000Y-9730000D02*
G75*
G02*
X17460000Y-9730000I-40000J0D01*
G01*
X17460000Y-9730000D02*
G75*
G02*
X17540000Y-9730000I40000J0D01*
G01*
X17540000Y-9984000D02*
G75*
G02*
X17460000Y-9984000I-40000J0D01*
G01*
X17460000Y-9984000D02*
G75*
G02*
X17540000Y-9984000I40000J0D01*
G01*
X17540000Y-10238000D02*
G75*
G02*
X17460000Y-10238000I-40000J0D01*
G01*
X17460000Y-10238000D02*
G75*
G02*
X17540000Y-10238000I40000J0D01*
G01*
X17540000Y-10492000D02*
G75*
G02*
X17460000Y-10492000I-40000J0D01*
G01*
X17460000Y-10492000D02*
G75*
G02*
X17540000Y-10492000I40000J0D01*
G01*
X17540000Y-10746000D02*
G75*
G02*
X17460000Y-10746000I-40000J0D01*
G01*
X17460000Y-10746000D02*
G75*
G02*
X17540000Y-10746000I40000J0D01*
G01*
X17540000Y-11000000D02*
G75*
G02*
X17460000Y-11000000I-40000J0D01*
G01*
X17460000Y-11000000D02*
G75*
G02*
X17540000Y-11000000I40000J0D01*
G01*
X17540000Y-11254000D02*
G75*
G02*
X17460000Y-11254000I-40000J0D01*
G01*
X17460000Y-11254000D02*
G75*
G02*
X17540000Y-11254000I40000J0D01*
G01*
X17540000Y-11508000D02*
G75*
G02*
X17460000Y-11508000I-40000J0D01*
G01*
X17460000Y-11508000D02*
G75*
G02*
X17540000Y-11508000I40000J0D01*
G01*
X17596000Y-12500000D02*
G75*
G02*
X17516000Y-12500000I-40000J0D01*
G01*
X17516000Y-12500000D02*
G75*
G02*
X17596000Y-12500000I40000J0D01*
G01*
X17596000Y-14024000D02*
G75*
G02*
X17516000Y-14024000I-40000J0D01*
G01*
X17516000Y-14024000D02*
G75*
G02*
X17596000Y-14024000I40000J0D01*
G01*
X17850000Y-12500000D02*
G75*
G02*
X17770000Y-12500000I-40000J0D01*
G01*
X17770000Y-12500000D02*
G75*
G02*
X17850000Y-12500000I40000J0D01*
G01*
X17850000Y-14024000D02*
G75*
G02*
X17770000Y-14024000I-40000J0D01*
G01*
X17770000Y-14024000D02*
G75*
G02*
X17850000Y-14024000I40000J0D01*
G01*
X18104000Y-12500000D02*
G75*
G02*
X18024000Y-12500000I-40000J0D01*
G01*
X18024000Y-12500000D02*
G75*
G02*
X18104000Y-12500000I40000J0D01*
G01*
X18104000Y-14024000D02*
G75*
G02*
X18024000Y-14024000I-40000J0D01*
G01*
X18024000Y-14024000D02*
G75*
G02*
X18104000Y-14024000I40000J0D01*
G01*
X18302000Y-9476000D02*
G75*
G02*
X18222000Y-9476000I-40000J0D01*
G01*
X18222000Y-9476000D02*
G75*
G02*
X18302000Y-9476000I40000J0D01*
G01*
X18302000Y-9730000D02*
G75*
G02*
X18222000Y-9730000I-40000J0D01*
G01*
X18222000Y-9730000D02*
G75*
G02*
X18302000Y-9730000I40000J0D01*
G01*
X18302000Y-9984000D02*
G75*
G02*
X18222000Y-9984000I-40000J0D01*
G01*
X18222000Y-9984000D02*
G75*
G02*
X18302000Y-9984000I40000J0D01*
G01*
X18302000Y-10238000D02*
G75*
G02*
X18222000Y-10238000I-40000J0D01*
G01*
X18222000Y-10238000D02*
G75*
G02*
X18302000Y-10238000I40000J0D01*
G01*
X18302000Y-10492000D02*
G75*
G02*
X18222000Y-10492000I-40000J0D01*
G01*
X18222000Y-10492000D02*
G75*
G02*
X18302000Y-10492000I40000J0D01*
G01*
X18302000Y-10746000D02*
G75*
G02*
X18222000Y-10746000I-40000J0D01*
G01*
X18222000Y-10746000D02*
G75*
G02*
X18302000Y-10746000I40000J0D01*
G01*
X18302000Y-11000000D02*
G75*
G02*
X18222000Y-11000000I-40000J0D01*
G01*
X18222000Y-11000000D02*
G75*
G02*
X18302000Y-11000000I40000J0D01*
G01*
X18302000Y-11254000D02*
G75*
G02*
X18222000Y-11254000I-40000J0D01*
G01*
X18222000Y-11254000D02*
G75*
G02*
X18302000Y-11254000I40000J0D01*
G01*
X18302000Y-11508000D02*
G75*
G02*
X18222000Y-11508000I-40000J0D01*
G01*
X18222000Y-11508000D02*
G75*
G02*
X18302000Y-11508000I40000J0D01*
G01*
X18305000Y-8255000D02*
G75*
G02*
X18225000Y-8255000I-40000J0D01*
G01*
X18225000Y-8255000D02*
G75*
G02*
X18305000Y-8255000I40000J0D01*
G01*
X18305000Y-8745000D02*
G75*
G02*
X18225000Y-8745000I-40000J0D01*
G01*
X18225000Y-8745000D02*
G75*
G02*
X18305000Y-8745000I40000J0D01*
G01*
X18358000Y-12500000D02*
G75*
G02*
X18278000Y-12500000I-40000J0D01*
G01*
X18278000Y-12500000D02*
G75*
G02*
X18358000Y-12500000I40000J0D01*
G01*
X18358000Y-14024000D02*
G75*
G02*
X18278000Y-14024000I-40000J0D01*
G01*
X18278000Y-14024000D02*
G75*
G02*
X18358000Y-14024000I40000J0D01*
G01*
X18612000Y-12500000D02*
G75*
G02*
X18532000Y-12500000I-40000J0D01*
G01*
X18532000Y-12500000D02*
G75*
G02*
X18612000Y-12500000I40000J0D01*
G01*
X18612000Y-14024000D02*
G75*
G02*
X18532000Y-14024000I-40000J0D01*
G01*
X18532000Y-14024000D02*
G75*
G02*
X18612000Y-14024000I40000J0D01*
G01*
D10*
X7840777Y-15181484D02*
X7840777Y-14981484D01*
X7840777Y-14981484D02*
X7888396Y-14981484D01*
X7888396Y-14981484D02*
X7916967Y-14991008D01*
X7916967Y-14991008D02*
X7936015Y-15010055D01*
X7936015Y-15010055D02*
X7945539Y-15029103D01*
X7945539Y-15029103D02*
X7955062Y-15067198D01*
X7955062Y-15067198D02*
X7955062Y-15095769D01*
X7955062Y-15095769D02*
X7945539Y-15133865D01*
X7945539Y-15133865D02*
X7936015Y-15152912D01*
X7936015Y-15152912D02*
X7916967Y-15171960D01*
X7916967Y-15171960D02*
X7888396Y-15181484D01*
X7888396Y-15181484D02*
X7840777Y-15181484D01*
X8040777Y-15181484D02*
X8040777Y-15048150D01*
X8040777Y-15086246D02*
X8050301Y-15067198D01*
X8050301Y-15067198D02*
X8059824Y-15057674D01*
X8059824Y-15057674D02*
X8078872Y-15048150D01*
X8078872Y-15048150D02*
X8097920Y-15048150D01*
X8164586Y-15181484D02*
X8164586Y-15048150D01*
X8164586Y-14981484D02*
X8155062Y-14991008D01*
X8155062Y-14991008D02*
X8164586Y-15000531D01*
X8164586Y-15000531D02*
X8174110Y-14991008D01*
X8174110Y-14991008D02*
X8164586Y-14981484D01*
X8164586Y-14981484D02*
X8164586Y-15000531D01*
X8288396Y-15181484D02*
X8269348Y-15171960D01*
X8269348Y-15171960D02*
X8259824Y-15152912D01*
X8259824Y-15152912D02*
X8259824Y-14981484D01*
X8393158Y-15181484D02*
X8374110Y-15171960D01*
X8374110Y-15171960D02*
X8364586Y-15152912D01*
X8364586Y-15152912D02*
X8364586Y-14981484D01*
X8621729Y-15181484D02*
X8621729Y-14981484D01*
X8621729Y-14981484D02*
X8688396Y-15124341D01*
X8688396Y-15124341D02*
X8755063Y-14981484D01*
X8755063Y-14981484D02*
X8755063Y-15181484D01*
X8936015Y-15181484D02*
X8936015Y-15076722D01*
X8936015Y-15076722D02*
X8926491Y-15057674D01*
X8926491Y-15057674D02*
X8907444Y-15048150D01*
X8907444Y-15048150D02*
X8869348Y-15048150D01*
X8869348Y-15048150D02*
X8850301Y-15057674D01*
X8936015Y-15171960D02*
X8916967Y-15181484D01*
X8916967Y-15181484D02*
X8869348Y-15181484D01*
X8869348Y-15181484D02*
X8850301Y-15171960D01*
X8850301Y-15171960D02*
X8840777Y-15152912D01*
X8840777Y-15152912D02*
X8840777Y-15133865D01*
X8840777Y-15133865D02*
X8850301Y-15114817D01*
X8850301Y-15114817D02*
X8869348Y-15105293D01*
X8869348Y-15105293D02*
X8916967Y-15105293D01*
X8916967Y-15105293D02*
X8936015Y-15095769D01*
X9031253Y-15048150D02*
X9031253Y-15248150D01*
X9031253Y-15057674D02*
X9050301Y-15048150D01*
X9050301Y-15048150D02*
X9088396Y-15048150D01*
X9088396Y-15048150D02*
X9107444Y-15057674D01*
X9107444Y-15057674D02*
X9116967Y-15067198D01*
X9116967Y-15067198D02*
X9126491Y-15086246D01*
X9126491Y-15086246D02*
X9126491Y-15143388D01*
X9126491Y-15143388D02*
X9116967Y-15162436D01*
X9116967Y-15162436D02*
X9107444Y-15171960D01*
X9107444Y-15171960D02*
X9088396Y-15181484D01*
X9088396Y-15181484D02*
X9050301Y-15181484D01*
X9050301Y-15181484D02*
X9031253Y-15171960D01*
X9212205Y-15162436D02*
X9221729Y-15171960D01*
X9221729Y-15171960D02*
X9212205Y-15181484D01*
X9212205Y-15181484D02*
X9202682Y-15171960D01*
X9202682Y-15171960D02*
X9212205Y-15162436D01*
X9212205Y-15162436D02*
X9212205Y-15181484D01*
X9212205Y-15057674D02*
X9221729Y-15067198D01*
X9221729Y-15067198D02*
X9212205Y-15076722D01*
X9212205Y-15076722D02*
X9202682Y-15067198D01*
X9202682Y-15067198D02*
X9212205Y-15057674D01*
X9212205Y-15057674D02*
X9212205Y-15076722D01*
D11*
X7540000Y-15490000D02*
X7580000Y-15530000D01*
X7580000Y-15490000D02*
X7540000Y-15530000D01*
D10*
X7878872Y-15401484D02*
X7897920Y-15401484D01*
X7897920Y-15401484D02*
X7916967Y-15411008D01*
X7916967Y-15411008D02*
X7926491Y-15420531D01*
X7926491Y-15420531D02*
X7936015Y-15439579D01*
X7936015Y-15439579D02*
X7945539Y-15477674D01*
X7945539Y-15477674D02*
X7945539Y-15525293D01*
X7945539Y-15525293D02*
X7936015Y-15563388D01*
X7936015Y-15563388D02*
X7926491Y-15582436D01*
X7926491Y-15582436D02*
X7916967Y-15591960D01*
X7916967Y-15591960D02*
X7897920Y-15601484D01*
X7897920Y-15601484D02*
X7878872Y-15601484D01*
X7878872Y-15601484D02*
X7859824Y-15591960D01*
X7859824Y-15591960D02*
X7850301Y-15582436D01*
X7850301Y-15582436D02*
X7840777Y-15563388D01*
X7840777Y-15563388D02*
X7831253Y-15525293D01*
X7831253Y-15525293D02*
X7831253Y-15477674D01*
X7831253Y-15477674D02*
X7840777Y-15439579D01*
X7840777Y-15439579D02*
X7850301Y-15420531D01*
X7850301Y-15420531D02*
X7859824Y-15411008D01*
X7859824Y-15411008D02*
X7878872Y-15401484D01*
X8031253Y-15582436D02*
X8040777Y-15591960D01*
X8040777Y-15591960D02*
X8031253Y-15601484D01*
X8031253Y-15601484D02*
X8021729Y-15591960D01*
X8021729Y-15591960D02*
X8031253Y-15582436D01*
X8031253Y-15582436D02*
X8031253Y-15601484D01*
X8212205Y-15468150D02*
X8212205Y-15601484D01*
X8164586Y-15391960D02*
X8116967Y-15534817D01*
X8116967Y-15534817D02*
X8240777Y-15534817D01*
X8355062Y-15401484D02*
X8374110Y-15401484D01*
X8374110Y-15401484D02*
X8393158Y-15411008D01*
X8393158Y-15411008D02*
X8402682Y-15420531D01*
X8402682Y-15420531D02*
X8412205Y-15439579D01*
X8412205Y-15439579D02*
X8421729Y-15477674D01*
X8421729Y-15477674D02*
X8421729Y-15525293D01*
X8421729Y-15525293D02*
X8412205Y-15563388D01*
X8412205Y-15563388D02*
X8402682Y-15582436D01*
X8402682Y-15582436D02*
X8393158Y-15591960D01*
X8393158Y-15591960D02*
X8374110Y-15601484D01*
X8374110Y-15601484D02*
X8355062Y-15601484D01*
X8355062Y-15601484D02*
X8336015Y-15591960D01*
X8336015Y-15591960D02*
X8326491Y-15582436D01*
X8326491Y-15582436D02*
X8316967Y-15563388D01*
X8316967Y-15563388D02*
X8307443Y-15525293D01*
X8307443Y-15525293D02*
X8307443Y-15477674D01*
X8307443Y-15477674D02*
X8316967Y-15439579D01*
X8316967Y-15439579D02*
X8326491Y-15420531D01*
X8326491Y-15420531D02*
X8336015Y-15411008D01*
X8336015Y-15411008D02*
X8355062Y-15401484D01*
X8545539Y-15401484D02*
X8564586Y-15401484D01*
X8564586Y-15401484D02*
X8583634Y-15411008D01*
X8583634Y-15411008D02*
X8593158Y-15420531D01*
X8593158Y-15420531D02*
X8602682Y-15439579D01*
X8602682Y-15439579D02*
X8612205Y-15477674D01*
X8612205Y-15477674D02*
X8612205Y-15525293D01*
X8612205Y-15525293D02*
X8602682Y-15563388D01*
X8602682Y-15563388D02*
X8593158Y-15582436D01*
X8593158Y-15582436D02*
X8583634Y-15591960D01*
X8583634Y-15591960D02*
X8564586Y-15601484D01*
X8564586Y-15601484D02*
X8545539Y-15601484D01*
X8545539Y-15601484D02*
X8526491Y-15591960D01*
X8526491Y-15591960D02*
X8516967Y-15582436D01*
X8516967Y-15582436D02*
X8507444Y-15563388D01*
X8507444Y-15563388D02*
X8497920Y-15525293D01*
X8497920Y-15525293D02*
X8497920Y-15477674D01*
X8497920Y-15477674D02*
X8507444Y-15439579D01*
X8507444Y-15439579D02*
X8516967Y-15420531D01*
X8516967Y-15420531D02*
X8526491Y-15411008D01*
X8526491Y-15411008D02*
X8545539Y-15401484D01*
X8697920Y-15601484D02*
X8697920Y-15468150D01*
X8697920Y-15487198D02*
X8707444Y-15477674D01*
X8707444Y-15477674D02*
X8726491Y-15468150D01*
X8726491Y-15468150D02*
X8755063Y-15468150D01*
X8755063Y-15468150D02*
X8774110Y-15477674D01*
X8774110Y-15477674D02*
X8783634Y-15496722D01*
X8783634Y-15496722D02*
X8783634Y-15601484D01*
X8783634Y-15496722D02*
X8793158Y-15477674D01*
X8793158Y-15477674D02*
X8812205Y-15468150D01*
X8812205Y-15468150D02*
X8840777Y-15468150D01*
X8840777Y-15468150D02*
X8859825Y-15477674D01*
X8859825Y-15477674D02*
X8869348Y-15496722D01*
X8869348Y-15496722D02*
X8869348Y-15601484D01*
X8964586Y-15601484D02*
X8964586Y-15468150D01*
X8964586Y-15487198D02*
X8974110Y-15477674D01*
X8974110Y-15477674D02*
X8993158Y-15468150D01*
X8993158Y-15468150D02*
X9021729Y-15468150D01*
X9021729Y-15468150D02*
X9040777Y-15477674D01*
X9040777Y-15477674D02*
X9050301Y-15496722D01*
X9050301Y-15496722D02*
X9050301Y-15601484D01*
X9050301Y-15496722D02*
X9059825Y-15477674D01*
X9059825Y-15477674D02*
X9078872Y-15468150D01*
X9078872Y-15468150D02*
X9107444Y-15468150D01*
X9107444Y-15468150D02*
X9126491Y-15477674D01*
X9126491Y-15477674D02*
X9136015Y-15496722D01*
X9136015Y-15496722D02*
X9136015Y-15601484D01*
X9526491Y-15391960D02*
X9355063Y-15649103D01*
X9783634Y-15401484D02*
X9802682Y-15401484D01*
X9802682Y-15401484D02*
X9821729Y-15411008D01*
X9821729Y-15411008D02*
X9831253Y-15420531D01*
X9831253Y-15420531D02*
X9840777Y-15439579D01*
X9840777Y-15439579D02*
X9850301Y-15477674D01*
X9850301Y-15477674D02*
X9850301Y-15525293D01*
X9850301Y-15525293D02*
X9840777Y-15563388D01*
X9840777Y-15563388D02*
X9831253Y-15582436D01*
X9831253Y-15582436D02*
X9821729Y-15591960D01*
X9821729Y-15591960D02*
X9802682Y-15601484D01*
X9802682Y-15601484D02*
X9783634Y-15601484D01*
X9783634Y-15601484D02*
X9764587Y-15591960D01*
X9764587Y-15591960D02*
X9755063Y-15582436D01*
X9755063Y-15582436D02*
X9745539Y-15563388D01*
X9745539Y-15563388D02*
X9736015Y-15525293D01*
X9736015Y-15525293D02*
X9736015Y-15477674D01*
X9736015Y-15477674D02*
X9745539Y-15439579D01*
X9745539Y-15439579D02*
X9755063Y-15420531D01*
X9755063Y-15420531D02*
X9764587Y-15411008D01*
X9764587Y-15411008D02*
X9783634Y-15401484D01*
X9936015Y-15582436D02*
X9945539Y-15591960D01*
X9945539Y-15591960D02*
X9936015Y-15601484D01*
X9936015Y-15601484D02*
X9926491Y-15591960D01*
X9926491Y-15591960D02*
X9936015Y-15582436D01*
X9936015Y-15582436D02*
X9936015Y-15601484D01*
X10069348Y-15401484D02*
X10088396Y-15401484D01*
X10088396Y-15401484D02*
X10107444Y-15411008D01*
X10107444Y-15411008D02*
X10116968Y-15420531D01*
X10116968Y-15420531D02*
X10126491Y-15439579D01*
X10126491Y-15439579D02*
X10136015Y-15477674D01*
X10136015Y-15477674D02*
X10136015Y-15525293D01*
X10136015Y-15525293D02*
X10126491Y-15563388D01*
X10126491Y-15563388D02*
X10116968Y-15582436D01*
X10116968Y-15582436D02*
X10107444Y-15591960D01*
X10107444Y-15591960D02*
X10088396Y-15601484D01*
X10088396Y-15601484D02*
X10069348Y-15601484D01*
X10069348Y-15601484D02*
X10050301Y-15591960D01*
X10050301Y-15591960D02*
X10040777Y-15582436D01*
X10040777Y-15582436D02*
X10031253Y-15563388D01*
X10031253Y-15563388D02*
X10021729Y-15525293D01*
X10021729Y-15525293D02*
X10021729Y-15477674D01*
X10021729Y-15477674D02*
X10031253Y-15439579D01*
X10031253Y-15439579D02*
X10040777Y-15420531D01*
X10040777Y-15420531D02*
X10050301Y-15411008D01*
X10050301Y-15411008D02*
X10069348Y-15401484D01*
X10326491Y-15601484D02*
X10212206Y-15601484D01*
X10269348Y-15601484D02*
X10269348Y-15401484D01*
X10269348Y-15401484D02*
X10250301Y-15430055D01*
X10250301Y-15430055D02*
X10231253Y-15449103D01*
X10231253Y-15449103D02*
X10212206Y-15458627D01*
X10507444Y-15401484D02*
X10412206Y-15401484D01*
X10412206Y-15401484D02*
X10402682Y-15496722D01*
X10402682Y-15496722D02*
X10412206Y-15487198D01*
X10412206Y-15487198D02*
X10431253Y-15477674D01*
X10431253Y-15477674D02*
X10478872Y-15477674D01*
X10478872Y-15477674D02*
X10497920Y-15487198D01*
X10497920Y-15487198D02*
X10507444Y-15496722D01*
X10507444Y-15496722D02*
X10516968Y-15515769D01*
X10516968Y-15515769D02*
X10516968Y-15563388D01*
X10516968Y-15563388D02*
X10507444Y-15582436D01*
X10507444Y-15582436D02*
X10497920Y-15591960D01*
X10497920Y-15591960D02*
X10478872Y-15601484D01*
X10478872Y-15601484D02*
X10431253Y-15601484D01*
X10431253Y-15601484D02*
X10412206Y-15591960D01*
X10412206Y-15591960D02*
X10402682Y-15582436D01*
X10583634Y-15401484D02*
X10716968Y-15401484D01*
X10716968Y-15401484D02*
X10631253Y-15601484D01*
X10783634Y-15401484D02*
X10783634Y-15439579D01*
X10859825Y-15401484D02*
X10859825Y-15439579D01*
X11155063Y-15677674D02*
X11145539Y-15668150D01*
X11145539Y-15668150D02*
X11126491Y-15639579D01*
X11126491Y-15639579D02*
X11116968Y-15620531D01*
X11116968Y-15620531D02*
X11107444Y-15591960D01*
X11107444Y-15591960D02*
X11097920Y-15544341D01*
X11097920Y-15544341D02*
X11097920Y-15506246D01*
X11097920Y-15506246D02*
X11107444Y-15458627D01*
X11107444Y-15458627D02*
X11116968Y-15430055D01*
X11116968Y-15430055D02*
X11126491Y-15411008D01*
X11126491Y-15411008D02*
X11145539Y-15382436D01*
X11145539Y-15382436D02*
X11155063Y-15372912D01*
X11221729Y-15420531D02*
X11231253Y-15411008D01*
X11231253Y-15411008D02*
X11250301Y-15401484D01*
X11250301Y-15401484D02*
X11297920Y-15401484D01*
X11297920Y-15401484D02*
X11316968Y-15411008D01*
X11316968Y-15411008D02*
X11326491Y-15420531D01*
X11326491Y-15420531D02*
X11336015Y-15439579D01*
X11336015Y-15439579D02*
X11336015Y-15458627D01*
X11336015Y-15458627D02*
X11326491Y-15487198D01*
X11326491Y-15487198D02*
X11212206Y-15601484D01*
X11212206Y-15601484D02*
X11336015Y-15601484D01*
X11402682Y-15401484D02*
X11526491Y-15401484D01*
X11526491Y-15401484D02*
X11459825Y-15477674D01*
X11459825Y-15477674D02*
X11488396Y-15477674D01*
X11488396Y-15477674D02*
X11507444Y-15487198D01*
X11507444Y-15487198D02*
X11516968Y-15496722D01*
X11516968Y-15496722D02*
X11526491Y-15515769D01*
X11526491Y-15515769D02*
X11526491Y-15563388D01*
X11526491Y-15563388D02*
X11516968Y-15582436D01*
X11516968Y-15582436D02*
X11507444Y-15591960D01*
X11507444Y-15591960D02*
X11488396Y-15601484D01*
X11488396Y-15601484D02*
X11431253Y-15601484D01*
X11431253Y-15601484D02*
X11412206Y-15591960D01*
X11412206Y-15591960D02*
X11402682Y-15582436D01*
X11697920Y-15401484D02*
X11659825Y-15401484D01*
X11659825Y-15401484D02*
X11640777Y-15411008D01*
X11640777Y-15411008D02*
X11631253Y-15420531D01*
X11631253Y-15420531D02*
X11612206Y-15449103D01*
X11612206Y-15449103D02*
X11602682Y-15487198D01*
X11602682Y-15487198D02*
X11602682Y-15563388D01*
X11602682Y-15563388D02*
X11612206Y-15582436D01*
X11612206Y-15582436D02*
X11621729Y-15591960D01*
X11621729Y-15591960D02*
X11640777Y-15601484D01*
X11640777Y-15601484D02*
X11678872Y-15601484D01*
X11678872Y-15601484D02*
X11697920Y-15591960D01*
X11697920Y-15591960D02*
X11707444Y-15582436D01*
X11707444Y-15582436D02*
X11716968Y-15563388D01*
X11716968Y-15563388D02*
X11716968Y-15515769D01*
X11716968Y-15515769D02*
X11707444Y-15496722D01*
X11707444Y-15496722D02*
X11697920Y-15487198D01*
X11697920Y-15487198D02*
X11678872Y-15477674D01*
X11678872Y-15477674D02*
X11640777Y-15477674D01*
X11640777Y-15477674D02*
X11621729Y-15487198D01*
X11621729Y-15487198D02*
X11612206Y-15496722D01*
X11612206Y-15496722D02*
X11602682Y-15515769D01*
X11955063Y-15601484D02*
X11955063Y-15401484D01*
X12040777Y-15601484D02*
X12040777Y-15496722D01*
X12040777Y-15496722D02*
X12031253Y-15477674D01*
X12031253Y-15477674D02*
X12012206Y-15468150D01*
X12012206Y-15468150D02*
X11983634Y-15468150D01*
X11983634Y-15468150D02*
X11964587Y-15477674D01*
X11964587Y-15477674D02*
X11955063Y-15487198D01*
X12164587Y-15601484D02*
X12145539Y-15591960D01*
X12145539Y-15591960D02*
X12136015Y-15582436D01*
X12136015Y-15582436D02*
X12126491Y-15563388D01*
X12126491Y-15563388D02*
X12126491Y-15506246D01*
X12126491Y-15506246D02*
X12136015Y-15487198D01*
X12136015Y-15487198D02*
X12145539Y-15477674D01*
X12145539Y-15477674D02*
X12164587Y-15468150D01*
X12164587Y-15468150D02*
X12193158Y-15468150D01*
X12193158Y-15468150D02*
X12212206Y-15477674D01*
X12212206Y-15477674D02*
X12221730Y-15487198D01*
X12221730Y-15487198D02*
X12231253Y-15506246D01*
X12231253Y-15506246D02*
X12231253Y-15563388D01*
X12231253Y-15563388D02*
X12221730Y-15582436D01*
X12221730Y-15582436D02*
X12212206Y-15591960D01*
X12212206Y-15591960D02*
X12193158Y-15601484D01*
X12193158Y-15601484D02*
X12164587Y-15601484D01*
X12345539Y-15601484D02*
X12326491Y-15591960D01*
X12326491Y-15591960D02*
X12316968Y-15572912D01*
X12316968Y-15572912D02*
X12316968Y-15401484D01*
X12497920Y-15591960D02*
X12478872Y-15601484D01*
X12478872Y-15601484D02*
X12440777Y-15601484D01*
X12440777Y-15601484D02*
X12421730Y-15591960D01*
X12421730Y-15591960D02*
X12412206Y-15572912D01*
X12412206Y-15572912D02*
X12412206Y-15496722D01*
X12412206Y-15496722D02*
X12421730Y-15477674D01*
X12421730Y-15477674D02*
X12440777Y-15468150D01*
X12440777Y-15468150D02*
X12478872Y-15468150D01*
X12478872Y-15468150D02*
X12497920Y-15477674D01*
X12497920Y-15477674D02*
X12507444Y-15496722D01*
X12507444Y-15496722D02*
X12507444Y-15515769D01*
X12507444Y-15515769D02*
X12412206Y-15534817D01*
X12583634Y-15591960D02*
X12602682Y-15601484D01*
X12602682Y-15601484D02*
X12640777Y-15601484D01*
X12640777Y-15601484D02*
X12659825Y-15591960D01*
X12659825Y-15591960D02*
X12669349Y-15572912D01*
X12669349Y-15572912D02*
X12669349Y-15563388D01*
X12669349Y-15563388D02*
X12659825Y-15544341D01*
X12659825Y-15544341D02*
X12640777Y-15534817D01*
X12640777Y-15534817D02*
X12612206Y-15534817D01*
X12612206Y-15534817D02*
X12593158Y-15525293D01*
X12593158Y-15525293D02*
X12583634Y-15506246D01*
X12583634Y-15506246D02*
X12583634Y-15496722D01*
X12583634Y-15496722D02*
X12593158Y-15477674D01*
X12593158Y-15477674D02*
X12612206Y-15468150D01*
X12612206Y-15468150D02*
X12640777Y-15468150D01*
X12640777Y-15468150D02*
X12659825Y-15477674D01*
X12736015Y-15677674D02*
X12745539Y-15668150D01*
X12745539Y-15668150D02*
X12764587Y-15639579D01*
X12764587Y-15639579D02*
X12774111Y-15620531D01*
X12774111Y-15620531D02*
X12783634Y-15591960D01*
X12783634Y-15591960D02*
X12793158Y-15544341D01*
X12793158Y-15544341D02*
X12793158Y-15506246D01*
X12793158Y-15506246D02*
X12783634Y-15458627D01*
X12783634Y-15458627D02*
X12774111Y-15430055D01*
X12774111Y-15430055D02*
X12764587Y-15411008D01*
X12764587Y-15411008D02*
X12745539Y-15382436D01*
X12745539Y-15382436D02*
X12736015Y-15372912D01*
D11*
X7580000Y-15774000D02*
G75*
G02*
X7500000Y-15774000I-40000J0D01*
G01*
X7500000Y-15774000D02*
G75*
G02*
X7580000Y-15774000I40000J0D01*
G01*
D10*
X7878872Y-15665484D02*
X7897920Y-15665484D01*
X7897920Y-15665484D02*
X7916967Y-15675008D01*
X7916967Y-15675008D02*
X7926491Y-15684531D01*
X7926491Y-15684531D02*
X7936015Y-15703579D01*
X7936015Y-15703579D02*
X7945539Y-15741674D01*
X7945539Y-15741674D02*
X7945539Y-15789293D01*
X7945539Y-15789293D02*
X7936015Y-15827388D01*
X7936015Y-15827388D02*
X7926491Y-15846436D01*
X7926491Y-15846436D02*
X7916967Y-15855960D01*
X7916967Y-15855960D02*
X7897920Y-15865484D01*
X7897920Y-15865484D02*
X7878872Y-15865484D01*
X7878872Y-15865484D02*
X7859824Y-15855960D01*
X7859824Y-15855960D02*
X7850301Y-15846436D01*
X7850301Y-15846436D02*
X7840777Y-15827388D01*
X7840777Y-15827388D02*
X7831253Y-15789293D01*
X7831253Y-15789293D02*
X7831253Y-15741674D01*
X7831253Y-15741674D02*
X7840777Y-15703579D01*
X7840777Y-15703579D02*
X7850301Y-15684531D01*
X7850301Y-15684531D02*
X7859824Y-15675008D01*
X7859824Y-15675008D02*
X7878872Y-15665484D01*
X8031253Y-15846436D02*
X8040777Y-15855960D01*
X8040777Y-15855960D02*
X8031253Y-15865484D01*
X8031253Y-15865484D02*
X8021729Y-15855960D01*
X8021729Y-15855960D02*
X8031253Y-15846436D01*
X8031253Y-15846436D02*
X8031253Y-15865484D01*
X8155062Y-15751198D02*
X8136015Y-15741674D01*
X8136015Y-15741674D02*
X8126491Y-15732150D01*
X8126491Y-15732150D02*
X8116967Y-15713103D01*
X8116967Y-15713103D02*
X8116967Y-15703579D01*
X8116967Y-15703579D02*
X8126491Y-15684531D01*
X8126491Y-15684531D02*
X8136015Y-15675008D01*
X8136015Y-15675008D02*
X8155062Y-15665484D01*
X8155062Y-15665484D02*
X8193158Y-15665484D01*
X8193158Y-15665484D02*
X8212205Y-15675008D01*
X8212205Y-15675008D02*
X8221729Y-15684531D01*
X8221729Y-15684531D02*
X8231253Y-15703579D01*
X8231253Y-15703579D02*
X8231253Y-15713103D01*
X8231253Y-15713103D02*
X8221729Y-15732150D01*
X8221729Y-15732150D02*
X8212205Y-15741674D01*
X8212205Y-15741674D02*
X8193158Y-15751198D01*
X8193158Y-15751198D02*
X8155062Y-15751198D01*
X8155062Y-15751198D02*
X8136015Y-15760722D01*
X8136015Y-15760722D02*
X8126491Y-15770246D01*
X8126491Y-15770246D02*
X8116967Y-15789293D01*
X8116967Y-15789293D02*
X8116967Y-15827388D01*
X8116967Y-15827388D02*
X8126491Y-15846436D01*
X8126491Y-15846436D02*
X8136015Y-15855960D01*
X8136015Y-15855960D02*
X8155062Y-15865484D01*
X8155062Y-15865484D02*
X8193158Y-15865484D01*
X8193158Y-15865484D02*
X8212205Y-15855960D01*
X8212205Y-15855960D02*
X8221729Y-15846436D01*
X8221729Y-15846436D02*
X8231253Y-15827388D01*
X8231253Y-15827388D02*
X8231253Y-15789293D01*
X8231253Y-15789293D02*
X8221729Y-15770246D01*
X8221729Y-15770246D02*
X8212205Y-15760722D01*
X8212205Y-15760722D02*
X8193158Y-15751198D01*
X8355062Y-15665484D02*
X8374110Y-15665484D01*
X8374110Y-15665484D02*
X8393158Y-15675008D01*
X8393158Y-15675008D02*
X8402682Y-15684531D01*
X8402682Y-15684531D02*
X8412205Y-15703579D01*
X8412205Y-15703579D02*
X8421729Y-15741674D01*
X8421729Y-15741674D02*
X8421729Y-15789293D01*
X8421729Y-15789293D02*
X8412205Y-15827388D01*
X8412205Y-15827388D02*
X8402682Y-15846436D01*
X8402682Y-15846436D02*
X8393158Y-15855960D01*
X8393158Y-15855960D02*
X8374110Y-15865484D01*
X8374110Y-15865484D02*
X8355062Y-15865484D01*
X8355062Y-15865484D02*
X8336015Y-15855960D01*
X8336015Y-15855960D02*
X8326491Y-15846436D01*
X8326491Y-15846436D02*
X8316967Y-15827388D01*
X8316967Y-15827388D02*
X8307443Y-15789293D01*
X8307443Y-15789293D02*
X8307443Y-15741674D01*
X8307443Y-15741674D02*
X8316967Y-15703579D01*
X8316967Y-15703579D02*
X8326491Y-15684531D01*
X8326491Y-15684531D02*
X8336015Y-15675008D01*
X8336015Y-15675008D02*
X8355062Y-15665484D01*
X8545539Y-15665484D02*
X8564586Y-15665484D01*
X8564586Y-15665484D02*
X8583634Y-15675008D01*
X8583634Y-15675008D02*
X8593158Y-15684531D01*
X8593158Y-15684531D02*
X8602682Y-15703579D01*
X8602682Y-15703579D02*
X8612205Y-15741674D01*
X8612205Y-15741674D02*
X8612205Y-15789293D01*
X8612205Y-15789293D02*
X8602682Y-15827388D01*
X8602682Y-15827388D02*
X8593158Y-15846436D01*
X8593158Y-15846436D02*
X8583634Y-15855960D01*
X8583634Y-15855960D02*
X8564586Y-15865484D01*
X8564586Y-15865484D02*
X8545539Y-15865484D01*
X8545539Y-15865484D02*
X8526491Y-15855960D01*
X8526491Y-15855960D02*
X8516967Y-15846436D01*
X8516967Y-15846436D02*
X8507444Y-15827388D01*
X8507444Y-15827388D02*
X8497920Y-15789293D01*
X8497920Y-15789293D02*
X8497920Y-15741674D01*
X8497920Y-15741674D02*
X8507444Y-15703579D01*
X8507444Y-15703579D02*
X8516967Y-15684531D01*
X8516967Y-15684531D02*
X8526491Y-15675008D01*
X8526491Y-15675008D02*
X8545539Y-15665484D01*
X8697920Y-15865484D02*
X8697920Y-15732150D01*
X8697920Y-15751198D02*
X8707444Y-15741674D01*
X8707444Y-15741674D02*
X8726491Y-15732150D01*
X8726491Y-15732150D02*
X8755063Y-15732150D01*
X8755063Y-15732150D02*
X8774110Y-15741674D01*
X8774110Y-15741674D02*
X8783634Y-15760722D01*
X8783634Y-15760722D02*
X8783634Y-15865484D01*
X8783634Y-15760722D02*
X8793158Y-15741674D01*
X8793158Y-15741674D02*
X8812205Y-15732150D01*
X8812205Y-15732150D02*
X8840777Y-15732150D01*
X8840777Y-15732150D02*
X8859825Y-15741674D01*
X8859825Y-15741674D02*
X8869348Y-15760722D01*
X8869348Y-15760722D02*
X8869348Y-15865484D01*
X8964586Y-15865484D02*
X8964586Y-15732150D01*
X8964586Y-15751198D02*
X8974110Y-15741674D01*
X8974110Y-15741674D02*
X8993158Y-15732150D01*
X8993158Y-15732150D02*
X9021729Y-15732150D01*
X9021729Y-15732150D02*
X9040777Y-15741674D01*
X9040777Y-15741674D02*
X9050301Y-15760722D01*
X9050301Y-15760722D02*
X9050301Y-15865484D01*
X9050301Y-15760722D02*
X9059825Y-15741674D01*
X9059825Y-15741674D02*
X9078872Y-15732150D01*
X9078872Y-15732150D02*
X9107444Y-15732150D01*
X9107444Y-15732150D02*
X9126491Y-15741674D01*
X9126491Y-15741674D02*
X9136015Y-15760722D01*
X9136015Y-15760722D02*
X9136015Y-15865484D01*
X9526491Y-15655960D02*
X9355063Y-15913103D01*
X9783634Y-15665484D02*
X9802682Y-15665484D01*
X9802682Y-15665484D02*
X9821729Y-15675008D01*
X9821729Y-15675008D02*
X9831253Y-15684531D01*
X9831253Y-15684531D02*
X9840777Y-15703579D01*
X9840777Y-15703579D02*
X9850301Y-15741674D01*
X9850301Y-15741674D02*
X9850301Y-15789293D01*
X9850301Y-15789293D02*
X9840777Y-15827388D01*
X9840777Y-15827388D02*
X9831253Y-15846436D01*
X9831253Y-15846436D02*
X9821729Y-15855960D01*
X9821729Y-15855960D02*
X9802682Y-15865484D01*
X9802682Y-15865484D02*
X9783634Y-15865484D01*
X9783634Y-15865484D02*
X9764587Y-15855960D01*
X9764587Y-15855960D02*
X9755063Y-15846436D01*
X9755063Y-15846436D02*
X9745539Y-15827388D01*
X9745539Y-15827388D02*
X9736015Y-15789293D01*
X9736015Y-15789293D02*
X9736015Y-15741674D01*
X9736015Y-15741674D02*
X9745539Y-15703579D01*
X9745539Y-15703579D02*
X9755063Y-15684531D01*
X9755063Y-15684531D02*
X9764587Y-15675008D01*
X9764587Y-15675008D02*
X9783634Y-15665484D01*
X9936015Y-15846436D02*
X9945539Y-15855960D01*
X9945539Y-15855960D02*
X9936015Y-15865484D01*
X9936015Y-15865484D02*
X9926491Y-15855960D01*
X9926491Y-15855960D02*
X9936015Y-15846436D01*
X9936015Y-15846436D02*
X9936015Y-15865484D01*
X10069348Y-15665484D02*
X10088396Y-15665484D01*
X10088396Y-15665484D02*
X10107444Y-15675008D01*
X10107444Y-15675008D02*
X10116968Y-15684531D01*
X10116968Y-15684531D02*
X10126491Y-15703579D01*
X10126491Y-15703579D02*
X10136015Y-15741674D01*
X10136015Y-15741674D02*
X10136015Y-15789293D01*
X10136015Y-15789293D02*
X10126491Y-15827388D01*
X10126491Y-15827388D02*
X10116968Y-15846436D01*
X10116968Y-15846436D02*
X10107444Y-15855960D01*
X10107444Y-15855960D02*
X10088396Y-15865484D01*
X10088396Y-15865484D02*
X10069348Y-15865484D01*
X10069348Y-15865484D02*
X10050301Y-15855960D01*
X10050301Y-15855960D02*
X10040777Y-15846436D01*
X10040777Y-15846436D02*
X10031253Y-15827388D01*
X10031253Y-15827388D02*
X10021729Y-15789293D01*
X10021729Y-15789293D02*
X10021729Y-15741674D01*
X10021729Y-15741674D02*
X10031253Y-15703579D01*
X10031253Y-15703579D02*
X10040777Y-15684531D01*
X10040777Y-15684531D02*
X10050301Y-15675008D01*
X10050301Y-15675008D02*
X10069348Y-15665484D01*
X10202682Y-15665484D02*
X10326491Y-15665484D01*
X10326491Y-15665484D02*
X10259825Y-15741674D01*
X10259825Y-15741674D02*
X10288396Y-15741674D01*
X10288396Y-15741674D02*
X10307444Y-15751198D01*
X10307444Y-15751198D02*
X10316968Y-15760722D01*
X10316968Y-15760722D02*
X10326491Y-15779769D01*
X10326491Y-15779769D02*
X10326491Y-15827388D01*
X10326491Y-15827388D02*
X10316968Y-15846436D01*
X10316968Y-15846436D02*
X10307444Y-15855960D01*
X10307444Y-15855960D02*
X10288396Y-15865484D01*
X10288396Y-15865484D02*
X10231253Y-15865484D01*
X10231253Y-15865484D02*
X10212206Y-15855960D01*
X10212206Y-15855960D02*
X10202682Y-15846436D01*
X10516968Y-15865484D02*
X10402682Y-15865484D01*
X10459825Y-15865484D02*
X10459825Y-15665484D01*
X10459825Y-15665484D02*
X10440777Y-15694055D01*
X10440777Y-15694055D02*
X10421729Y-15713103D01*
X10421729Y-15713103D02*
X10402682Y-15722627D01*
X10697920Y-15665484D02*
X10602682Y-15665484D01*
X10602682Y-15665484D02*
X10593158Y-15760722D01*
X10593158Y-15760722D02*
X10602682Y-15751198D01*
X10602682Y-15751198D02*
X10621729Y-15741674D01*
X10621729Y-15741674D02*
X10669349Y-15741674D01*
X10669349Y-15741674D02*
X10688396Y-15751198D01*
X10688396Y-15751198D02*
X10697920Y-15760722D01*
X10697920Y-15760722D02*
X10707444Y-15779769D01*
X10707444Y-15779769D02*
X10707444Y-15827388D01*
X10707444Y-15827388D02*
X10697920Y-15846436D01*
X10697920Y-15846436D02*
X10688396Y-15855960D01*
X10688396Y-15855960D02*
X10669349Y-15865484D01*
X10669349Y-15865484D02*
X10621729Y-15865484D01*
X10621729Y-15865484D02*
X10602682Y-15855960D01*
X10602682Y-15855960D02*
X10593158Y-15846436D01*
X10783634Y-15665484D02*
X10783634Y-15703579D01*
X10859825Y-15665484D02*
X10859825Y-15703579D01*
X11155063Y-15941674D02*
X11145539Y-15932150D01*
X11145539Y-15932150D02*
X11126491Y-15903579D01*
X11126491Y-15903579D02*
X11116968Y-15884531D01*
X11116968Y-15884531D02*
X11107444Y-15855960D01*
X11107444Y-15855960D02*
X11097920Y-15808341D01*
X11097920Y-15808341D02*
X11097920Y-15770246D01*
X11097920Y-15770246D02*
X11107444Y-15722627D01*
X11107444Y-15722627D02*
X11116968Y-15694055D01*
X11116968Y-15694055D02*
X11126491Y-15675008D01*
X11126491Y-15675008D02*
X11145539Y-15646436D01*
X11145539Y-15646436D02*
X11155063Y-15636912D01*
X11212206Y-15665484D02*
X11345539Y-15665484D01*
X11345539Y-15665484D02*
X11259825Y-15865484D01*
X11450301Y-15751198D02*
X11431253Y-15741674D01*
X11431253Y-15741674D02*
X11421729Y-15732150D01*
X11421729Y-15732150D02*
X11412206Y-15713103D01*
X11412206Y-15713103D02*
X11412206Y-15703579D01*
X11412206Y-15703579D02*
X11421729Y-15684531D01*
X11421729Y-15684531D02*
X11431253Y-15675008D01*
X11431253Y-15675008D02*
X11450301Y-15665484D01*
X11450301Y-15665484D02*
X11488396Y-15665484D01*
X11488396Y-15665484D02*
X11507444Y-15675008D01*
X11507444Y-15675008D02*
X11516968Y-15684531D01*
X11516968Y-15684531D02*
X11526491Y-15703579D01*
X11526491Y-15703579D02*
X11526491Y-15713103D01*
X11526491Y-15713103D02*
X11516968Y-15732150D01*
X11516968Y-15732150D02*
X11507444Y-15741674D01*
X11507444Y-15741674D02*
X11488396Y-15751198D01*
X11488396Y-15751198D02*
X11450301Y-15751198D01*
X11450301Y-15751198D02*
X11431253Y-15760722D01*
X11431253Y-15760722D02*
X11421729Y-15770246D01*
X11421729Y-15770246D02*
X11412206Y-15789293D01*
X11412206Y-15789293D02*
X11412206Y-15827388D01*
X11412206Y-15827388D02*
X11421729Y-15846436D01*
X11421729Y-15846436D02*
X11431253Y-15855960D01*
X11431253Y-15855960D02*
X11450301Y-15865484D01*
X11450301Y-15865484D02*
X11488396Y-15865484D01*
X11488396Y-15865484D02*
X11507444Y-15855960D01*
X11507444Y-15855960D02*
X11516968Y-15846436D01*
X11516968Y-15846436D02*
X11526491Y-15827388D01*
X11526491Y-15827388D02*
X11526491Y-15789293D01*
X11526491Y-15789293D02*
X11516968Y-15770246D01*
X11516968Y-15770246D02*
X11507444Y-15760722D01*
X11507444Y-15760722D02*
X11488396Y-15751198D01*
X11764587Y-15865484D02*
X11764587Y-15665484D01*
X11850301Y-15865484D02*
X11850301Y-15760722D01*
X11850301Y-15760722D02*
X11840777Y-15741674D01*
X11840777Y-15741674D02*
X11821730Y-15732150D01*
X11821730Y-15732150D02*
X11793158Y-15732150D01*
X11793158Y-15732150D02*
X11774110Y-15741674D01*
X11774110Y-15741674D02*
X11764587Y-15751198D01*
X11974110Y-15865484D02*
X11955063Y-15855960D01*
X11955063Y-15855960D02*
X11945539Y-15846436D01*
X11945539Y-15846436D02*
X11936015Y-15827388D01*
X11936015Y-15827388D02*
X11936015Y-15770246D01*
X11936015Y-15770246D02*
X11945539Y-15751198D01*
X11945539Y-15751198D02*
X11955063Y-15741674D01*
X11955063Y-15741674D02*
X11974110Y-15732150D01*
X11974110Y-15732150D02*
X12002682Y-15732150D01*
X12002682Y-15732150D02*
X12021730Y-15741674D01*
X12021730Y-15741674D02*
X12031253Y-15751198D01*
X12031253Y-15751198D02*
X12040777Y-15770246D01*
X12040777Y-15770246D02*
X12040777Y-15827388D01*
X12040777Y-15827388D02*
X12031253Y-15846436D01*
X12031253Y-15846436D02*
X12021730Y-15855960D01*
X12021730Y-15855960D02*
X12002682Y-15865484D01*
X12002682Y-15865484D02*
X11974110Y-15865484D01*
X12155063Y-15865484D02*
X12136015Y-15855960D01*
X12136015Y-15855960D02*
X12126491Y-15836912D01*
X12126491Y-15836912D02*
X12126491Y-15665484D01*
X12307444Y-15855960D02*
X12288396Y-15865484D01*
X12288396Y-15865484D02*
X12250301Y-15865484D01*
X12250301Y-15865484D02*
X12231253Y-15855960D01*
X12231253Y-15855960D02*
X12221730Y-15836912D01*
X12221730Y-15836912D02*
X12221730Y-15760722D01*
X12221730Y-15760722D02*
X12231253Y-15741674D01*
X12231253Y-15741674D02*
X12250301Y-15732150D01*
X12250301Y-15732150D02*
X12288396Y-15732150D01*
X12288396Y-15732150D02*
X12307444Y-15741674D01*
X12307444Y-15741674D02*
X12316968Y-15760722D01*
X12316968Y-15760722D02*
X12316968Y-15779769D01*
X12316968Y-15779769D02*
X12221730Y-15798817D01*
X12393158Y-15855960D02*
X12412206Y-15865484D01*
X12412206Y-15865484D02*
X12450301Y-15865484D01*
X12450301Y-15865484D02*
X12469349Y-15855960D01*
X12469349Y-15855960D02*
X12478872Y-15836912D01*
X12478872Y-15836912D02*
X12478872Y-15827388D01*
X12478872Y-15827388D02*
X12469349Y-15808341D01*
X12469349Y-15808341D02*
X12450301Y-15798817D01*
X12450301Y-15798817D02*
X12421730Y-15798817D01*
X12421730Y-15798817D02*
X12402682Y-15789293D01*
X12402682Y-15789293D02*
X12393158Y-15770246D01*
X12393158Y-15770246D02*
X12393158Y-15760722D01*
X12393158Y-15760722D02*
X12402682Y-15741674D01*
X12402682Y-15741674D02*
X12421730Y-15732150D01*
X12421730Y-15732150D02*
X12450301Y-15732150D01*
X12450301Y-15732150D02*
X12469349Y-15741674D01*
X12545539Y-15941674D02*
X12555063Y-15932150D01*
X12555063Y-15932150D02*
X12574111Y-15903579D01*
X12574111Y-15903579D02*
X12583634Y-15884531D01*
X12583634Y-15884531D02*
X12593158Y-15855960D01*
X12593158Y-15855960D02*
X12602682Y-15808341D01*
X12602682Y-15808341D02*
X12602682Y-15770246D01*
X12602682Y-15770246D02*
X12593158Y-15722627D01*
X12593158Y-15722627D02*
X12583634Y-15694055D01*
X12583634Y-15694055D02*
X12574111Y-15675008D01*
X12574111Y-15675008D02*
X12555063Y-15646436D01*
X12555063Y-15646436D02*
X12545539Y-15636912D01*
M02*
