%TF.GenerationSoftware,KiCad,Pcbnew,9.0.0*%
%TF.CreationDate,2025-05-12T21:33:37-05:00*%
%TF.ProjectId,Model I RS232,4d6f6465-6c20-4492-9052-533233322e6b,2.1*%
%TF.SameCoordinates,Original*%
%TF.FileFunction,Drillmap*%
%TF.FilePolarity,Positive*%
%FSLAX45Y45*%
G04 Gerber Fmt 4.5, Leading zero omitted, Abs format (unit mm)*
G04 Created by KiCad (PCBNEW 9.0.0) date 2025-05-12 21:33:37*
%MOMM*%
%LPD*%
G01*
G04 APERTURE LIST*
%ADD10C,0.200000*%
%ADD11C,0.100000*%
G04 APERTURE END LIST*
D10*
X7590000Y-7460000D02*
X17440000Y-7460000D01*
X17440000Y-14665000D01*
X7590000Y-14665000D01*
X7590000Y-7460000D01*
D11*
X7715000Y-13040000D02*
X7755000Y-13080000D01*
X7755000Y-13040000D02*
X7715000Y-13080000D01*
X7715000Y-13170000D02*
X7755000Y-13210000D01*
X7755000Y-13170000D02*
X7715000Y-13210000D01*
X8460000Y-13040000D02*
X8500000Y-13080000D01*
X8500000Y-13040000D02*
X8460000Y-13080000D01*
X8460000Y-13170000D02*
X8500000Y-13210000D01*
X8500000Y-13170000D02*
X8460000Y-13210000D01*
X8475000Y-11646000D02*
X8515000Y-11686000D01*
X8515000Y-11646000D02*
X8475000Y-11686000D01*
X8475000Y-12020000D02*
X8515000Y-12060000D01*
X8515000Y-12020000D02*
X8475000Y-12060000D01*
X8480000Y-10610000D02*
X8520000Y-10650000D01*
X8520000Y-10610000D02*
X8480000Y-10650000D01*
X8480000Y-11895000D02*
X8520000Y-11935000D01*
X8520000Y-11895000D02*
X8480000Y-11935000D01*
X8480000Y-12290000D02*
X8520000Y-12330000D01*
X8520000Y-12290000D02*
X8480000Y-12330000D01*
X8490000Y-9365000D02*
X8530000Y-9405000D01*
X8530000Y-9365000D02*
X8490000Y-9405000D01*
X8490000Y-9487000D02*
X8530000Y-9527000D01*
X8530000Y-9487000D02*
X8490000Y-9527000D01*
X8500000Y-8850170D02*
X8540000Y-8890170D01*
X8540000Y-8850170D02*
X8500000Y-8890170D01*
X8505000Y-8720000D02*
X8545000Y-8760000D01*
X8545000Y-8720000D02*
X8505000Y-8760000D01*
X8575000Y-12160000D02*
X8615000Y-12200000D01*
X8615000Y-12160000D02*
X8575000Y-12200000D01*
X8575000Y-12020000D02*
X8615000Y-12060000D01*
X8615000Y-12020000D02*
X8575000Y-12060000D01*
X8578117Y-12374506D02*
X8618117Y-12414506D01*
X8618117Y-12374506D02*
X8578117Y-12414506D01*
X8582903Y-9402000D02*
X8622903Y-9442000D01*
X8622903Y-9402000D02*
X8582903Y-9442000D01*
X8679801Y-12015199D02*
X8719801Y-12055199D01*
X8719801Y-12015199D02*
X8679801Y-12055199D01*
X8683103Y-12170299D02*
X8723103Y-12210299D01*
X8723103Y-12170299D02*
X8683103Y-12210299D01*
X8690000Y-9487000D02*
X8730000Y-9527000D01*
X8730000Y-9487000D02*
X8690000Y-9527000D01*
X8695000Y-10610000D02*
X8735000Y-10650000D01*
X8735000Y-10610000D02*
X8695000Y-10650000D01*
X8717500Y-10806500D02*
X8757500Y-10846500D01*
X8757500Y-10806500D02*
X8717500Y-10846500D01*
X8792500Y-10260000D02*
X8832500Y-10300000D01*
X8832500Y-10260000D02*
X8792500Y-10300000D01*
X8867500Y-10010000D02*
X8907500Y-10050000D01*
X8907500Y-10010000D02*
X8867500Y-10050000D01*
X8945000Y-9640000D02*
X8985000Y-9680000D01*
X8985000Y-9640000D02*
X8945000Y-9680000D01*
X9022500Y-10005000D02*
X9062500Y-10045000D01*
X9062500Y-10005000D02*
X9022500Y-10045000D01*
X9040993Y-8375500D02*
X9080993Y-8415500D01*
X9080993Y-8375500D02*
X9040993Y-8415500D01*
X9045000Y-13655000D02*
X9085000Y-13695000D01*
X9085000Y-13655000D02*
X9045000Y-13695000D01*
X9070000Y-8530500D02*
X9110000Y-8570500D01*
X9110000Y-8530500D02*
X9070000Y-8570500D01*
X9223435Y-8645580D02*
X9263435Y-8685580D01*
X9263435Y-8645580D02*
X9223435Y-8685580D01*
X9360000Y-8645680D02*
X9400000Y-8685680D01*
X9400000Y-8645680D02*
X9360000Y-8685680D01*
X9397400Y-12339370D02*
X9437400Y-12379370D01*
X9437400Y-12339370D02*
X9397400Y-12379370D01*
X9397400Y-12770080D02*
X9437400Y-12810080D01*
X9437400Y-12770080D02*
X9397400Y-12810080D01*
X9452500Y-11376000D02*
X9492500Y-11416000D01*
X9492500Y-11376000D02*
X9452500Y-11416000D01*
X9452500Y-11505000D02*
X9492500Y-11545000D01*
X9492500Y-11505000D02*
X9452500Y-11545000D01*
X9455000Y-9885000D02*
X9495000Y-9925000D01*
X9495000Y-9885000D02*
X9455000Y-9925000D01*
X9485000Y-9345000D02*
X9525000Y-9385000D01*
X9525000Y-9345000D02*
X9485000Y-9385000D01*
X9485000Y-9635000D02*
X9525000Y-9675000D01*
X9525000Y-9635000D02*
X9485000Y-9675000D01*
X9530000Y-10395860D02*
X9570000Y-10435860D01*
X9570000Y-10395860D02*
X9530000Y-10435860D01*
X9540000Y-8175000D02*
X9580000Y-8215000D01*
X9580000Y-8175000D02*
X9540000Y-8215000D01*
X9550000Y-8010000D02*
X9590000Y-8050000D01*
X9590000Y-8010000D02*
X9550000Y-8050000D01*
X9595000Y-13300000D02*
X9635000Y-13340000D01*
X9635000Y-13300000D02*
X9595000Y-13340000D01*
X9595000Y-13485730D02*
X9635000Y-13525730D01*
X9635000Y-13485730D02*
X9595000Y-13525730D01*
X9630000Y-10510000D02*
X9670000Y-10550000D01*
X9670000Y-10510000D02*
X9630000Y-10550000D01*
X9645000Y-12261700D02*
X9685000Y-12301700D01*
X9685000Y-12261700D02*
X9645000Y-12301700D01*
X9715000Y-9060000D02*
X9755000Y-9100000D01*
X9755000Y-9060000D02*
X9715000Y-9100000D01*
X9815000Y-13935000D02*
X9855000Y-13975000D01*
X9855000Y-13935000D02*
X9815000Y-13975000D01*
X9947500Y-13055000D02*
X9987500Y-13095000D01*
X9987500Y-13055000D02*
X9947500Y-13095000D01*
X9970000Y-10200000D02*
X10010000Y-10240000D01*
X10010000Y-10200000D02*
X9970000Y-10240000D01*
X10012500Y-12339370D02*
X10052500Y-12379370D01*
X10052500Y-12339370D02*
X10012500Y-12379370D01*
X10025000Y-13690000D02*
X10065000Y-13730000D01*
X10065000Y-13690000D02*
X10025000Y-13730000D01*
X10090000Y-12130000D02*
X10130000Y-12170000D01*
X10130000Y-12130000D02*
X10090000Y-12170000D01*
X10102500Y-13622172D02*
X10142500Y-13662172D01*
X10142500Y-13622172D02*
X10102500Y-13662172D01*
X10130000Y-10040000D02*
X10170000Y-10080000D01*
X10170000Y-10040000D02*
X10130000Y-10080000D01*
X10135000Y-12000000D02*
X10175000Y-12040000D01*
X10175000Y-12000000D02*
X10135000Y-12040000D01*
X10260000Y-8345000D02*
X10300000Y-8385000D01*
X10300000Y-8345000D02*
X10260000Y-8385000D01*
X10285000Y-8130000D02*
X10325000Y-8170000D01*
X10325000Y-8130000D02*
X10285000Y-8170000D01*
X10380000Y-14046210D02*
X10420000Y-14086210D01*
X10420000Y-14046210D02*
X10380000Y-14086210D01*
X10475000Y-12256520D02*
X10515000Y-12296520D01*
X10515000Y-12256520D02*
X10475000Y-12296520D01*
X10475000Y-13060000D02*
X10515000Y-13100000D01*
X10515000Y-13060000D02*
X10475000Y-13100000D01*
X10480000Y-11370000D02*
X10520000Y-11410000D01*
X10520000Y-11370000D02*
X10480000Y-11410000D01*
X10480000Y-11535000D02*
X10520000Y-11575000D01*
X10520000Y-11535000D02*
X10480000Y-11575000D01*
X10560000Y-11882940D02*
X10600000Y-11922940D01*
X10600000Y-11882940D02*
X10560000Y-11922940D01*
X10570000Y-7865000D02*
X10610000Y-7905000D01*
X10610000Y-7865000D02*
X10570000Y-7905000D01*
X10580000Y-9635000D02*
X10620000Y-9675000D01*
X10620000Y-9635000D02*
X10580000Y-9675000D01*
X10600000Y-10083500D02*
X10640000Y-10123500D01*
X10640000Y-10083500D02*
X10600000Y-10123500D01*
X10600000Y-10183500D02*
X10640000Y-10223500D01*
X10640000Y-10183500D02*
X10600000Y-10223500D01*
X10622500Y-8472500D02*
X10662500Y-8512500D01*
X10662500Y-8472500D02*
X10622500Y-8512500D01*
X10760000Y-8500000D02*
X10800000Y-8540000D01*
X10800000Y-8500000D02*
X10760000Y-8540000D01*
X10815000Y-8025000D02*
X10855000Y-8065000D01*
X10855000Y-8025000D02*
X10815000Y-8065000D01*
X10864955Y-11843548D02*
X10904955Y-11883548D01*
X10904955Y-11843548D02*
X10864955Y-11883548D01*
X10865000Y-10338500D02*
X10905000Y-10378500D01*
X10905000Y-10338500D02*
X10865000Y-10378500D01*
X10866042Y-11943542D02*
X10906042Y-11983542D01*
X10906042Y-11943542D02*
X10866042Y-11983542D01*
X11075100Y-10102500D02*
X11115100Y-10142500D01*
X11115100Y-10102500D02*
X11075100Y-10142500D01*
X11075200Y-10261000D02*
X11115200Y-10301000D01*
X11115200Y-10261000D02*
X11075200Y-10301000D01*
X11084582Y-12714980D02*
X11124582Y-12754980D01*
X11124582Y-12714980D02*
X11084582Y-12754980D01*
X11152500Y-11080000D02*
X11192500Y-11120000D01*
X11192500Y-11080000D02*
X11152500Y-11120000D01*
X11200000Y-13847460D02*
X11240000Y-13887460D01*
X11240000Y-13847460D02*
X11200000Y-13887460D01*
X11220000Y-11640000D02*
X11260000Y-11680000D01*
X11260000Y-11640000D02*
X11220000Y-11680000D01*
X11240000Y-13637360D02*
X11280000Y-13677360D01*
X11280000Y-13637360D02*
X11240000Y-13677360D01*
X11305000Y-12545000D02*
X11345000Y-12585000D01*
X11345000Y-12545000D02*
X11305000Y-12585000D01*
X11306194Y-11712500D02*
X11346194Y-11752500D01*
X11346194Y-11712500D02*
X11306194Y-11752500D01*
X11311071Y-13848929D02*
X11351071Y-13888929D01*
X11351071Y-13848929D02*
X11311071Y-13888929D01*
X11317445Y-13559860D02*
X11357445Y-13599860D01*
X11357445Y-13559860D02*
X11317445Y-13599860D01*
X11470000Y-10600000D02*
X11510000Y-10640000D01*
X11510000Y-10600000D02*
X11470000Y-10640000D01*
X11482500Y-8885000D02*
X11522500Y-8925000D01*
X11522500Y-8885000D02*
X11482500Y-8925000D01*
X11497724Y-9817276D02*
X11537724Y-9857276D01*
X11537724Y-9817276D02*
X11497724Y-9857276D01*
X11510000Y-11810000D02*
X11550000Y-11850000D01*
X11550000Y-11810000D02*
X11510000Y-11850000D01*
X11530000Y-10855000D02*
X11570000Y-10895000D01*
X11570000Y-10855000D02*
X11530000Y-10895000D01*
X11555000Y-8100000D02*
X11595000Y-8140000D01*
X11595000Y-8100000D02*
X11555000Y-8140000D01*
X11555000Y-8355000D02*
X11595000Y-8395000D01*
X11595000Y-8355000D02*
X11555000Y-8395000D01*
X11560000Y-8608500D02*
X11600000Y-8648500D01*
X11600000Y-8608500D02*
X11560000Y-8648500D01*
X11660000Y-13046380D02*
X11700000Y-13086380D01*
X11700000Y-13046380D02*
X11660000Y-13086380D01*
X11808952Y-12153952D02*
X11848952Y-12193952D01*
X11848952Y-12153952D02*
X11808952Y-12193952D01*
X11815000Y-9220270D02*
X11855000Y-9260270D01*
X11855000Y-9220270D02*
X11815000Y-9260270D01*
X11855000Y-12945000D02*
X11895000Y-12985000D01*
X11895000Y-12945000D02*
X11855000Y-12985000D01*
X11855000Y-13245000D02*
X11895000Y-13285000D01*
X11895000Y-13245000D02*
X11855000Y-13285000D01*
X11875000Y-8959010D02*
X11915000Y-8999010D01*
X11915000Y-8959010D02*
X11875000Y-8999010D01*
X11888827Y-11778839D02*
X11928827Y-11818839D01*
X11928827Y-11778839D02*
X11888827Y-11818839D01*
X11892500Y-9310000D02*
X11932500Y-9350000D01*
X11932500Y-9310000D02*
X11892500Y-9350000D01*
X11892500Y-10346500D02*
X11932500Y-10386500D01*
X11932500Y-10346500D02*
X11892500Y-10386500D01*
X11897500Y-10219500D02*
X11937500Y-10259500D01*
X11937500Y-10219500D02*
X11897500Y-10259500D01*
X12000000Y-13046380D02*
X12040000Y-13086380D01*
X12040000Y-13046380D02*
X12000000Y-13086380D01*
X12000000Y-13202610D02*
X12040000Y-13242610D01*
X12040000Y-13202610D02*
X12000000Y-13242610D01*
X12022600Y-12157201D02*
X12062600Y-12197201D01*
X12062600Y-12157201D02*
X12022600Y-12197201D01*
X12038366Y-11565000D02*
X12078366Y-11605000D01*
X12078366Y-11565000D02*
X12038366Y-11605000D01*
X12075000Y-8360000D02*
X12115000Y-8400000D01*
X12115000Y-8360000D02*
X12075000Y-8400000D01*
X12220000Y-12680000D02*
X12260000Y-12720000D01*
X12260000Y-12680000D02*
X12220000Y-12720000D01*
X12225000Y-7975000D02*
X12265000Y-8015000D01*
X12265000Y-7975000D02*
X12225000Y-8015000D01*
X12285150Y-12414850D02*
X12325150Y-12454850D01*
X12325150Y-12414850D02*
X12285150Y-12454850D01*
X12310000Y-11687400D02*
X12350000Y-11727400D01*
X12350000Y-11687400D02*
X12310000Y-11727400D01*
X12375000Y-8350000D02*
X12415000Y-8390000D01*
X12415000Y-8350000D02*
X12375000Y-8390000D01*
X12385000Y-9860000D02*
X12425000Y-9900000D01*
X12425000Y-9860000D02*
X12385000Y-9900000D01*
X12405000Y-10465000D02*
X12445000Y-10505000D01*
X12445000Y-10465000D02*
X12405000Y-10505000D01*
X12425000Y-8630000D02*
X12465000Y-8670000D01*
X12465000Y-8630000D02*
X12425000Y-8670000D01*
X12605000Y-12165000D02*
X12645000Y-12205000D01*
X12645000Y-12165000D02*
X12605000Y-12205000D01*
X12624865Y-11912000D02*
X12664865Y-11952000D01*
X12664865Y-11912000D02*
X12624865Y-11952000D01*
X12625000Y-11280000D02*
X12665000Y-11320000D01*
X12665000Y-11280000D02*
X12625000Y-11320000D01*
X12790000Y-13310000D02*
X12830000Y-13350000D01*
X12830000Y-13310000D02*
X12790000Y-13350000D01*
X12925000Y-11532500D02*
X12965000Y-11572500D01*
X12965000Y-11532500D02*
X12925000Y-11572500D01*
X12955000Y-8180000D02*
X12995000Y-8220000D01*
X12995000Y-8180000D02*
X12955000Y-8220000D01*
X12955000Y-9290000D02*
X12995000Y-9330000D01*
X12995000Y-9290000D02*
X12955000Y-9330000D01*
X13085000Y-8940000D02*
X13125000Y-8980000D01*
X13125000Y-8940000D02*
X13085000Y-8980000D01*
X13185100Y-11452390D02*
X13225100Y-11492390D01*
X13225100Y-11452390D02*
X13185100Y-11492390D01*
X13232500Y-12542500D02*
X13272500Y-12582500D01*
X13272500Y-12542500D02*
X13232500Y-12582500D01*
X13247500Y-12290000D02*
X13287500Y-12330000D01*
X13287500Y-12290000D02*
X13247500Y-12330000D01*
X13334900Y-12680000D02*
X13374900Y-12720000D01*
X13374900Y-12680000D02*
X13334900Y-12720000D01*
X13355000Y-14008360D02*
X13395000Y-14048360D01*
X13395000Y-14008360D02*
X13355000Y-14048360D01*
X13407500Y-11239595D02*
X13447500Y-11279595D01*
X13447500Y-11239595D02*
X13407500Y-11279595D01*
X13425000Y-8435000D02*
X13465000Y-8475000D01*
X13465000Y-8435000D02*
X13425000Y-8475000D01*
X13493762Y-10803762D02*
X13533762Y-10843762D01*
X13533762Y-10803762D02*
X13493762Y-10843762D01*
X13735000Y-8065000D02*
X13775000Y-8105000D01*
X13775000Y-8065000D02*
X13735000Y-8105000D01*
X13890000Y-11507490D02*
X13930000Y-11547490D01*
X13930000Y-11507490D02*
X13890000Y-11547490D01*
X14116881Y-13304356D02*
X14156881Y-13344356D01*
X14156881Y-13304356D02*
X14116881Y-13344356D01*
X14190000Y-10671162D02*
X14230000Y-10711162D01*
X14230000Y-10671162D02*
X14190000Y-10711162D01*
X14321101Y-11228501D02*
X14361101Y-11268501D01*
X14361101Y-11228501D02*
X14321101Y-11268501D01*
X14525000Y-12240000D02*
X14565000Y-12280000D01*
X14565000Y-12240000D02*
X14525000Y-12280000D01*
X14545170Y-11640090D02*
X14585170Y-11680090D01*
X14585170Y-11640090D02*
X14545170Y-11680090D01*
X14580311Y-10593663D02*
X14620311Y-10633663D01*
X14620311Y-10593663D02*
X14580311Y-10633663D01*
X14745000Y-13090410D02*
X14785000Y-13130410D01*
X14785000Y-13090410D02*
X14745000Y-13130410D01*
X14937300Y-9915000D02*
X14977300Y-9955000D01*
X14977300Y-9915000D02*
X14937300Y-9955000D01*
X15015000Y-9675000D02*
X15055000Y-9715000D01*
X15055000Y-9675000D02*
X15015000Y-9715000D01*
X15115000Y-11730000D02*
X15155000Y-11770000D01*
X15155000Y-11730000D02*
X15115000Y-11770000D01*
X15120000Y-13455000D02*
X15160000Y-13495000D01*
X15160000Y-13455000D02*
X15120000Y-13495000D01*
X15300000Y-8810000D02*
X15340000Y-8850000D01*
X15340000Y-8810000D02*
X15300000Y-8850000D01*
X16360000Y-8845000D02*
X16400000Y-8885000D01*
X16400000Y-8845000D02*
X16360000Y-8885000D01*
X16435000Y-10930000D02*
X16475000Y-10970000D01*
X16475000Y-10930000D02*
X16435000Y-10970000D01*
X16436812Y-13851812D02*
X16476812Y-13891812D01*
X16476812Y-13851812D02*
X16436812Y-13891812D01*
X17165000Y-10036000D02*
X17205000Y-10076000D01*
X17205000Y-10036000D02*
X17165000Y-10076000D01*
X13630000Y-11835000D02*
G75*
G02*
X13550000Y-11835000I-40000J0D01*
G01*
X13550000Y-11835000D02*
G75*
G02*
X13630000Y-11835000I40000J0D01*
G01*
X13630000Y-12089000D02*
G75*
G02*
X13550000Y-12089000I-40000J0D01*
G01*
X13550000Y-12089000D02*
G75*
G02*
X13630000Y-12089000I40000J0D01*
G01*
X13630000Y-12343000D02*
G75*
G02*
X13550000Y-12343000I-40000J0D01*
G01*
X13550000Y-12343000D02*
G75*
G02*
X13630000Y-12343000I40000J0D01*
G01*
X13630000Y-12597000D02*
G75*
G02*
X13550000Y-12597000I-40000J0D01*
G01*
X13550000Y-12597000D02*
G75*
G02*
X13630000Y-12597000I40000J0D01*
G01*
X13630000Y-12851000D02*
G75*
G02*
X13550000Y-12851000I-40000J0D01*
G01*
X13550000Y-12851000D02*
G75*
G02*
X13630000Y-12851000I40000J0D01*
G01*
X13630000Y-13105000D02*
G75*
G02*
X13550000Y-13105000I-40000J0D01*
G01*
X13550000Y-13105000D02*
G75*
G02*
X13630000Y-13105000I40000J0D01*
G01*
X13630000Y-13359000D02*
G75*
G02*
X13550000Y-13359000I-40000J0D01*
G01*
X13550000Y-13359000D02*
G75*
G02*
X13630000Y-13359000I40000J0D01*
G01*
X13630000Y-13613000D02*
G75*
G02*
X13550000Y-13613000I-40000J0D01*
G01*
X13550000Y-13613000D02*
G75*
G02*
X13630000Y-13613000I40000J0D01*
G01*
X13630000Y-13867000D02*
G75*
G02*
X13550000Y-13867000I-40000J0D01*
G01*
X13550000Y-13867000D02*
G75*
G02*
X13630000Y-13867000I40000J0D01*
G01*
X13750000Y-11075000D02*
G75*
G02*
X13670000Y-11075000I-40000J0D01*
G01*
X13670000Y-11075000D02*
G75*
G02*
X13750000Y-11075000I40000J0D01*
G01*
X14240000Y-11075000D02*
G75*
G02*
X14160000Y-11075000I-40000J0D01*
G01*
X14160000Y-11075000D02*
G75*
G02*
X14240000Y-11075000I40000J0D01*
G01*
X14392000Y-11835000D02*
G75*
G02*
X14312000Y-11835000I-40000J0D01*
G01*
X14312000Y-11835000D02*
G75*
G02*
X14392000Y-11835000I40000J0D01*
G01*
X14392000Y-12089000D02*
G75*
G02*
X14312000Y-12089000I-40000J0D01*
G01*
X14312000Y-12089000D02*
G75*
G02*
X14392000Y-12089000I40000J0D01*
G01*
X14392000Y-12343000D02*
G75*
G02*
X14312000Y-12343000I-40000J0D01*
G01*
X14312000Y-12343000D02*
G75*
G02*
X14392000Y-12343000I40000J0D01*
G01*
X14392000Y-12597000D02*
G75*
G02*
X14312000Y-12597000I-40000J0D01*
G01*
X14312000Y-12597000D02*
G75*
G02*
X14392000Y-12597000I40000J0D01*
G01*
X14392000Y-12851000D02*
G75*
G02*
X14312000Y-12851000I-40000J0D01*
G01*
X14312000Y-12851000D02*
G75*
G02*
X14392000Y-12851000I40000J0D01*
G01*
X14392000Y-13105000D02*
G75*
G02*
X14312000Y-13105000I-40000J0D01*
G01*
X14312000Y-13105000D02*
G75*
G02*
X14392000Y-13105000I40000J0D01*
G01*
X14392000Y-13359000D02*
G75*
G02*
X14312000Y-13359000I-40000J0D01*
G01*
X14312000Y-13359000D02*
G75*
G02*
X14392000Y-13359000I40000J0D01*
G01*
X14392000Y-13613000D02*
G75*
G02*
X14312000Y-13613000I-40000J0D01*
G01*
X14312000Y-13613000D02*
G75*
G02*
X14392000Y-13613000I40000J0D01*
G01*
X14392000Y-13867000D02*
G75*
G02*
X14312000Y-13867000I-40000J0D01*
G01*
X14312000Y-13867000D02*
G75*
G02*
X14392000Y-13867000I40000J0D01*
G01*
X15355000Y-9040000D02*
G75*
G02*
X15275000Y-9040000I-40000J0D01*
G01*
X15275000Y-9040000D02*
G75*
G02*
X15355000Y-9040000I40000J0D01*
G01*
X15355000Y-9294000D02*
G75*
G02*
X15275000Y-9294000I-40000J0D01*
G01*
X15275000Y-9294000D02*
G75*
G02*
X15355000Y-9294000I40000J0D01*
G01*
X15355000Y-9548000D02*
G75*
G02*
X15275000Y-9548000I-40000J0D01*
G01*
X15275000Y-9548000D02*
G75*
G02*
X15355000Y-9548000I40000J0D01*
G01*
X15355000Y-9802000D02*
G75*
G02*
X15275000Y-9802000I-40000J0D01*
G01*
X15275000Y-9802000D02*
G75*
G02*
X15355000Y-9802000I40000J0D01*
G01*
X15355000Y-10056000D02*
G75*
G02*
X15275000Y-10056000I-40000J0D01*
G01*
X15275000Y-10056000D02*
G75*
G02*
X15355000Y-10056000I40000J0D01*
G01*
X15355000Y-10310000D02*
G75*
G02*
X15275000Y-10310000I-40000J0D01*
G01*
X15275000Y-10310000D02*
G75*
G02*
X15355000Y-10310000I40000J0D01*
G01*
X15355000Y-10564000D02*
G75*
G02*
X15275000Y-10564000I-40000J0D01*
G01*
X15275000Y-10564000D02*
G75*
G02*
X15355000Y-10564000I40000J0D01*
G01*
X15355000Y-10818000D02*
G75*
G02*
X15275000Y-10818000I-40000J0D01*
G01*
X15275000Y-10818000D02*
G75*
G02*
X15355000Y-10818000I40000J0D01*
G01*
X15355000Y-11072000D02*
G75*
G02*
X15275000Y-11072000I-40000J0D01*
G01*
X15275000Y-11072000D02*
G75*
G02*
X15355000Y-11072000I40000J0D01*
G01*
X15355000Y-11326000D02*
G75*
G02*
X15275000Y-11326000I-40000J0D01*
G01*
X15275000Y-11326000D02*
G75*
G02*
X15355000Y-11326000I40000J0D01*
G01*
X15355000Y-11580000D02*
G75*
G02*
X15275000Y-11580000I-40000J0D01*
G01*
X15275000Y-11580000D02*
G75*
G02*
X15355000Y-11580000I40000J0D01*
G01*
X15355000Y-11834000D02*
G75*
G02*
X15275000Y-11834000I-40000J0D01*
G01*
X15275000Y-11834000D02*
G75*
G02*
X15355000Y-11834000I40000J0D01*
G01*
X15355000Y-12088000D02*
G75*
G02*
X15275000Y-12088000I-40000J0D01*
G01*
X15275000Y-12088000D02*
G75*
G02*
X15355000Y-12088000I40000J0D01*
G01*
X15355000Y-12342000D02*
G75*
G02*
X15275000Y-12342000I-40000J0D01*
G01*
X15275000Y-12342000D02*
G75*
G02*
X15355000Y-12342000I40000J0D01*
G01*
X15355000Y-12596000D02*
G75*
G02*
X15275000Y-12596000I-40000J0D01*
G01*
X15275000Y-12596000D02*
G75*
G02*
X15355000Y-12596000I40000J0D01*
G01*
X15355000Y-12850000D02*
G75*
G02*
X15275000Y-12850000I-40000J0D01*
G01*
X15275000Y-12850000D02*
G75*
G02*
X15355000Y-12850000I40000J0D01*
G01*
X15355000Y-13104000D02*
G75*
G02*
X15275000Y-13104000I-40000J0D01*
G01*
X15275000Y-13104000D02*
G75*
G02*
X15355000Y-13104000I40000J0D01*
G01*
X15355000Y-13358000D02*
G75*
G02*
X15275000Y-13358000I-40000J0D01*
G01*
X15275000Y-13358000D02*
G75*
G02*
X15355000Y-13358000I40000J0D01*
G01*
X15355000Y-13612000D02*
G75*
G02*
X15275000Y-13612000I-40000J0D01*
G01*
X15275000Y-13612000D02*
G75*
G02*
X15355000Y-13612000I40000J0D01*
G01*
X15355000Y-13866000D02*
G75*
G02*
X15275000Y-13866000I-40000J0D01*
G01*
X15275000Y-13866000D02*
G75*
G02*
X15355000Y-13866000I40000J0D01*
G01*
X16879000Y-9040000D02*
G75*
G02*
X16799000Y-9040000I-40000J0D01*
G01*
X16799000Y-9040000D02*
G75*
G02*
X16879000Y-9040000I40000J0D01*
G01*
X16879000Y-9294000D02*
G75*
G02*
X16799000Y-9294000I-40000J0D01*
G01*
X16799000Y-9294000D02*
G75*
G02*
X16879000Y-9294000I40000J0D01*
G01*
X16879000Y-9548000D02*
G75*
G02*
X16799000Y-9548000I-40000J0D01*
G01*
X16799000Y-9548000D02*
G75*
G02*
X16879000Y-9548000I40000J0D01*
G01*
X16879000Y-9802000D02*
G75*
G02*
X16799000Y-9802000I-40000J0D01*
G01*
X16799000Y-9802000D02*
G75*
G02*
X16879000Y-9802000I40000J0D01*
G01*
X16879000Y-10056000D02*
G75*
G02*
X16799000Y-10056000I-40000J0D01*
G01*
X16799000Y-10056000D02*
G75*
G02*
X16879000Y-10056000I40000J0D01*
G01*
X16879000Y-10310000D02*
G75*
G02*
X16799000Y-10310000I-40000J0D01*
G01*
X16799000Y-10310000D02*
G75*
G02*
X16879000Y-10310000I40000J0D01*
G01*
X16879000Y-10564000D02*
G75*
G02*
X16799000Y-10564000I-40000J0D01*
G01*
X16799000Y-10564000D02*
G75*
G02*
X16879000Y-10564000I40000J0D01*
G01*
X16879000Y-10818000D02*
G75*
G02*
X16799000Y-10818000I-40000J0D01*
G01*
X16799000Y-10818000D02*
G75*
G02*
X16879000Y-10818000I40000J0D01*
G01*
X16879000Y-11072000D02*
G75*
G02*
X16799000Y-11072000I-40000J0D01*
G01*
X16799000Y-11072000D02*
G75*
G02*
X16879000Y-11072000I40000J0D01*
G01*
X16879000Y-11326000D02*
G75*
G02*
X16799000Y-11326000I-40000J0D01*
G01*
X16799000Y-11326000D02*
G75*
G02*
X16879000Y-11326000I40000J0D01*
G01*
X16879000Y-11580000D02*
G75*
G02*
X16799000Y-11580000I-40000J0D01*
G01*
X16799000Y-11580000D02*
G75*
G02*
X16879000Y-11580000I40000J0D01*
G01*
X16879000Y-11834000D02*
G75*
G02*
X16799000Y-11834000I-40000J0D01*
G01*
X16799000Y-11834000D02*
G75*
G02*
X16879000Y-11834000I40000J0D01*
G01*
X16879000Y-12088000D02*
G75*
G02*
X16799000Y-12088000I-40000J0D01*
G01*
X16799000Y-12088000D02*
G75*
G02*
X16879000Y-12088000I40000J0D01*
G01*
X16879000Y-12342000D02*
G75*
G02*
X16799000Y-12342000I-40000J0D01*
G01*
X16799000Y-12342000D02*
G75*
G02*
X16879000Y-12342000I40000J0D01*
G01*
X16879000Y-12596000D02*
G75*
G02*
X16799000Y-12596000I-40000J0D01*
G01*
X16799000Y-12596000D02*
G75*
G02*
X16879000Y-12596000I40000J0D01*
G01*
X16879000Y-12850000D02*
G75*
G02*
X16799000Y-12850000I-40000J0D01*
G01*
X16799000Y-12850000D02*
G75*
G02*
X16879000Y-12850000I40000J0D01*
G01*
X16879000Y-13104000D02*
G75*
G02*
X16799000Y-13104000I-40000J0D01*
G01*
X16799000Y-13104000D02*
G75*
G02*
X16879000Y-13104000I40000J0D01*
G01*
X16879000Y-13358000D02*
G75*
G02*
X16799000Y-13358000I-40000J0D01*
G01*
X16799000Y-13358000D02*
G75*
G02*
X16879000Y-13358000I40000J0D01*
G01*
X16879000Y-13612000D02*
G75*
G02*
X16799000Y-13612000I-40000J0D01*
G01*
X16799000Y-13612000D02*
G75*
G02*
X16879000Y-13612000I40000J0D01*
G01*
X16879000Y-13866000D02*
G75*
G02*
X16799000Y-13866000I-40000J0D01*
G01*
X16799000Y-13866000D02*
G75*
G02*
X16879000Y-13866000I40000J0D01*
G01*
X9310000Y-9025000D02*
X9310000Y-9125000D01*
X9260000Y-9075000D02*
X9360000Y-9075000D01*
X9310000Y-9279000D02*
X9310000Y-9379000D01*
X9260000Y-9329000D02*
X9360000Y-9329000D01*
X14285000Y-7735000D02*
X14285000Y-7835000D01*
X14235000Y-7785000D02*
X14335000Y-7785000D01*
X14285000Y-7989000D02*
X14285000Y-8089000D01*
X14235000Y-8039000D02*
X14335000Y-8039000D01*
X14285000Y-8243000D02*
X14285000Y-8343000D01*
X14235000Y-8293000D02*
X14335000Y-8293000D01*
X15575000Y-7735000D02*
X15575000Y-7835000D01*
X15525000Y-7785000D02*
X15625000Y-7785000D01*
X15575000Y-7989000D02*
X15575000Y-8089000D01*
X15525000Y-8039000D02*
X15625000Y-8039000D01*
X16710000Y-7740000D02*
X16710000Y-7840000D01*
X16660000Y-7790000D02*
X16760000Y-7790000D01*
X16710000Y-7994000D02*
X16710000Y-8094000D01*
X16660000Y-8044000D02*
X16760000Y-8044000D01*
X16710000Y-8248000D02*
X16710000Y-8348000D01*
X16660000Y-8298000D02*
X16760000Y-8298000D01*
X16710000Y-8502000D02*
X16710000Y-8602000D01*
X16660000Y-8552000D02*
X16760000Y-8552000D01*
D10*
X7840777Y-14986484D02*
X7840777Y-14786484D01*
X7840777Y-14786484D02*
X7888396Y-14786484D01*
X7888396Y-14786484D02*
X7916967Y-14796008D01*
X7916967Y-14796008D02*
X7936015Y-14815055D01*
X7936015Y-14815055D02*
X7945539Y-14834103D01*
X7945539Y-14834103D02*
X7955062Y-14872198D01*
X7955062Y-14872198D02*
X7955062Y-14900769D01*
X7955062Y-14900769D02*
X7945539Y-14938865D01*
X7945539Y-14938865D02*
X7936015Y-14957912D01*
X7936015Y-14957912D02*
X7916967Y-14976960D01*
X7916967Y-14976960D02*
X7888396Y-14986484D01*
X7888396Y-14986484D02*
X7840777Y-14986484D01*
X8040777Y-14986484D02*
X8040777Y-14853150D01*
X8040777Y-14891246D02*
X8050301Y-14872198D01*
X8050301Y-14872198D02*
X8059824Y-14862674D01*
X8059824Y-14862674D02*
X8078872Y-14853150D01*
X8078872Y-14853150D02*
X8097920Y-14853150D01*
X8164586Y-14986484D02*
X8164586Y-14853150D01*
X8164586Y-14786484D02*
X8155062Y-14796008D01*
X8155062Y-14796008D02*
X8164586Y-14805531D01*
X8164586Y-14805531D02*
X8174110Y-14796008D01*
X8174110Y-14796008D02*
X8164586Y-14786484D01*
X8164586Y-14786484D02*
X8164586Y-14805531D01*
X8288396Y-14986484D02*
X8269348Y-14976960D01*
X8269348Y-14976960D02*
X8259824Y-14957912D01*
X8259824Y-14957912D02*
X8259824Y-14786484D01*
X8393158Y-14986484D02*
X8374110Y-14976960D01*
X8374110Y-14976960D02*
X8364586Y-14957912D01*
X8364586Y-14957912D02*
X8364586Y-14786484D01*
X8621729Y-14986484D02*
X8621729Y-14786484D01*
X8621729Y-14786484D02*
X8688396Y-14929341D01*
X8688396Y-14929341D02*
X8755063Y-14786484D01*
X8755063Y-14786484D02*
X8755063Y-14986484D01*
X8936015Y-14986484D02*
X8936015Y-14881722D01*
X8936015Y-14881722D02*
X8926491Y-14862674D01*
X8926491Y-14862674D02*
X8907444Y-14853150D01*
X8907444Y-14853150D02*
X8869348Y-14853150D01*
X8869348Y-14853150D02*
X8850301Y-14862674D01*
X8936015Y-14976960D02*
X8916967Y-14986484D01*
X8916967Y-14986484D02*
X8869348Y-14986484D01*
X8869348Y-14986484D02*
X8850301Y-14976960D01*
X8850301Y-14976960D02*
X8840777Y-14957912D01*
X8840777Y-14957912D02*
X8840777Y-14938865D01*
X8840777Y-14938865D02*
X8850301Y-14919817D01*
X8850301Y-14919817D02*
X8869348Y-14910293D01*
X8869348Y-14910293D02*
X8916967Y-14910293D01*
X8916967Y-14910293D02*
X8936015Y-14900769D01*
X9031253Y-14853150D02*
X9031253Y-15053150D01*
X9031253Y-14862674D02*
X9050301Y-14853150D01*
X9050301Y-14853150D02*
X9088396Y-14853150D01*
X9088396Y-14853150D02*
X9107444Y-14862674D01*
X9107444Y-14862674D02*
X9116967Y-14872198D01*
X9116967Y-14872198D02*
X9126491Y-14891246D01*
X9126491Y-14891246D02*
X9126491Y-14948388D01*
X9126491Y-14948388D02*
X9116967Y-14967436D01*
X9116967Y-14967436D02*
X9107444Y-14976960D01*
X9107444Y-14976960D02*
X9088396Y-14986484D01*
X9088396Y-14986484D02*
X9050301Y-14986484D01*
X9050301Y-14986484D02*
X9031253Y-14976960D01*
X9212205Y-14967436D02*
X9221729Y-14976960D01*
X9221729Y-14976960D02*
X9212205Y-14986484D01*
X9212205Y-14986484D02*
X9202682Y-14976960D01*
X9202682Y-14976960D02*
X9212205Y-14967436D01*
X9212205Y-14967436D02*
X9212205Y-14986484D01*
X9212205Y-14862674D02*
X9221729Y-14872198D01*
X9221729Y-14872198D02*
X9212205Y-14881722D01*
X9212205Y-14881722D02*
X9202682Y-14872198D01*
X9202682Y-14872198D02*
X9212205Y-14862674D01*
X9212205Y-14862674D02*
X9212205Y-14881722D01*
D11*
X7540000Y-15295000D02*
X7580000Y-15335000D01*
X7580000Y-15295000D02*
X7540000Y-15335000D01*
D10*
X7878872Y-15206484D02*
X7897920Y-15206484D01*
X7897920Y-15206484D02*
X7916967Y-15216008D01*
X7916967Y-15216008D02*
X7926491Y-15225531D01*
X7926491Y-15225531D02*
X7936015Y-15244579D01*
X7936015Y-15244579D02*
X7945539Y-15282674D01*
X7945539Y-15282674D02*
X7945539Y-15330293D01*
X7945539Y-15330293D02*
X7936015Y-15368388D01*
X7936015Y-15368388D02*
X7926491Y-15387436D01*
X7926491Y-15387436D02*
X7916967Y-15396960D01*
X7916967Y-15396960D02*
X7897920Y-15406484D01*
X7897920Y-15406484D02*
X7878872Y-15406484D01*
X7878872Y-15406484D02*
X7859824Y-15396960D01*
X7859824Y-15396960D02*
X7850301Y-15387436D01*
X7850301Y-15387436D02*
X7840777Y-15368388D01*
X7840777Y-15368388D02*
X7831253Y-15330293D01*
X7831253Y-15330293D02*
X7831253Y-15282674D01*
X7831253Y-15282674D02*
X7840777Y-15244579D01*
X7840777Y-15244579D02*
X7850301Y-15225531D01*
X7850301Y-15225531D02*
X7859824Y-15216008D01*
X7859824Y-15216008D02*
X7878872Y-15206484D01*
X8031253Y-15387436D02*
X8040777Y-15396960D01*
X8040777Y-15396960D02*
X8031253Y-15406484D01*
X8031253Y-15406484D02*
X8021729Y-15396960D01*
X8021729Y-15396960D02*
X8031253Y-15387436D01*
X8031253Y-15387436D02*
X8031253Y-15406484D01*
X8212205Y-15273150D02*
X8212205Y-15406484D01*
X8164586Y-15196960D02*
X8116967Y-15339817D01*
X8116967Y-15339817D02*
X8240777Y-15339817D01*
X8355062Y-15206484D02*
X8374110Y-15206484D01*
X8374110Y-15206484D02*
X8393158Y-15216008D01*
X8393158Y-15216008D02*
X8402682Y-15225531D01*
X8402682Y-15225531D02*
X8412205Y-15244579D01*
X8412205Y-15244579D02*
X8421729Y-15282674D01*
X8421729Y-15282674D02*
X8421729Y-15330293D01*
X8421729Y-15330293D02*
X8412205Y-15368388D01*
X8412205Y-15368388D02*
X8402682Y-15387436D01*
X8402682Y-15387436D02*
X8393158Y-15396960D01*
X8393158Y-15396960D02*
X8374110Y-15406484D01*
X8374110Y-15406484D02*
X8355062Y-15406484D01*
X8355062Y-15406484D02*
X8336015Y-15396960D01*
X8336015Y-15396960D02*
X8326491Y-15387436D01*
X8326491Y-15387436D02*
X8316967Y-15368388D01*
X8316967Y-15368388D02*
X8307443Y-15330293D01*
X8307443Y-15330293D02*
X8307443Y-15282674D01*
X8307443Y-15282674D02*
X8316967Y-15244579D01*
X8316967Y-15244579D02*
X8326491Y-15225531D01*
X8326491Y-15225531D02*
X8336015Y-15216008D01*
X8336015Y-15216008D02*
X8355062Y-15206484D01*
X8545539Y-15206484D02*
X8564586Y-15206484D01*
X8564586Y-15206484D02*
X8583634Y-15216008D01*
X8583634Y-15216008D02*
X8593158Y-15225531D01*
X8593158Y-15225531D02*
X8602682Y-15244579D01*
X8602682Y-15244579D02*
X8612205Y-15282674D01*
X8612205Y-15282674D02*
X8612205Y-15330293D01*
X8612205Y-15330293D02*
X8602682Y-15368388D01*
X8602682Y-15368388D02*
X8593158Y-15387436D01*
X8593158Y-15387436D02*
X8583634Y-15396960D01*
X8583634Y-15396960D02*
X8564586Y-15406484D01*
X8564586Y-15406484D02*
X8545539Y-15406484D01*
X8545539Y-15406484D02*
X8526491Y-15396960D01*
X8526491Y-15396960D02*
X8516967Y-15387436D01*
X8516967Y-15387436D02*
X8507444Y-15368388D01*
X8507444Y-15368388D02*
X8497920Y-15330293D01*
X8497920Y-15330293D02*
X8497920Y-15282674D01*
X8497920Y-15282674D02*
X8507444Y-15244579D01*
X8507444Y-15244579D02*
X8516967Y-15225531D01*
X8516967Y-15225531D02*
X8526491Y-15216008D01*
X8526491Y-15216008D02*
X8545539Y-15206484D01*
X8697920Y-15406484D02*
X8697920Y-15273150D01*
X8697920Y-15292198D02*
X8707444Y-15282674D01*
X8707444Y-15282674D02*
X8726491Y-15273150D01*
X8726491Y-15273150D02*
X8755063Y-15273150D01*
X8755063Y-15273150D02*
X8774110Y-15282674D01*
X8774110Y-15282674D02*
X8783634Y-15301722D01*
X8783634Y-15301722D02*
X8783634Y-15406484D01*
X8783634Y-15301722D02*
X8793158Y-15282674D01*
X8793158Y-15282674D02*
X8812205Y-15273150D01*
X8812205Y-15273150D02*
X8840777Y-15273150D01*
X8840777Y-15273150D02*
X8859825Y-15282674D01*
X8859825Y-15282674D02*
X8869348Y-15301722D01*
X8869348Y-15301722D02*
X8869348Y-15406484D01*
X8964586Y-15406484D02*
X8964586Y-15273150D01*
X8964586Y-15292198D02*
X8974110Y-15282674D01*
X8974110Y-15282674D02*
X8993158Y-15273150D01*
X8993158Y-15273150D02*
X9021729Y-15273150D01*
X9021729Y-15273150D02*
X9040777Y-15282674D01*
X9040777Y-15282674D02*
X9050301Y-15301722D01*
X9050301Y-15301722D02*
X9050301Y-15406484D01*
X9050301Y-15301722D02*
X9059825Y-15282674D01*
X9059825Y-15282674D02*
X9078872Y-15273150D01*
X9078872Y-15273150D02*
X9107444Y-15273150D01*
X9107444Y-15273150D02*
X9126491Y-15282674D01*
X9126491Y-15282674D02*
X9136015Y-15301722D01*
X9136015Y-15301722D02*
X9136015Y-15406484D01*
X9526491Y-15196960D02*
X9355063Y-15454103D01*
X9783634Y-15206484D02*
X9802682Y-15206484D01*
X9802682Y-15206484D02*
X9821729Y-15216008D01*
X9821729Y-15216008D02*
X9831253Y-15225531D01*
X9831253Y-15225531D02*
X9840777Y-15244579D01*
X9840777Y-15244579D02*
X9850301Y-15282674D01*
X9850301Y-15282674D02*
X9850301Y-15330293D01*
X9850301Y-15330293D02*
X9840777Y-15368388D01*
X9840777Y-15368388D02*
X9831253Y-15387436D01*
X9831253Y-15387436D02*
X9821729Y-15396960D01*
X9821729Y-15396960D02*
X9802682Y-15406484D01*
X9802682Y-15406484D02*
X9783634Y-15406484D01*
X9783634Y-15406484D02*
X9764587Y-15396960D01*
X9764587Y-15396960D02*
X9755063Y-15387436D01*
X9755063Y-15387436D02*
X9745539Y-15368388D01*
X9745539Y-15368388D02*
X9736015Y-15330293D01*
X9736015Y-15330293D02*
X9736015Y-15282674D01*
X9736015Y-15282674D02*
X9745539Y-15244579D01*
X9745539Y-15244579D02*
X9755063Y-15225531D01*
X9755063Y-15225531D02*
X9764587Y-15216008D01*
X9764587Y-15216008D02*
X9783634Y-15206484D01*
X9936015Y-15387436D02*
X9945539Y-15396960D01*
X9945539Y-15396960D02*
X9936015Y-15406484D01*
X9936015Y-15406484D02*
X9926491Y-15396960D01*
X9926491Y-15396960D02*
X9936015Y-15387436D01*
X9936015Y-15387436D02*
X9936015Y-15406484D01*
X10069348Y-15206484D02*
X10088396Y-15206484D01*
X10088396Y-15206484D02*
X10107444Y-15216008D01*
X10107444Y-15216008D02*
X10116968Y-15225531D01*
X10116968Y-15225531D02*
X10126491Y-15244579D01*
X10126491Y-15244579D02*
X10136015Y-15282674D01*
X10136015Y-15282674D02*
X10136015Y-15330293D01*
X10136015Y-15330293D02*
X10126491Y-15368388D01*
X10126491Y-15368388D02*
X10116968Y-15387436D01*
X10116968Y-15387436D02*
X10107444Y-15396960D01*
X10107444Y-15396960D02*
X10088396Y-15406484D01*
X10088396Y-15406484D02*
X10069348Y-15406484D01*
X10069348Y-15406484D02*
X10050301Y-15396960D01*
X10050301Y-15396960D02*
X10040777Y-15387436D01*
X10040777Y-15387436D02*
X10031253Y-15368388D01*
X10031253Y-15368388D02*
X10021729Y-15330293D01*
X10021729Y-15330293D02*
X10021729Y-15282674D01*
X10021729Y-15282674D02*
X10031253Y-15244579D01*
X10031253Y-15244579D02*
X10040777Y-15225531D01*
X10040777Y-15225531D02*
X10050301Y-15216008D01*
X10050301Y-15216008D02*
X10069348Y-15206484D01*
X10326491Y-15406484D02*
X10212206Y-15406484D01*
X10269348Y-15406484D02*
X10269348Y-15206484D01*
X10269348Y-15206484D02*
X10250301Y-15235055D01*
X10250301Y-15235055D02*
X10231253Y-15254103D01*
X10231253Y-15254103D02*
X10212206Y-15263627D01*
X10507444Y-15206484D02*
X10412206Y-15206484D01*
X10412206Y-15206484D02*
X10402682Y-15301722D01*
X10402682Y-15301722D02*
X10412206Y-15292198D01*
X10412206Y-15292198D02*
X10431253Y-15282674D01*
X10431253Y-15282674D02*
X10478872Y-15282674D01*
X10478872Y-15282674D02*
X10497920Y-15292198D01*
X10497920Y-15292198D02*
X10507444Y-15301722D01*
X10507444Y-15301722D02*
X10516968Y-15320769D01*
X10516968Y-15320769D02*
X10516968Y-15368388D01*
X10516968Y-15368388D02*
X10507444Y-15387436D01*
X10507444Y-15387436D02*
X10497920Y-15396960D01*
X10497920Y-15396960D02*
X10478872Y-15406484D01*
X10478872Y-15406484D02*
X10431253Y-15406484D01*
X10431253Y-15406484D02*
X10412206Y-15396960D01*
X10412206Y-15396960D02*
X10402682Y-15387436D01*
X10583634Y-15206484D02*
X10716968Y-15206484D01*
X10716968Y-15206484D02*
X10631253Y-15406484D01*
X10783634Y-15206484D02*
X10783634Y-15244579D01*
X10859825Y-15206484D02*
X10859825Y-15244579D01*
X11155063Y-15482674D02*
X11145539Y-15473150D01*
X11145539Y-15473150D02*
X11126491Y-15444579D01*
X11126491Y-15444579D02*
X11116968Y-15425531D01*
X11116968Y-15425531D02*
X11107444Y-15396960D01*
X11107444Y-15396960D02*
X11097920Y-15349341D01*
X11097920Y-15349341D02*
X11097920Y-15311246D01*
X11097920Y-15311246D02*
X11107444Y-15263627D01*
X11107444Y-15263627D02*
X11116968Y-15235055D01*
X11116968Y-15235055D02*
X11126491Y-15216008D01*
X11126491Y-15216008D02*
X11145539Y-15187436D01*
X11145539Y-15187436D02*
X11155063Y-15177912D01*
X11336015Y-15406484D02*
X11221729Y-15406484D01*
X11278872Y-15406484D02*
X11278872Y-15206484D01*
X11278872Y-15206484D02*
X11259825Y-15235055D01*
X11259825Y-15235055D02*
X11240777Y-15254103D01*
X11240777Y-15254103D02*
X11221729Y-15263627D01*
X11507444Y-15273150D02*
X11507444Y-15406484D01*
X11459825Y-15196960D02*
X11412206Y-15339817D01*
X11412206Y-15339817D02*
X11536015Y-15339817D01*
X11621729Y-15406484D02*
X11659825Y-15406484D01*
X11659825Y-15406484D02*
X11678872Y-15396960D01*
X11678872Y-15396960D02*
X11688396Y-15387436D01*
X11688396Y-15387436D02*
X11707444Y-15358865D01*
X11707444Y-15358865D02*
X11716968Y-15320769D01*
X11716968Y-15320769D02*
X11716968Y-15244579D01*
X11716968Y-15244579D02*
X11707444Y-15225531D01*
X11707444Y-15225531D02*
X11697920Y-15216008D01*
X11697920Y-15216008D02*
X11678872Y-15206484D01*
X11678872Y-15206484D02*
X11640777Y-15206484D01*
X11640777Y-15206484D02*
X11621729Y-15216008D01*
X11621729Y-15216008D02*
X11612206Y-15225531D01*
X11612206Y-15225531D02*
X11602682Y-15244579D01*
X11602682Y-15244579D02*
X11602682Y-15292198D01*
X11602682Y-15292198D02*
X11612206Y-15311246D01*
X11612206Y-15311246D02*
X11621729Y-15320769D01*
X11621729Y-15320769D02*
X11640777Y-15330293D01*
X11640777Y-15330293D02*
X11678872Y-15330293D01*
X11678872Y-15330293D02*
X11697920Y-15320769D01*
X11697920Y-15320769D02*
X11707444Y-15311246D01*
X11707444Y-15311246D02*
X11716968Y-15292198D01*
X11955063Y-15406484D02*
X11955063Y-15206484D01*
X12040777Y-15406484D02*
X12040777Y-15301722D01*
X12040777Y-15301722D02*
X12031253Y-15282674D01*
X12031253Y-15282674D02*
X12012206Y-15273150D01*
X12012206Y-15273150D02*
X11983634Y-15273150D01*
X11983634Y-15273150D02*
X11964587Y-15282674D01*
X11964587Y-15282674D02*
X11955063Y-15292198D01*
X12164587Y-15406484D02*
X12145539Y-15396960D01*
X12145539Y-15396960D02*
X12136015Y-15387436D01*
X12136015Y-15387436D02*
X12126491Y-15368388D01*
X12126491Y-15368388D02*
X12126491Y-15311246D01*
X12126491Y-15311246D02*
X12136015Y-15292198D01*
X12136015Y-15292198D02*
X12145539Y-15282674D01*
X12145539Y-15282674D02*
X12164587Y-15273150D01*
X12164587Y-15273150D02*
X12193158Y-15273150D01*
X12193158Y-15273150D02*
X12212206Y-15282674D01*
X12212206Y-15282674D02*
X12221730Y-15292198D01*
X12221730Y-15292198D02*
X12231253Y-15311246D01*
X12231253Y-15311246D02*
X12231253Y-15368388D01*
X12231253Y-15368388D02*
X12221730Y-15387436D01*
X12221730Y-15387436D02*
X12212206Y-15396960D01*
X12212206Y-15396960D02*
X12193158Y-15406484D01*
X12193158Y-15406484D02*
X12164587Y-15406484D01*
X12345539Y-15406484D02*
X12326491Y-15396960D01*
X12326491Y-15396960D02*
X12316968Y-15377912D01*
X12316968Y-15377912D02*
X12316968Y-15206484D01*
X12497920Y-15396960D02*
X12478872Y-15406484D01*
X12478872Y-15406484D02*
X12440777Y-15406484D01*
X12440777Y-15406484D02*
X12421730Y-15396960D01*
X12421730Y-15396960D02*
X12412206Y-15377912D01*
X12412206Y-15377912D02*
X12412206Y-15301722D01*
X12412206Y-15301722D02*
X12421730Y-15282674D01*
X12421730Y-15282674D02*
X12440777Y-15273150D01*
X12440777Y-15273150D02*
X12478872Y-15273150D01*
X12478872Y-15273150D02*
X12497920Y-15282674D01*
X12497920Y-15282674D02*
X12507444Y-15301722D01*
X12507444Y-15301722D02*
X12507444Y-15320769D01*
X12507444Y-15320769D02*
X12412206Y-15339817D01*
X12583634Y-15396960D02*
X12602682Y-15406484D01*
X12602682Y-15406484D02*
X12640777Y-15406484D01*
X12640777Y-15406484D02*
X12659825Y-15396960D01*
X12659825Y-15396960D02*
X12669349Y-15377912D01*
X12669349Y-15377912D02*
X12669349Y-15368388D01*
X12669349Y-15368388D02*
X12659825Y-15349341D01*
X12659825Y-15349341D02*
X12640777Y-15339817D01*
X12640777Y-15339817D02*
X12612206Y-15339817D01*
X12612206Y-15339817D02*
X12593158Y-15330293D01*
X12593158Y-15330293D02*
X12583634Y-15311246D01*
X12583634Y-15311246D02*
X12583634Y-15301722D01*
X12583634Y-15301722D02*
X12593158Y-15282674D01*
X12593158Y-15282674D02*
X12612206Y-15273150D01*
X12612206Y-15273150D02*
X12640777Y-15273150D01*
X12640777Y-15273150D02*
X12659825Y-15282674D01*
X12736015Y-15482674D02*
X12745539Y-15473150D01*
X12745539Y-15473150D02*
X12764587Y-15444579D01*
X12764587Y-15444579D02*
X12774111Y-15425531D01*
X12774111Y-15425531D02*
X12783634Y-15396960D01*
X12783634Y-15396960D02*
X12793158Y-15349341D01*
X12793158Y-15349341D02*
X12793158Y-15311246D01*
X12793158Y-15311246D02*
X12783634Y-15263627D01*
X12783634Y-15263627D02*
X12774111Y-15235055D01*
X12774111Y-15235055D02*
X12764587Y-15216008D01*
X12764587Y-15216008D02*
X12745539Y-15187436D01*
X12745539Y-15187436D02*
X12736015Y-15177912D01*
D11*
X7580000Y-15579000D02*
G75*
G02*
X7500000Y-15579000I-40000J0D01*
G01*
X7500000Y-15579000D02*
G75*
G02*
X7580000Y-15579000I40000J0D01*
G01*
D10*
X7878872Y-15470484D02*
X7897920Y-15470484D01*
X7897920Y-15470484D02*
X7916967Y-15480008D01*
X7916967Y-15480008D02*
X7926491Y-15489531D01*
X7926491Y-15489531D02*
X7936015Y-15508579D01*
X7936015Y-15508579D02*
X7945539Y-15546674D01*
X7945539Y-15546674D02*
X7945539Y-15594293D01*
X7945539Y-15594293D02*
X7936015Y-15632388D01*
X7936015Y-15632388D02*
X7926491Y-15651436D01*
X7926491Y-15651436D02*
X7916967Y-15660960D01*
X7916967Y-15660960D02*
X7897920Y-15670484D01*
X7897920Y-15670484D02*
X7878872Y-15670484D01*
X7878872Y-15670484D02*
X7859824Y-15660960D01*
X7859824Y-15660960D02*
X7850301Y-15651436D01*
X7850301Y-15651436D02*
X7840777Y-15632388D01*
X7840777Y-15632388D02*
X7831253Y-15594293D01*
X7831253Y-15594293D02*
X7831253Y-15546674D01*
X7831253Y-15546674D02*
X7840777Y-15508579D01*
X7840777Y-15508579D02*
X7850301Y-15489531D01*
X7850301Y-15489531D02*
X7859824Y-15480008D01*
X7859824Y-15480008D02*
X7878872Y-15470484D01*
X8031253Y-15651436D02*
X8040777Y-15660960D01*
X8040777Y-15660960D02*
X8031253Y-15670484D01*
X8031253Y-15670484D02*
X8021729Y-15660960D01*
X8021729Y-15660960D02*
X8031253Y-15651436D01*
X8031253Y-15651436D02*
X8031253Y-15670484D01*
X8155062Y-15556198D02*
X8136015Y-15546674D01*
X8136015Y-15546674D02*
X8126491Y-15537150D01*
X8126491Y-15537150D02*
X8116967Y-15518103D01*
X8116967Y-15518103D02*
X8116967Y-15508579D01*
X8116967Y-15508579D02*
X8126491Y-15489531D01*
X8126491Y-15489531D02*
X8136015Y-15480008D01*
X8136015Y-15480008D02*
X8155062Y-15470484D01*
X8155062Y-15470484D02*
X8193158Y-15470484D01*
X8193158Y-15470484D02*
X8212205Y-15480008D01*
X8212205Y-15480008D02*
X8221729Y-15489531D01*
X8221729Y-15489531D02*
X8231253Y-15508579D01*
X8231253Y-15508579D02*
X8231253Y-15518103D01*
X8231253Y-15518103D02*
X8221729Y-15537150D01*
X8221729Y-15537150D02*
X8212205Y-15546674D01*
X8212205Y-15546674D02*
X8193158Y-15556198D01*
X8193158Y-15556198D02*
X8155062Y-15556198D01*
X8155062Y-15556198D02*
X8136015Y-15565722D01*
X8136015Y-15565722D02*
X8126491Y-15575246D01*
X8126491Y-15575246D02*
X8116967Y-15594293D01*
X8116967Y-15594293D02*
X8116967Y-15632388D01*
X8116967Y-15632388D02*
X8126491Y-15651436D01*
X8126491Y-15651436D02*
X8136015Y-15660960D01*
X8136015Y-15660960D02*
X8155062Y-15670484D01*
X8155062Y-15670484D02*
X8193158Y-15670484D01*
X8193158Y-15670484D02*
X8212205Y-15660960D01*
X8212205Y-15660960D02*
X8221729Y-15651436D01*
X8221729Y-15651436D02*
X8231253Y-15632388D01*
X8231253Y-15632388D02*
X8231253Y-15594293D01*
X8231253Y-15594293D02*
X8221729Y-15575246D01*
X8221729Y-15575246D02*
X8212205Y-15565722D01*
X8212205Y-15565722D02*
X8193158Y-15556198D01*
X8355062Y-15470484D02*
X8374110Y-15470484D01*
X8374110Y-15470484D02*
X8393158Y-15480008D01*
X8393158Y-15480008D02*
X8402682Y-15489531D01*
X8402682Y-15489531D02*
X8412205Y-15508579D01*
X8412205Y-15508579D02*
X8421729Y-15546674D01*
X8421729Y-15546674D02*
X8421729Y-15594293D01*
X8421729Y-15594293D02*
X8412205Y-15632388D01*
X8412205Y-15632388D02*
X8402682Y-15651436D01*
X8402682Y-15651436D02*
X8393158Y-15660960D01*
X8393158Y-15660960D02*
X8374110Y-15670484D01*
X8374110Y-15670484D02*
X8355062Y-15670484D01*
X8355062Y-15670484D02*
X8336015Y-15660960D01*
X8336015Y-15660960D02*
X8326491Y-15651436D01*
X8326491Y-15651436D02*
X8316967Y-15632388D01*
X8316967Y-15632388D02*
X8307443Y-15594293D01*
X8307443Y-15594293D02*
X8307443Y-15546674D01*
X8307443Y-15546674D02*
X8316967Y-15508579D01*
X8316967Y-15508579D02*
X8326491Y-15489531D01*
X8326491Y-15489531D02*
X8336015Y-15480008D01*
X8336015Y-15480008D02*
X8355062Y-15470484D01*
X8545539Y-15470484D02*
X8564586Y-15470484D01*
X8564586Y-15470484D02*
X8583634Y-15480008D01*
X8583634Y-15480008D02*
X8593158Y-15489531D01*
X8593158Y-15489531D02*
X8602682Y-15508579D01*
X8602682Y-15508579D02*
X8612205Y-15546674D01*
X8612205Y-15546674D02*
X8612205Y-15594293D01*
X8612205Y-15594293D02*
X8602682Y-15632388D01*
X8602682Y-15632388D02*
X8593158Y-15651436D01*
X8593158Y-15651436D02*
X8583634Y-15660960D01*
X8583634Y-15660960D02*
X8564586Y-15670484D01*
X8564586Y-15670484D02*
X8545539Y-15670484D01*
X8545539Y-15670484D02*
X8526491Y-15660960D01*
X8526491Y-15660960D02*
X8516967Y-15651436D01*
X8516967Y-15651436D02*
X8507444Y-15632388D01*
X8507444Y-15632388D02*
X8497920Y-15594293D01*
X8497920Y-15594293D02*
X8497920Y-15546674D01*
X8497920Y-15546674D02*
X8507444Y-15508579D01*
X8507444Y-15508579D02*
X8516967Y-15489531D01*
X8516967Y-15489531D02*
X8526491Y-15480008D01*
X8526491Y-15480008D02*
X8545539Y-15470484D01*
X8697920Y-15670484D02*
X8697920Y-15537150D01*
X8697920Y-15556198D02*
X8707444Y-15546674D01*
X8707444Y-15546674D02*
X8726491Y-15537150D01*
X8726491Y-15537150D02*
X8755063Y-15537150D01*
X8755063Y-15537150D02*
X8774110Y-15546674D01*
X8774110Y-15546674D02*
X8783634Y-15565722D01*
X8783634Y-15565722D02*
X8783634Y-15670484D01*
X8783634Y-15565722D02*
X8793158Y-15546674D01*
X8793158Y-15546674D02*
X8812205Y-15537150D01*
X8812205Y-15537150D02*
X8840777Y-15537150D01*
X8840777Y-15537150D02*
X8859825Y-15546674D01*
X8859825Y-15546674D02*
X8869348Y-15565722D01*
X8869348Y-15565722D02*
X8869348Y-15670484D01*
X8964586Y-15670484D02*
X8964586Y-15537150D01*
X8964586Y-15556198D02*
X8974110Y-15546674D01*
X8974110Y-15546674D02*
X8993158Y-15537150D01*
X8993158Y-15537150D02*
X9021729Y-15537150D01*
X9021729Y-15537150D02*
X9040777Y-15546674D01*
X9040777Y-15546674D02*
X9050301Y-15565722D01*
X9050301Y-15565722D02*
X9050301Y-15670484D01*
X9050301Y-15565722D02*
X9059825Y-15546674D01*
X9059825Y-15546674D02*
X9078872Y-15537150D01*
X9078872Y-15537150D02*
X9107444Y-15537150D01*
X9107444Y-15537150D02*
X9126491Y-15546674D01*
X9126491Y-15546674D02*
X9136015Y-15565722D01*
X9136015Y-15565722D02*
X9136015Y-15670484D01*
X9526491Y-15460960D02*
X9355063Y-15718103D01*
X9783634Y-15470484D02*
X9802682Y-15470484D01*
X9802682Y-15470484D02*
X9821729Y-15480008D01*
X9821729Y-15480008D02*
X9831253Y-15489531D01*
X9831253Y-15489531D02*
X9840777Y-15508579D01*
X9840777Y-15508579D02*
X9850301Y-15546674D01*
X9850301Y-15546674D02*
X9850301Y-15594293D01*
X9850301Y-15594293D02*
X9840777Y-15632388D01*
X9840777Y-15632388D02*
X9831253Y-15651436D01*
X9831253Y-15651436D02*
X9821729Y-15660960D01*
X9821729Y-15660960D02*
X9802682Y-15670484D01*
X9802682Y-15670484D02*
X9783634Y-15670484D01*
X9783634Y-15670484D02*
X9764587Y-15660960D01*
X9764587Y-15660960D02*
X9755063Y-15651436D01*
X9755063Y-15651436D02*
X9745539Y-15632388D01*
X9745539Y-15632388D02*
X9736015Y-15594293D01*
X9736015Y-15594293D02*
X9736015Y-15546674D01*
X9736015Y-15546674D02*
X9745539Y-15508579D01*
X9745539Y-15508579D02*
X9755063Y-15489531D01*
X9755063Y-15489531D02*
X9764587Y-15480008D01*
X9764587Y-15480008D02*
X9783634Y-15470484D01*
X9936015Y-15651436D02*
X9945539Y-15660960D01*
X9945539Y-15660960D02*
X9936015Y-15670484D01*
X9936015Y-15670484D02*
X9926491Y-15660960D01*
X9926491Y-15660960D02*
X9936015Y-15651436D01*
X9936015Y-15651436D02*
X9936015Y-15670484D01*
X10069348Y-15470484D02*
X10088396Y-15470484D01*
X10088396Y-15470484D02*
X10107444Y-15480008D01*
X10107444Y-15480008D02*
X10116968Y-15489531D01*
X10116968Y-15489531D02*
X10126491Y-15508579D01*
X10126491Y-15508579D02*
X10136015Y-15546674D01*
X10136015Y-15546674D02*
X10136015Y-15594293D01*
X10136015Y-15594293D02*
X10126491Y-15632388D01*
X10126491Y-15632388D02*
X10116968Y-15651436D01*
X10116968Y-15651436D02*
X10107444Y-15660960D01*
X10107444Y-15660960D02*
X10088396Y-15670484D01*
X10088396Y-15670484D02*
X10069348Y-15670484D01*
X10069348Y-15670484D02*
X10050301Y-15660960D01*
X10050301Y-15660960D02*
X10040777Y-15651436D01*
X10040777Y-15651436D02*
X10031253Y-15632388D01*
X10031253Y-15632388D02*
X10021729Y-15594293D01*
X10021729Y-15594293D02*
X10021729Y-15546674D01*
X10021729Y-15546674D02*
X10031253Y-15508579D01*
X10031253Y-15508579D02*
X10040777Y-15489531D01*
X10040777Y-15489531D02*
X10050301Y-15480008D01*
X10050301Y-15480008D02*
X10069348Y-15470484D01*
X10202682Y-15470484D02*
X10326491Y-15470484D01*
X10326491Y-15470484D02*
X10259825Y-15546674D01*
X10259825Y-15546674D02*
X10288396Y-15546674D01*
X10288396Y-15546674D02*
X10307444Y-15556198D01*
X10307444Y-15556198D02*
X10316968Y-15565722D01*
X10316968Y-15565722D02*
X10326491Y-15584769D01*
X10326491Y-15584769D02*
X10326491Y-15632388D01*
X10326491Y-15632388D02*
X10316968Y-15651436D01*
X10316968Y-15651436D02*
X10307444Y-15660960D01*
X10307444Y-15660960D02*
X10288396Y-15670484D01*
X10288396Y-15670484D02*
X10231253Y-15670484D01*
X10231253Y-15670484D02*
X10212206Y-15660960D01*
X10212206Y-15660960D02*
X10202682Y-15651436D01*
X10516968Y-15670484D02*
X10402682Y-15670484D01*
X10459825Y-15670484D02*
X10459825Y-15470484D01*
X10459825Y-15470484D02*
X10440777Y-15499055D01*
X10440777Y-15499055D02*
X10421729Y-15518103D01*
X10421729Y-15518103D02*
X10402682Y-15527627D01*
X10697920Y-15470484D02*
X10602682Y-15470484D01*
X10602682Y-15470484D02*
X10593158Y-15565722D01*
X10593158Y-15565722D02*
X10602682Y-15556198D01*
X10602682Y-15556198D02*
X10621729Y-15546674D01*
X10621729Y-15546674D02*
X10669349Y-15546674D01*
X10669349Y-15546674D02*
X10688396Y-15556198D01*
X10688396Y-15556198D02*
X10697920Y-15565722D01*
X10697920Y-15565722D02*
X10707444Y-15584769D01*
X10707444Y-15584769D02*
X10707444Y-15632388D01*
X10707444Y-15632388D02*
X10697920Y-15651436D01*
X10697920Y-15651436D02*
X10688396Y-15660960D01*
X10688396Y-15660960D02*
X10669349Y-15670484D01*
X10669349Y-15670484D02*
X10621729Y-15670484D01*
X10621729Y-15670484D02*
X10602682Y-15660960D01*
X10602682Y-15660960D02*
X10593158Y-15651436D01*
X10783634Y-15470484D02*
X10783634Y-15508579D01*
X10859825Y-15470484D02*
X10859825Y-15508579D01*
X11155063Y-15746674D02*
X11145539Y-15737150D01*
X11145539Y-15737150D02*
X11126491Y-15708579D01*
X11126491Y-15708579D02*
X11116968Y-15689531D01*
X11116968Y-15689531D02*
X11107444Y-15660960D01*
X11107444Y-15660960D02*
X11097920Y-15613341D01*
X11097920Y-15613341D02*
X11097920Y-15575246D01*
X11097920Y-15575246D02*
X11107444Y-15527627D01*
X11107444Y-15527627D02*
X11116968Y-15499055D01*
X11116968Y-15499055D02*
X11126491Y-15480008D01*
X11126491Y-15480008D02*
X11145539Y-15451436D01*
X11145539Y-15451436D02*
X11155063Y-15441912D01*
X11316968Y-15470484D02*
X11278872Y-15470484D01*
X11278872Y-15470484D02*
X11259825Y-15480008D01*
X11259825Y-15480008D02*
X11250301Y-15489531D01*
X11250301Y-15489531D02*
X11231253Y-15518103D01*
X11231253Y-15518103D02*
X11221729Y-15556198D01*
X11221729Y-15556198D02*
X11221729Y-15632388D01*
X11221729Y-15632388D02*
X11231253Y-15651436D01*
X11231253Y-15651436D02*
X11240777Y-15660960D01*
X11240777Y-15660960D02*
X11259825Y-15670484D01*
X11259825Y-15670484D02*
X11297920Y-15670484D01*
X11297920Y-15670484D02*
X11316968Y-15660960D01*
X11316968Y-15660960D02*
X11326491Y-15651436D01*
X11326491Y-15651436D02*
X11336015Y-15632388D01*
X11336015Y-15632388D02*
X11336015Y-15584769D01*
X11336015Y-15584769D02*
X11326491Y-15565722D01*
X11326491Y-15565722D02*
X11316968Y-15556198D01*
X11316968Y-15556198D02*
X11297920Y-15546674D01*
X11297920Y-15546674D02*
X11259825Y-15546674D01*
X11259825Y-15546674D02*
X11240777Y-15556198D01*
X11240777Y-15556198D02*
X11231253Y-15565722D01*
X11231253Y-15565722D02*
X11221729Y-15584769D01*
X11459825Y-15470484D02*
X11478872Y-15470484D01*
X11478872Y-15470484D02*
X11497920Y-15480008D01*
X11497920Y-15480008D02*
X11507444Y-15489531D01*
X11507444Y-15489531D02*
X11516968Y-15508579D01*
X11516968Y-15508579D02*
X11526491Y-15546674D01*
X11526491Y-15546674D02*
X11526491Y-15594293D01*
X11526491Y-15594293D02*
X11516968Y-15632388D01*
X11516968Y-15632388D02*
X11507444Y-15651436D01*
X11507444Y-15651436D02*
X11497920Y-15660960D01*
X11497920Y-15660960D02*
X11478872Y-15670484D01*
X11478872Y-15670484D02*
X11459825Y-15670484D01*
X11459825Y-15670484D02*
X11440777Y-15660960D01*
X11440777Y-15660960D02*
X11431253Y-15651436D01*
X11431253Y-15651436D02*
X11421729Y-15632388D01*
X11421729Y-15632388D02*
X11412206Y-15594293D01*
X11412206Y-15594293D02*
X11412206Y-15546674D01*
X11412206Y-15546674D02*
X11421729Y-15508579D01*
X11421729Y-15508579D02*
X11431253Y-15489531D01*
X11431253Y-15489531D02*
X11440777Y-15480008D01*
X11440777Y-15480008D02*
X11459825Y-15470484D01*
X11764587Y-15670484D02*
X11764587Y-15470484D01*
X11850301Y-15670484D02*
X11850301Y-15565722D01*
X11850301Y-15565722D02*
X11840777Y-15546674D01*
X11840777Y-15546674D02*
X11821730Y-15537150D01*
X11821730Y-15537150D02*
X11793158Y-15537150D01*
X11793158Y-15537150D02*
X11774110Y-15546674D01*
X11774110Y-15546674D02*
X11764587Y-15556198D01*
X11974110Y-15670484D02*
X11955063Y-15660960D01*
X11955063Y-15660960D02*
X11945539Y-15651436D01*
X11945539Y-15651436D02*
X11936015Y-15632388D01*
X11936015Y-15632388D02*
X11936015Y-15575246D01*
X11936015Y-15575246D02*
X11945539Y-15556198D01*
X11945539Y-15556198D02*
X11955063Y-15546674D01*
X11955063Y-15546674D02*
X11974110Y-15537150D01*
X11974110Y-15537150D02*
X12002682Y-15537150D01*
X12002682Y-15537150D02*
X12021730Y-15546674D01*
X12021730Y-15546674D02*
X12031253Y-15556198D01*
X12031253Y-15556198D02*
X12040777Y-15575246D01*
X12040777Y-15575246D02*
X12040777Y-15632388D01*
X12040777Y-15632388D02*
X12031253Y-15651436D01*
X12031253Y-15651436D02*
X12021730Y-15660960D01*
X12021730Y-15660960D02*
X12002682Y-15670484D01*
X12002682Y-15670484D02*
X11974110Y-15670484D01*
X12155063Y-15670484D02*
X12136015Y-15660960D01*
X12136015Y-15660960D02*
X12126491Y-15641912D01*
X12126491Y-15641912D02*
X12126491Y-15470484D01*
X12307444Y-15660960D02*
X12288396Y-15670484D01*
X12288396Y-15670484D02*
X12250301Y-15670484D01*
X12250301Y-15670484D02*
X12231253Y-15660960D01*
X12231253Y-15660960D02*
X12221730Y-15641912D01*
X12221730Y-15641912D02*
X12221730Y-15565722D01*
X12221730Y-15565722D02*
X12231253Y-15546674D01*
X12231253Y-15546674D02*
X12250301Y-15537150D01*
X12250301Y-15537150D02*
X12288396Y-15537150D01*
X12288396Y-15537150D02*
X12307444Y-15546674D01*
X12307444Y-15546674D02*
X12316968Y-15565722D01*
X12316968Y-15565722D02*
X12316968Y-15584769D01*
X12316968Y-15584769D02*
X12221730Y-15603817D01*
X12393158Y-15660960D02*
X12412206Y-15670484D01*
X12412206Y-15670484D02*
X12450301Y-15670484D01*
X12450301Y-15670484D02*
X12469349Y-15660960D01*
X12469349Y-15660960D02*
X12478872Y-15641912D01*
X12478872Y-15641912D02*
X12478872Y-15632388D01*
X12478872Y-15632388D02*
X12469349Y-15613341D01*
X12469349Y-15613341D02*
X12450301Y-15603817D01*
X12450301Y-15603817D02*
X12421730Y-15603817D01*
X12421730Y-15603817D02*
X12402682Y-15594293D01*
X12402682Y-15594293D02*
X12393158Y-15575246D01*
X12393158Y-15575246D02*
X12393158Y-15565722D01*
X12393158Y-15565722D02*
X12402682Y-15546674D01*
X12402682Y-15546674D02*
X12421730Y-15537150D01*
X12421730Y-15537150D02*
X12450301Y-15537150D01*
X12450301Y-15537150D02*
X12469349Y-15546674D01*
X12545539Y-15746674D02*
X12555063Y-15737150D01*
X12555063Y-15737150D02*
X12574111Y-15708579D01*
X12574111Y-15708579D02*
X12583634Y-15689531D01*
X12583634Y-15689531D02*
X12593158Y-15660960D01*
X12593158Y-15660960D02*
X12602682Y-15613341D01*
X12602682Y-15613341D02*
X12602682Y-15575246D01*
X12602682Y-15575246D02*
X12593158Y-15527627D01*
X12593158Y-15527627D02*
X12583634Y-15499055D01*
X12583634Y-15499055D02*
X12574111Y-15480008D01*
X12574111Y-15480008D02*
X12555063Y-15451436D01*
X12555063Y-15451436D02*
X12545539Y-15441912D01*
D11*
X7530000Y-15793000D02*
X7530000Y-15893000D01*
X7480000Y-15843000D02*
X7580000Y-15843000D01*
D10*
X7945539Y-15934484D02*
X7831253Y-15934484D01*
X7888396Y-15934484D02*
X7888396Y-15734484D01*
X7888396Y-15734484D02*
X7869348Y-15763055D01*
X7869348Y-15763055D02*
X7850301Y-15782103D01*
X7850301Y-15782103D02*
X7831253Y-15791627D01*
X8031253Y-15915436D02*
X8040777Y-15924960D01*
X8040777Y-15924960D02*
X8031253Y-15934484D01*
X8031253Y-15934484D02*
X8021729Y-15924960D01*
X8021729Y-15924960D02*
X8031253Y-15915436D01*
X8031253Y-15915436D02*
X8031253Y-15934484D01*
X8164586Y-15734484D02*
X8183634Y-15734484D01*
X8183634Y-15734484D02*
X8202682Y-15744008D01*
X8202682Y-15744008D02*
X8212205Y-15753531D01*
X8212205Y-15753531D02*
X8221729Y-15772579D01*
X8221729Y-15772579D02*
X8231253Y-15810674D01*
X8231253Y-15810674D02*
X8231253Y-15858293D01*
X8231253Y-15858293D02*
X8221729Y-15896388D01*
X8221729Y-15896388D02*
X8212205Y-15915436D01*
X8212205Y-15915436D02*
X8202682Y-15924960D01*
X8202682Y-15924960D02*
X8183634Y-15934484D01*
X8183634Y-15934484D02*
X8164586Y-15934484D01*
X8164586Y-15934484D02*
X8145539Y-15924960D01*
X8145539Y-15924960D02*
X8136015Y-15915436D01*
X8136015Y-15915436D02*
X8126491Y-15896388D01*
X8126491Y-15896388D02*
X8116967Y-15858293D01*
X8116967Y-15858293D02*
X8116967Y-15810674D01*
X8116967Y-15810674D02*
X8126491Y-15772579D01*
X8126491Y-15772579D02*
X8136015Y-15753531D01*
X8136015Y-15753531D02*
X8145539Y-15744008D01*
X8145539Y-15744008D02*
X8164586Y-15734484D01*
X8355062Y-15734484D02*
X8374110Y-15734484D01*
X8374110Y-15734484D02*
X8393158Y-15744008D01*
X8393158Y-15744008D02*
X8402682Y-15753531D01*
X8402682Y-15753531D02*
X8412205Y-15772579D01*
X8412205Y-15772579D02*
X8421729Y-15810674D01*
X8421729Y-15810674D02*
X8421729Y-15858293D01*
X8421729Y-15858293D02*
X8412205Y-15896388D01*
X8412205Y-15896388D02*
X8402682Y-15915436D01*
X8402682Y-15915436D02*
X8393158Y-15924960D01*
X8393158Y-15924960D02*
X8374110Y-15934484D01*
X8374110Y-15934484D02*
X8355062Y-15934484D01*
X8355062Y-15934484D02*
X8336015Y-15924960D01*
X8336015Y-15924960D02*
X8326491Y-15915436D01*
X8326491Y-15915436D02*
X8316967Y-15896388D01*
X8316967Y-15896388D02*
X8307443Y-15858293D01*
X8307443Y-15858293D02*
X8307443Y-15810674D01*
X8307443Y-15810674D02*
X8316967Y-15772579D01*
X8316967Y-15772579D02*
X8326491Y-15753531D01*
X8326491Y-15753531D02*
X8336015Y-15744008D01*
X8336015Y-15744008D02*
X8355062Y-15734484D01*
X8545539Y-15734484D02*
X8564586Y-15734484D01*
X8564586Y-15734484D02*
X8583634Y-15744008D01*
X8583634Y-15744008D02*
X8593158Y-15753531D01*
X8593158Y-15753531D02*
X8602682Y-15772579D01*
X8602682Y-15772579D02*
X8612205Y-15810674D01*
X8612205Y-15810674D02*
X8612205Y-15858293D01*
X8612205Y-15858293D02*
X8602682Y-15896388D01*
X8602682Y-15896388D02*
X8593158Y-15915436D01*
X8593158Y-15915436D02*
X8583634Y-15924960D01*
X8583634Y-15924960D02*
X8564586Y-15934484D01*
X8564586Y-15934484D02*
X8545539Y-15934484D01*
X8545539Y-15934484D02*
X8526491Y-15924960D01*
X8526491Y-15924960D02*
X8516967Y-15915436D01*
X8516967Y-15915436D02*
X8507444Y-15896388D01*
X8507444Y-15896388D02*
X8497920Y-15858293D01*
X8497920Y-15858293D02*
X8497920Y-15810674D01*
X8497920Y-15810674D02*
X8507444Y-15772579D01*
X8507444Y-15772579D02*
X8516967Y-15753531D01*
X8516967Y-15753531D02*
X8526491Y-15744008D01*
X8526491Y-15744008D02*
X8545539Y-15734484D01*
X8697920Y-15934484D02*
X8697920Y-15801150D01*
X8697920Y-15820198D02*
X8707444Y-15810674D01*
X8707444Y-15810674D02*
X8726491Y-15801150D01*
X8726491Y-15801150D02*
X8755063Y-15801150D01*
X8755063Y-15801150D02*
X8774110Y-15810674D01*
X8774110Y-15810674D02*
X8783634Y-15829722D01*
X8783634Y-15829722D02*
X8783634Y-15934484D01*
X8783634Y-15829722D02*
X8793158Y-15810674D01*
X8793158Y-15810674D02*
X8812205Y-15801150D01*
X8812205Y-15801150D02*
X8840777Y-15801150D01*
X8840777Y-15801150D02*
X8859825Y-15810674D01*
X8859825Y-15810674D02*
X8869348Y-15829722D01*
X8869348Y-15829722D02*
X8869348Y-15934484D01*
X8964586Y-15934484D02*
X8964586Y-15801150D01*
X8964586Y-15820198D02*
X8974110Y-15810674D01*
X8974110Y-15810674D02*
X8993158Y-15801150D01*
X8993158Y-15801150D02*
X9021729Y-15801150D01*
X9021729Y-15801150D02*
X9040777Y-15810674D01*
X9040777Y-15810674D02*
X9050301Y-15829722D01*
X9050301Y-15829722D02*
X9050301Y-15934484D01*
X9050301Y-15829722D02*
X9059825Y-15810674D01*
X9059825Y-15810674D02*
X9078872Y-15801150D01*
X9078872Y-15801150D02*
X9107444Y-15801150D01*
X9107444Y-15801150D02*
X9126491Y-15810674D01*
X9126491Y-15810674D02*
X9136015Y-15829722D01*
X9136015Y-15829722D02*
X9136015Y-15934484D01*
X9526491Y-15724960D02*
X9355063Y-15982103D01*
X9783634Y-15734484D02*
X9802682Y-15734484D01*
X9802682Y-15734484D02*
X9821729Y-15744008D01*
X9821729Y-15744008D02*
X9831253Y-15753531D01*
X9831253Y-15753531D02*
X9840777Y-15772579D01*
X9840777Y-15772579D02*
X9850301Y-15810674D01*
X9850301Y-15810674D02*
X9850301Y-15858293D01*
X9850301Y-15858293D02*
X9840777Y-15896388D01*
X9840777Y-15896388D02*
X9831253Y-15915436D01*
X9831253Y-15915436D02*
X9821729Y-15924960D01*
X9821729Y-15924960D02*
X9802682Y-15934484D01*
X9802682Y-15934484D02*
X9783634Y-15934484D01*
X9783634Y-15934484D02*
X9764587Y-15924960D01*
X9764587Y-15924960D02*
X9755063Y-15915436D01*
X9755063Y-15915436D02*
X9745539Y-15896388D01*
X9745539Y-15896388D02*
X9736015Y-15858293D01*
X9736015Y-15858293D02*
X9736015Y-15810674D01*
X9736015Y-15810674D02*
X9745539Y-15772579D01*
X9745539Y-15772579D02*
X9755063Y-15753531D01*
X9755063Y-15753531D02*
X9764587Y-15744008D01*
X9764587Y-15744008D02*
X9783634Y-15734484D01*
X9936015Y-15915436D02*
X9945539Y-15924960D01*
X9945539Y-15924960D02*
X9936015Y-15934484D01*
X9936015Y-15934484D02*
X9926491Y-15924960D01*
X9926491Y-15924960D02*
X9936015Y-15915436D01*
X9936015Y-15915436D02*
X9936015Y-15934484D01*
X10069348Y-15734484D02*
X10088396Y-15734484D01*
X10088396Y-15734484D02*
X10107444Y-15744008D01*
X10107444Y-15744008D02*
X10116968Y-15753531D01*
X10116968Y-15753531D02*
X10126491Y-15772579D01*
X10126491Y-15772579D02*
X10136015Y-15810674D01*
X10136015Y-15810674D02*
X10136015Y-15858293D01*
X10136015Y-15858293D02*
X10126491Y-15896388D01*
X10126491Y-15896388D02*
X10116968Y-15915436D01*
X10116968Y-15915436D02*
X10107444Y-15924960D01*
X10107444Y-15924960D02*
X10088396Y-15934484D01*
X10088396Y-15934484D02*
X10069348Y-15934484D01*
X10069348Y-15934484D02*
X10050301Y-15924960D01*
X10050301Y-15924960D02*
X10040777Y-15915436D01*
X10040777Y-15915436D02*
X10031253Y-15896388D01*
X10031253Y-15896388D02*
X10021729Y-15858293D01*
X10021729Y-15858293D02*
X10021729Y-15810674D01*
X10021729Y-15810674D02*
X10031253Y-15772579D01*
X10031253Y-15772579D02*
X10040777Y-15753531D01*
X10040777Y-15753531D02*
X10050301Y-15744008D01*
X10050301Y-15744008D02*
X10069348Y-15734484D01*
X10202682Y-15734484D02*
X10326491Y-15734484D01*
X10326491Y-15734484D02*
X10259825Y-15810674D01*
X10259825Y-15810674D02*
X10288396Y-15810674D01*
X10288396Y-15810674D02*
X10307444Y-15820198D01*
X10307444Y-15820198D02*
X10316968Y-15829722D01*
X10316968Y-15829722D02*
X10326491Y-15848769D01*
X10326491Y-15848769D02*
X10326491Y-15896388D01*
X10326491Y-15896388D02*
X10316968Y-15915436D01*
X10316968Y-15915436D02*
X10307444Y-15924960D01*
X10307444Y-15924960D02*
X10288396Y-15934484D01*
X10288396Y-15934484D02*
X10231253Y-15934484D01*
X10231253Y-15934484D02*
X10212206Y-15924960D01*
X10212206Y-15924960D02*
X10202682Y-15915436D01*
X10421729Y-15934484D02*
X10459825Y-15934484D01*
X10459825Y-15934484D02*
X10478872Y-15924960D01*
X10478872Y-15924960D02*
X10488396Y-15915436D01*
X10488396Y-15915436D02*
X10507444Y-15886865D01*
X10507444Y-15886865D02*
X10516968Y-15848769D01*
X10516968Y-15848769D02*
X10516968Y-15772579D01*
X10516968Y-15772579D02*
X10507444Y-15753531D01*
X10507444Y-15753531D02*
X10497920Y-15744008D01*
X10497920Y-15744008D02*
X10478872Y-15734484D01*
X10478872Y-15734484D02*
X10440777Y-15734484D01*
X10440777Y-15734484D02*
X10421729Y-15744008D01*
X10421729Y-15744008D02*
X10412206Y-15753531D01*
X10412206Y-15753531D02*
X10402682Y-15772579D01*
X10402682Y-15772579D02*
X10402682Y-15820198D01*
X10402682Y-15820198D02*
X10412206Y-15839246D01*
X10412206Y-15839246D02*
X10421729Y-15848769D01*
X10421729Y-15848769D02*
X10440777Y-15858293D01*
X10440777Y-15858293D02*
X10478872Y-15858293D01*
X10478872Y-15858293D02*
X10497920Y-15848769D01*
X10497920Y-15848769D02*
X10507444Y-15839246D01*
X10507444Y-15839246D02*
X10516968Y-15820198D01*
X10688396Y-15801150D02*
X10688396Y-15934484D01*
X10640777Y-15724960D02*
X10593158Y-15867817D01*
X10593158Y-15867817D02*
X10716968Y-15867817D01*
X10783634Y-15734484D02*
X10783634Y-15772579D01*
X10859825Y-15734484D02*
X10859825Y-15772579D01*
X11155063Y-16010674D02*
X11145539Y-16001150D01*
X11145539Y-16001150D02*
X11126491Y-15972579D01*
X11126491Y-15972579D02*
X11116968Y-15953531D01*
X11116968Y-15953531D02*
X11107444Y-15924960D01*
X11107444Y-15924960D02*
X11097920Y-15877341D01*
X11097920Y-15877341D02*
X11097920Y-15839246D01*
X11097920Y-15839246D02*
X11107444Y-15791627D01*
X11107444Y-15791627D02*
X11116968Y-15763055D01*
X11116968Y-15763055D02*
X11126491Y-15744008D01*
X11126491Y-15744008D02*
X11145539Y-15715436D01*
X11145539Y-15715436D02*
X11155063Y-15705912D01*
X11336015Y-15934484D02*
X11221729Y-15934484D01*
X11278872Y-15934484D02*
X11278872Y-15734484D01*
X11278872Y-15734484D02*
X11259825Y-15763055D01*
X11259825Y-15763055D02*
X11240777Y-15782103D01*
X11240777Y-15782103D02*
X11221729Y-15791627D01*
X11526491Y-15934484D02*
X11412206Y-15934484D01*
X11469348Y-15934484D02*
X11469348Y-15734484D01*
X11469348Y-15734484D02*
X11450301Y-15763055D01*
X11450301Y-15763055D02*
X11431253Y-15782103D01*
X11431253Y-15782103D02*
X11412206Y-15791627D01*
X11764587Y-15934484D02*
X11764587Y-15734484D01*
X11850301Y-15934484D02*
X11850301Y-15829722D01*
X11850301Y-15829722D02*
X11840777Y-15810674D01*
X11840777Y-15810674D02*
X11821730Y-15801150D01*
X11821730Y-15801150D02*
X11793158Y-15801150D01*
X11793158Y-15801150D02*
X11774110Y-15810674D01*
X11774110Y-15810674D02*
X11764587Y-15820198D01*
X11974110Y-15934484D02*
X11955063Y-15924960D01*
X11955063Y-15924960D02*
X11945539Y-15915436D01*
X11945539Y-15915436D02*
X11936015Y-15896388D01*
X11936015Y-15896388D02*
X11936015Y-15839246D01*
X11936015Y-15839246D02*
X11945539Y-15820198D01*
X11945539Y-15820198D02*
X11955063Y-15810674D01*
X11955063Y-15810674D02*
X11974110Y-15801150D01*
X11974110Y-15801150D02*
X12002682Y-15801150D01*
X12002682Y-15801150D02*
X12021730Y-15810674D01*
X12021730Y-15810674D02*
X12031253Y-15820198D01*
X12031253Y-15820198D02*
X12040777Y-15839246D01*
X12040777Y-15839246D02*
X12040777Y-15896388D01*
X12040777Y-15896388D02*
X12031253Y-15915436D01*
X12031253Y-15915436D02*
X12021730Y-15924960D01*
X12021730Y-15924960D02*
X12002682Y-15934484D01*
X12002682Y-15934484D02*
X11974110Y-15934484D01*
X12155063Y-15934484D02*
X12136015Y-15924960D01*
X12136015Y-15924960D02*
X12126491Y-15905912D01*
X12126491Y-15905912D02*
X12126491Y-15734484D01*
X12307444Y-15924960D02*
X12288396Y-15934484D01*
X12288396Y-15934484D02*
X12250301Y-15934484D01*
X12250301Y-15934484D02*
X12231253Y-15924960D01*
X12231253Y-15924960D02*
X12221730Y-15905912D01*
X12221730Y-15905912D02*
X12221730Y-15829722D01*
X12221730Y-15829722D02*
X12231253Y-15810674D01*
X12231253Y-15810674D02*
X12250301Y-15801150D01*
X12250301Y-15801150D02*
X12288396Y-15801150D01*
X12288396Y-15801150D02*
X12307444Y-15810674D01*
X12307444Y-15810674D02*
X12316968Y-15829722D01*
X12316968Y-15829722D02*
X12316968Y-15848769D01*
X12316968Y-15848769D02*
X12221730Y-15867817D01*
X12393158Y-15924960D02*
X12412206Y-15934484D01*
X12412206Y-15934484D02*
X12450301Y-15934484D01*
X12450301Y-15934484D02*
X12469349Y-15924960D01*
X12469349Y-15924960D02*
X12478872Y-15905912D01*
X12478872Y-15905912D02*
X12478872Y-15896388D01*
X12478872Y-15896388D02*
X12469349Y-15877341D01*
X12469349Y-15877341D02*
X12450301Y-15867817D01*
X12450301Y-15867817D02*
X12421730Y-15867817D01*
X12421730Y-15867817D02*
X12402682Y-15858293D01*
X12402682Y-15858293D02*
X12393158Y-15839246D01*
X12393158Y-15839246D02*
X12393158Y-15829722D01*
X12393158Y-15829722D02*
X12402682Y-15810674D01*
X12402682Y-15810674D02*
X12421730Y-15801150D01*
X12421730Y-15801150D02*
X12450301Y-15801150D01*
X12450301Y-15801150D02*
X12469349Y-15810674D01*
X12545539Y-16010674D02*
X12555063Y-16001150D01*
X12555063Y-16001150D02*
X12574111Y-15972579D01*
X12574111Y-15972579D02*
X12583634Y-15953531D01*
X12583634Y-15953531D02*
X12593158Y-15924960D01*
X12593158Y-15924960D02*
X12602682Y-15877341D01*
X12602682Y-15877341D02*
X12602682Y-15839246D01*
X12602682Y-15839246D02*
X12593158Y-15791627D01*
X12593158Y-15791627D02*
X12583634Y-15763055D01*
X12583634Y-15763055D02*
X12574111Y-15744008D01*
X12574111Y-15744008D02*
X12555063Y-15715436D01*
X12555063Y-15715436D02*
X12545539Y-15705912D01*
M02*
