%TF.GenerationSoftware,KiCad,Pcbnew,9.0.0*%
%TF.CreationDate,2025-05-12T21:33:37-05:00*%
%TF.ProjectId,Model I RS232,4d6f6465-6c20-4492-9052-533233322e6b,2.1*%
%TF.SameCoordinates,Original*%
%TF.FileFunction,Drillmap*%
%TF.FilePolarity,Positive*%
%FSLAX45Y45*%
G04 Gerber Fmt 4.5, Leading zero omitted, Abs format (unit mm)*
G04 Created by KiCad (PCBNEW 9.0.0) date 2025-05-12 21:33:37*
%MOMM*%
%LPD*%
G01*
G04 APERTURE LIST*
%ADD10C,0.200000*%
%ADD11C,0.317500*%
%ADD12C,0.477520*%
G04 APERTURE END LIST*
D10*
X7590000Y-7460000D02*
X17440000Y-7460000D01*
X17440000Y-14665000D01*
X7590000Y-14665000D01*
X7590000Y-7460000D01*
D11*
X7923150Y-13660250D02*
X8240650Y-13977750D01*
X8240650Y-13660250D02*
X7923150Y-13977750D01*
D12*
X8320660Y-7850000D02*
G75*
G02*
X7843140Y-7850000I-238760J0D01*
G01*
X7843140Y-7850000D02*
G75*
G02*
X8320660Y-7850000I238760J0D01*
G01*
D10*
X7840777Y-14986484D02*
X7840777Y-14786484D01*
X7840777Y-14786484D02*
X7888396Y-14786484D01*
X7888396Y-14786484D02*
X7916967Y-14796008D01*
X7916967Y-14796008D02*
X7936015Y-14815055D01*
X7936015Y-14815055D02*
X7945539Y-14834103D01*
X7945539Y-14834103D02*
X7955062Y-14872198D01*
X7955062Y-14872198D02*
X7955062Y-14900769D01*
X7955062Y-14900769D02*
X7945539Y-14938865D01*
X7945539Y-14938865D02*
X7936015Y-14957912D01*
X7936015Y-14957912D02*
X7916967Y-14976960D01*
X7916967Y-14976960D02*
X7888396Y-14986484D01*
X7888396Y-14986484D02*
X7840777Y-14986484D01*
X8040777Y-14986484D02*
X8040777Y-14853150D01*
X8040777Y-14891246D02*
X8050301Y-14872198D01*
X8050301Y-14872198D02*
X8059824Y-14862674D01*
X8059824Y-14862674D02*
X8078872Y-14853150D01*
X8078872Y-14853150D02*
X8097920Y-14853150D01*
X8164586Y-14986484D02*
X8164586Y-14853150D01*
X8164586Y-14786484D02*
X8155062Y-14796008D01*
X8155062Y-14796008D02*
X8164586Y-14805531D01*
X8164586Y-14805531D02*
X8174110Y-14796008D01*
X8174110Y-14796008D02*
X8164586Y-14786484D01*
X8164586Y-14786484D02*
X8164586Y-14805531D01*
X8288396Y-14986484D02*
X8269348Y-14976960D01*
X8269348Y-14976960D02*
X8259824Y-14957912D01*
X8259824Y-14957912D02*
X8259824Y-14786484D01*
X8393158Y-14986484D02*
X8374110Y-14976960D01*
X8374110Y-14976960D02*
X8364586Y-14957912D01*
X8364586Y-14957912D02*
X8364586Y-14786484D01*
X8621729Y-14986484D02*
X8621729Y-14786484D01*
X8621729Y-14786484D02*
X8688396Y-14929341D01*
X8688396Y-14929341D02*
X8755063Y-14786484D01*
X8755063Y-14786484D02*
X8755063Y-14986484D01*
X8936015Y-14986484D02*
X8936015Y-14881722D01*
X8936015Y-14881722D02*
X8926491Y-14862674D01*
X8926491Y-14862674D02*
X8907444Y-14853150D01*
X8907444Y-14853150D02*
X8869348Y-14853150D01*
X8869348Y-14853150D02*
X8850301Y-14862674D01*
X8936015Y-14976960D02*
X8916967Y-14986484D01*
X8916967Y-14986484D02*
X8869348Y-14986484D01*
X8869348Y-14986484D02*
X8850301Y-14976960D01*
X8850301Y-14976960D02*
X8840777Y-14957912D01*
X8840777Y-14957912D02*
X8840777Y-14938865D01*
X8840777Y-14938865D02*
X8850301Y-14919817D01*
X8850301Y-14919817D02*
X8869348Y-14910293D01*
X8869348Y-14910293D02*
X8916967Y-14910293D01*
X8916967Y-14910293D02*
X8936015Y-14900769D01*
X9031253Y-14853150D02*
X9031253Y-15053150D01*
X9031253Y-14862674D02*
X9050301Y-14853150D01*
X9050301Y-14853150D02*
X9088396Y-14853150D01*
X9088396Y-14853150D02*
X9107444Y-14862674D01*
X9107444Y-14862674D02*
X9116967Y-14872198D01*
X9116967Y-14872198D02*
X9126491Y-14891246D01*
X9126491Y-14891246D02*
X9126491Y-14948388D01*
X9126491Y-14948388D02*
X9116967Y-14967436D01*
X9116967Y-14967436D02*
X9107444Y-14976960D01*
X9107444Y-14976960D02*
X9088396Y-14986484D01*
X9088396Y-14986484D02*
X9050301Y-14986484D01*
X9050301Y-14986484D02*
X9031253Y-14976960D01*
X9212205Y-14967436D02*
X9221729Y-14976960D01*
X9221729Y-14976960D02*
X9212205Y-14986484D01*
X9212205Y-14986484D02*
X9202682Y-14976960D01*
X9202682Y-14976960D02*
X9212205Y-14967436D01*
X9212205Y-14967436D02*
X9212205Y-14986484D01*
X9212205Y-14862674D02*
X9221729Y-14872198D01*
X9221729Y-14872198D02*
X9212205Y-14881722D01*
X9212205Y-14881722D02*
X9202682Y-14872198D01*
X9202682Y-14872198D02*
X9212205Y-14862674D01*
X9212205Y-14862674D02*
X9212205Y-14881722D01*
X7380000Y-15215000D02*
X7580000Y-15415000D01*
X7580000Y-15215000D02*
X7380000Y-15415000D01*
X7821729Y-15206484D02*
X7945539Y-15206484D01*
X7945539Y-15206484D02*
X7878872Y-15282674D01*
X7878872Y-15282674D02*
X7907443Y-15282674D01*
X7907443Y-15282674D02*
X7926491Y-15292198D01*
X7926491Y-15292198D02*
X7936015Y-15301722D01*
X7936015Y-15301722D02*
X7945539Y-15320769D01*
X7945539Y-15320769D02*
X7945539Y-15368388D01*
X7945539Y-15368388D02*
X7936015Y-15387436D01*
X7936015Y-15387436D02*
X7926491Y-15396960D01*
X7926491Y-15396960D02*
X7907443Y-15406484D01*
X7907443Y-15406484D02*
X7850301Y-15406484D01*
X7850301Y-15406484D02*
X7831253Y-15396960D01*
X7831253Y-15396960D02*
X7821729Y-15387436D01*
X8031253Y-15387436D02*
X8040777Y-15396960D01*
X8040777Y-15396960D02*
X8031253Y-15406484D01*
X8031253Y-15406484D02*
X8021729Y-15396960D01*
X8021729Y-15396960D02*
X8031253Y-15387436D01*
X8031253Y-15387436D02*
X8031253Y-15406484D01*
X8231253Y-15406484D02*
X8116967Y-15406484D01*
X8174110Y-15406484D02*
X8174110Y-15206484D01*
X8174110Y-15206484D02*
X8155062Y-15235055D01*
X8155062Y-15235055D02*
X8136015Y-15254103D01*
X8136015Y-15254103D02*
X8116967Y-15263627D01*
X8297920Y-15206484D02*
X8431253Y-15206484D01*
X8431253Y-15206484D02*
X8345539Y-15406484D01*
X8602682Y-15206484D02*
X8507444Y-15206484D01*
X8507444Y-15206484D02*
X8497920Y-15301722D01*
X8497920Y-15301722D02*
X8507444Y-15292198D01*
X8507444Y-15292198D02*
X8526491Y-15282674D01*
X8526491Y-15282674D02*
X8574110Y-15282674D01*
X8574110Y-15282674D02*
X8593158Y-15292198D01*
X8593158Y-15292198D02*
X8602682Y-15301722D01*
X8602682Y-15301722D02*
X8612205Y-15320769D01*
X8612205Y-15320769D02*
X8612205Y-15368388D01*
X8612205Y-15368388D02*
X8602682Y-15387436D01*
X8602682Y-15387436D02*
X8593158Y-15396960D01*
X8593158Y-15396960D02*
X8574110Y-15406484D01*
X8574110Y-15406484D02*
X8526491Y-15406484D01*
X8526491Y-15406484D02*
X8507444Y-15396960D01*
X8507444Y-15396960D02*
X8497920Y-15387436D01*
X8697920Y-15406484D02*
X8697920Y-15273150D01*
X8697920Y-15292198D02*
X8707444Y-15282674D01*
X8707444Y-15282674D02*
X8726491Y-15273150D01*
X8726491Y-15273150D02*
X8755063Y-15273150D01*
X8755063Y-15273150D02*
X8774110Y-15282674D01*
X8774110Y-15282674D02*
X8783634Y-15301722D01*
X8783634Y-15301722D02*
X8783634Y-15406484D01*
X8783634Y-15301722D02*
X8793158Y-15282674D01*
X8793158Y-15282674D02*
X8812205Y-15273150D01*
X8812205Y-15273150D02*
X8840777Y-15273150D01*
X8840777Y-15273150D02*
X8859825Y-15282674D01*
X8859825Y-15282674D02*
X8869348Y-15301722D01*
X8869348Y-15301722D02*
X8869348Y-15406484D01*
X8964586Y-15406484D02*
X8964586Y-15273150D01*
X8964586Y-15292198D02*
X8974110Y-15282674D01*
X8974110Y-15282674D02*
X8993158Y-15273150D01*
X8993158Y-15273150D02*
X9021729Y-15273150D01*
X9021729Y-15273150D02*
X9040777Y-15282674D01*
X9040777Y-15282674D02*
X9050301Y-15301722D01*
X9050301Y-15301722D02*
X9050301Y-15406484D01*
X9050301Y-15301722D02*
X9059825Y-15282674D01*
X9059825Y-15282674D02*
X9078872Y-15273150D01*
X9078872Y-15273150D02*
X9107444Y-15273150D01*
X9107444Y-15273150D02*
X9126491Y-15282674D01*
X9126491Y-15282674D02*
X9136015Y-15301722D01*
X9136015Y-15301722D02*
X9136015Y-15406484D01*
X9526491Y-15196960D02*
X9355063Y-15454103D01*
X9783634Y-15206484D02*
X9802682Y-15206484D01*
X9802682Y-15206484D02*
X9821729Y-15216008D01*
X9821729Y-15216008D02*
X9831253Y-15225531D01*
X9831253Y-15225531D02*
X9840777Y-15244579D01*
X9840777Y-15244579D02*
X9850301Y-15282674D01*
X9850301Y-15282674D02*
X9850301Y-15330293D01*
X9850301Y-15330293D02*
X9840777Y-15368388D01*
X9840777Y-15368388D02*
X9831253Y-15387436D01*
X9831253Y-15387436D02*
X9821729Y-15396960D01*
X9821729Y-15396960D02*
X9802682Y-15406484D01*
X9802682Y-15406484D02*
X9783634Y-15406484D01*
X9783634Y-15406484D02*
X9764587Y-15396960D01*
X9764587Y-15396960D02*
X9755063Y-15387436D01*
X9755063Y-15387436D02*
X9745539Y-15368388D01*
X9745539Y-15368388D02*
X9736015Y-15330293D01*
X9736015Y-15330293D02*
X9736015Y-15282674D01*
X9736015Y-15282674D02*
X9745539Y-15244579D01*
X9745539Y-15244579D02*
X9755063Y-15225531D01*
X9755063Y-15225531D02*
X9764587Y-15216008D01*
X9764587Y-15216008D02*
X9783634Y-15206484D01*
X9936015Y-15387436D02*
X9945539Y-15396960D01*
X9945539Y-15396960D02*
X9936015Y-15406484D01*
X9936015Y-15406484D02*
X9926491Y-15396960D01*
X9926491Y-15396960D02*
X9936015Y-15387436D01*
X9936015Y-15387436D02*
X9936015Y-15406484D01*
X10136015Y-15406484D02*
X10021729Y-15406484D01*
X10078872Y-15406484D02*
X10078872Y-15206484D01*
X10078872Y-15206484D02*
X10059825Y-15235055D01*
X10059825Y-15235055D02*
X10040777Y-15254103D01*
X10040777Y-15254103D02*
X10021729Y-15263627D01*
X10212206Y-15225531D02*
X10221729Y-15216008D01*
X10221729Y-15216008D02*
X10240777Y-15206484D01*
X10240777Y-15206484D02*
X10288396Y-15206484D01*
X10288396Y-15206484D02*
X10307444Y-15216008D01*
X10307444Y-15216008D02*
X10316968Y-15225531D01*
X10316968Y-15225531D02*
X10326491Y-15244579D01*
X10326491Y-15244579D02*
X10326491Y-15263627D01*
X10326491Y-15263627D02*
X10316968Y-15292198D01*
X10316968Y-15292198D02*
X10202682Y-15406484D01*
X10202682Y-15406484D02*
X10326491Y-15406484D01*
X10507444Y-15206484D02*
X10412206Y-15206484D01*
X10412206Y-15206484D02*
X10402682Y-15301722D01*
X10402682Y-15301722D02*
X10412206Y-15292198D01*
X10412206Y-15292198D02*
X10431253Y-15282674D01*
X10431253Y-15282674D02*
X10478872Y-15282674D01*
X10478872Y-15282674D02*
X10497920Y-15292198D01*
X10497920Y-15292198D02*
X10507444Y-15301722D01*
X10507444Y-15301722D02*
X10516968Y-15320769D01*
X10516968Y-15320769D02*
X10516968Y-15368388D01*
X10516968Y-15368388D02*
X10507444Y-15387436D01*
X10507444Y-15387436D02*
X10497920Y-15396960D01*
X10497920Y-15396960D02*
X10478872Y-15406484D01*
X10478872Y-15406484D02*
X10431253Y-15406484D01*
X10431253Y-15406484D02*
X10412206Y-15396960D01*
X10412206Y-15396960D02*
X10402682Y-15387436D01*
X10640777Y-15206484D02*
X10659825Y-15206484D01*
X10659825Y-15206484D02*
X10678872Y-15216008D01*
X10678872Y-15216008D02*
X10688396Y-15225531D01*
X10688396Y-15225531D02*
X10697920Y-15244579D01*
X10697920Y-15244579D02*
X10707444Y-15282674D01*
X10707444Y-15282674D02*
X10707444Y-15330293D01*
X10707444Y-15330293D02*
X10697920Y-15368388D01*
X10697920Y-15368388D02*
X10688396Y-15387436D01*
X10688396Y-15387436D02*
X10678872Y-15396960D01*
X10678872Y-15396960D02*
X10659825Y-15406484D01*
X10659825Y-15406484D02*
X10640777Y-15406484D01*
X10640777Y-15406484D02*
X10621729Y-15396960D01*
X10621729Y-15396960D02*
X10612206Y-15387436D01*
X10612206Y-15387436D02*
X10602682Y-15368388D01*
X10602682Y-15368388D02*
X10593158Y-15330293D01*
X10593158Y-15330293D02*
X10593158Y-15282674D01*
X10593158Y-15282674D02*
X10602682Y-15244579D01*
X10602682Y-15244579D02*
X10612206Y-15225531D01*
X10612206Y-15225531D02*
X10621729Y-15216008D01*
X10621729Y-15216008D02*
X10640777Y-15206484D01*
X10783634Y-15206484D02*
X10783634Y-15244579D01*
X10859825Y-15206484D02*
X10859825Y-15244579D01*
X11155063Y-15482674D02*
X11145539Y-15473150D01*
X11145539Y-15473150D02*
X11126491Y-15444579D01*
X11126491Y-15444579D02*
X11116968Y-15425531D01*
X11116968Y-15425531D02*
X11107444Y-15396960D01*
X11107444Y-15396960D02*
X11097920Y-15349341D01*
X11097920Y-15349341D02*
X11097920Y-15311246D01*
X11097920Y-15311246D02*
X11107444Y-15263627D01*
X11107444Y-15263627D02*
X11116968Y-15235055D01*
X11116968Y-15235055D02*
X11126491Y-15216008D01*
X11126491Y-15216008D02*
X11145539Y-15187436D01*
X11145539Y-15187436D02*
X11155063Y-15177912D01*
X11336015Y-15406484D02*
X11221729Y-15406484D01*
X11278872Y-15406484D02*
X11278872Y-15206484D01*
X11278872Y-15206484D02*
X11259825Y-15235055D01*
X11259825Y-15235055D02*
X11240777Y-15254103D01*
X11240777Y-15254103D02*
X11221729Y-15263627D01*
X11574110Y-15406484D02*
X11574110Y-15206484D01*
X11659825Y-15406484D02*
X11659825Y-15301722D01*
X11659825Y-15301722D02*
X11650301Y-15282674D01*
X11650301Y-15282674D02*
X11631253Y-15273150D01*
X11631253Y-15273150D02*
X11602682Y-15273150D01*
X11602682Y-15273150D02*
X11583634Y-15282674D01*
X11583634Y-15282674D02*
X11574110Y-15292198D01*
X11783634Y-15406484D02*
X11764587Y-15396960D01*
X11764587Y-15396960D02*
X11755063Y-15387436D01*
X11755063Y-15387436D02*
X11745539Y-15368388D01*
X11745539Y-15368388D02*
X11745539Y-15311246D01*
X11745539Y-15311246D02*
X11755063Y-15292198D01*
X11755063Y-15292198D02*
X11764587Y-15282674D01*
X11764587Y-15282674D02*
X11783634Y-15273150D01*
X11783634Y-15273150D02*
X11812206Y-15273150D01*
X11812206Y-15273150D02*
X11831253Y-15282674D01*
X11831253Y-15282674D02*
X11840777Y-15292198D01*
X11840777Y-15292198D02*
X11850301Y-15311246D01*
X11850301Y-15311246D02*
X11850301Y-15368388D01*
X11850301Y-15368388D02*
X11840777Y-15387436D01*
X11840777Y-15387436D02*
X11831253Y-15396960D01*
X11831253Y-15396960D02*
X11812206Y-15406484D01*
X11812206Y-15406484D02*
X11783634Y-15406484D01*
X11964587Y-15406484D02*
X11945539Y-15396960D01*
X11945539Y-15396960D02*
X11936015Y-15377912D01*
X11936015Y-15377912D02*
X11936015Y-15206484D01*
X12116968Y-15396960D02*
X12097920Y-15406484D01*
X12097920Y-15406484D02*
X12059825Y-15406484D01*
X12059825Y-15406484D02*
X12040777Y-15396960D01*
X12040777Y-15396960D02*
X12031253Y-15377912D01*
X12031253Y-15377912D02*
X12031253Y-15301722D01*
X12031253Y-15301722D02*
X12040777Y-15282674D01*
X12040777Y-15282674D02*
X12059825Y-15273150D01*
X12059825Y-15273150D02*
X12097920Y-15273150D01*
X12097920Y-15273150D02*
X12116968Y-15282674D01*
X12116968Y-15282674D02*
X12126491Y-15301722D01*
X12126491Y-15301722D02*
X12126491Y-15320769D01*
X12126491Y-15320769D02*
X12031253Y-15339817D01*
X12193158Y-15482674D02*
X12202682Y-15473150D01*
X12202682Y-15473150D02*
X12221730Y-15444579D01*
X12221730Y-15444579D02*
X12231253Y-15425531D01*
X12231253Y-15425531D02*
X12240777Y-15396960D01*
X12240777Y-15396960D02*
X12250301Y-15349341D01*
X12250301Y-15349341D02*
X12250301Y-15311246D01*
X12250301Y-15311246D02*
X12240777Y-15263627D01*
X12240777Y-15263627D02*
X12231253Y-15235055D01*
X12231253Y-15235055D02*
X12221730Y-15216008D01*
X12221730Y-15216008D02*
X12202682Y-15187436D01*
X12202682Y-15187436D02*
X12193158Y-15177912D01*
X12555063Y-15482674D02*
X12545539Y-15473150D01*
X12545539Y-15473150D02*
X12526491Y-15444579D01*
X12526491Y-15444579D02*
X12516968Y-15425531D01*
X12516968Y-15425531D02*
X12507444Y-15396960D01*
X12507444Y-15396960D02*
X12497920Y-15349341D01*
X12497920Y-15349341D02*
X12497920Y-15311246D01*
X12497920Y-15311246D02*
X12507444Y-15263627D01*
X12507444Y-15263627D02*
X12516968Y-15235055D01*
X12516968Y-15235055D02*
X12526491Y-15216008D01*
X12526491Y-15216008D02*
X12545539Y-15187436D01*
X12545539Y-15187436D02*
X12555063Y-15177912D01*
X12631253Y-15273150D02*
X12631253Y-15406484D01*
X12631253Y-15292198D02*
X12640777Y-15282674D01*
X12640777Y-15282674D02*
X12659825Y-15273150D01*
X12659825Y-15273150D02*
X12688396Y-15273150D01*
X12688396Y-15273150D02*
X12707444Y-15282674D01*
X12707444Y-15282674D02*
X12716968Y-15301722D01*
X12716968Y-15301722D02*
X12716968Y-15406484D01*
X12840777Y-15406484D02*
X12821730Y-15396960D01*
X12821730Y-15396960D02*
X12812206Y-15387436D01*
X12812206Y-15387436D02*
X12802682Y-15368388D01*
X12802682Y-15368388D02*
X12802682Y-15311246D01*
X12802682Y-15311246D02*
X12812206Y-15292198D01*
X12812206Y-15292198D02*
X12821730Y-15282674D01*
X12821730Y-15282674D02*
X12840777Y-15273150D01*
X12840777Y-15273150D02*
X12869349Y-15273150D01*
X12869349Y-15273150D02*
X12888396Y-15282674D01*
X12888396Y-15282674D02*
X12897920Y-15292198D01*
X12897920Y-15292198D02*
X12907444Y-15311246D01*
X12907444Y-15311246D02*
X12907444Y-15368388D01*
X12907444Y-15368388D02*
X12897920Y-15387436D01*
X12897920Y-15387436D02*
X12888396Y-15396960D01*
X12888396Y-15396960D02*
X12869349Y-15406484D01*
X12869349Y-15406484D02*
X12840777Y-15406484D01*
X12964587Y-15273150D02*
X13040777Y-15273150D01*
X12993158Y-15206484D02*
X12993158Y-15377912D01*
X12993158Y-15377912D02*
X13002682Y-15396960D01*
X13002682Y-15396960D02*
X13021730Y-15406484D01*
X13021730Y-15406484D02*
X13040777Y-15406484D01*
X13259825Y-15273150D02*
X13259825Y-15473150D01*
X13259825Y-15282674D02*
X13278872Y-15273150D01*
X13278872Y-15273150D02*
X13316968Y-15273150D01*
X13316968Y-15273150D02*
X13336015Y-15282674D01*
X13336015Y-15282674D02*
X13345539Y-15292198D01*
X13345539Y-15292198D02*
X13355063Y-15311246D01*
X13355063Y-15311246D02*
X13355063Y-15368388D01*
X13355063Y-15368388D02*
X13345539Y-15387436D01*
X13345539Y-15387436D02*
X13336015Y-15396960D01*
X13336015Y-15396960D02*
X13316968Y-15406484D01*
X13316968Y-15406484D02*
X13278872Y-15406484D01*
X13278872Y-15406484D02*
X13259825Y-15396960D01*
X13469349Y-15406484D02*
X13450301Y-15396960D01*
X13450301Y-15396960D02*
X13440777Y-15377912D01*
X13440777Y-15377912D02*
X13440777Y-15206484D01*
X13631253Y-15406484D02*
X13631253Y-15301722D01*
X13631253Y-15301722D02*
X13621730Y-15282674D01*
X13621730Y-15282674D02*
X13602682Y-15273150D01*
X13602682Y-15273150D02*
X13564587Y-15273150D01*
X13564587Y-15273150D02*
X13545539Y-15282674D01*
X13631253Y-15396960D02*
X13612206Y-15406484D01*
X13612206Y-15406484D02*
X13564587Y-15406484D01*
X13564587Y-15406484D02*
X13545539Y-15396960D01*
X13545539Y-15396960D02*
X13536015Y-15377912D01*
X13536015Y-15377912D02*
X13536015Y-15358865D01*
X13536015Y-15358865D02*
X13545539Y-15339817D01*
X13545539Y-15339817D02*
X13564587Y-15330293D01*
X13564587Y-15330293D02*
X13612206Y-15330293D01*
X13612206Y-15330293D02*
X13631253Y-15320769D01*
X13697920Y-15273150D02*
X13774111Y-15273150D01*
X13726492Y-15206484D02*
X13726492Y-15377912D01*
X13726492Y-15377912D02*
X13736015Y-15396960D01*
X13736015Y-15396960D02*
X13755063Y-15406484D01*
X13755063Y-15406484D02*
X13774111Y-15406484D01*
X13916968Y-15396960D02*
X13897920Y-15406484D01*
X13897920Y-15406484D02*
X13859825Y-15406484D01*
X13859825Y-15406484D02*
X13840777Y-15396960D01*
X13840777Y-15396960D02*
X13831253Y-15377912D01*
X13831253Y-15377912D02*
X13831253Y-15301722D01*
X13831253Y-15301722D02*
X13840777Y-15282674D01*
X13840777Y-15282674D02*
X13859825Y-15273150D01*
X13859825Y-15273150D02*
X13897920Y-15273150D01*
X13897920Y-15273150D02*
X13916968Y-15282674D01*
X13916968Y-15282674D02*
X13926492Y-15301722D01*
X13926492Y-15301722D02*
X13926492Y-15320769D01*
X13926492Y-15320769D02*
X13831253Y-15339817D01*
X14097920Y-15406484D02*
X14097920Y-15206484D01*
X14097920Y-15396960D02*
X14078873Y-15406484D01*
X14078873Y-15406484D02*
X14040777Y-15406484D01*
X14040777Y-15406484D02*
X14021730Y-15396960D01*
X14021730Y-15396960D02*
X14012206Y-15387436D01*
X14012206Y-15387436D02*
X14002682Y-15368388D01*
X14002682Y-15368388D02*
X14002682Y-15311246D01*
X14002682Y-15311246D02*
X14012206Y-15292198D01*
X14012206Y-15292198D02*
X14021730Y-15282674D01*
X14021730Y-15282674D02*
X14040777Y-15273150D01*
X14040777Y-15273150D02*
X14078873Y-15273150D01*
X14078873Y-15273150D02*
X14097920Y-15282674D01*
X14174111Y-15482674D02*
X14183634Y-15473150D01*
X14183634Y-15473150D02*
X14202682Y-15444579D01*
X14202682Y-15444579D02*
X14212206Y-15425531D01*
X14212206Y-15425531D02*
X14221730Y-15396960D01*
X14221730Y-15396960D02*
X14231253Y-15349341D01*
X14231253Y-15349341D02*
X14231253Y-15311246D01*
X14231253Y-15311246D02*
X14221730Y-15263627D01*
X14221730Y-15263627D02*
X14212206Y-15235055D01*
X14212206Y-15235055D02*
X14202682Y-15216008D01*
X14202682Y-15216008D02*
X14183634Y-15187436D01*
X14183634Y-15187436D02*
X14174111Y-15177912D01*
X7580000Y-15635000D02*
G75*
G02*
X7380000Y-15635000I-100000J0D01*
G01*
X7380000Y-15635000D02*
G75*
G02*
X7580000Y-15635000I100000J0D01*
G01*
X7926491Y-15593150D02*
X7926491Y-15726484D01*
X7878872Y-15516960D02*
X7831253Y-15659817D01*
X7831253Y-15659817D02*
X7955062Y-15659817D01*
X8031253Y-15707436D02*
X8040777Y-15716960D01*
X8040777Y-15716960D02*
X8031253Y-15726484D01*
X8031253Y-15726484D02*
X8021729Y-15716960D01*
X8021729Y-15716960D02*
X8031253Y-15707436D01*
X8031253Y-15707436D02*
X8031253Y-15726484D01*
X8107443Y-15526484D02*
X8240777Y-15526484D01*
X8240777Y-15526484D02*
X8155062Y-15726484D01*
X8297920Y-15526484D02*
X8431253Y-15526484D01*
X8431253Y-15526484D02*
X8345539Y-15726484D01*
X8602682Y-15526484D02*
X8507444Y-15526484D01*
X8507444Y-15526484D02*
X8497920Y-15621722D01*
X8497920Y-15621722D02*
X8507444Y-15612198D01*
X8507444Y-15612198D02*
X8526491Y-15602674D01*
X8526491Y-15602674D02*
X8574110Y-15602674D01*
X8574110Y-15602674D02*
X8593158Y-15612198D01*
X8593158Y-15612198D02*
X8602682Y-15621722D01*
X8602682Y-15621722D02*
X8612205Y-15640769D01*
X8612205Y-15640769D02*
X8612205Y-15688388D01*
X8612205Y-15688388D02*
X8602682Y-15707436D01*
X8602682Y-15707436D02*
X8593158Y-15716960D01*
X8593158Y-15716960D02*
X8574110Y-15726484D01*
X8574110Y-15726484D02*
X8526491Y-15726484D01*
X8526491Y-15726484D02*
X8507444Y-15716960D01*
X8507444Y-15716960D02*
X8497920Y-15707436D01*
X8697920Y-15726484D02*
X8697920Y-15593150D01*
X8697920Y-15612198D02*
X8707444Y-15602674D01*
X8707444Y-15602674D02*
X8726491Y-15593150D01*
X8726491Y-15593150D02*
X8755063Y-15593150D01*
X8755063Y-15593150D02*
X8774110Y-15602674D01*
X8774110Y-15602674D02*
X8783634Y-15621722D01*
X8783634Y-15621722D02*
X8783634Y-15726484D01*
X8783634Y-15621722D02*
X8793158Y-15602674D01*
X8793158Y-15602674D02*
X8812205Y-15593150D01*
X8812205Y-15593150D02*
X8840777Y-15593150D01*
X8840777Y-15593150D02*
X8859825Y-15602674D01*
X8859825Y-15602674D02*
X8869348Y-15621722D01*
X8869348Y-15621722D02*
X8869348Y-15726484D01*
X8964586Y-15726484D02*
X8964586Y-15593150D01*
X8964586Y-15612198D02*
X8974110Y-15602674D01*
X8974110Y-15602674D02*
X8993158Y-15593150D01*
X8993158Y-15593150D02*
X9021729Y-15593150D01*
X9021729Y-15593150D02*
X9040777Y-15602674D01*
X9040777Y-15602674D02*
X9050301Y-15621722D01*
X9050301Y-15621722D02*
X9050301Y-15726484D01*
X9050301Y-15621722D02*
X9059825Y-15602674D01*
X9059825Y-15602674D02*
X9078872Y-15593150D01*
X9078872Y-15593150D02*
X9107444Y-15593150D01*
X9107444Y-15593150D02*
X9126491Y-15602674D01*
X9126491Y-15602674D02*
X9136015Y-15621722D01*
X9136015Y-15621722D02*
X9136015Y-15726484D01*
X9526491Y-15516960D02*
X9355063Y-15774103D01*
X9783634Y-15526484D02*
X9802682Y-15526484D01*
X9802682Y-15526484D02*
X9821729Y-15536008D01*
X9821729Y-15536008D02*
X9831253Y-15545531D01*
X9831253Y-15545531D02*
X9840777Y-15564579D01*
X9840777Y-15564579D02*
X9850301Y-15602674D01*
X9850301Y-15602674D02*
X9850301Y-15650293D01*
X9850301Y-15650293D02*
X9840777Y-15688388D01*
X9840777Y-15688388D02*
X9831253Y-15707436D01*
X9831253Y-15707436D02*
X9821729Y-15716960D01*
X9821729Y-15716960D02*
X9802682Y-15726484D01*
X9802682Y-15726484D02*
X9783634Y-15726484D01*
X9783634Y-15726484D02*
X9764587Y-15716960D01*
X9764587Y-15716960D02*
X9755063Y-15707436D01*
X9755063Y-15707436D02*
X9745539Y-15688388D01*
X9745539Y-15688388D02*
X9736015Y-15650293D01*
X9736015Y-15650293D02*
X9736015Y-15602674D01*
X9736015Y-15602674D02*
X9745539Y-15564579D01*
X9745539Y-15564579D02*
X9755063Y-15545531D01*
X9755063Y-15545531D02*
X9764587Y-15536008D01*
X9764587Y-15536008D02*
X9783634Y-15526484D01*
X9936015Y-15707436D02*
X9945539Y-15716960D01*
X9945539Y-15716960D02*
X9936015Y-15726484D01*
X9936015Y-15726484D02*
X9926491Y-15716960D01*
X9926491Y-15716960D02*
X9936015Y-15707436D01*
X9936015Y-15707436D02*
X9936015Y-15726484D01*
X10136015Y-15726484D02*
X10021729Y-15726484D01*
X10078872Y-15726484D02*
X10078872Y-15526484D01*
X10078872Y-15526484D02*
X10059825Y-15555055D01*
X10059825Y-15555055D02*
X10040777Y-15574103D01*
X10040777Y-15574103D02*
X10021729Y-15583627D01*
X10250301Y-15612198D02*
X10231253Y-15602674D01*
X10231253Y-15602674D02*
X10221729Y-15593150D01*
X10221729Y-15593150D02*
X10212206Y-15574103D01*
X10212206Y-15574103D02*
X10212206Y-15564579D01*
X10212206Y-15564579D02*
X10221729Y-15545531D01*
X10221729Y-15545531D02*
X10231253Y-15536008D01*
X10231253Y-15536008D02*
X10250301Y-15526484D01*
X10250301Y-15526484D02*
X10288396Y-15526484D01*
X10288396Y-15526484D02*
X10307444Y-15536008D01*
X10307444Y-15536008D02*
X10316968Y-15545531D01*
X10316968Y-15545531D02*
X10326491Y-15564579D01*
X10326491Y-15564579D02*
X10326491Y-15574103D01*
X10326491Y-15574103D02*
X10316968Y-15593150D01*
X10316968Y-15593150D02*
X10307444Y-15602674D01*
X10307444Y-15602674D02*
X10288396Y-15612198D01*
X10288396Y-15612198D02*
X10250301Y-15612198D01*
X10250301Y-15612198D02*
X10231253Y-15621722D01*
X10231253Y-15621722D02*
X10221729Y-15631246D01*
X10221729Y-15631246D02*
X10212206Y-15650293D01*
X10212206Y-15650293D02*
X10212206Y-15688388D01*
X10212206Y-15688388D02*
X10221729Y-15707436D01*
X10221729Y-15707436D02*
X10231253Y-15716960D01*
X10231253Y-15716960D02*
X10250301Y-15726484D01*
X10250301Y-15726484D02*
X10288396Y-15726484D01*
X10288396Y-15726484D02*
X10307444Y-15716960D01*
X10307444Y-15716960D02*
X10316968Y-15707436D01*
X10316968Y-15707436D02*
X10326491Y-15688388D01*
X10326491Y-15688388D02*
X10326491Y-15650293D01*
X10326491Y-15650293D02*
X10316968Y-15631246D01*
X10316968Y-15631246D02*
X10307444Y-15621722D01*
X10307444Y-15621722D02*
X10288396Y-15612198D01*
X10440777Y-15612198D02*
X10421729Y-15602674D01*
X10421729Y-15602674D02*
X10412206Y-15593150D01*
X10412206Y-15593150D02*
X10402682Y-15574103D01*
X10402682Y-15574103D02*
X10402682Y-15564579D01*
X10402682Y-15564579D02*
X10412206Y-15545531D01*
X10412206Y-15545531D02*
X10421729Y-15536008D01*
X10421729Y-15536008D02*
X10440777Y-15526484D01*
X10440777Y-15526484D02*
X10478872Y-15526484D01*
X10478872Y-15526484D02*
X10497920Y-15536008D01*
X10497920Y-15536008D02*
X10507444Y-15545531D01*
X10507444Y-15545531D02*
X10516968Y-15564579D01*
X10516968Y-15564579D02*
X10516968Y-15574103D01*
X10516968Y-15574103D02*
X10507444Y-15593150D01*
X10507444Y-15593150D02*
X10497920Y-15602674D01*
X10497920Y-15602674D02*
X10478872Y-15612198D01*
X10478872Y-15612198D02*
X10440777Y-15612198D01*
X10440777Y-15612198D02*
X10421729Y-15621722D01*
X10421729Y-15621722D02*
X10412206Y-15631246D01*
X10412206Y-15631246D02*
X10402682Y-15650293D01*
X10402682Y-15650293D02*
X10402682Y-15688388D01*
X10402682Y-15688388D02*
X10412206Y-15707436D01*
X10412206Y-15707436D02*
X10421729Y-15716960D01*
X10421729Y-15716960D02*
X10440777Y-15726484D01*
X10440777Y-15726484D02*
X10478872Y-15726484D01*
X10478872Y-15726484D02*
X10497920Y-15716960D01*
X10497920Y-15716960D02*
X10507444Y-15707436D01*
X10507444Y-15707436D02*
X10516968Y-15688388D01*
X10516968Y-15688388D02*
X10516968Y-15650293D01*
X10516968Y-15650293D02*
X10507444Y-15631246D01*
X10507444Y-15631246D02*
X10497920Y-15621722D01*
X10497920Y-15621722D02*
X10478872Y-15612198D01*
X10640777Y-15526484D02*
X10659825Y-15526484D01*
X10659825Y-15526484D02*
X10678872Y-15536008D01*
X10678872Y-15536008D02*
X10688396Y-15545531D01*
X10688396Y-15545531D02*
X10697920Y-15564579D01*
X10697920Y-15564579D02*
X10707444Y-15602674D01*
X10707444Y-15602674D02*
X10707444Y-15650293D01*
X10707444Y-15650293D02*
X10697920Y-15688388D01*
X10697920Y-15688388D02*
X10688396Y-15707436D01*
X10688396Y-15707436D02*
X10678872Y-15716960D01*
X10678872Y-15716960D02*
X10659825Y-15726484D01*
X10659825Y-15726484D02*
X10640777Y-15726484D01*
X10640777Y-15726484D02*
X10621729Y-15716960D01*
X10621729Y-15716960D02*
X10612206Y-15707436D01*
X10612206Y-15707436D02*
X10602682Y-15688388D01*
X10602682Y-15688388D02*
X10593158Y-15650293D01*
X10593158Y-15650293D02*
X10593158Y-15602674D01*
X10593158Y-15602674D02*
X10602682Y-15564579D01*
X10602682Y-15564579D02*
X10612206Y-15545531D01*
X10612206Y-15545531D02*
X10621729Y-15536008D01*
X10621729Y-15536008D02*
X10640777Y-15526484D01*
X10783634Y-15526484D02*
X10783634Y-15564579D01*
X10859825Y-15526484D02*
X10859825Y-15564579D01*
X11155063Y-15802674D02*
X11145539Y-15793150D01*
X11145539Y-15793150D02*
X11126491Y-15764579D01*
X11126491Y-15764579D02*
X11116968Y-15745531D01*
X11116968Y-15745531D02*
X11107444Y-15716960D01*
X11107444Y-15716960D02*
X11097920Y-15669341D01*
X11097920Y-15669341D02*
X11097920Y-15631246D01*
X11097920Y-15631246D02*
X11107444Y-15583627D01*
X11107444Y-15583627D02*
X11116968Y-15555055D01*
X11116968Y-15555055D02*
X11126491Y-15536008D01*
X11126491Y-15536008D02*
X11145539Y-15507436D01*
X11145539Y-15507436D02*
X11155063Y-15497912D01*
X11336015Y-15726484D02*
X11221729Y-15726484D01*
X11278872Y-15726484D02*
X11278872Y-15526484D01*
X11278872Y-15526484D02*
X11259825Y-15555055D01*
X11259825Y-15555055D02*
X11240777Y-15574103D01*
X11240777Y-15574103D02*
X11221729Y-15583627D01*
X11574110Y-15726484D02*
X11574110Y-15526484D01*
X11659825Y-15726484D02*
X11659825Y-15621722D01*
X11659825Y-15621722D02*
X11650301Y-15602674D01*
X11650301Y-15602674D02*
X11631253Y-15593150D01*
X11631253Y-15593150D02*
X11602682Y-15593150D01*
X11602682Y-15593150D02*
X11583634Y-15602674D01*
X11583634Y-15602674D02*
X11574110Y-15612198D01*
X11783634Y-15726484D02*
X11764587Y-15716960D01*
X11764587Y-15716960D02*
X11755063Y-15707436D01*
X11755063Y-15707436D02*
X11745539Y-15688388D01*
X11745539Y-15688388D02*
X11745539Y-15631246D01*
X11745539Y-15631246D02*
X11755063Y-15612198D01*
X11755063Y-15612198D02*
X11764587Y-15602674D01*
X11764587Y-15602674D02*
X11783634Y-15593150D01*
X11783634Y-15593150D02*
X11812206Y-15593150D01*
X11812206Y-15593150D02*
X11831253Y-15602674D01*
X11831253Y-15602674D02*
X11840777Y-15612198D01*
X11840777Y-15612198D02*
X11850301Y-15631246D01*
X11850301Y-15631246D02*
X11850301Y-15688388D01*
X11850301Y-15688388D02*
X11840777Y-15707436D01*
X11840777Y-15707436D02*
X11831253Y-15716960D01*
X11831253Y-15716960D02*
X11812206Y-15726484D01*
X11812206Y-15726484D02*
X11783634Y-15726484D01*
X11964587Y-15726484D02*
X11945539Y-15716960D01*
X11945539Y-15716960D02*
X11936015Y-15697912D01*
X11936015Y-15697912D02*
X11936015Y-15526484D01*
X12116968Y-15716960D02*
X12097920Y-15726484D01*
X12097920Y-15726484D02*
X12059825Y-15726484D01*
X12059825Y-15726484D02*
X12040777Y-15716960D01*
X12040777Y-15716960D02*
X12031253Y-15697912D01*
X12031253Y-15697912D02*
X12031253Y-15621722D01*
X12031253Y-15621722D02*
X12040777Y-15602674D01*
X12040777Y-15602674D02*
X12059825Y-15593150D01*
X12059825Y-15593150D02*
X12097920Y-15593150D01*
X12097920Y-15593150D02*
X12116968Y-15602674D01*
X12116968Y-15602674D02*
X12126491Y-15621722D01*
X12126491Y-15621722D02*
X12126491Y-15640769D01*
X12126491Y-15640769D02*
X12031253Y-15659817D01*
X12193158Y-15802674D02*
X12202682Y-15793150D01*
X12202682Y-15793150D02*
X12221730Y-15764579D01*
X12221730Y-15764579D02*
X12231253Y-15745531D01*
X12231253Y-15745531D02*
X12240777Y-15716960D01*
X12240777Y-15716960D02*
X12250301Y-15669341D01*
X12250301Y-15669341D02*
X12250301Y-15631246D01*
X12250301Y-15631246D02*
X12240777Y-15583627D01*
X12240777Y-15583627D02*
X12231253Y-15555055D01*
X12231253Y-15555055D02*
X12221730Y-15536008D01*
X12221730Y-15536008D02*
X12202682Y-15507436D01*
X12202682Y-15507436D02*
X12193158Y-15497912D01*
X12555063Y-15802674D02*
X12545539Y-15793150D01*
X12545539Y-15793150D02*
X12526491Y-15764579D01*
X12526491Y-15764579D02*
X12516968Y-15745531D01*
X12516968Y-15745531D02*
X12507444Y-15716960D01*
X12507444Y-15716960D02*
X12497920Y-15669341D01*
X12497920Y-15669341D02*
X12497920Y-15631246D01*
X12497920Y-15631246D02*
X12507444Y-15583627D01*
X12507444Y-15583627D02*
X12516968Y-15555055D01*
X12516968Y-15555055D02*
X12526491Y-15536008D01*
X12526491Y-15536008D02*
X12545539Y-15507436D01*
X12545539Y-15507436D02*
X12555063Y-15497912D01*
X12631253Y-15593150D02*
X12631253Y-15726484D01*
X12631253Y-15612198D02*
X12640777Y-15602674D01*
X12640777Y-15602674D02*
X12659825Y-15593150D01*
X12659825Y-15593150D02*
X12688396Y-15593150D01*
X12688396Y-15593150D02*
X12707444Y-15602674D01*
X12707444Y-15602674D02*
X12716968Y-15621722D01*
X12716968Y-15621722D02*
X12716968Y-15726484D01*
X12840777Y-15726484D02*
X12821730Y-15716960D01*
X12821730Y-15716960D02*
X12812206Y-15707436D01*
X12812206Y-15707436D02*
X12802682Y-15688388D01*
X12802682Y-15688388D02*
X12802682Y-15631246D01*
X12802682Y-15631246D02*
X12812206Y-15612198D01*
X12812206Y-15612198D02*
X12821730Y-15602674D01*
X12821730Y-15602674D02*
X12840777Y-15593150D01*
X12840777Y-15593150D02*
X12869349Y-15593150D01*
X12869349Y-15593150D02*
X12888396Y-15602674D01*
X12888396Y-15602674D02*
X12897920Y-15612198D01*
X12897920Y-15612198D02*
X12907444Y-15631246D01*
X12907444Y-15631246D02*
X12907444Y-15688388D01*
X12907444Y-15688388D02*
X12897920Y-15707436D01*
X12897920Y-15707436D02*
X12888396Y-15716960D01*
X12888396Y-15716960D02*
X12869349Y-15726484D01*
X12869349Y-15726484D02*
X12840777Y-15726484D01*
X12964587Y-15593150D02*
X13040777Y-15593150D01*
X12993158Y-15526484D02*
X12993158Y-15697912D01*
X12993158Y-15697912D02*
X13002682Y-15716960D01*
X13002682Y-15716960D02*
X13021730Y-15726484D01*
X13021730Y-15726484D02*
X13040777Y-15726484D01*
X13259825Y-15593150D02*
X13259825Y-15793150D01*
X13259825Y-15602674D02*
X13278872Y-15593150D01*
X13278872Y-15593150D02*
X13316968Y-15593150D01*
X13316968Y-15593150D02*
X13336015Y-15602674D01*
X13336015Y-15602674D02*
X13345539Y-15612198D01*
X13345539Y-15612198D02*
X13355063Y-15631246D01*
X13355063Y-15631246D02*
X13355063Y-15688388D01*
X13355063Y-15688388D02*
X13345539Y-15707436D01*
X13345539Y-15707436D02*
X13336015Y-15716960D01*
X13336015Y-15716960D02*
X13316968Y-15726484D01*
X13316968Y-15726484D02*
X13278872Y-15726484D01*
X13278872Y-15726484D02*
X13259825Y-15716960D01*
X13469349Y-15726484D02*
X13450301Y-15716960D01*
X13450301Y-15716960D02*
X13440777Y-15697912D01*
X13440777Y-15697912D02*
X13440777Y-15526484D01*
X13631253Y-15726484D02*
X13631253Y-15621722D01*
X13631253Y-15621722D02*
X13621730Y-15602674D01*
X13621730Y-15602674D02*
X13602682Y-15593150D01*
X13602682Y-15593150D02*
X13564587Y-15593150D01*
X13564587Y-15593150D02*
X13545539Y-15602674D01*
X13631253Y-15716960D02*
X13612206Y-15726484D01*
X13612206Y-15726484D02*
X13564587Y-15726484D01*
X13564587Y-15726484D02*
X13545539Y-15716960D01*
X13545539Y-15716960D02*
X13536015Y-15697912D01*
X13536015Y-15697912D02*
X13536015Y-15678865D01*
X13536015Y-15678865D02*
X13545539Y-15659817D01*
X13545539Y-15659817D02*
X13564587Y-15650293D01*
X13564587Y-15650293D02*
X13612206Y-15650293D01*
X13612206Y-15650293D02*
X13631253Y-15640769D01*
X13697920Y-15593150D02*
X13774111Y-15593150D01*
X13726492Y-15526484D02*
X13726492Y-15697912D01*
X13726492Y-15697912D02*
X13736015Y-15716960D01*
X13736015Y-15716960D02*
X13755063Y-15726484D01*
X13755063Y-15726484D02*
X13774111Y-15726484D01*
X13916968Y-15716960D02*
X13897920Y-15726484D01*
X13897920Y-15726484D02*
X13859825Y-15726484D01*
X13859825Y-15726484D02*
X13840777Y-15716960D01*
X13840777Y-15716960D02*
X13831253Y-15697912D01*
X13831253Y-15697912D02*
X13831253Y-15621722D01*
X13831253Y-15621722D02*
X13840777Y-15602674D01*
X13840777Y-15602674D02*
X13859825Y-15593150D01*
X13859825Y-15593150D02*
X13897920Y-15593150D01*
X13897920Y-15593150D02*
X13916968Y-15602674D01*
X13916968Y-15602674D02*
X13926492Y-15621722D01*
X13926492Y-15621722D02*
X13926492Y-15640769D01*
X13926492Y-15640769D02*
X13831253Y-15659817D01*
X14097920Y-15726484D02*
X14097920Y-15526484D01*
X14097920Y-15716960D02*
X14078873Y-15726484D01*
X14078873Y-15726484D02*
X14040777Y-15726484D01*
X14040777Y-15726484D02*
X14021730Y-15716960D01*
X14021730Y-15716960D02*
X14012206Y-15707436D01*
X14012206Y-15707436D02*
X14002682Y-15688388D01*
X14002682Y-15688388D02*
X14002682Y-15631246D01*
X14002682Y-15631246D02*
X14012206Y-15612198D01*
X14012206Y-15612198D02*
X14021730Y-15602674D01*
X14021730Y-15602674D02*
X14040777Y-15593150D01*
X14040777Y-15593150D02*
X14078873Y-15593150D01*
X14078873Y-15593150D02*
X14097920Y-15602674D01*
X14174111Y-15802674D02*
X14183634Y-15793150D01*
X14183634Y-15793150D02*
X14202682Y-15764579D01*
X14202682Y-15764579D02*
X14212206Y-15745531D01*
X14212206Y-15745531D02*
X14221730Y-15716960D01*
X14221730Y-15716960D02*
X14231253Y-15669341D01*
X14231253Y-15669341D02*
X14231253Y-15631246D01*
X14231253Y-15631246D02*
X14221730Y-15583627D01*
X14221730Y-15583627D02*
X14212206Y-15555055D01*
X14212206Y-15555055D02*
X14202682Y-15536008D01*
X14202682Y-15536008D02*
X14183634Y-15507436D01*
X14183634Y-15507436D02*
X14174111Y-15497912D01*
M02*
