%TF.GenerationSoftware,KiCad,Pcbnew,9.0.0*%
%TF.CreationDate,2025-05-12T21:33:30-05:00*%
%TF.ProjectId,Model I RS232,4d6f6465-6c20-4492-9052-533233322e6b,2.1*%
%TF.SameCoordinates,Original*%
%TF.FileFunction,Legend,Top*%
%TF.FilePolarity,Positive*%
%FSLAX46Y46*%
G04 Gerber Fmt 4.6, Leading zero omitted, Abs format (unit mm)*
G04 Created by KiCad (PCBNEW 9.0.0) date 2025-05-12 21:33:30*
%MOMM*%
%LPD*%
G01*
G04 APERTURE LIST*
%ADD10C,0.200000*%
%ADD11C,0.300000*%
%ADD12C,0.125000*%
%ADD13C,0.150000*%
%ADD14C,0.120000*%
%ADD15C,0.100000*%
%ADD16C,0.000000*%
G04 APERTURE END LIST*
D10*
X144375000Y-76500000D02*
X145525000Y-76500000D01*
X145525000Y-80050000D01*
X144375000Y-80050000D01*
X144375000Y-76500000D01*
G36*
X144375000Y-76500000D02*
G01*
X145525000Y-76500000D01*
X145525000Y-80050000D01*
X144375000Y-80050000D01*
X144375000Y-76500000D01*
G37*
X144375000Y-80725000D02*
X145525000Y-80725000D01*
X145525000Y-84275000D01*
X144375000Y-84275000D01*
X144375000Y-80725000D01*
G36*
X144375000Y-80725000D02*
G01*
X145525000Y-80725000D01*
X145525000Y-84275000D01*
X144375000Y-84275000D01*
X144375000Y-80725000D01*
G37*
D11*
X78614034Y-143428447D02*
X80214034Y-143428447D01*
X79414034Y-145928447D02*
X79414034Y-143428447D01*
X82747367Y-145928447D02*
X81814034Y-144737971D01*
X81147367Y-145928447D02*
X81147367Y-143428447D01*
X81147367Y-143428447D02*
X82214034Y-143428447D01*
X82214034Y-143428447D02*
X82480701Y-143547495D01*
X82480701Y-143547495D02*
X82614034Y-143666542D01*
X82614034Y-143666542D02*
X82747367Y-143904638D01*
X82747367Y-143904638D02*
X82747367Y-144261780D01*
X82747367Y-144261780D02*
X82614034Y-144499876D01*
X82614034Y-144499876D02*
X82480701Y-144618923D01*
X82480701Y-144618923D02*
X82214034Y-144737971D01*
X82214034Y-144737971D02*
X81147367Y-144737971D01*
X83814034Y-145809400D02*
X84214034Y-145928447D01*
X84214034Y-145928447D02*
X84880701Y-145928447D01*
X84880701Y-145928447D02*
X85147367Y-145809400D01*
X85147367Y-145809400D02*
X85280701Y-145690352D01*
X85280701Y-145690352D02*
X85414034Y-145452257D01*
X85414034Y-145452257D02*
X85414034Y-145214161D01*
X85414034Y-145214161D02*
X85280701Y-144976066D01*
X85280701Y-144976066D02*
X85147367Y-144857019D01*
X85147367Y-144857019D02*
X84880701Y-144737971D01*
X84880701Y-144737971D02*
X84347367Y-144618923D01*
X84347367Y-144618923D02*
X84080701Y-144499876D01*
X84080701Y-144499876D02*
X83947367Y-144380828D01*
X83947367Y-144380828D02*
X83814034Y-144142733D01*
X83814034Y-144142733D02*
X83814034Y-143904638D01*
X83814034Y-143904638D02*
X83947367Y-143666542D01*
X83947367Y-143666542D02*
X84080701Y-143547495D01*
X84080701Y-143547495D02*
X84347367Y-143428447D01*
X84347367Y-143428447D02*
X85014034Y-143428447D01*
X85014034Y-143428447D02*
X85414034Y-143547495D01*
X86614034Y-144976066D02*
X88747368Y-144976066D01*
X90480701Y-144499876D02*
X90214035Y-144380828D01*
X90214035Y-144380828D02*
X90080701Y-144261780D01*
X90080701Y-144261780D02*
X89947368Y-144023685D01*
X89947368Y-144023685D02*
X89947368Y-143904638D01*
X89947368Y-143904638D02*
X90080701Y-143666542D01*
X90080701Y-143666542D02*
X90214035Y-143547495D01*
X90214035Y-143547495D02*
X90480701Y-143428447D01*
X90480701Y-143428447D02*
X91014035Y-143428447D01*
X91014035Y-143428447D02*
X91280701Y-143547495D01*
X91280701Y-143547495D02*
X91414035Y-143666542D01*
X91414035Y-143666542D02*
X91547368Y-143904638D01*
X91547368Y-143904638D02*
X91547368Y-144023685D01*
X91547368Y-144023685D02*
X91414035Y-144261780D01*
X91414035Y-144261780D02*
X91280701Y-144380828D01*
X91280701Y-144380828D02*
X91014035Y-144499876D01*
X91014035Y-144499876D02*
X90480701Y-144499876D01*
X90480701Y-144499876D02*
X90214035Y-144618923D01*
X90214035Y-144618923D02*
X90080701Y-144737971D01*
X90080701Y-144737971D02*
X89947368Y-144976066D01*
X89947368Y-144976066D02*
X89947368Y-145452257D01*
X89947368Y-145452257D02*
X90080701Y-145690352D01*
X90080701Y-145690352D02*
X90214035Y-145809400D01*
X90214035Y-145809400D02*
X90480701Y-145928447D01*
X90480701Y-145928447D02*
X91014035Y-145928447D01*
X91014035Y-145928447D02*
X91280701Y-145809400D01*
X91280701Y-145809400D02*
X91414035Y-145690352D01*
X91414035Y-145690352D02*
X91547368Y-145452257D01*
X91547368Y-145452257D02*
X91547368Y-144976066D01*
X91547368Y-144976066D02*
X91414035Y-144737971D01*
X91414035Y-144737971D02*
X91280701Y-144618923D01*
X91280701Y-144618923D02*
X91014035Y-144499876D01*
X93280702Y-143428447D02*
X93547368Y-143428447D01*
X93547368Y-143428447D02*
X93814035Y-143547495D01*
X93814035Y-143547495D02*
X93947368Y-143666542D01*
X93947368Y-143666542D02*
X94080702Y-143904638D01*
X94080702Y-143904638D02*
X94214035Y-144380828D01*
X94214035Y-144380828D02*
X94214035Y-144976066D01*
X94214035Y-144976066D02*
X94080702Y-145452257D01*
X94080702Y-145452257D02*
X93947368Y-145690352D01*
X93947368Y-145690352D02*
X93814035Y-145809400D01*
X93814035Y-145809400D02*
X93547368Y-145928447D01*
X93547368Y-145928447D02*
X93280702Y-145928447D01*
X93280702Y-145928447D02*
X93014035Y-145809400D01*
X93014035Y-145809400D02*
X92880702Y-145690352D01*
X92880702Y-145690352D02*
X92747368Y-145452257D01*
X92747368Y-145452257D02*
X92614035Y-144976066D01*
X92614035Y-144976066D02*
X92614035Y-144380828D01*
X92614035Y-144380828D02*
X92747368Y-143904638D01*
X92747368Y-143904638D02*
X92880702Y-143666542D01*
X92880702Y-143666542D02*
X93014035Y-143547495D01*
X93014035Y-143547495D02*
X93280702Y-143428447D01*
X97547368Y-145928447D02*
X97547368Y-143428447D01*
X97547368Y-143428447D02*
X98480702Y-145214161D01*
X98480702Y-145214161D02*
X99414035Y-143428447D01*
X99414035Y-143428447D02*
X99414035Y-145928447D01*
X101147368Y-145928447D02*
X100880702Y-145809400D01*
X100880702Y-145809400D02*
X100747368Y-145690352D01*
X100747368Y-145690352D02*
X100614035Y-145452257D01*
X100614035Y-145452257D02*
X100614035Y-144737971D01*
X100614035Y-144737971D02*
X100747368Y-144499876D01*
X100747368Y-144499876D02*
X100880702Y-144380828D01*
X100880702Y-144380828D02*
X101147368Y-144261780D01*
X101147368Y-144261780D02*
X101547368Y-144261780D01*
X101547368Y-144261780D02*
X101814035Y-144380828D01*
X101814035Y-144380828D02*
X101947368Y-144499876D01*
X101947368Y-144499876D02*
X102080702Y-144737971D01*
X102080702Y-144737971D02*
X102080702Y-145452257D01*
X102080702Y-145452257D02*
X101947368Y-145690352D01*
X101947368Y-145690352D02*
X101814035Y-145809400D01*
X101814035Y-145809400D02*
X101547368Y-145928447D01*
X101547368Y-145928447D02*
X101147368Y-145928447D01*
X104480701Y-145928447D02*
X104480701Y-143428447D01*
X104480701Y-145809400D02*
X104214035Y-145928447D01*
X104214035Y-145928447D02*
X103680701Y-145928447D01*
X103680701Y-145928447D02*
X103414035Y-145809400D01*
X103414035Y-145809400D02*
X103280701Y-145690352D01*
X103280701Y-145690352D02*
X103147368Y-145452257D01*
X103147368Y-145452257D02*
X103147368Y-144737971D01*
X103147368Y-144737971D02*
X103280701Y-144499876D01*
X103280701Y-144499876D02*
X103414035Y-144380828D01*
X103414035Y-144380828D02*
X103680701Y-144261780D01*
X103680701Y-144261780D02*
X104214035Y-144261780D01*
X104214035Y-144261780D02*
X104480701Y-144380828D01*
X106880701Y-145809400D02*
X106614034Y-145928447D01*
X106614034Y-145928447D02*
X106080701Y-145928447D01*
X106080701Y-145928447D02*
X105814034Y-145809400D01*
X105814034Y-145809400D02*
X105680701Y-145571304D01*
X105680701Y-145571304D02*
X105680701Y-144618923D01*
X105680701Y-144618923D02*
X105814034Y-144380828D01*
X105814034Y-144380828D02*
X106080701Y-144261780D01*
X106080701Y-144261780D02*
X106614034Y-144261780D01*
X106614034Y-144261780D02*
X106880701Y-144380828D01*
X106880701Y-144380828D02*
X107014034Y-144618923D01*
X107014034Y-144618923D02*
X107014034Y-144857019D01*
X107014034Y-144857019D02*
X105680701Y-145095114D01*
X108614034Y-145928447D02*
X108347368Y-145809400D01*
X108347368Y-145809400D02*
X108214034Y-145571304D01*
X108214034Y-145571304D02*
X108214034Y-143428447D01*
X111814034Y-145928447D02*
X111814034Y-143428447D01*
X116880700Y-145928447D02*
X115947367Y-144737971D01*
X115280700Y-145928447D02*
X115280700Y-143428447D01*
X115280700Y-143428447D02*
X116347367Y-143428447D01*
X116347367Y-143428447D02*
X116614034Y-143547495D01*
X116614034Y-143547495D02*
X116747367Y-143666542D01*
X116747367Y-143666542D02*
X116880700Y-143904638D01*
X116880700Y-143904638D02*
X116880700Y-144261780D01*
X116880700Y-144261780D02*
X116747367Y-144499876D01*
X116747367Y-144499876D02*
X116614034Y-144618923D01*
X116614034Y-144618923D02*
X116347367Y-144737971D01*
X116347367Y-144737971D02*
X115280700Y-144737971D01*
X117947367Y-145809400D02*
X118347367Y-145928447D01*
X118347367Y-145928447D02*
X119014034Y-145928447D01*
X119014034Y-145928447D02*
X119280700Y-145809400D01*
X119280700Y-145809400D02*
X119414034Y-145690352D01*
X119414034Y-145690352D02*
X119547367Y-145452257D01*
X119547367Y-145452257D02*
X119547367Y-145214161D01*
X119547367Y-145214161D02*
X119414034Y-144976066D01*
X119414034Y-144976066D02*
X119280700Y-144857019D01*
X119280700Y-144857019D02*
X119014034Y-144737971D01*
X119014034Y-144737971D02*
X118480700Y-144618923D01*
X118480700Y-144618923D02*
X118214034Y-144499876D01*
X118214034Y-144499876D02*
X118080700Y-144380828D01*
X118080700Y-144380828D02*
X117947367Y-144142733D01*
X117947367Y-144142733D02*
X117947367Y-143904638D01*
X117947367Y-143904638D02*
X118080700Y-143666542D01*
X118080700Y-143666542D02*
X118214034Y-143547495D01*
X118214034Y-143547495D02*
X118480700Y-143428447D01*
X118480700Y-143428447D02*
X119147367Y-143428447D01*
X119147367Y-143428447D02*
X119547367Y-143547495D01*
X120747367Y-144976066D02*
X122880701Y-144976066D01*
X124080701Y-143666542D02*
X124214034Y-143547495D01*
X124214034Y-143547495D02*
X124480701Y-143428447D01*
X124480701Y-143428447D02*
X125147368Y-143428447D01*
X125147368Y-143428447D02*
X125414034Y-143547495D01*
X125414034Y-143547495D02*
X125547368Y-143666542D01*
X125547368Y-143666542D02*
X125680701Y-143904638D01*
X125680701Y-143904638D02*
X125680701Y-144142733D01*
X125680701Y-144142733D02*
X125547368Y-144499876D01*
X125547368Y-144499876D02*
X123947368Y-145928447D01*
X123947368Y-145928447D02*
X125680701Y-145928447D01*
X126614035Y-143428447D02*
X128347368Y-143428447D01*
X128347368Y-143428447D02*
X127414035Y-144380828D01*
X127414035Y-144380828D02*
X127814035Y-144380828D01*
X127814035Y-144380828D02*
X128080701Y-144499876D01*
X128080701Y-144499876D02*
X128214035Y-144618923D01*
X128214035Y-144618923D02*
X128347368Y-144857019D01*
X128347368Y-144857019D02*
X128347368Y-145452257D01*
X128347368Y-145452257D02*
X128214035Y-145690352D01*
X128214035Y-145690352D02*
X128080701Y-145809400D01*
X128080701Y-145809400D02*
X127814035Y-145928447D01*
X127814035Y-145928447D02*
X127014035Y-145928447D01*
X127014035Y-145928447D02*
X126747368Y-145809400D01*
X126747368Y-145809400D02*
X126614035Y-145690352D01*
X129414035Y-143666542D02*
X129547368Y-143547495D01*
X129547368Y-143547495D02*
X129814035Y-143428447D01*
X129814035Y-143428447D02*
X130480702Y-143428447D01*
X130480702Y-143428447D02*
X130747368Y-143547495D01*
X130747368Y-143547495D02*
X130880702Y-143666542D01*
X130880702Y-143666542D02*
X131014035Y-143904638D01*
X131014035Y-143904638D02*
X131014035Y-144142733D01*
X131014035Y-144142733D02*
X130880702Y-144499876D01*
X130880702Y-144499876D02*
X129280702Y-145928447D01*
X129280702Y-145928447D02*
X131014035Y-145928447D01*
X134347368Y-145928447D02*
X134347368Y-143428447D01*
X135680701Y-144261780D02*
X135680701Y-145928447D01*
X135680701Y-144499876D02*
X135814035Y-144380828D01*
X135814035Y-144380828D02*
X136080701Y-144261780D01*
X136080701Y-144261780D02*
X136480701Y-144261780D01*
X136480701Y-144261780D02*
X136747368Y-144380828D01*
X136747368Y-144380828D02*
X136880701Y-144618923D01*
X136880701Y-144618923D02*
X136880701Y-145928447D01*
X137814034Y-144261780D02*
X138880701Y-144261780D01*
X138214034Y-143428447D02*
X138214034Y-145571304D01*
X138214034Y-145571304D02*
X138347368Y-145809400D01*
X138347368Y-145809400D02*
X138614034Y-145928447D01*
X138614034Y-145928447D02*
X138880701Y-145928447D01*
X140880701Y-145809400D02*
X140614034Y-145928447D01*
X140614034Y-145928447D02*
X140080701Y-145928447D01*
X140080701Y-145928447D02*
X139814034Y-145809400D01*
X139814034Y-145809400D02*
X139680701Y-145571304D01*
X139680701Y-145571304D02*
X139680701Y-144618923D01*
X139680701Y-144618923D02*
X139814034Y-144380828D01*
X139814034Y-144380828D02*
X140080701Y-144261780D01*
X140080701Y-144261780D02*
X140614034Y-144261780D01*
X140614034Y-144261780D02*
X140880701Y-144380828D01*
X140880701Y-144380828D02*
X141014034Y-144618923D01*
X141014034Y-144618923D02*
X141014034Y-144857019D01*
X141014034Y-144857019D02*
X139680701Y-145095114D01*
X142214034Y-145928447D02*
X142214034Y-144261780D01*
X142214034Y-144737971D02*
X142347368Y-144499876D01*
X142347368Y-144499876D02*
X142480701Y-144380828D01*
X142480701Y-144380828D02*
X142747368Y-144261780D01*
X142747368Y-144261780D02*
X143014034Y-144261780D01*
X143547367Y-144261780D02*
X144614034Y-144261780D01*
X143947367Y-145928447D02*
X143947367Y-143785590D01*
X143947367Y-143785590D02*
X144080701Y-143547495D01*
X144080701Y-143547495D02*
X144347367Y-143428447D01*
X144347367Y-143428447D02*
X144614034Y-143428447D01*
X146747367Y-145928447D02*
X146747367Y-144618923D01*
X146747367Y-144618923D02*
X146614034Y-144380828D01*
X146614034Y-144380828D02*
X146347367Y-144261780D01*
X146347367Y-144261780D02*
X145814034Y-144261780D01*
X145814034Y-144261780D02*
X145547367Y-144380828D01*
X146747367Y-145809400D02*
X146480701Y-145928447D01*
X146480701Y-145928447D02*
X145814034Y-145928447D01*
X145814034Y-145928447D02*
X145547367Y-145809400D01*
X145547367Y-145809400D02*
X145414034Y-145571304D01*
X145414034Y-145571304D02*
X145414034Y-145333209D01*
X145414034Y-145333209D02*
X145547367Y-145095114D01*
X145547367Y-145095114D02*
X145814034Y-144976066D01*
X145814034Y-144976066D02*
X146480701Y-144976066D01*
X146480701Y-144976066D02*
X146747367Y-144857019D01*
X149280700Y-145809400D02*
X149014034Y-145928447D01*
X149014034Y-145928447D02*
X148480700Y-145928447D01*
X148480700Y-145928447D02*
X148214034Y-145809400D01*
X148214034Y-145809400D02*
X148080700Y-145690352D01*
X148080700Y-145690352D02*
X147947367Y-145452257D01*
X147947367Y-145452257D02*
X147947367Y-144737971D01*
X147947367Y-144737971D02*
X148080700Y-144499876D01*
X148080700Y-144499876D02*
X148214034Y-144380828D01*
X148214034Y-144380828D02*
X148480700Y-144261780D01*
X148480700Y-144261780D02*
X149014034Y-144261780D01*
X149014034Y-144261780D02*
X149280700Y-144380828D01*
X151547367Y-145809400D02*
X151280700Y-145928447D01*
X151280700Y-145928447D02*
X150747367Y-145928447D01*
X150747367Y-145928447D02*
X150480700Y-145809400D01*
X150480700Y-145809400D02*
X150347367Y-145571304D01*
X150347367Y-145571304D02*
X150347367Y-144618923D01*
X150347367Y-144618923D02*
X150480700Y-144380828D01*
X150480700Y-144380828D02*
X150747367Y-144261780D01*
X150747367Y-144261780D02*
X151280700Y-144261780D01*
X151280700Y-144261780D02*
X151547367Y-144380828D01*
X151547367Y-144380828D02*
X151680700Y-144618923D01*
X151680700Y-144618923D02*
X151680700Y-144857019D01*
X151680700Y-144857019D02*
X150347367Y-145095114D01*
X154614033Y-143428447D02*
X155547367Y-145928447D01*
X155547367Y-145928447D02*
X156480700Y-143428447D01*
X158480700Y-145809400D02*
X158214033Y-145928447D01*
X158214033Y-145928447D02*
X157680700Y-145928447D01*
X157680700Y-145928447D02*
X157414033Y-145809400D01*
X157414033Y-145809400D02*
X157280700Y-145571304D01*
X157280700Y-145571304D02*
X157280700Y-144618923D01*
X157280700Y-144618923D02*
X157414033Y-144380828D01*
X157414033Y-144380828D02*
X157680700Y-144261780D01*
X157680700Y-144261780D02*
X158214033Y-144261780D01*
X158214033Y-144261780D02*
X158480700Y-144380828D01*
X158480700Y-144380828D02*
X158614033Y-144618923D01*
X158614033Y-144618923D02*
X158614033Y-144857019D01*
X158614033Y-144857019D02*
X157280700Y-145095114D01*
X159814033Y-145928447D02*
X159814033Y-144261780D01*
X159814033Y-144737971D02*
X159947367Y-144499876D01*
X159947367Y-144499876D02*
X160080700Y-144380828D01*
X160080700Y-144380828D02*
X160347367Y-144261780D01*
X160347367Y-144261780D02*
X160614033Y-144261780D01*
X161547366Y-145690352D02*
X161680700Y-145809400D01*
X161680700Y-145809400D02*
X161547366Y-145928447D01*
X161547366Y-145928447D02*
X161414033Y-145809400D01*
X161414033Y-145809400D02*
X161547366Y-145690352D01*
X161547366Y-145690352D02*
X161547366Y-145928447D01*
X164880699Y-143666542D02*
X165014032Y-143547495D01*
X165014032Y-143547495D02*
X165280699Y-143428447D01*
X165280699Y-143428447D02*
X165947366Y-143428447D01*
X165947366Y-143428447D02*
X166214032Y-143547495D01*
X166214032Y-143547495D02*
X166347366Y-143666542D01*
X166347366Y-143666542D02*
X166480699Y-143904638D01*
X166480699Y-143904638D02*
X166480699Y-144142733D01*
X166480699Y-144142733D02*
X166347366Y-144499876D01*
X166347366Y-144499876D02*
X164747366Y-145928447D01*
X164747366Y-145928447D02*
X166480699Y-145928447D01*
X167680699Y-145690352D02*
X167814033Y-145809400D01*
X167814033Y-145809400D02*
X167680699Y-145928447D01*
X167680699Y-145928447D02*
X167547366Y-145809400D01*
X167547366Y-145809400D02*
X167680699Y-145690352D01*
X167680699Y-145690352D02*
X167680699Y-145928447D01*
X170480699Y-145928447D02*
X168880699Y-145928447D01*
X169680699Y-145928447D02*
X169680699Y-143428447D01*
X169680699Y-143428447D02*
X169414032Y-143785590D01*
X169414032Y-143785590D02*
X169147366Y-144023685D01*
X169147366Y-144023685D02*
X168880699Y-144142733D01*
D12*
X145046521Y-75981343D02*
X144570331Y-75981343D01*
X144570331Y-75981343D02*
X144570331Y-74981343D01*
X145379855Y-75981343D02*
X145379855Y-75314676D01*
X145379855Y-74981343D02*
X145332236Y-75028962D01*
X145332236Y-75028962D02*
X145379855Y-75076581D01*
X145379855Y-75076581D02*
X145427474Y-75028962D01*
X145427474Y-75028962D02*
X145379855Y-74981343D01*
X145379855Y-74981343D02*
X145379855Y-75076581D01*
X145856045Y-75314676D02*
X145856045Y-75981343D01*
X145856045Y-75409914D02*
X145903664Y-75362295D01*
X145903664Y-75362295D02*
X145998902Y-75314676D01*
X145998902Y-75314676D02*
X146141759Y-75314676D01*
X146141759Y-75314676D02*
X146236997Y-75362295D01*
X146236997Y-75362295D02*
X146284616Y-75457533D01*
X146284616Y-75457533D02*
X146284616Y-75981343D01*
X147141759Y-75933724D02*
X147046521Y-75981343D01*
X147046521Y-75981343D02*
X146856045Y-75981343D01*
X146856045Y-75981343D02*
X146760807Y-75933724D01*
X146760807Y-75933724D02*
X146713188Y-75838485D01*
X146713188Y-75838485D02*
X146713188Y-75457533D01*
X146713188Y-75457533D02*
X146760807Y-75362295D01*
X146760807Y-75362295D02*
X146856045Y-75314676D01*
X146856045Y-75314676D02*
X147046521Y-75314676D01*
X147046521Y-75314676D02*
X147141759Y-75362295D01*
X147141759Y-75362295D02*
X147189378Y-75457533D01*
X147189378Y-75457533D02*
X147189378Y-75552771D01*
X147189378Y-75552771D02*
X146713188Y-75648009D01*
X148379855Y-75981343D02*
X148379855Y-74981343D01*
X148379855Y-74981343D02*
X148617950Y-74981343D01*
X148617950Y-74981343D02*
X148760807Y-75028962D01*
X148760807Y-75028962D02*
X148856045Y-75124200D01*
X148856045Y-75124200D02*
X148903664Y-75219438D01*
X148903664Y-75219438D02*
X148951283Y-75409914D01*
X148951283Y-75409914D02*
X148951283Y-75552771D01*
X148951283Y-75552771D02*
X148903664Y-75743247D01*
X148903664Y-75743247D02*
X148856045Y-75838485D01*
X148856045Y-75838485D02*
X148760807Y-75933724D01*
X148760807Y-75933724D02*
X148617950Y-75981343D01*
X148617950Y-75981343D02*
X148379855Y-75981343D01*
X149379855Y-75981343D02*
X149379855Y-75314676D01*
X149379855Y-75505152D02*
X149427474Y-75409914D01*
X149427474Y-75409914D02*
X149475093Y-75362295D01*
X149475093Y-75362295D02*
X149570331Y-75314676D01*
X149570331Y-75314676D02*
X149665569Y-75314676D01*
X149998903Y-75981343D02*
X149998903Y-75314676D01*
X149998903Y-74981343D02*
X149951284Y-75028962D01*
X149951284Y-75028962D02*
X149998903Y-75076581D01*
X149998903Y-75076581D02*
X150046522Y-75028962D01*
X150046522Y-75028962D02*
X149998903Y-74981343D01*
X149998903Y-74981343D02*
X149998903Y-75076581D01*
X150379855Y-75314676D02*
X150617950Y-75981343D01*
X150617950Y-75981343D02*
X150856045Y-75314676D01*
X151617950Y-75933724D02*
X151522712Y-75981343D01*
X151522712Y-75981343D02*
X151332236Y-75981343D01*
X151332236Y-75981343D02*
X151236998Y-75933724D01*
X151236998Y-75933724D02*
X151189379Y-75838485D01*
X151189379Y-75838485D02*
X151189379Y-75457533D01*
X151189379Y-75457533D02*
X151236998Y-75362295D01*
X151236998Y-75362295D02*
X151332236Y-75314676D01*
X151332236Y-75314676D02*
X151522712Y-75314676D01*
X151522712Y-75314676D02*
X151617950Y-75362295D01*
X151617950Y-75362295D02*
X151665569Y-75457533D01*
X151665569Y-75457533D02*
X151665569Y-75552771D01*
X151665569Y-75552771D02*
X151189379Y-75648009D01*
X152094141Y-75981343D02*
X152094141Y-75314676D01*
X152094141Y-75505152D02*
X152141760Y-75409914D01*
X152141760Y-75409914D02*
X152189379Y-75362295D01*
X152189379Y-75362295D02*
X152284617Y-75314676D01*
X152284617Y-75314676D02*
X152379855Y-75314676D01*
X146094141Y-79201231D02*
X146094141Y-78201231D01*
X146094141Y-78201231D02*
X146665569Y-79201231D01*
X146665569Y-79201231D02*
X146665569Y-78201231D01*
X147284617Y-79201231D02*
X147189379Y-79153612D01*
X147189379Y-79153612D02*
X147141760Y-79105992D01*
X147141760Y-79105992D02*
X147094141Y-79010754D01*
X147094141Y-79010754D02*
X147094141Y-78725040D01*
X147094141Y-78725040D02*
X147141760Y-78629802D01*
X147141760Y-78629802D02*
X147189379Y-78582183D01*
X147189379Y-78582183D02*
X147284617Y-78534564D01*
X147284617Y-78534564D02*
X147427474Y-78534564D01*
X147427474Y-78534564D02*
X147522712Y-78582183D01*
X147522712Y-78582183D02*
X147570331Y-78629802D01*
X147570331Y-78629802D02*
X147617950Y-78725040D01*
X147617950Y-78725040D02*
X147617950Y-79010754D01*
X147617950Y-79010754D02*
X147570331Y-79105992D01*
X147570331Y-79105992D02*
X147522712Y-79153612D01*
X147522712Y-79153612D02*
X147427474Y-79201231D01*
X147427474Y-79201231D02*
X147284617Y-79201231D01*
X148046522Y-79201231D02*
X148046522Y-78534564D01*
X148046522Y-78725040D02*
X148094141Y-78629802D01*
X148094141Y-78629802D02*
X148141760Y-78582183D01*
X148141760Y-78582183D02*
X148236998Y-78534564D01*
X148236998Y-78534564D02*
X148332236Y-78534564D01*
X148665570Y-79201231D02*
X148665570Y-78534564D01*
X148665570Y-78629802D02*
X148713189Y-78582183D01*
X148713189Y-78582183D02*
X148808427Y-78534564D01*
X148808427Y-78534564D02*
X148951284Y-78534564D01*
X148951284Y-78534564D02*
X149046522Y-78582183D01*
X149046522Y-78582183D02*
X149094141Y-78677421D01*
X149094141Y-78677421D02*
X149094141Y-79201231D01*
X149094141Y-78677421D02*
X149141760Y-78582183D01*
X149141760Y-78582183D02*
X149236998Y-78534564D01*
X149236998Y-78534564D02*
X149379855Y-78534564D01*
X149379855Y-78534564D02*
X149475094Y-78582183D01*
X149475094Y-78582183D02*
X149522713Y-78677421D01*
X149522713Y-78677421D02*
X149522713Y-79201231D01*
X150427474Y-79201231D02*
X150427474Y-78677421D01*
X150427474Y-78677421D02*
X150379855Y-78582183D01*
X150379855Y-78582183D02*
X150284617Y-78534564D01*
X150284617Y-78534564D02*
X150094141Y-78534564D01*
X150094141Y-78534564D02*
X149998903Y-78582183D01*
X150427474Y-79153612D02*
X150332236Y-79201231D01*
X150332236Y-79201231D02*
X150094141Y-79201231D01*
X150094141Y-79201231D02*
X149998903Y-79153612D01*
X149998903Y-79153612D02*
X149951284Y-79058373D01*
X149951284Y-79058373D02*
X149951284Y-78963135D01*
X149951284Y-78963135D02*
X149998903Y-78867897D01*
X149998903Y-78867897D02*
X150094141Y-78820278D01*
X150094141Y-78820278D02*
X150332236Y-78820278D01*
X150332236Y-78820278D02*
X150427474Y-78772659D01*
X151046522Y-79201231D02*
X150951284Y-79153612D01*
X150951284Y-79153612D02*
X150903665Y-79058373D01*
X150903665Y-79058373D02*
X150903665Y-78201231D01*
X146046522Y-82373500D02*
X146189379Y-82421119D01*
X146189379Y-82421119D02*
X146427474Y-82421119D01*
X146427474Y-82421119D02*
X146522712Y-82373500D01*
X146522712Y-82373500D02*
X146570331Y-82325880D01*
X146570331Y-82325880D02*
X146617950Y-82230642D01*
X146617950Y-82230642D02*
X146617950Y-82135404D01*
X146617950Y-82135404D02*
X146570331Y-82040166D01*
X146570331Y-82040166D02*
X146522712Y-81992547D01*
X146522712Y-81992547D02*
X146427474Y-81944928D01*
X146427474Y-81944928D02*
X146236998Y-81897309D01*
X146236998Y-81897309D02*
X146141760Y-81849690D01*
X146141760Y-81849690D02*
X146094141Y-81802071D01*
X146094141Y-81802071D02*
X146046522Y-81706833D01*
X146046522Y-81706833D02*
X146046522Y-81611595D01*
X146046522Y-81611595D02*
X146094141Y-81516357D01*
X146094141Y-81516357D02*
X146141760Y-81468738D01*
X146141760Y-81468738D02*
X146236998Y-81421119D01*
X146236998Y-81421119D02*
X146475093Y-81421119D01*
X146475093Y-81421119D02*
X146617950Y-81468738D01*
X147046522Y-82421119D02*
X147046522Y-81421119D01*
X147475093Y-82421119D02*
X147475093Y-81897309D01*
X147475093Y-81897309D02*
X147427474Y-81802071D01*
X147427474Y-81802071D02*
X147332236Y-81754452D01*
X147332236Y-81754452D02*
X147189379Y-81754452D01*
X147189379Y-81754452D02*
X147094141Y-81802071D01*
X147094141Y-81802071D02*
X147046522Y-81849690D01*
X148379855Y-81754452D02*
X148379855Y-82421119D01*
X147951284Y-81754452D02*
X147951284Y-82278261D01*
X147951284Y-82278261D02*
X147998903Y-82373500D01*
X147998903Y-82373500D02*
X148094141Y-82421119D01*
X148094141Y-82421119D02*
X148236998Y-82421119D01*
X148236998Y-82421119D02*
X148332236Y-82373500D01*
X148332236Y-82373500D02*
X148379855Y-82325880D01*
X148713189Y-81754452D02*
X149094141Y-81754452D01*
X148856046Y-81421119D02*
X148856046Y-82278261D01*
X148856046Y-82278261D02*
X148903665Y-82373500D01*
X148903665Y-82373500D02*
X148998903Y-82421119D01*
X148998903Y-82421119D02*
X149094141Y-82421119D01*
X149856046Y-82421119D02*
X149856046Y-81421119D01*
X149856046Y-82373500D02*
X149760808Y-82421119D01*
X149760808Y-82421119D02*
X149570332Y-82421119D01*
X149570332Y-82421119D02*
X149475094Y-82373500D01*
X149475094Y-82373500D02*
X149427475Y-82325880D01*
X149427475Y-82325880D02*
X149379856Y-82230642D01*
X149379856Y-82230642D02*
X149379856Y-81944928D01*
X149379856Y-81944928D02*
X149427475Y-81849690D01*
X149427475Y-81849690D02*
X149475094Y-81802071D01*
X149475094Y-81802071D02*
X149570332Y-81754452D01*
X149570332Y-81754452D02*
X149760808Y-81754452D01*
X149760808Y-81754452D02*
X149856046Y-81802071D01*
X150475094Y-82421119D02*
X150379856Y-82373500D01*
X150379856Y-82373500D02*
X150332237Y-82325880D01*
X150332237Y-82325880D02*
X150284618Y-82230642D01*
X150284618Y-82230642D02*
X150284618Y-81944928D01*
X150284618Y-81944928D02*
X150332237Y-81849690D01*
X150332237Y-81849690D02*
X150379856Y-81802071D01*
X150379856Y-81802071D02*
X150475094Y-81754452D01*
X150475094Y-81754452D02*
X150617951Y-81754452D01*
X150617951Y-81754452D02*
X150713189Y-81802071D01*
X150713189Y-81802071D02*
X150760808Y-81849690D01*
X150760808Y-81849690D02*
X150808427Y-81944928D01*
X150808427Y-81944928D02*
X150808427Y-82230642D01*
X150808427Y-82230642D02*
X150760808Y-82325880D01*
X150760808Y-82325880D02*
X150713189Y-82373500D01*
X150713189Y-82373500D02*
X150617951Y-82421119D01*
X150617951Y-82421119D02*
X150475094Y-82421119D01*
X151141761Y-81754452D02*
X151332237Y-82421119D01*
X151332237Y-82421119D02*
X151522713Y-81944928D01*
X151522713Y-81944928D02*
X151713189Y-82421119D01*
X151713189Y-82421119D02*
X151903665Y-81754452D01*
X152284618Y-81754452D02*
X152284618Y-82421119D01*
X152284618Y-81849690D02*
X152332237Y-81802071D01*
X152332237Y-81802071D02*
X152427475Y-81754452D01*
X152427475Y-81754452D02*
X152570332Y-81754452D01*
X152570332Y-81754452D02*
X152665570Y-81802071D01*
X152665570Y-81802071D02*
X152713189Y-81897309D01*
X152713189Y-81897309D02*
X152713189Y-82421119D01*
X169294140Y-77455960D02*
X169198902Y-77417865D01*
X169198902Y-77417865D02*
X169056045Y-77417865D01*
X169056045Y-77417865D02*
X168913188Y-77455960D01*
X168913188Y-77455960D02*
X168817950Y-77532150D01*
X168817950Y-77532150D02*
X168770331Y-77608341D01*
X168770331Y-77608341D02*
X168722712Y-77760722D01*
X168722712Y-77760722D02*
X168722712Y-77875008D01*
X168722712Y-77875008D02*
X168770331Y-78027389D01*
X168770331Y-78027389D02*
X168817950Y-78103579D01*
X168817950Y-78103579D02*
X168913188Y-78179770D01*
X168913188Y-78179770D02*
X169056045Y-78217865D01*
X169056045Y-78217865D02*
X169151283Y-78217865D01*
X169151283Y-78217865D02*
X169294140Y-78179770D01*
X169294140Y-78179770D02*
X169341759Y-78141674D01*
X169341759Y-78141674D02*
X169341759Y-77875008D01*
X169341759Y-77875008D02*
X169151283Y-77875008D01*
X169770331Y-78217865D02*
X169770331Y-77417865D01*
X169770331Y-77417865D02*
X170341759Y-78217865D01*
X170341759Y-78217865D02*
X170341759Y-77417865D01*
X170817950Y-78217865D02*
X170817950Y-77417865D01*
X170817950Y-77417865D02*
X171056045Y-77417865D01*
X171056045Y-77417865D02*
X171198902Y-77455960D01*
X171198902Y-77455960D02*
X171294140Y-77532150D01*
X171294140Y-77532150D02*
X171341759Y-77608341D01*
X171341759Y-77608341D02*
X171389378Y-77760722D01*
X171389378Y-77760722D02*
X171389378Y-77875008D01*
X171389378Y-77875008D02*
X171341759Y-78027389D01*
X171341759Y-78027389D02*
X171294140Y-78103579D01*
X171294140Y-78103579D02*
X171198902Y-78179770D01*
X171198902Y-78179770D02*
X171056045Y-78217865D01*
X171056045Y-78217865D02*
X170817950Y-78217865D01*
X169294140Y-80031870D02*
X169198902Y-79993775D01*
X169198902Y-79993775D02*
X169056045Y-79993775D01*
X169056045Y-79993775D02*
X168913188Y-80031870D01*
X168913188Y-80031870D02*
X168817950Y-80108060D01*
X168817950Y-80108060D02*
X168770331Y-80184251D01*
X168770331Y-80184251D02*
X168722712Y-80336632D01*
X168722712Y-80336632D02*
X168722712Y-80450918D01*
X168722712Y-80450918D02*
X168770331Y-80603299D01*
X168770331Y-80603299D02*
X168817950Y-80679489D01*
X168817950Y-80679489D02*
X168913188Y-80755680D01*
X168913188Y-80755680D02*
X169056045Y-80793775D01*
X169056045Y-80793775D02*
X169151283Y-80793775D01*
X169151283Y-80793775D02*
X169294140Y-80755680D01*
X169294140Y-80755680D02*
X169341759Y-80717584D01*
X169341759Y-80717584D02*
X169341759Y-80450918D01*
X169341759Y-80450918D02*
X169151283Y-80450918D01*
X169770331Y-80793775D02*
X169770331Y-79993775D01*
X169770331Y-79993775D02*
X170341759Y-80793775D01*
X170341759Y-80793775D02*
X170341759Y-79993775D01*
X170817950Y-80793775D02*
X170817950Y-79993775D01*
X170817950Y-79993775D02*
X171056045Y-79993775D01*
X171056045Y-79993775D02*
X171198902Y-80031870D01*
X171198902Y-80031870D02*
X171294140Y-80108060D01*
X171294140Y-80108060D02*
X171341759Y-80184251D01*
X171341759Y-80184251D02*
X171389378Y-80336632D01*
X171389378Y-80336632D02*
X171389378Y-80450918D01*
X171389378Y-80450918D02*
X171341759Y-80603299D01*
X171341759Y-80603299D02*
X171294140Y-80679489D01*
X171294140Y-80679489D02*
X171198902Y-80755680D01*
X171198902Y-80755680D02*
X171056045Y-80793775D01*
X171056045Y-80793775D02*
X170817950Y-80793775D01*
X168770331Y-85640833D02*
X169532236Y-85640833D01*
X169151283Y-85945595D02*
X169151283Y-85336071D01*
X170484616Y-85145595D02*
X170008426Y-85145595D01*
X170008426Y-85145595D02*
X169960807Y-85526547D01*
X169960807Y-85526547D02*
X170008426Y-85488452D01*
X170008426Y-85488452D02*
X170103664Y-85450357D01*
X170103664Y-85450357D02*
X170341759Y-85450357D01*
X170341759Y-85450357D02*
X170436997Y-85488452D01*
X170436997Y-85488452D02*
X170484616Y-85526547D01*
X170484616Y-85526547D02*
X170532235Y-85602738D01*
X170532235Y-85602738D02*
X170532235Y-85793214D01*
X170532235Y-85793214D02*
X170484616Y-85869404D01*
X170484616Y-85869404D02*
X170436997Y-85907500D01*
X170436997Y-85907500D02*
X170341759Y-85945595D01*
X170341759Y-85945595D02*
X170103664Y-85945595D01*
X170103664Y-85945595D02*
X170008426Y-85907500D01*
X170008426Y-85907500D02*
X169960807Y-85869404D01*
X170817950Y-85145595D02*
X171151283Y-85945595D01*
X171151283Y-85945595D02*
X171484616Y-85145595D01*
X157227474Y-76951231D02*
X157798902Y-76951231D01*
X157513188Y-77951231D02*
X157513188Y-76951231D01*
X158036998Y-76951231D02*
X158703664Y-77951231D01*
X158703664Y-76951231D02*
X158036998Y-77951231D01*
X158846522Y-78046469D02*
X159608426Y-78046469D01*
X159703665Y-76951231D02*
X160275093Y-76951231D01*
X159989379Y-77951231D02*
X159989379Y-76951231D01*
X160465570Y-76951231D02*
X161036998Y-76951231D01*
X160751284Y-77951231D02*
X160751284Y-76951231D01*
X161846522Y-77951231D02*
X161370332Y-77951231D01*
X161370332Y-77951231D02*
X161370332Y-76951231D01*
X157941759Y-81171119D02*
X157608426Y-80694928D01*
X157370331Y-81171119D02*
X157370331Y-80171119D01*
X157370331Y-80171119D02*
X157751283Y-80171119D01*
X157751283Y-80171119D02*
X157846521Y-80218738D01*
X157846521Y-80218738D02*
X157894140Y-80266357D01*
X157894140Y-80266357D02*
X157941759Y-80361595D01*
X157941759Y-80361595D02*
X157941759Y-80504452D01*
X157941759Y-80504452D02*
X157894140Y-80599690D01*
X157894140Y-80599690D02*
X157846521Y-80647309D01*
X157846521Y-80647309D02*
X157751283Y-80694928D01*
X157751283Y-80694928D02*
X157370331Y-80694928D01*
X158275093Y-80171119D02*
X158941759Y-81171119D01*
X158941759Y-80171119D02*
X158275093Y-81171119D01*
X159084617Y-81266357D02*
X159846521Y-81266357D01*
X159941760Y-80171119D02*
X160513188Y-80171119D01*
X160227474Y-81171119D02*
X160227474Y-80171119D01*
X160703665Y-80171119D02*
X161275093Y-80171119D01*
X160989379Y-81171119D02*
X160989379Y-80171119D01*
X162084617Y-81171119D02*
X161608427Y-81171119D01*
X161608427Y-81171119D02*
X161608427Y-80171119D01*
X88246521Y-90951231D02*
X87770331Y-90951231D01*
X87770331Y-90951231D02*
X87770331Y-89951231D01*
X88770331Y-89951231D02*
X88960807Y-89951231D01*
X88960807Y-89951231D02*
X89056045Y-89998850D01*
X89056045Y-89998850D02*
X89151283Y-90094088D01*
X89151283Y-90094088D02*
X89198902Y-90284564D01*
X89198902Y-90284564D02*
X89198902Y-90617897D01*
X89198902Y-90617897D02*
X89151283Y-90808373D01*
X89151283Y-90808373D02*
X89056045Y-90903612D01*
X89056045Y-90903612D02*
X88960807Y-90951231D01*
X88960807Y-90951231D02*
X88770331Y-90951231D01*
X88770331Y-90951231D02*
X88675093Y-90903612D01*
X88675093Y-90903612D02*
X88579855Y-90808373D01*
X88579855Y-90808373D02*
X88532236Y-90617897D01*
X88532236Y-90617897D02*
X88532236Y-90284564D01*
X88532236Y-90284564D02*
X88579855Y-90094088D01*
X88579855Y-90094088D02*
X88675093Y-89998850D01*
X88675093Y-89998850D02*
X88770331Y-89951231D01*
X89817950Y-89951231D02*
X90008426Y-89951231D01*
X90008426Y-89951231D02*
X90103664Y-89998850D01*
X90103664Y-89998850D02*
X90198902Y-90094088D01*
X90198902Y-90094088D02*
X90246521Y-90284564D01*
X90246521Y-90284564D02*
X90246521Y-90617897D01*
X90246521Y-90617897D02*
X90198902Y-90808373D01*
X90198902Y-90808373D02*
X90103664Y-90903612D01*
X90103664Y-90903612D02*
X90008426Y-90951231D01*
X90008426Y-90951231D02*
X89817950Y-90951231D01*
X89817950Y-90951231D02*
X89722712Y-90903612D01*
X89722712Y-90903612D02*
X89627474Y-90808373D01*
X89627474Y-90808373D02*
X89579855Y-90617897D01*
X89579855Y-90617897D02*
X89579855Y-90284564D01*
X89579855Y-90284564D02*
X89627474Y-90094088D01*
X89627474Y-90094088D02*
X89722712Y-89998850D01*
X89722712Y-89998850D02*
X89817950Y-89951231D01*
X90675093Y-90951231D02*
X90675093Y-89951231D01*
X90675093Y-89951231D02*
X91056045Y-89951231D01*
X91056045Y-89951231D02*
X91151283Y-89998850D01*
X91151283Y-89998850D02*
X91198902Y-90046469D01*
X91198902Y-90046469D02*
X91246521Y-90141707D01*
X91246521Y-90141707D02*
X91246521Y-90284564D01*
X91246521Y-90284564D02*
X91198902Y-90379802D01*
X91198902Y-90379802D02*
X91151283Y-90427421D01*
X91151283Y-90427421D02*
X91056045Y-90475040D01*
X91056045Y-90475040D02*
X90675093Y-90475040D01*
X88103664Y-92037365D02*
X88246521Y-92084984D01*
X88246521Y-92084984D02*
X88294140Y-92132603D01*
X88294140Y-92132603D02*
X88341759Y-92227841D01*
X88341759Y-92227841D02*
X88341759Y-92370698D01*
X88341759Y-92370698D02*
X88294140Y-92465936D01*
X88294140Y-92465936D02*
X88246521Y-92513556D01*
X88246521Y-92513556D02*
X88151283Y-92561175D01*
X88151283Y-92561175D02*
X87770331Y-92561175D01*
X87770331Y-92561175D02*
X87770331Y-91561175D01*
X87770331Y-91561175D02*
X88103664Y-91561175D01*
X88103664Y-91561175D02*
X88198902Y-91608794D01*
X88198902Y-91608794D02*
X88246521Y-91656413D01*
X88246521Y-91656413D02*
X88294140Y-91751651D01*
X88294140Y-91751651D02*
X88294140Y-91846889D01*
X88294140Y-91846889D02*
X88246521Y-91942127D01*
X88246521Y-91942127D02*
X88198902Y-91989746D01*
X88198902Y-91989746D02*
X88103664Y-92037365D01*
X88103664Y-92037365D02*
X87770331Y-92037365D01*
X88722712Y-92275460D02*
X89198902Y-92275460D01*
X88627474Y-92561175D02*
X88960807Y-91561175D01*
X88960807Y-91561175D02*
X89294140Y-92561175D01*
X90198902Y-92465936D02*
X90151283Y-92513556D01*
X90151283Y-92513556D02*
X90008426Y-92561175D01*
X90008426Y-92561175D02*
X89913188Y-92561175D01*
X89913188Y-92561175D02*
X89770331Y-92513556D01*
X89770331Y-92513556D02*
X89675093Y-92418317D01*
X89675093Y-92418317D02*
X89627474Y-92323079D01*
X89627474Y-92323079D02*
X89579855Y-92132603D01*
X89579855Y-92132603D02*
X89579855Y-91989746D01*
X89579855Y-91989746D02*
X89627474Y-91799270D01*
X89627474Y-91799270D02*
X89675093Y-91704032D01*
X89675093Y-91704032D02*
X89770331Y-91608794D01*
X89770331Y-91608794D02*
X89913188Y-91561175D01*
X89913188Y-91561175D02*
X90008426Y-91561175D01*
X90008426Y-91561175D02*
X90151283Y-91608794D01*
X90151283Y-91608794D02*
X90198902Y-91656413D01*
X90627474Y-92561175D02*
X90627474Y-91561175D01*
X91198902Y-92561175D02*
X90770331Y-91989746D01*
X91198902Y-91561175D02*
X90627474Y-92132603D01*
X87627474Y-93171119D02*
X88198902Y-93171119D01*
X87913188Y-94171119D02*
X87913188Y-93171119D01*
X88532236Y-93647309D02*
X88865569Y-93647309D01*
X89008426Y-94171119D02*
X88532236Y-94171119D01*
X88532236Y-94171119D02*
X88532236Y-93171119D01*
X88532236Y-93171119D02*
X89008426Y-93171119D01*
X89389379Y-94123500D02*
X89532236Y-94171119D01*
X89532236Y-94171119D02*
X89770331Y-94171119D01*
X89770331Y-94171119D02*
X89865569Y-94123500D01*
X89865569Y-94123500D02*
X89913188Y-94075880D01*
X89913188Y-94075880D02*
X89960807Y-93980642D01*
X89960807Y-93980642D02*
X89960807Y-93885404D01*
X89960807Y-93885404D02*
X89913188Y-93790166D01*
X89913188Y-93790166D02*
X89865569Y-93742547D01*
X89865569Y-93742547D02*
X89770331Y-93694928D01*
X89770331Y-93694928D02*
X89579855Y-93647309D01*
X89579855Y-93647309D02*
X89484617Y-93599690D01*
X89484617Y-93599690D02*
X89436998Y-93552071D01*
X89436998Y-93552071D02*
X89389379Y-93456833D01*
X89389379Y-93456833D02*
X89389379Y-93361595D01*
X89389379Y-93361595D02*
X89436998Y-93266357D01*
X89436998Y-93266357D02*
X89484617Y-93218738D01*
X89484617Y-93218738D02*
X89579855Y-93171119D01*
X89579855Y-93171119D02*
X89817950Y-93171119D01*
X89817950Y-93171119D02*
X89960807Y-93218738D01*
X90246522Y-93171119D02*
X90817950Y-93171119D01*
X90532236Y-94171119D02*
X90532236Y-93171119D01*
D13*
X133861905Y-79924819D02*
X133861905Y-80734342D01*
X133861905Y-80734342D02*
X133909524Y-80829580D01*
X133909524Y-80829580D02*
X133957143Y-80877200D01*
X133957143Y-80877200D02*
X134052381Y-80924819D01*
X134052381Y-80924819D02*
X134242857Y-80924819D01*
X134242857Y-80924819D02*
X134338095Y-80877200D01*
X134338095Y-80877200D02*
X134385714Y-80829580D01*
X134385714Y-80829580D02*
X134433333Y-80734342D01*
X134433333Y-80734342D02*
X134433333Y-79924819D01*
X135433333Y-80924819D02*
X134861905Y-80924819D01*
X135147619Y-80924819D02*
X135147619Y-79924819D01*
X135147619Y-79924819D02*
X135052381Y-80067676D01*
X135052381Y-80067676D02*
X134957143Y-80162914D01*
X134957143Y-80162914D02*
X134861905Y-80210533D01*
X136052381Y-79924819D02*
X136147619Y-79924819D01*
X136147619Y-79924819D02*
X136242857Y-79972438D01*
X136242857Y-79972438D02*
X136290476Y-80020057D01*
X136290476Y-80020057D02*
X136338095Y-80115295D01*
X136338095Y-80115295D02*
X136385714Y-80305771D01*
X136385714Y-80305771D02*
X136385714Y-80543866D01*
X136385714Y-80543866D02*
X136338095Y-80734342D01*
X136338095Y-80734342D02*
X136290476Y-80829580D01*
X136290476Y-80829580D02*
X136242857Y-80877200D01*
X136242857Y-80877200D02*
X136147619Y-80924819D01*
X136147619Y-80924819D02*
X136052381Y-80924819D01*
X136052381Y-80924819D02*
X135957143Y-80877200D01*
X135957143Y-80877200D02*
X135909524Y-80829580D01*
X135909524Y-80829580D02*
X135861905Y-80734342D01*
X135861905Y-80734342D02*
X135814286Y-80543866D01*
X135814286Y-80543866D02*
X135814286Y-80305771D01*
X135814286Y-80305771D02*
X135861905Y-80115295D01*
X135861905Y-80115295D02*
X135909524Y-80020057D01*
X135909524Y-80020057D02*
X135957143Y-79972438D01*
X135957143Y-79972438D02*
X136052381Y-79924819D01*
X132457143Y-90484819D02*
X133123809Y-90484819D01*
X133123809Y-90484819D02*
X132695238Y-91484819D01*
X133933333Y-90818152D02*
X133933333Y-91484819D01*
X133695238Y-90437200D02*
X133457143Y-91151485D01*
X133457143Y-91151485D02*
X134076190Y-91151485D01*
X134933333Y-91484819D02*
X134457143Y-91484819D01*
X134457143Y-91484819D02*
X134457143Y-90484819D01*
X135219048Y-91437200D02*
X135361905Y-91484819D01*
X135361905Y-91484819D02*
X135600000Y-91484819D01*
X135600000Y-91484819D02*
X135695238Y-91437200D01*
X135695238Y-91437200D02*
X135742857Y-91389580D01*
X135742857Y-91389580D02*
X135790476Y-91294342D01*
X135790476Y-91294342D02*
X135790476Y-91199104D01*
X135790476Y-91199104D02*
X135742857Y-91103866D01*
X135742857Y-91103866D02*
X135695238Y-91056247D01*
X135695238Y-91056247D02*
X135600000Y-91008628D01*
X135600000Y-91008628D02*
X135409524Y-90961009D01*
X135409524Y-90961009D02*
X135314286Y-90913390D01*
X135314286Y-90913390D02*
X135266667Y-90865771D01*
X135266667Y-90865771D02*
X135219048Y-90770533D01*
X135219048Y-90770533D02*
X135219048Y-90675295D01*
X135219048Y-90675295D02*
X135266667Y-90580057D01*
X135266667Y-90580057D02*
X135314286Y-90532438D01*
X135314286Y-90532438D02*
X135409524Y-90484819D01*
X135409524Y-90484819D02*
X135647619Y-90484819D01*
X135647619Y-90484819D02*
X135790476Y-90532438D01*
X136409524Y-90484819D02*
X136504762Y-90484819D01*
X136504762Y-90484819D02*
X136600000Y-90532438D01*
X136600000Y-90532438D02*
X136647619Y-90580057D01*
X136647619Y-90580057D02*
X136695238Y-90675295D01*
X136695238Y-90675295D02*
X136742857Y-90865771D01*
X136742857Y-90865771D02*
X136742857Y-91103866D01*
X136742857Y-91103866D02*
X136695238Y-91294342D01*
X136695238Y-91294342D02*
X136647619Y-91389580D01*
X136647619Y-91389580D02*
X136600000Y-91437200D01*
X136600000Y-91437200D02*
X136504762Y-91484819D01*
X136504762Y-91484819D02*
X136409524Y-91484819D01*
X136409524Y-91484819D02*
X136314286Y-91437200D01*
X136314286Y-91437200D02*
X136266667Y-91389580D01*
X136266667Y-91389580D02*
X136219048Y-91294342D01*
X136219048Y-91294342D02*
X136171429Y-91103866D01*
X136171429Y-91103866D02*
X136171429Y-90865771D01*
X136171429Y-90865771D02*
X136219048Y-90675295D01*
X136219048Y-90675295D02*
X136266667Y-90580057D01*
X136266667Y-90580057D02*
X136314286Y-90532438D01*
X136314286Y-90532438D02*
X136409524Y-90484819D01*
X137314286Y-90913390D02*
X137219048Y-90865771D01*
X137219048Y-90865771D02*
X137171429Y-90818152D01*
X137171429Y-90818152D02*
X137123810Y-90722914D01*
X137123810Y-90722914D02*
X137123810Y-90675295D01*
X137123810Y-90675295D02*
X137171429Y-90580057D01*
X137171429Y-90580057D02*
X137219048Y-90532438D01*
X137219048Y-90532438D02*
X137314286Y-90484819D01*
X137314286Y-90484819D02*
X137504762Y-90484819D01*
X137504762Y-90484819D02*
X137600000Y-90532438D01*
X137600000Y-90532438D02*
X137647619Y-90580057D01*
X137647619Y-90580057D02*
X137695238Y-90675295D01*
X137695238Y-90675295D02*
X137695238Y-90722914D01*
X137695238Y-90722914D02*
X137647619Y-90818152D01*
X137647619Y-90818152D02*
X137600000Y-90865771D01*
X137600000Y-90865771D02*
X137504762Y-90913390D01*
X137504762Y-90913390D02*
X137314286Y-90913390D01*
X137314286Y-90913390D02*
X137219048Y-90961009D01*
X137219048Y-90961009D02*
X137171429Y-91008628D01*
X137171429Y-91008628D02*
X137123810Y-91103866D01*
X137123810Y-91103866D02*
X137123810Y-91294342D01*
X137123810Y-91294342D02*
X137171429Y-91389580D01*
X137171429Y-91389580D02*
X137219048Y-91437200D01*
X137219048Y-91437200D02*
X137314286Y-91484819D01*
X137314286Y-91484819D02*
X137504762Y-91484819D01*
X137504762Y-91484819D02*
X137600000Y-91437200D01*
X137600000Y-91437200D02*
X137647619Y-91389580D01*
X137647619Y-91389580D02*
X137695238Y-91294342D01*
X137695238Y-91294342D02*
X137695238Y-91103866D01*
X137695238Y-91103866D02*
X137647619Y-91008628D01*
X137647619Y-91008628D02*
X137600000Y-90961009D01*
X137600000Y-90961009D02*
X137504762Y-90913390D01*
X138948095Y-115474819D02*
X138948095Y-116284342D01*
X138948095Y-116284342D02*
X138995714Y-116379580D01*
X138995714Y-116379580D02*
X139043333Y-116427200D01*
X139043333Y-116427200D02*
X139138571Y-116474819D01*
X139138571Y-116474819D02*
X139329047Y-116474819D01*
X139329047Y-116474819D02*
X139424285Y-116427200D01*
X139424285Y-116427200D02*
X139471904Y-116379580D01*
X139471904Y-116379580D02*
X139519523Y-116284342D01*
X139519523Y-116284342D02*
X139519523Y-115474819D01*
X139948095Y-115570057D02*
X139995714Y-115522438D01*
X139995714Y-115522438D02*
X140090952Y-115474819D01*
X140090952Y-115474819D02*
X140329047Y-115474819D01*
X140329047Y-115474819D02*
X140424285Y-115522438D01*
X140424285Y-115522438D02*
X140471904Y-115570057D01*
X140471904Y-115570057D02*
X140519523Y-115665295D01*
X140519523Y-115665295D02*
X140519523Y-115760533D01*
X140519523Y-115760533D02*
X140471904Y-115903390D01*
X140471904Y-115903390D02*
X139900476Y-116474819D01*
X139900476Y-116474819D02*
X140519523Y-116474819D01*
X137019523Y-141359580D02*
X136971904Y-141407200D01*
X136971904Y-141407200D02*
X136829047Y-141454819D01*
X136829047Y-141454819D02*
X136733809Y-141454819D01*
X136733809Y-141454819D02*
X136590952Y-141407200D01*
X136590952Y-141407200D02*
X136495714Y-141311961D01*
X136495714Y-141311961D02*
X136448095Y-141216723D01*
X136448095Y-141216723D02*
X136400476Y-141026247D01*
X136400476Y-141026247D02*
X136400476Y-140883390D01*
X136400476Y-140883390D02*
X136448095Y-140692914D01*
X136448095Y-140692914D02*
X136495714Y-140597676D01*
X136495714Y-140597676D02*
X136590952Y-140502438D01*
X136590952Y-140502438D02*
X136733809Y-140454819D01*
X136733809Y-140454819D02*
X136829047Y-140454819D01*
X136829047Y-140454819D02*
X136971904Y-140502438D01*
X136971904Y-140502438D02*
X137019523Y-140550057D01*
X137638571Y-140454819D02*
X137829047Y-140454819D01*
X137829047Y-140454819D02*
X137924285Y-140502438D01*
X137924285Y-140502438D02*
X138019523Y-140597676D01*
X138019523Y-140597676D02*
X138067142Y-140788152D01*
X138067142Y-140788152D02*
X138067142Y-141121485D01*
X138067142Y-141121485D02*
X138019523Y-141311961D01*
X138019523Y-141311961D02*
X137924285Y-141407200D01*
X137924285Y-141407200D02*
X137829047Y-141454819D01*
X137829047Y-141454819D02*
X137638571Y-141454819D01*
X137638571Y-141454819D02*
X137543333Y-141407200D01*
X137543333Y-141407200D02*
X137448095Y-141311961D01*
X137448095Y-141311961D02*
X137400476Y-141121485D01*
X137400476Y-141121485D02*
X137400476Y-140788152D01*
X137400476Y-140788152D02*
X137448095Y-140597676D01*
X137448095Y-140597676D02*
X137543333Y-140502438D01*
X137543333Y-140502438D02*
X137638571Y-140454819D01*
X138495714Y-141454819D02*
X138495714Y-140454819D01*
X138495714Y-140454819D02*
X138829047Y-141169104D01*
X138829047Y-141169104D02*
X139162380Y-140454819D01*
X139162380Y-140454819D02*
X139162380Y-141454819D01*
X139781428Y-140883390D02*
X139686190Y-140835771D01*
X139686190Y-140835771D02*
X139638571Y-140788152D01*
X139638571Y-140788152D02*
X139590952Y-140692914D01*
X139590952Y-140692914D02*
X139590952Y-140645295D01*
X139590952Y-140645295D02*
X139638571Y-140550057D01*
X139638571Y-140550057D02*
X139686190Y-140502438D01*
X139686190Y-140502438D02*
X139781428Y-140454819D01*
X139781428Y-140454819D02*
X139971904Y-140454819D01*
X139971904Y-140454819D02*
X140067142Y-140502438D01*
X140067142Y-140502438D02*
X140114761Y-140550057D01*
X140114761Y-140550057D02*
X140162380Y-140645295D01*
X140162380Y-140645295D02*
X140162380Y-140692914D01*
X140162380Y-140692914D02*
X140114761Y-140788152D01*
X140114761Y-140788152D02*
X140067142Y-140835771D01*
X140067142Y-140835771D02*
X139971904Y-140883390D01*
X139971904Y-140883390D02*
X139781428Y-140883390D01*
X139781428Y-140883390D02*
X139686190Y-140931009D01*
X139686190Y-140931009D02*
X139638571Y-140978628D01*
X139638571Y-140978628D02*
X139590952Y-141073866D01*
X139590952Y-141073866D02*
X139590952Y-141264342D01*
X139590952Y-141264342D02*
X139638571Y-141359580D01*
X139638571Y-141359580D02*
X139686190Y-141407200D01*
X139686190Y-141407200D02*
X139781428Y-141454819D01*
X139781428Y-141454819D02*
X139971904Y-141454819D01*
X139971904Y-141454819D02*
X140067142Y-141407200D01*
X140067142Y-141407200D02*
X140114761Y-141359580D01*
X140114761Y-141359580D02*
X140162380Y-141264342D01*
X140162380Y-141264342D02*
X140162380Y-141073866D01*
X140162380Y-141073866D02*
X140114761Y-140978628D01*
X140114761Y-140978628D02*
X140067142Y-140931009D01*
X140067142Y-140931009D02*
X139971904Y-140883390D01*
X141114761Y-141454819D02*
X140543333Y-141454819D01*
X140829047Y-141454819D02*
X140829047Y-140454819D01*
X140829047Y-140454819D02*
X140733809Y-140597676D01*
X140733809Y-140597676D02*
X140638571Y-140692914D01*
X140638571Y-140692914D02*
X140543333Y-140740533D01*
X142067142Y-141454819D02*
X141495714Y-141454819D01*
X141781428Y-141454819D02*
X141781428Y-140454819D01*
X141781428Y-140454819D02*
X141686190Y-140597676D01*
X141686190Y-140597676D02*
X141590952Y-140692914D01*
X141590952Y-140692914D02*
X141495714Y-140740533D01*
X142924285Y-140454819D02*
X142733809Y-140454819D01*
X142733809Y-140454819D02*
X142638571Y-140502438D01*
X142638571Y-140502438D02*
X142590952Y-140550057D01*
X142590952Y-140550057D02*
X142495714Y-140692914D01*
X142495714Y-140692914D02*
X142448095Y-140883390D01*
X142448095Y-140883390D02*
X142448095Y-141264342D01*
X142448095Y-141264342D02*
X142495714Y-141359580D01*
X142495714Y-141359580D02*
X142543333Y-141407200D01*
X142543333Y-141407200D02*
X142638571Y-141454819D01*
X142638571Y-141454819D02*
X142829047Y-141454819D01*
X142829047Y-141454819D02*
X142924285Y-141407200D01*
X142924285Y-141407200D02*
X142971904Y-141359580D01*
X142971904Y-141359580D02*
X143019523Y-141264342D01*
X143019523Y-141264342D02*
X143019523Y-141026247D01*
X143019523Y-141026247D02*
X142971904Y-140931009D01*
X142971904Y-140931009D02*
X142924285Y-140883390D01*
X142924285Y-140883390D02*
X142829047Y-140835771D01*
X142829047Y-140835771D02*
X142638571Y-140835771D01*
X142638571Y-140835771D02*
X142543333Y-140883390D01*
X142543333Y-140883390D02*
X142495714Y-140931009D01*
X142495714Y-140931009D02*
X142448095Y-141026247D01*
X100088095Y-95674819D02*
X100088095Y-96484342D01*
X100088095Y-96484342D02*
X100135714Y-96579580D01*
X100135714Y-96579580D02*
X100183333Y-96627200D01*
X100183333Y-96627200D02*
X100278571Y-96674819D01*
X100278571Y-96674819D02*
X100469047Y-96674819D01*
X100469047Y-96674819D02*
X100564285Y-96627200D01*
X100564285Y-96627200D02*
X100611904Y-96579580D01*
X100611904Y-96579580D02*
X100659523Y-96484342D01*
X100659523Y-96484342D02*
X100659523Y-95674819D01*
X101564285Y-96008152D02*
X101564285Y-96674819D01*
X101326190Y-95627200D02*
X101088095Y-96341485D01*
X101088095Y-96341485D02*
X101707142Y-96341485D01*
X98207143Y-106234819D02*
X98873809Y-106234819D01*
X98873809Y-106234819D02*
X98445238Y-107234819D01*
X99683333Y-106568152D02*
X99683333Y-107234819D01*
X99445238Y-106187200D02*
X99207143Y-106901485D01*
X99207143Y-106901485D02*
X99826190Y-106901485D01*
X100683333Y-107234819D02*
X100207143Y-107234819D01*
X100207143Y-107234819D02*
X100207143Y-106234819D01*
X100969048Y-107187200D02*
X101111905Y-107234819D01*
X101111905Y-107234819D02*
X101350000Y-107234819D01*
X101350000Y-107234819D02*
X101445238Y-107187200D01*
X101445238Y-107187200D02*
X101492857Y-107139580D01*
X101492857Y-107139580D02*
X101540476Y-107044342D01*
X101540476Y-107044342D02*
X101540476Y-106949104D01*
X101540476Y-106949104D02*
X101492857Y-106853866D01*
X101492857Y-106853866D02*
X101445238Y-106806247D01*
X101445238Y-106806247D02*
X101350000Y-106758628D01*
X101350000Y-106758628D02*
X101159524Y-106711009D01*
X101159524Y-106711009D02*
X101064286Y-106663390D01*
X101064286Y-106663390D02*
X101016667Y-106615771D01*
X101016667Y-106615771D02*
X100969048Y-106520533D01*
X100969048Y-106520533D02*
X100969048Y-106425295D01*
X100969048Y-106425295D02*
X101016667Y-106330057D01*
X101016667Y-106330057D02*
X101064286Y-106282438D01*
X101064286Y-106282438D02*
X101159524Y-106234819D01*
X101159524Y-106234819D02*
X101397619Y-106234819D01*
X101397619Y-106234819D02*
X101540476Y-106282438D01*
X102159524Y-106234819D02*
X102254762Y-106234819D01*
X102254762Y-106234819D02*
X102350000Y-106282438D01*
X102350000Y-106282438D02*
X102397619Y-106330057D01*
X102397619Y-106330057D02*
X102445238Y-106425295D01*
X102445238Y-106425295D02*
X102492857Y-106615771D01*
X102492857Y-106615771D02*
X102492857Y-106853866D01*
X102492857Y-106853866D02*
X102445238Y-107044342D01*
X102445238Y-107044342D02*
X102397619Y-107139580D01*
X102397619Y-107139580D02*
X102350000Y-107187200D01*
X102350000Y-107187200D02*
X102254762Y-107234819D01*
X102254762Y-107234819D02*
X102159524Y-107234819D01*
X102159524Y-107234819D02*
X102064286Y-107187200D01*
X102064286Y-107187200D02*
X102016667Y-107139580D01*
X102016667Y-107139580D02*
X101969048Y-107044342D01*
X101969048Y-107044342D02*
X101921429Y-106853866D01*
X101921429Y-106853866D02*
X101921429Y-106615771D01*
X101921429Y-106615771D02*
X101969048Y-106425295D01*
X101969048Y-106425295D02*
X102016667Y-106330057D01*
X102016667Y-106330057D02*
X102064286Y-106282438D01*
X102064286Y-106282438D02*
X102159524Y-106234819D01*
X103350000Y-106568152D02*
X103350000Y-107234819D01*
X103111905Y-106187200D02*
X102873810Y-106901485D01*
X102873810Y-106901485D02*
X103492857Y-106901485D01*
X119188095Y-117139819D02*
X119188095Y-117949342D01*
X119188095Y-117949342D02*
X119235714Y-118044580D01*
X119235714Y-118044580D02*
X119283333Y-118092200D01*
X119283333Y-118092200D02*
X119378571Y-118139819D01*
X119378571Y-118139819D02*
X119569047Y-118139819D01*
X119569047Y-118139819D02*
X119664285Y-118092200D01*
X119664285Y-118092200D02*
X119711904Y-118044580D01*
X119711904Y-118044580D02*
X119759523Y-117949342D01*
X119759523Y-117949342D02*
X119759523Y-117139819D01*
X120664285Y-117139819D02*
X120473809Y-117139819D01*
X120473809Y-117139819D02*
X120378571Y-117187438D01*
X120378571Y-117187438D02*
X120330952Y-117235057D01*
X120330952Y-117235057D02*
X120235714Y-117377914D01*
X120235714Y-117377914D02*
X120188095Y-117568390D01*
X120188095Y-117568390D02*
X120188095Y-117949342D01*
X120188095Y-117949342D02*
X120235714Y-118044580D01*
X120235714Y-118044580D02*
X120283333Y-118092200D01*
X120283333Y-118092200D02*
X120378571Y-118139819D01*
X120378571Y-118139819D02*
X120569047Y-118139819D01*
X120569047Y-118139819D02*
X120664285Y-118092200D01*
X120664285Y-118092200D02*
X120711904Y-118044580D01*
X120711904Y-118044580D02*
X120759523Y-117949342D01*
X120759523Y-117949342D02*
X120759523Y-117711247D01*
X120759523Y-117711247D02*
X120711904Y-117616009D01*
X120711904Y-117616009D02*
X120664285Y-117568390D01*
X120664285Y-117568390D02*
X120569047Y-117520771D01*
X120569047Y-117520771D02*
X120378571Y-117520771D01*
X120378571Y-117520771D02*
X120283333Y-117568390D01*
X120283333Y-117568390D02*
X120235714Y-117616009D01*
X120235714Y-117616009D02*
X120188095Y-117711247D01*
X116830952Y-131839819D02*
X117497618Y-131839819D01*
X117497618Y-131839819D02*
X117069047Y-132839819D01*
X118307142Y-132173152D02*
X118307142Y-132839819D01*
X118069047Y-131792200D02*
X117830952Y-132506485D01*
X117830952Y-132506485D02*
X118449999Y-132506485D01*
X119307142Y-132839819D02*
X118830952Y-132839819D01*
X118830952Y-132839819D02*
X118830952Y-131839819D01*
X119592857Y-132792200D02*
X119735714Y-132839819D01*
X119735714Y-132839819D02*
X119973809Y-132839819D01*
X119973809Y-132839819D02*
X120069047Y-132792200D01*
X120069047Y-132792200D02*
X120116666Y-132744580D01*
X120116666Y-132744580D02*
X120164285Y-132649342D01*
X120164285Y-132649342D02*
X120164285Y-132554104D01*
X120164285Y-132554104D02*
X120116666Y-132458866D01*
X120116666Y-132458866D02*
X120069047Y-132411247D01*
X120069047Y-132411247D02*
X119973809Y-132363628D01*
X119973809Y-132363628D02*
X119783333Y-132316009D01*
X119783333Y-132316009D02*
X119688095Y-132268390D01*
X119688095Y-132268390D02*
X119640476Y-132220771D01*
X119640476Y-132220771D02*
X119592857Y-132125533D01*
X119592857Y-132125533D02*
X119592857Y-132030295D01*
X119592857Y-132030295D02*
X119640476Y-131935057D01*
X119640476Y-131935057D02*
X119688095Y-131887438D01*
X119688095Y-131887438D02*
X119783333Y-131839819D01*
X119783333Y-131839819D02*
X120021428Y-131839819D01*
X120021428Y-131839819D02*
X120164285Y-131887438D01*
X120545238Y-131935057D02*
X120592857Y-131887438D01*
X120592857Y-131887438D02*
X120688095Y-131839819D01*
X120688095Y-131839819D02*
X120926190Y-131839819D01*
X120926190Y-131839819D02*
X121021428Y-131887438D01*
X121021428Y-131887438D02*
X121069047Y-131935057D01*
X121069047Y-131935057D02*
X121116666Y-132030295D01*
X121116666Y-132030295D02*
X121116666Y-132125533D01*
X121116666Y-132125533D02*
X121069047Y-132268390D01*
X121069047Y-132268390D02*
X120497619Y-132839819D01*
X120497619Y-132839819D02*
X121116666Y-132839819D01*
X121973809Y-132173152D02*
X121973809Y-132839819D01*
X121735714Y-131792200D02*
X121497619Y-132506485D01*
X121497619Y-132506485D02*
X122116666Y-132506485D01*
X122926190Y-132173152D02*
X122926190Y-132839819D01*
X122688095Y-131792200D02*
X122450000Y-132506485D01*
X122450000Y-132506485D02*
X123069047Y-132506485D01*
X100188095Y-78904819D02*
X100188095Y-79714342D01*
X100188095Y-79714342D02*
X100235714Y-79809580D01*
X100235714Y-79809580D02*
X100283333Y-79857200D01*
X100283333Y-79857200D02*
X100378571Y-79904819D01*
X100378571Y-79904819D02*
X100569047Y-79904819D01*
X100569047Y-79904819D02*
X100664285Y-79857200D01*
X100664285Y-79857200D02*
X100711904Y-79809580D01*
X100711904Y-79809580D02*
X100759523Y-79714342D01*
X100759523Y-79714342D02*
X100759523Y-78904819D01*
X101283333Y-79904819D02*
X101473809Y-79904819D01*
X101473809Y-79904819D02*
X101569047Y-79857200D01*
X101569047Y-79857200D02*
X101616666Y-79809580D01*
X101616666Y-79809580D02*
X101711904Y-79666723D01*
X101711904Y-79666723D02*
X101759523Y-79476247D01*
X101759523Y-79476247D02*
X101759523Y-79095295D01*
X101759523Y-79095295D02*
X101711904Y-79000057D01*
X101711904Y-79000057D02*
X101664285Y-78952438D01*
X101664285Y-78952438D02*
X101569047Y-78904819D01*
X101569047Y-78904819D02*
X101378571Y-78904819D01*
X101378571Y-78904819D02*
X101283333Y-78952438D01*
X101283333Y-78952438D02*
X101235714Y-79000057D01*
X101235714Y-79000057D02*
X101188095Y-79095295D01*
X101188095Y-79095295D02*
X101188095Y-79333390D01*
X101188095Y-79333390D02*
X101235714Y-79428628D01*
X101235714Y-79428628D02*
X101283333Y-79476247D01*
X101283333Y-79476247D02*
X101378571Y-79523866D01*
X101378571Y-79523866D02*
X101569047Y-79523866D01*
X101569047Y-79523866D02*
X101664285Y-79476247D01*
X101664285Y-79476247D02*
X101711904Y-79428628D01*
X101711904Y-79428628D02*
X101759523Y-79333390D01*
X94950000Y-92357200D02*
X95092857Y-92404819D01*
X95092857Y-92404819D02*
X95330952Y-92404819D01*
X95330952Y-92404819D02*
X95426190Y-92357200D01*
X95426190Y-92357200D02*
X95473809Y-92309580D01*
X95473809Y-92309580D02*
X95521428Y-92214342D01*
X95521428Y-92214342D02*
X95521428Y-92119104D01*
X95521428Y-92119104D02*
X95473809Y-92023866D01*
X95473809Y-92023866D02*
X95426190Y-91976247D01*
X95426190Y-91976247D02*
X95330952Y-91928628D01*
X95330952Y-91928628D02*
X95140476Y-91881009D01*
X95140476Y-91881009D02*
X95045238Y-91833390D01*
X95045238Y-91833390D02*
X94997619Y-91785771D01*
X94997619Y-91785771D02*
X94950000Y-91690533D01*
X94950000Y-91690533D02*
X94950000Y-91595295D01*
X94950000Y-91595295D02*
X94997619Y-91500057D01*
X94997619Y-91500057D02*
X95045238Y-91452438D01*
X95045238Y-91452438D02*
X95140476Y-91404819D01*
X95140476Y-91404819D02*
X95378571Y-91404819D01*
X95378571Y-91404819D02*
X95521428Y-91452438D01*
X95950000Y-92404819D02*
X95950000Y-91404819D01*
X95950000Y-91404819D02*
X96330952Y-91404819D01*
X96330952Y-91404819D02*
X96426190Y-91452438D01*
X96426190Y-91452438D02*
X96473809Y-91500057D01*
X96473809Y-91500057D02*
X96521428Y-91595295D01*
X96521428Y-91595295D02*
X96521428Y-91738152D01*
X96521428Y-91738152D02*
X96473809Y-91833390D01*
X96473809Y-91833390D02*
X96426190Y-91881009D01*
X96426190Y-91881009D02*
X96330952Y-91928628D01*
X96330952Y-91928628D02*
X95950000Y-91928628D01*
X96854762Y-91404819D02*
X97473809Y-91404819D01*
X97473809Y-91404819D02*
X97140476Y-91785771D01*
X97140476Y-91785771D02*
X97283333Y-91785771D01*
X97283333Y-91785771D02*
X97378571Y-91833390D01*
X97378571Y-91833390D02*
X97426190Y-91881009D01*
X97426190Y-91881009D02*
X97473809Y-91976247D01*
X97473809Y-91976247D02*
X97473809Y-92214342D01*
X97473809Y-92214342D02*
X97426190Y-92309580D01*
X97426190Y-92309580D02*
X97378571Y-92357200D01*
X97378571Y-92357200D02*
X97283333Y-92404819D01*
X97283333Y-92404819D02*
X96997619Y-92404819D01*
X96997619Y-92404819D02*
X96902381Y-92357200D01*
X96902381Y-92357200D02*
X96854762Y-92309580D01*
X97854762Y-91500057D02*
X97902381Y-91452438D01*
X97902381Y-91452438D02*
X97997619Y-91404819D01*
X97997619Y-91404819D02*
X98235714Y-91404819D01*
X98235714Y-91404819D02*
X98330952Y-91452438D01*
X98330952Y-91452438D02*
X98378571Y-91500057D01*
X98378571Y-91500057D02*
X98426190Y-91595295D01*
X98426190Y-91595295D02*
X98426190Y-91690533D01*
X98426190Y-91690533D02*
X98378571Y-91833390D01*
X98378571Y-91833390D02*
X97807143Y-92404819D01*
X97807143Y-92404819D02*
X98426190Y-92404819D01*
X99283333Y-91738152D02*
X99283333Y-92404819D01*
X99045238Y-91357200D02*
X98807143Y-92071485D01*
X98807143Y-92071485D02*
X99426190Y-92071485D01*
X99711905Y-91404819D02*
X100330952Y-91404819D01*
X100330952Y-91404819D02*
X99997619Y-91785771D01*
X99997619Y-91785771D02*
X100140476Y-91785771D01*
X100140476Y-91785771D02*
X100235714Y-91833390D01*
X100235714Y-91833390D02*
X100283333Y-91881009D01*
X100283333Y-91881009D02*
X100330952Y-91976247D01*
X100330952Y-91976247D02*
X100330952Y-92214342D01*
X100330952Y-92214342D02*
X100283333Y-92309580D01*
X100283333Y-92309580D02*
X100235714Y-92357200D01*
X100235714Y-92357200D02*
X100140476Y-92404819D01*
X100140476Y-92404819D02*
X99854762Y-92404819D01*
X99854762Y-92404819D02*
X99759524Y-92357200D01*
X99759524Y-92357200D02*
X99711905Y-92309580D01*
X100759524Y-91881009D02*
X101092857Y-91881009D01*
X101235714Y-92404819D02*
X100759524Y-92404819D01*
X100759524Y-92404819D02*
X100759524Y-91404819D01*
X100759524Y-91404819D02*
X101235714Y-91404819D01*
X102235714Y-92309580D02*
X102188095Y-92357200D01*
X102188095Y-92357200D02*
X102045238Y-92404819D01*
X102045238Y-92404819D02*
X101950000Y-92404819D01*
X101950000Y-92404819D02*
X101807143Y-92357200D01*
X101807143Y-92357200D02*
X101711905Y-92261961D01*
X101711905Y-92261961D02*
X101664286Y-92166723D01*
X101664286Y-92166723D02*
X101616667Y-91976247D01*
X101616667Y-91976247D02*
X101616667Y-91833390D01*
X101616667Y-91833390D02*
X101664286Y-91642914D01*
X101664286Y-91642914D02*
X101711905Y-91547676D01*
X101711905Y-91547676D02*
X101807143Y-91452438D01*
X101807143Y-91452438D02*
X101950000Y-91404819D01*
X101950000Y-91404819D02*
X102045238Y-91404819D01*
X102045238Y-91404819D02*
X102188095Y-91452438D01*
X102188095Y-91452438D02*
X102235714Y-91500057D01*
X102616667Y-92119104D02*
X103092857Y-92119104D01*
X102521429Y-92404819D02*
X102854762Y-91404819D01*
X102854762Y-91404819D02*
X103188095Y-92404819D01*
X103521429Y-92023866D02*
X104283334Y-92023866D01*
X105235714Y-92404819D02*
X104759524Y-92404819D01*
X104759524Y-92404819D02*
X104759524Y-91404819D01*
X106283333Y-91357200D02*
X105426191Y-92642914D01*
X106473810Y-91404819D02*
X107045238Y-91404819D01*
X106759524Y-92404819D02*
X106759524Y-91404819D01*
X107950000Y-92404819D02*
X107616667Y-91928628D01*
X107378572Y-92404819D02*
X107378572Y-91404819D01*
X107378572Y-91404819D02*
X107759524Y-91404819D01*
X107759524Y-91404819D02*
X107854762Y-91452438D01*
X107854762Y-91452438D02*
X107902381Y-91500057D01*
X107902381Y-91500057D02*
X107950000Y-91595295D01*
X107950000Y-91595295D02*
X107950000Y-91738152D01*
X107950000Y-91738152D02*
X107902381Y-91833390D01*
X107902381Y-91833390D02*
X107854762Y-91881009D01*
X107854762Y-91881009D02*
X107759524Y-91928628D01*
X107759524Y-91928628D02*
X107378572Y-91928628D01*
X127733333Y-84554819D02*
X127400000Y-84078628D01*
X127161905Y-84554819D02*
X127161905Y-83554819D01*
X127161905Y-83554819D02*
X127542857Y-83554819D01*
X127542857Y-83554819D02*
X127638095Y-83602438D01*
X127638095Y-83602438D02*
X127685714Y-83650057D01*
X127685714Y-83650057D02*
X127733333Y-83745295D01*
X127733333Y-83745295D02*
X127733333Y-83888152D01*
X127733333Y-83888152D02*
X127685714Y-83983390D01*
X127685714Y-83983390D02*
X127638095Y-84031009D01*
X127638095Y-84031009D02*
X127542857Y-84078628D01*
X127542857Y-84078628D02*
X127161905Y-84078628D01*
X128685714Y-84554819D02*
X128114286Y-84554819D01*
X128400000Y-84554819D02*
X128400000Y-83554819D01*
X128400000Y-83554819D02*
X128304762Y-83697676D01*
X128304762Y-83697676D02*
X128209524Y-83792914D01*
X128209524Y-83792914D02*
X128114286Y-83840533D01*
X126876190Y-87188152D02*
X126876190Y-87854819D01*
X126638095Y-86807200D02*
X126400000Y-87521485D01*
X126400000Y-87521485D02*
X127019047Y-87521485D01*
X127400000Y-87759580D02*
X127447619Y-87807200D01*
X127447619Y-87807200D02*
X127400000Y-87854819D01*
X127400000Y-87854819D02*
X127352381Y-87807200D01*
X127352381Y-87807200D02*
X127400000Y-87759580D01*
X127400000Y-87759580D02*
X127400000Y-87854819D01*
X127780952Y-86854819D02*
X128447618Y-86854819D01*
X128447618Y-86854819D02*
X128019047Y-87854819D01*
X128828571Y-87854819D02*
X128828571Y-86854819D01*
X129399999Y-87854819D02*
X128971428Y-87283390D01*
X129399999Y-86854819D02*
X128828571Y-87426247D01*
X119138095Y-97854819D02*
X119138095Y-98664342D01*
X119138095Y-98664342D02*
X119185714Y-98759580D01*
X119185714Y-98759580D02*
X119233333Y-98807200D01*
X119233333Y-98807200D02*
X119328571Y-98854819D01*
X119328571Y-98854819D02*
X119519047Y-98854819D01*
X119519047Y-98854819D02*
X119614285Y-98807200D01*
X119614285Y-98807200D02*
X119661904Y-98759580D01*
X119661904Y-98759580D02*
X119709523Y-98664342D01*
X119709523Y-98664342D02*
X119709523Y-97854819D01*
X120328571Y-98283390D02*
X120233333Y-98235771D01*
X120233333Y-98235771D02*
X120185714Y-98188152D01*
X120185714Y-98188152D02*
X120138095Y-98092914D01*
X120138095Y-98092914D02*
X120138095Y-98045295D01*
X120138095Y-98045295D02*
X120185714Y-97950057D01*
X120185714Y-97950057D02*
X120233333Y-97902438D01*
X120233333Y-97902438D02*
X120328571Y-97854819D01*
X120328571Y-97854819D02*
X120519047Y-97854819D01*
X120519047Y-97854819D02*
X120614285Y-97902438D01*
X120614285Y-97902438D02*
X120661904Y-97950057D01*
X120661904Y-97950057D02*
X120709523Y-98045295D01*
X120709523Y-98045295D02*
X120709523Y-98092914D01*
X120709523Y-98092914D02*
X120661904Y-98188152D01*
X120661904Y-98188152D02*
X120614285Y-98235771D01*
X120614285Y-98235771D02*
X120519047Y-98283390D01*
X120519047Y-98283390D02*
X120328571Y-98283390D01*
X120328571Y-98283390D02*
X120233333Y-98331009D01*
X120233333Y-98331009D02*
X120185714Y-98378628D01*
X120185714Y-98378628D02*
X120138095Y-98473866D01*
X120138095Y-98473866D02*
X120138095Y-98664342D01*
X120138095Y-98664342D02*
X120185714Y-98759580D01*
X120185714Y-98759580D02*
X120233333Y-98807200D01*
X120233333Y-98807200D02*
X120328571Y-98854819D01*
X120328571Y-98854819D02*
X120519047Y-98854819D01*
X120519047Y-98854819D02*
X120614285Y-98807200D01*
X120614285Y-98807200D02*
X120661904Y-98759580D01*
X120661904Y-98759580D02*
X120709523Y-98664342D01*
X120709523Y-98664342D02*
X120709523Y-98473866D01*
X120709523Y-98473866D02*
X120661904Y-98378628D01*
X120661904Y-98378628D02*
X120614285Y-98331009D01*
X120614285Y-98331009D02*
X120519047Y-98283390D01*
X116780952Y-109654819D02*
X117447618Y-109654819D01*
X117447618Y-109654819D02*
X117019047Y-110654819D01*
X118257142Y-109988152D02*
X118257142Y-110654819D01*
X118019047Y-109607200D02*
X117780952Y-110321485D01*
X117780952Y-110321485D02*
X118399999Y-110321485D01*
X119257142Y-110654819D02*
X118780952Y-110654819D01*
X118780952Y-110654819D02*
X118780952Y-109654819D01*
X119542857Y-110607200D02*
X119685714Y-110654819D01*
X119685714Y-110654819D02*
X119923809Y-110654819D01*
X119923809Y-110654819D02*
X120019047Y-110607200D01*
X120019047Y-110607200D02*
X120066666Y-110559580D01*
X120066666Y-110559580D02*
X120114285Y-110464342D01*
X120114285Y-110464342D02*
X120114285Y-110369104D01*
X120114285Y-110369104D02*
X120066666Y-110273866D01*
X120066666Y-110273866D02*
X120019047Y-110226247D01*
X120019047Y-110226247D02*
X119923809Y-110178628D01*
X119923809Y-110178628D02*
X119733333Y-110131009D01*
X119733333Y-110131009D02*
X119638095Y-110083390D01*
X119638095Y-110083390D02*
X119590476Y-110035771D01*
X119590476Y-110035771D02*
X119542857Y-109940533D01*
X119542857Y-109940533D02*
X119542857Y-109845295D01*
X119542857Y-109845295D02*
X119590476Y-109750057D01*
X119590476Y-109750057D02*
X119638095Y-109702438D01*
X119638095Y-109702438D02*
X119733333Y-109654819D01*
X119733333Y-109654819D02*
X119971428Y-109654819D01*
X119971428Y-109654819D02*
X120114285Y-109702438D01*
X121066666Y-110654819D02*
X120495238Y-110654819D01*
X120780952Y-110654819D02*
X120780952Y-109654819D01*
X120780952Y-109654819D02*
X120685714Y-109797676D01*
X120685714Y-109797676D02*
X120590476Y-109892914D01*
X120590476Y-109892914D02*
X120495238Y-109940533D01*
X121400000Y-109654819D02*
X122066666Y-109654819D01*
X122066666Y-109654819D02*
X121638095Y-110654819D01*
X122876190Y-109988152D02*
X122876190Y-110654819D01*
X122638095Y-109607200D02*
X122400000Y-110321485D01*
X122400000Y-110321485D02*
X123019047Y-110321485D01*
X80836666Y-141044819D02*
X80836666Y-141759104D01*
X80836666Y-141759104D02*
X80789047Y-141901961D01*
X80789047Y-141901961D02*
X80693809Y-141997200D01*
X80693809Y-141997200D02*
X80550952Y-142044819D01*
X80550952Y-142044819D02*
X80455714Y-142044819D01*
X81836666Y-142044819D02*
X81265238Y-142044819D01*
X81550952Y-142044819D02*
X81550952Y-141044819D01*
X81550952Y-141044819D02*
X81455714Y-141187676D01*
X81455714Y-141187676D02*
X81360476Y-141282914D01*
X81360476Y-141282914D02*
X81265238Y-141330533D01*
X119088095Y-79204819D02*
X119088095Y-80014342D01*
X119088095Y-80014342D02*
X119135714Y-80109580D01*
X119135714Y-80109580D02*
X119183333Y-80157200D01*
X119183333Y-80157200D02*
X119278571Y-80204819D01*
X119278571Y-80204819D02*
X119469047Y-80204819D01*
X119469047Y-80204819D02*
X119564285Y-80157200D01*
X119564285Y-80157200D02*
X119611904Y-80109580D01*
X119611904Y-80109580D02*
X119659523Y-80014342D01*
X119659523Y-80014342D02*
X119659523Y-79204819D01*
X120040476Y-79204819D02*
X120707142Y-79204819D01*
X120707142Y-79204819D02*
X120278571Y-80204819D01*
X116730952Y-91004819D02*
X117397618Y-91004819D01*
X117397618Y-91004819D02*
X116969047Y-92004819D01*
X118207142Y-91338152D02*
X118207142Y-92004819D01*
X117969047Y-90957200D02*
X117730952Y-91671485D01*
X117730952Y-91671485D02*
X118349999Y-91671485D01*
X119207142Y-92004819D02*
X118730952Y-92004819D01*
X118730952Y-92004819D02*
X118730952Y-91004819D01*
X119492857Y-91957200D02*
X119635714Y-92004819D01*
X119635714Y-92004819D02*
X119873809Y-92004819D01*
X119873809Y-92004819D02*
X119969047Y-91957200D01*
X119969047Y-91957200D02*
X120016666Y-91909580D01*
X120016666Y-91909580D02*
X120064285Y-91814342D01*
X120064285Y-91814342D02*
X120064285Y-91719104D01*
X120064285Y-91719104D02*
X120016666Y-91623866D01*
X120016666Y-91623866D02*
X119969047Y-91576247D01*
X119969047Y-91576247D02*
X119873809Y-91528628D01*
X119873809Y-91528628D02*
X119683333Y-91481009D01*
X119683333Y-91481009D02*
X119588095Y-91433390D01*
X119588095Y-91433390D02*
X119540476Y-91385771D01*
X119540476Y-91385771D02*
X119492857Y-91290533D01*
X119492857Y-91290533D02*
X119492857Y-91195295D01*
X119492857Y-91195295D02*
X119540476Y-91100057D01*
X119540476Y-91100057D02*
X119588095Y-91052438D01*
X119588095Y-91052438D02*
X119683333Y-91004819D01*
X119683333Y-91004819D02*
X119921428Y-91004819D01*
X119921428Y-91004819D02*
X120064285Y-91052438D01*
X120397619Y-91004819D02*
X121016666Y-91004819D01*
X121016666Y-91004819D02*
X120683333Y-91385771D01*
X120683333Y-91385771D02*
X120826190Y-91385771D01*
X120826190Y-91385771D02*
X120921428Y-91433390D01*
X120921428Y-91433390D02*
X120969047Y-91481009D01*
X120969047Y-91481009D02*
X121016666Y-91576247D01*
X121016666Y-91576247D02*
X121016666Y-91814342D01*
X121016666Y-91814342D02*
X120969047Y-91909580D01*
X120969047Y-91909580D02*
X120921428Y-91957200D01*
X120921428Y-91957200D02*
X120826190Y-92004819D01*
X120826190Y-92004819D02*
X120540476Y-92004819D01*
X120540476Y-92004819D02*
X120445238Y-91957200D01*
X120445238Y-91957200D02*
X120397619Y-91909580D01*
X121873809Y-91004819D02*
X121683333Y-91004819D01*
X121683333Y-91004819D02*
X121588095Y-91052438D01*
X121588095Y-91052438D02*
X121540476Y-91100057D01*
X121540476Y-91100057D02*
X121445238Y-91242914D01*
X121445238Y-91242914D02*
X121397619Y-91433390D01*
X121397619Y-91433390D02*
X121397619Y-91814342D01*
X121397619Y-91814342D02*
X121445238Y-91909580D01*
X121445238Y-91909580D02*
X121492857Y-91957200D01*
X121492857Y-91957200D02*
X121588095Y-92004819D01*
X121588095Y-92004819D02*
X121778571Y-92004819D01*
X121778571Y-92004819D02*
X121873809Y-91957200D01*
X121873809Y-91957200D02*
X121921428Y-91909580D01*
X121921428Y-91909580D02*
X121969047Y-91814342D01*
X121969047Y-91814342D02*
X121969047Y-91576247D01*
X121969047Y-91576247D02*
X121921428Y-91481009D01*
X121921428Y-91481009D02*
X121873809Y-91433390D01*
X121873809Y-91433390D02*
X121778571Y-91385771D01*
X121778571Y-91385771D02*
X121588095Y-91385771D01*
X121588095Y-91385771D02*
X121492857Y-91433390D01*
X121492857Y-91433390D02*
X121445238Y-91481009D01*
X121445238Y-91481009D02*
X121397619Y-91576247D01*
X122302381Y-91004819D02*
X122969047Y-91004819D01*
X122969047Y-91004819D02*
X122540476Y-92004819D01*
X142516666Y-74974819D02*
X142516666Y-75689104D01*
X142516666Y-75689104D02*
X142469047Y-75831961D01*
X142469047Y-75831961D02*
X142373809Y-75927200D01*
X142373809Y-75927200D02*
X142230952Y-75974819D01*
X142230952Y-75974819D02*
X142135714Y-75974819D01*
X142945238Y-75070057D02*
X142992857Y-75022438D01*
X142992857Y-75022438D02*
X143088095Y-74974819D01*
X143088095Y-74974819D02*
X143326190Y-74974819D01*
X143326190Y-74974819D02*
X143421428Y-75022438D01*
X143421428Y-75022438D02*
X143469047Y-75070057D01*
X143469047Y-75070057D02*
X143516666Y-75165295D01*
X143516666Y-75165295D02*
X143516666Y-75260533D01*
X143516666Y-75260533D02*
X143469047Y-75403390D01*
X143469047Y-75403390D02*
X142897619Y-75974819D01*
X142897619Y-75974819D02*
X143516666Y-75974819D01*
X160008095Y-87524819D02*
X160008095Y-88334342D01*
X160008095Y-88334342D02*
X160055714Y-88429580D01*
X160055714Y-88429580D02*
X160103333Y-88477200D01*
X160103333Y-88477200D02*
X160198571Y-88524819D01*
X160198571Y-88524819D02*
X160389047Y-88524819D01*
X160389047Y-88524819D02*
X160484285Y-88477200D01*
X160484285Y-88477200D02*
X160531904Y-88429580D01*
X160531904Y-88429580D02*
X160579523Y-88334342D01*
X160579523Y-88334342D02*
X160579523Y-87524819D01*
X161579523Y-88524819D02*
X161008095Y-88524819D01*
X161293809Y-88524819D02*
X161293809Y-87524819D01*
X161293809Y-87524819D02*
X161198571Y-87667676D01*
X161198571Y-87667676D02*
X161103333Y-87762914D01*
X161103333Y-87762914D02*
X161008095Y-87810533D01*
X158079524Y-141444819D02*
X158079524Y-140444819D01*
X158079524Y-140921009D02*
X158650952Y-140921009D01*
X158650952Y-141444819D02*
X158650952Y-140444819D01*
X159127143Y-141444819D02*
X159127143Y-140444819D01*
X159127143Y-140444819D02*
X159365238Y-140444819D01*
X159365238Y-140444819D02*
X159508095Y-140492438D01*
X159508095Y-140492438D02*
X159603333Y-140587676D01*
X159603333Y-140587676D02*
X159650952Y-140682914D01*
X159650952Y-140682914D02*
X159698571Y-140873390D01*
X159698571Y-140873390D02*
X159698571Y-141016247D01*
X159698571Y-141016247D02*
X159650952Y-141206723D01*
X159650952Y-141206723D02*
X159603333Y-141301961D01*
X159603333Y-141301961D02*
X159508095Y-141397200D01*
X159508095Y-141397200D02*
X159365238Y-141444819D01*
X159365238Y-141444819D02*
X159127143Y-141444819D01*
X160555714Y-140444819D02*
X160365238Y-140444819D01*
X160365238Y-140444819D02*
X160270000Y-140492438D01*
X160270000Y-140492438D02*
X160222381Y-140540057D01*
X160222381Y-140540057D02*
X160127143Y-140682914D01*
X160127143Y-140682914D02*
X160079524Y-140873390D01*
X160079524Y-140873390D02*
X160079524Y-141254342D01*
X160079524Y-141254342D02*
X160127143Y-141349580D01*
X160127143Y-141349580D02*
X160174762Y-141397200D01*
X160174762Y-141397200D02*
X160270000Y-141444819D01*
X160270000Y-141444819D02*
X160460476Y-141444819D01*
X160460476Y-141444819D02*
X160555714Y-141397200D01*
X160555714Y-141397200D02*
X160603333Y-141349580D01*
X160603333Y-141349580D02*
X160650952Y-141254342D01*
X160650952Y-141254342D02*
X160650952Y-141016247D01*
X160650952Y-141016247D02*
X160603333Y-140921009D01*
X160603333Y-140921009D02*
X160555714Y-140873390D01*
X160555714Y-140873390D02*
X160460476Y-140825771D01*
X160460476Y-140825771D02*
X160270000Y-140825771D01*
X160270000Y-140825771D02*
X160174762Y-140873390D01*
X160174762Y-140873390D02*
X160127143Y-140921009D01*
X160127143Y-140921009D02*
X160079524Y-141016247D01*
X161508095Y-140778152D02*
X161508095Y-141444819D01*
X161270000Y-140397200D02*
X161031905Y-141111485D01*
X161031905Y-141111485D02*
X161650952Y-141111485D01*
X162222381Y-140444819D02*
X162317619Y-140444819D01*
X162317619Y-140444819D02*
X162412857Y-140492438D01*
X162412857Y-140492438D02*
X162460476Y-140540057D01*
X162460476Y-140540057D02*
X162508095Y-140635295D01*
X162508095Y-140635295D02*
X162555714Y-140825771D01*
X162555714Y-140825771D02*
X162555714Y-141063866D01*
X162555714Y-141063866D02*
X162508095Y-141254342D01*
X162508095Y-141254342D02*
X162460476Y-141349580D01*
X162460476Y-141349580D02*
X162412857Y-141397200D01*
X162412857Y-141397200D02*
X162317619Y-141444819D01*
X162317619Y-141444819D02*
X162222381Y-141444819D01*
X162222381Y-141444819D02*
X162127143Y-141397200D01*
X162127143Y-141397200D02*
X162079524Y-141349580D01*
X162079524Y-141349580D02*
X162031905Y-141254342D01*
X162031905Y-141254342D02*
X161984286Y-141063866D01*
X161984286Y-141063866D02*
X161984286Y-140825771D01*
X161984286Y-140825771D02*
X162031905Y-140635295D01*
X162031905Y-140635295D02*
X162079524Y-140540057D01*
X162079524Y-140540057D02*
X162127143Y-140492438D01*
X162127143Y-140492438D02*
X162222381Y-140444819D01*
X162936667Y-140540057D02*
X162984286Y-140492438D01*
X162984286Y-140492438D02*
X163079524Y-140444819D01*
X163079524Y-140444819D02*
X163317619Y-140444819D01*
X163317619Y-140444819D02*
X163412857Y-140492438D01*
X163412857Y-140492438D02*
X163460476Y-140540057D01*
X163460476Y-140540057D02*
X163508095Y-140635295D01*
X163508095Y-140635295D02*
X163508095Y-140730533D01*
X163508095Y-140730533D02*
X163460476Y-140873390D01*
X163460476Y-140873390D02*
X162889048Y-141444819D01*
X162889048Y-141444819D02*
X163508095Y-141444819D01*
X100138095Y-111959819D02*
X100138095Y-112769342D01*
X100138095Y-112769342D02*
X100185714Y-112864580D01*
X100185714Y-112864580D02*
X100233333Y-112912200D01*
X100233333Y-112912200D02*
X100328571Y-112959819D01*
X100328571Y-112959819D02*
X100519047Y-112959819D01*
X100519047Y-112959819D02*
X100614285Y-112912200D01*
X100614285Y-112912200D02*
X100661904Y-112864580D01*
X100661904Y-112864580D02*
X100709523Y-112769342D01*
X100709523Y-112769342D02*
X100709523Y-111959819D01*
X101090476Y-111959819D02*
X101709523Y-111959819D01*
X101709523Y-111959819D02*
X101376190Y-112340771D01*
X101376190Y-112340771D02*
X101519047Y-112340771D01*
X101519047Y-112340771D02*
X101614285Y-112388390D01*
X101614285Y-112388390D02*
X101661904Y-112436009D01*
X101661904Y-112436009D02*
X101709523Y-112531247D01*
X101709523Y-112531247D02*
X101709523Y-112769342D01*
X101709523Y-112769342D02*
X101661904Y-112864580D01*
X101661904Y-112864580D02*
X101614285Y-112912200D01*
X101614285Y-112912200D02*
X101519047Y-112959819D01*
X101519047Y-112959819D02*
X101233333Y-112959819D01*
X101233333Y-112959819D02*
X101138095Y-112912200D01*
X101138095Y-112912200D02*
X101090476Y-112864580D01*
X97780952Y-123759819D02*
X98447618Y-123759819D01*
X98447618Y-123759819D02*
X98019047Y-124759819D01*
X99257142Y-124093152D02*
X99257142Y-124759819D01*
X99019047Y-123712200D02*
X98780952Y-124426485D01*
X98780952Y-124426485D02*
X99399999Y-124426485D01*
X100257142Y-124759819D02*
X99780952Y-124759819D01*
X99780952Y-124759819D02*
X99780952Y-123759819D01*
X100542857Y-124712200D02*
X100685714Y-124759819D01*
X100685714Y-124759819D02*
X100923809Y-124759819D01*
X100923809Y-124759819D02*
X101019047Y-124712200D01*
X101019047Y-124712200D02*
X101066666Y-124664580D01*
X101066666Y-124664580D02*
X101114285Y-124569342D01*
X101114285Y-124569342D02*
X101114285Y-124474104D01*
X101114285Y-124474104D02*
X101066666Y-124378866D01*
X101066666Y-124378866D02*
X101019047Y-124331247D01*
X101019047Y-124331247D02*
X100923809Y-124283628D01*
X100923809Y-124283628D02*
X100733333Y-124236009D01*
X100733333Y-124236009D02*
X100638095Y-124188390D01*
X100638095Y-124188390D02*
X100590476Y-124140771D01*
X100590476Y-124140771D02*
X100542857Y-124045533D01*
X100542857Y-124045533D02*
X100542857Y-123950295D01*
X100542857Y-123950295D02*
X100590476Y-123855057D01*
X100590476Y-123855057D02*
X100638095Y-123807438D01*
X100638095Y-123807438D02*
X100733333Y-123759819D01*
X100733333Y-123759819D02*
X100971428Y-123759819D01*
X100971428Y-123759819D02*
X101114285Y-123807438D01*
X102066666Y-124759819D02*
X101495238Y-124759819D01*
X101780952Y-124759819D02*
X101780952Y-123759819D01*
X101780952Y-123759819D02*
X101685714Y-123902676D01*
X101685714Y-123902676D02*
X101590476Y-123997914D01*
X101590476Y-123997914D02*
X101495238Y-124045533D01*
X102971428Y-123759819D02*
X102495238Y-123759819D01*
X102495238Y-123759819D02*
X102447619Y-124236009D01*
X102447619Y-124236009D02*
X102495238Y-124188390D01*
X102495238Y-124188390D02*
X102590476Y-124140771D01*
X102590476Y-124140771D02*
X102828571Y-124140771D01*
X102828571Y-124140771D02*
X102923809Y-124188390D01*
X102923809Y-124188390D02*
X102971428Y-124236009D01*
X102971428Y-124236009D02*
X103019047Y-124331247D01*
X103019047Y-124331247D02*
X103019047Y-124569342D01*
X103019047Y-124569342D02*
X102971428Y-124664580D01*
X102971428Y-124664580D02*
X102923809Y-124712200D01*
X102923809Y-124712200D02*
X102828571Y-124759819D01*
X102828571Y-124759819D02*
X102590476Y-124759819D01*
X102590476Y-124759819D02*
X102495238Y-124712200D01*
X102495238Y-124712200D02*
X102447619Y-124664580D01*
X103923809Y-123759819D02*
X103447619Y-123759819D01*
X103447619Y-123759819D02*
X103400000Y-124236009D01*
X103400000Y-124236009D02*
X103447619Y-124188390D01*
X103447619Y-124188390D02*
X103542857Y-124140771D01*
X103542857Y-124140771D02*
X103780952Y-124140771D01*
X103780952Y-124140771D02*
X103876190Y-124188390D01*
X103876190Y-124188390D02*
X103923809Y-124236009D01*
X103923809Y-124236009D02*
X103971428Y-124331247D01*
X103971428Y-124331247D02*
X103971428Y-124569342D01*
X103971428Y-124569342D02*
X103923809Y-124664580D01*
X103923809Y-124664580D02*
X103876190Y-124712200D01*
X103876190Y-124712200D02*
X103780952Y-124759819D01*
X103780952Y-124759819D02*
X103542857Y-124759819D01*
X103542857Y-124759819D02*
X103447619Y-124712200D01*
X103447619Y-124712200D02*
X103400000Y-124664580D01*
X166766666Y-75024819D02*
X166766666Y-75739104D01*
X166766666Y-75739104D02*
X166719047Y-75881961D01*
X166719047Y-75881961D02*
X166623809Y-75977200D01*
X166623809Y-75977200D02*
X166480952Y-76024819D01*
X166480952Y-76024819D02*
X166385714Y-76024819D01*
X167147619Y-75024819D02*
X167766666Y-75024819D01*
X167766666Y-75024819D02*
X167433333Y-75405771D01*
X167433333Y-75405771D02*
X167576190Y-75405771D01*
X167576190Y-75405771D02*
X167671428Y-75453390D01*
X167671428Y-75453390D02*
X167719047Y-75501009D01*
X167719047Y-75501009D02*
X167766666Y-75596247D01*
X167766666Y-75596247D02*
X167766666Y-75834342D01*
X167766666Y-75834342D02*
X167719047Y-75929580D01*
X167719047Y-75929580D02*
X167671428Y-75977200D01*
X167671428Y-75977200D02*
X167576190Y-76024819D01*
X167576190Y-76024819D02*
X167290476Y-76024819D01*
X167290476Y-76024819D02*
X167195238Y-75977200D01*
X167195238Y-75977200D02*
X167147619Y-75929580D01*
X155416666Y-74974819D02*
X155416666Y-75689104D01*
X155416666Y-75689104D02*
X155369047Y-75831961D01*
X155369047Y-75831961D02*
X155273809Y-75927200D01*
X155273809Y-75927200D02*
X155130952Y-75974819D01*
X155130952Y-75974819D02*
X155035714Y-75974819D01*
X156321428Y-75308152D02*
X156321428Y-75974819D01*
X156083333Y-74927200D02*
X155845238Y-75641485D01*
X155845238Y-75641485D02*
X156464285Y-75641485D01*
X146353628Y-107913690D02*
X146829819Y-107913690D01*
X145829819Y-108247023D02*
X146353628Y-107913690D01*
X146353628Y-107913690D02*
X145829819Y-107580357D01*
X146829819Y-106723214D02*
X146829819Y-107294642D01*
X146829819Y-107008928D02*
X145829819Y-107008928D01*
X145829819Y-107008928D02*
X145972676Y-107104166D01*
X145972676Y-107104166D02*
X146067914Y-107199404D01*
X146067914Y-107199404D02*
X146115533Y-107294642D01*
X132204819Y-106135714D02*
X132204819Y-106611904D01*
X132204819Y-106611904D02*
X132681009Y-106659523D01*
X132681009Y-106659523D02*
X132633390Y-106611904D01*
X132633390Y-106611904D02*
X132585771Y-106516666D01*
X132585771Y-106516666D02*
X132585771Y-106278571D01*
X132585771Y-106278571D02*
X132633390Y-106183333D01*
X132633390Y-106183333D02*
X132681009Y-106135714D01*
X132681009Y-106135714D02*
X132776247Y-106088095D01*
X132776247Y-106088095D02*
X133014342Y-106088095D01*
X133014342Y-106088095D02*
X133109580Y-106135714D01*
X133109580Y-106135714D02*
X133157200Y-106183333D01*
X133157200Y-106183333D02*
X133204819Y-106278571D01*
X133204819Y-106278571D02*
X133204819Y-106516666D01*
X133204819Y-106516666D02*
X133157200Y-106611904D01*
X133157200Y-106611904D02*
X133109580Y-106659523D01*
X133109580Y-105659523D02*
X133157200Y-105611904D01*
X133157200Y-105611904D02*
X133204819Y-105659523D01*
X133204819Y-105659523D02*
X133157200Y-105707142D01*
X133157200Y-105707142D02*
X133109580Y-105659523D01*
X133109580Y-105659523D02*
X133204819Y-105659523D01*
X132204819Y-104992857D02*
X132204819Y-104897619D01*
X132204819Y-104897619D02*
X132252438Y-104802381D01*
X132252438Y-104802381D02*
X132300057Y-104754762D01*
X132300057Y-104754762D02*
X132395295Y-104707143D01*
X132395295Y-104707143D02*
X132585771Y-104659524D01*
X132585771Y-104659524D02*
X132823866Y-104659524D01*
X132823866Y-104659524D02*
X133014342Y-104707143D01*
X133014342Y-104707143D02*
X133109580Y-104754762D01*
X133109580Y-104754762D02*
X133157200Y-104802381D01*
X133157200Y-104802381D02*
X133204819Y-104897619D01*
X133204819Y-104897619D02*
X133204819Y-104992857D01*
X133204819Y-104992857D02*
X133157200Y-105088095D01*
X133157200Y-105088095D02*
X133109580Y-105135714D01*
X133109580Y-105135714D02*
X133014342Y-105183333D01*
X133014342Y-105183333D02*
X132823866Y-105230952D01*
X132823866Y-105230952D02*
X132585771Y-105230952D01*
X132585771Y-105230952D02*
X132395295Y-105183333D01*
X132395295Y-105183333D02*
X132300057Y-105135714D01*
X132300057Y-105135714D02*
X132252438Y-105088095D01*
X132252438Y-105088095D02*
X132204819Y-104992857D01*
X132204819Y-103802381D02*
X132204819Y-103992857D01*
X132204819Y-103992857D02*
X132252438Y-104088095D01*
X132252438Y-104088095D02*
X132300057Y-104135714D01*
X132300057Y-104135714D02*
X132442914Y-104230952D01*
X132442914Y-104230952D02*
X132633390Y-104278571D01*
X132633390Y-104278571D02*
X133014342Y-104278571D01*
X133014342Y-104278571D02*
X133109580Y-104230952D01*
X133109580Y-104230952D02*
X133157200Y-104183333D01*
X133157200Y-104183333D02*
X133204819Y-104088095D01*
X133204819Y-104088095D02*
X133204819Y-103897619D01*
X133204819Y-103897619D02*
X133157200Y-103802381D01*
X133157200Y-103802381D02*
X133109580Y-103754762D01*
X133109580Y-103754762D02*
X133014342Y-103707143D01*
X133014342Y-103707143D02*
X132776247Y-103707143D01*
X132776247Y-103707143D02*
X132681009Y-103754762D01*
X132681009Y-103754762D02*
X132633390Y-103802381D01*
X132633390Y-103802381D02*
X132585771Y-103897619D01*
X132585771Y-103897619D02*
X132585771Y-104088095D01*
X132585771Y-104088095D02*
X132633390Y-104183333D01*
X132633390Y-104183333D02*
X132681009Y-104230952D01*
X132681009Y-104230952D02*
X132776247Y-104278571D01*
X132633390Y-103135714D02*
X132585771Y-103230952D01*
X132585771Y-103230952D02*
X132538152Y-103278571D01*
X132538152Y-103278571D02*
X132442914Y-103326190D01*
X132442914Y-103326190D02*
X132395295Y-103326190D01*
X132395295Y-103326190D02*
X132300057Y-103278571D01*
X132300057Y-103278571D02*
X132252438Y-103230952D01*
X132252438Y-103230952D02*
X132204819Y-103135714D01*
X132204819Y-103135714D02*
X132204819Y-102945238D01*
X132204819Y-102945238D02*
X132252438Y-102850000D01*
X132252438Y-102850000D02*
X132300057Y-102802381D01*
X132300057Y-102802381D02*
X132395295Y-102754762D01*
X132395295Y-102754762D02*
X132442914Y-102754762D01*
X132442914Y-102754762D02*
X132538152Y-102802381D01*
X132538152Y-102802381D02*
X132585771Y-102850000D01*
X132585771Y-102850000D02*
X132633390Y-102945238D01*
X132633390Y-102945238D02*
X132633390Y-103135714D01*
X132633390Y-103135714D02*
X132681009Y-103230952D01*
X132681009Y-103230952D02*
X132728628Y-103278571D01*
X132728628Y-103278571D02*
X132823866Y-103326190D01*
X132823866Y-103326190D02*
X133014342Y-103326190D01*
X133014342Y-103326190D02*
X133109580Y-103278571D01*
X133109580Y-103278571D02*
X133157200Y-103230952D01*
X133157200Y-103230952D02*
X133204819Y-103135714D01*
X133204819Y-103135714D02*
X133204819Y-102945238D01*
X133204819Y-102945238D02*
X133157200Y-102850000D01*
X133157200Y-102850000D02*
X133109580Y-102802381D01*
X133109580Y-102802381D02*
X133014342Y-102754762D01*
X133014342Y-102754762D02*
X132823866Y-102754762D01*
X132823866Y-102754762D02*
X132728628Y-102802381D01*
X132728628Y-102802381D02*
X132681009Y-102850000D01*
X132681009Y-102850000D02*
X132633390Y-102945238D01*
X132633390Y-102183333D02*
X132585771Y-102278571D01*
X132585771Y-102278571D02*
X132538152Y-102326190D01*
X132538152Y-102326190D02*
X132442914Y-102373809D01*
X132442914Y-102373809D02*
X132395295Y-102373809D01*
X132395295Y-102373809D02*
X132300057Y-102326190D01*
X132300057Y-102326190D02*
X132252438Y-102278571D01*
X132252438Y-102278571D02*
X132204819Y-102183333D01*
X132204819Y-102183333D02*
X132204819Y-101992857D01*
X132204819Y-101992857D02*
X132252438Y-101897619D01*
X132252438Y-101897619D02*
X132300057Y-101850000D01*
X132300057Y-101850000D02*
X132395295Y-101802381D01*
X132395295Y-101802381D02*
X132442914Y-101802381D01*
X132442914Y-101802381D02*
X132538152Y-101850000D01*
X132538152Y-101850000D02*
X132585771Y-101897619D01*
X132585771Y-101897619D02*
X132633390Y-101992857D01*
X132633390Y-101992857D02*
X132633390Y-102183333D01*
X132633390Y-102183333D02*
X132681009Y-102278571D01*
X132681009Y-102278571D02*
X132728628Y-102326190D01*
X132728628Y-102326190D02*
X132823866Y-102373809D01*
X132823866Y-102373809D02*
X133014342Y-102373809D01*
X133014342Y-102373809D02*
X133109580Y-102326190D01*
X133109580Y-102326190D02*
X133157200Y-102278571D01*
X133157200Y-102278571D02*
X133204819Y-102183333D01*
X133204819Y-102183333D02*
X133204819Y-101992857D01*
X133204819Y-101992857D02*
X133157200Y-101897619D01*
X133157200Y-101897619D02*
X133109580Y-101850000D01*
X133109580Y-101850000D02*
X133014342Y-101802381D01*
X133014342Y-101802381D02*
X132823866Y-101802381D01*
X132823866Y-101802381D02*
X132728628Y-101850000D01*
X132728628Y-101850000D02*
X132681009Y-101897619D01*
X132681009Y-101897619D02*
X132633390Y-101992857D01*
X133204819Y-100611904D02*
X132204819Y-100611904D01*
X132204819Y-100611904D02*
X132919104Y-100278571D01*
X132919104Y-100278571D02*
X132204819Y-99945238D01*
X132204819Y-99945238D02*
X133204819Y-99945238D01*
X133204819Y-99469047D02*
X132204819Y-99469047D01*
X132681009Y-99469047D02*
X132681009Y-98897619D01*
X133204819Y-98897619D02*
X132204819Y-98897619D01*
X132538152Y-98516666D02*
X132538152Y-97992857D01*
X132538152Y-97992857D02*
X133204819Y-98516666D01*
X133204819Y-98516666D02*
X133204819Y-97992857D01*
X100138095Y-129974819D02*
X100138095Y-130784342D01*
X100138095Y-130784342D02*
X100185714Y-130879580D01*
X100185714Y-130879580D02*
X100233333Y-130927200D01*
X100233333Y-130927200D02*
X100328571Y-130974819D01*
X100328571Y-130974819D02*
X100519047Y-130974819D01*
X100519047Y-130974819D02*
X100614285Y-130927200D01*
X100614285Y-130927200D02*
X100661904Y-130879580D01*
X100661904Y-130879580D02*
X100709523Y-130784342D01*
X100709523Y-130784342D02*
X100709523Y-129974819D01*
X101661904Y-129974819D02*
X101185714Y-129974819D01*
X101185714Y-129974819D02*
X101138095Y-130451009D01*
X101138095Y-130451009D02*
X101185714Y-130403390D01*
X101185714Y-130403390D02*
X101280952Y-130355771D01*
X101280952Y-130355771D02*
X101519047Y-130355771D01*
X101519047Y-130355771D02*
X101614285Y-130403390D01*
X101614285Y-130403390D02*
X101661904Y-130451009D01*
X101661904Y-130451009D02*
X101709523Y-130546247D01*
X101709523Y-130546247D02*
X101709523Y-130784342D01*
X101709523Y-130784342D02*
X101661904Y-130879580D01*
X101661904Y-130879580D02*
X101614285Y-130927200D01*
X101614285Y-130927200D02*
X101519047Y-130974819D01*
X101519047Y-130974819D02*
X101280952Y-130974819D01*
X101280952Y-130974819D02*
X101185714Y-130927200D01*
X101185714Y-130927200D02*
X101138095Y-130879580D01*
X98257143Y-140534819D02*
X98923809Y-140534819D01*
X98923809Y-140534819D02*
X98495238Y-141534819D01*
X99733333Y-140868152D02*
X99733333Y-141534819D01*
X99495238Y-140487200D02*
X99257143Y-141201485D01*
X99257143Y-141201485D02*
X99876190Y-141201485D01*
X100733333Y-141534819D02*
X100257143Y-141534819D01*
X100257143Y-141534819D02*
X100257143Y-140534819D01*
X101019048Y-141487200D02*
X101161905Y-141534819D01*
X101161905Y-141534819D02*
X101400000Y-141534819D01*
X101400000Y-141534819D02*
X101495238Y-141487200D01*
X101495238Y-141487200D02*
X101542857Y-141439580D01*
X101542857Y-141439580D02*
X101590476Y-141344342D01*
X101590476Y-141344342D02*
X101590476Y-141249104D01*
X101590476Y-141249104D02*
X101542857Y-141153866D01*
X101542857Y-141153866D02*
X101495238Y-141106247D01*
X101495238Y-141106247D02*
X101400000Y-141058628D01*
X101400000Y-141058628D02*
X101209524Y-141011009D01*
X101209524Y-141011009D02*
X101114286Y-140963390D01*
X101114286Y-140963390D02*
X101066667Y-140915771D01*
X101066667Y-140915771D02*
X101019048Y-140820533D01*
X101019048Y-140820533D02*
X101019048Y-140725295D01*
X101019048Y-140725295D02*
X101066667Y-140630057D01*
X101066667Y-140630057D02*
X101114286Y-140582438D01*
X101114286Y-140582438D02*
X101209524Y-140534819D01*
X101209524Y-140534819D02*
X101447619Y-140534819D01*
X101447619Y-140534819D02*
X101590476Y-140582438D01*
X102209524Y-140534819D02*
X102304762Y-140534819D01*
X102304762Y-140534819D02*
X102400000Y-140582438D01*
X102400000Y-140582438D02*
X102447619Y-140630057D01*
X102447619Y-140630057D02*
X102495238Y-140725295D01*
X102495238Y-140725295D02*
X102542857Y-140915771D01*
X102542857Y-140915771D02*
X102542857Y-141153866D01*
X102542857Y-141153866D02*
X102495238Y-141344342D01*
X102495238Y-141344342D02*
X102447619Y-141439580D01*
X102447619Y-141439580D02*
X102400000Y-141487200D01*
X102400000Y-141487200D02*
X102304762Y-141534819D01*
X102304762Y-141534819D02*
X102209524Y-141534819D01*
X102209524Y-141534819D02*
X102114286Y-141487200D01*
X102114286Y-141487200D02*
X102066667Y-141439580D01*
X102066667Y-141439580D02*
X102019048Y-141344342D01*
X102019048Y-141344342D02*
X101971429Y-141153866D01*
X101971429Y-141153866D02*
X101971429Y-140915771D01*
X101971429Y-140915771D02*
X102019048Y-140725295D01*
X102019048Y-140725295D02*
X102066667Y-140630057D01*
X102066667Y-140630057D02*
X102114286Y-140582438D01*
X102114286Y-140582438D02*
X102209524Y-140534819D01*
X103161905Y-140534819D02*
X103257143Y-140534819D01*
X103257143Y-140534819D02*
X103352381Y-140582438D01*
X103352381Y-140582438D02*
X103400000Y-140630057D01*
X103400000Y-140630057D02*
X103447619Y-140725295D01*
X103447619Y-140725295D02*
X103495238Y-140915771D01*
X103495238Y-140915771D02*
X103495238Y-141153866D01*
X103495238Y-141153866D02*
X103447619Y-141344342D01*
X103447619Y-141344342D02*
X103400000Y-141439580D01*
X103400000Y-141439580D02*
X103352381Y-141487200D01*
X103352381Y-141487200D02*
X103257143Y-141534819D01*
X103257143Y-141534819D02*
X103161905Y-141534819D01*
X103161905Y-141534819D02*
X103066667Y-141487200D01*
X103066667Y-141487200D02*
X103019048Y-141439580D01*
X103019048Y-141439580D02*
X102971429Y-141344342D01*
X102971429Y-141344342D02*
X102923810Y-141153866D01*
X102923810Y-141153866D02*
X102923810Y-140915771D01*
X102923810Y-140915771D02*
X102971429Y-140725295D01*
X102971429Y-140725295D02*
X103019048Y-140630057D01*
X103019048Y-140630057D02*
X103066667Y-140582438D01*
X103066667Y-140582438D02*
X103161905Y-140534819D01*
X92766666Y-87874819D02*
X92766666Y-88589104D01*
X92766666Y-88589104D02*
X92719047Y-88731961D01*
X92719047Y-88731961D02*
X92623809Y-88827200D01*
X92623809Y-88827200D02*
X92480952Y-88874819D01*
X92480952Y-88874819D02*
X92385714Y-88874819D01*
X93719047Y-87874819D02*
X93242857Y-87874819D01*
X93242857Y-87874819D02*
X93195238Y-88351009D01*
X93195238Y-88351009D02*
X93242857Y-88303390D01*
X93242857Y-88303390D02*
X93338095Y-88255771D01*
X93338095Y-88255771D02*
X93576190Y-88255771D01*
X93576190Y-88255771D02*
X93671428Y-88303390D01*
X93671428Y-88303390D02*
X93719047Y-88351009D01*
X93719047Y-88351009D02*
X93766666Y-88446247D01*
X93766666Y-88446247D02*
X93766666Y-88684342D01*
X93766666Y-88684342D02*
X93719047Y-88779580D01*
X93719047Y-88779580D02*
X93671428Y-88827200D01*
X93671428Y-88827200D02*
X93576190Y-88874819D01*
X93576190Y-88874819D02*
X93338095Y-88874819D01*
X93338095Y-88874819D02*
X93242857Y-88827200D01*
X93242857Y-88827200D02*
X93195238Y-88779580D01*
D14*
%TO.C,U10*%
X135100000Y-81315000D02*
X133150000Y-81315000D01*
X135100000Y-81315000D02*
X137050000Y-81315000D01*
X135100000Y-90185000D02*
X133150000Y-90185000D01*
X135100000Y-90185000D02*
X137050000Y-90185000D01*
X132400000Y-81380000D02*
X132160000Y-81050000D01*
X132640000Y-81050000D01*
X132400000Y-81380000D01*
G36*
X132400000Y-81380000D02*
G01*
X132160000Y-81050000D01*
X132640000Y-81050000D01*
X132400000Y-81380000D01*
G37*
%TO.C,U2*%
X137460000Y-117020000D02*
X137460000Y-140000000D01*
X137460000Y-140000000D02*
X141960000Y-140000000D01*
X138710000Y-117020000D02*
X137460000Y-117020000D01*
X141960000Y-117020000D02*
X140710000Y-117020000D01*
X141960000Y-140000000D02*
X141960000Y-117020000D01*
X134460000Y-116960000D02*
X144960000Y-116960000D01*
X144960000Y-140060000D01*
X134460000Y-140060000D01*
X134460000Y-116960000D01*
X140710000Y-117020000D02*
G75*
G02*
X138710000Y-117020000I-1000000J0D01*
G01*
%TO.C,U4*%
X100850000Y-97065000D02*
X98900000Y-97065000D01*
X100850000Y-97065000D02*
X102800000Y-97065000D01*
X100850000Y-105935000D02*
X98900000Y-105935000D01*
X100850000Y-105935000D02*
X102800000Y-105935000D01*
X98150000Y-97130000D02*
X97910000Y-96800000D01*
X98390000Y-96800000D01*
X98150000Y-97130000D01*
G36*
X98150000Y-97130000D02*
G01*
X97910000Y-96800000D01*
X98390000Y-96800000D01*
X98150000Y-97130000D01*
G37*
%TO.C,U6*%
X116090000Y-118525000D02*
X116090000Y-118760000D01*
X116090000Y-131545000D02*
X116090000Y-131310000D01*
X119950000Y-118525000D02*
X116090000Y-118525000D01*
X119950000Y-118525000D02*
X123810000Y-118525000D01*
X119950000Y-131545000D02*
X116090000Y-131545000D01*
X119950000Y-131545000D02*
X123810000Y-131545000D01*
X123810000Y-118525000D02*
X123810000Y-118760000D01*
X123810000Y-131545000D02*
X123810000Y-131310000D01*
X115237500Y-118760000D02*
X114897500Y-118290000D01*
X115577500Y-118290000D01*
X115237500Y-118760000D01*
G36*
X115237500Y-118760000D02*
G01*
X114897500Y-118290000D01*
X115577500Y-118290000D01*
X115237500Y-118760000D01*
G37*
D13*
%TO.C,U9*%
X98075000Y-80375000D02*
X98075000Y-80950000D01*
X98075000Y-80375000D02*
X103825000Y-80375000D01*
X98075000Y-90450000D02*
X98075000Y-91025000D01*
X98075000Y-91025000D02*
X103825000Y-91025000D01*
X103825000Y-80375000D02*
X103825000Y-80950000D01*
X103825000Y-90450000D02*
X103825000Y-91025000D01*
D14*
X97575000Y-80950000D02*
X97335000Y-80620000D01*
X97815000Y-80620000D01*
X97575000Y-80950000D01*
G36*
X97575000Y-80950000D02*
G01*
X97335000Y-80620000D01*
X97815000Y-80620000D01*
X97575000Y-80950000D01*
G37*
%TO.C,R1*%
X127672936Y-85015000D02*
X128127064Y-85015000D01*
X127672936Y-86485000D02*
X128127064Y-86485000D01*
%TO.C,U8*%
X119900000Y-99240000D02*
X117950000Y-99240000D01*
X119900000Y-99240000D02*
X121850000Y-99240000D01*
X119900000Y-109360000D02*
X117950000Y-109360000D01*
X119900000Y-109360000D02*
X121850000Y-109360000D01*
X117200000Y-99295000D02*
X116960000Y-98965000D01*
X117440000Y-98965000D01*
X117200000Y-99295000D01*
G36*
X117200000Y-99295000D02*
G01*
X116960000Y-98965000D01*
X117440000Y-98965000D01*
X117200000Y-99295000D01*
G37*
%TO.C,J1*%
D15*
X76374000Y-74690000D02*
X85391000Y-74690000D01*
X85391000Y-141873000D01*
X76374000Y-141873000D01*
X76374000Y-74690000D01*
D14*
%TO.C,U7*%
X119850000Y-80590000D02*
X117900000Y-80590000D01*
X119850000Y-80590000D02*
X121800000Y-80590000D01*
X119850000Y-90710000D02*
X117900000Y-90710000D01*
X119850000Y-90710000D02*
X121800000Y-90710000D01*
X117150000Y-80645000D02*
X116910000Y-80315000D01*
X117390000Y-80315000D01*
X117150000Y-80645000D01*
G36*
X117150000Y-80645000D02*
G01*
X116910000Y-80315000D01*
X117390000Y-80315000D01*
X117150000Y-80645000D01*
G37*
D16*
%TO.C,G\u002A\u002A\u002A*%
G36*
X81859423Y-130359962D02*
G01*
X81859423Y-131971885D01*
X81517500Y-131971885D01*
X81175577Y-131971885D01*
X81175577Y-130359962D01*
X81175577Y-128748039D01*
X81517500Y-128748039D01*
X81859423Y-128748039D01*
X81859423Y-130359962D01*
G37*
G36*
X82934038Y-108281501D02*
G01*
X82934038Y-133290731D01*
X80882500Y-133290731D01*
X79490385Y-133290731D01*
X78830962Y-133290731D01*
X78830962Y-130557645D01*
X79124038Y-130557645D01*
X79124038Y-132997655D01*
X79490385Y-132997655D01*
X79856731Y-132997655D01*
X79856731Y-130872847D01*
X79856731Y-128748039D01*
X80149808Y-128748039D01*
X80442885Y-128748039D01*
X80442885Y-130872847D01*
X80442885Y-132997655D01*
X81494360Y-132997655D01*
X82545836Y-132997655D01*
X82532341Y-130477822D01*
X82518846Y-127957990D01*
X82381795Y-127840130D01*
X82314800Y-127788534D01*
X82242946Y-127754645D01*
X82144775Y-127734781D01*
X81998823Y-127725255D01*
X81783629Y-127722385D01*
X81695227Y-127722270D01*
X81451689Y-127723898D01*
X81283372Y-127731311D01*
X81167828Y-127748302D01*
X81082605Y-127778664D01*
X81005255Y-127826189D01*
X80982499Y-127842683D01*
X80819288Y-127963097D01*
X80676185Y-127842683D01*
X80604031Y-127788281D01*
X80527968Y-127753252D01*
X80425097Y-127733384D01*
X80272517Y-127724464D01*
X80047328Y-127722280D01*
X80021519Y-127722270D01*
X79721909Y-127730041D01*
X79503374Y-127756673D01*
X79350290Y-127807142D01*
X79247030Y-127886426D01*
X79182394Y-127989559D01*
X79167982Y-128050990D01*
X79155854Y-128170481D01*
X79145885Y-128353517D01*
X79137951Y-128605582D01*
X79131928Y-128932161D01*
X79127690Y-129338738D01*
X79125114Y-129830798D01*
X79124073Y-130413826D01*
X79124038Y-130557645D01*
X78830962Y-130557645D01*
X78830962Y-121665347D01*
X79124038Y-121665347D01*
X79124038Y-122178231D01*
X79124038Y-122691116D01*
X79783462Y-122691116D01*
X80442885Y-122691116D01*
X80442885Y-124547270D01*
X80442885Y-126403424D01*
X79783462Y-126403424D01*
X79124038Y-126403424D01*
X79124038Y-126919392D01*
X79124038Y-127435360D01*
X80007385Y-127420065D01*
X80890732Y-127404770D01*
X81033154Y-127245249D01*
X81175577Y-127085729D01*
X81175577Y-126060730D01*
X81175577Y-125035731D01*
X81859423Y-125035731D01*
X82543269Y-125035731D01*
X82543269Y-124522847D01*
X82543269Y-124009962D01*
X81859423Y-124009962D01*
X81175577Y-124009962D01*
X81175577Y-123028364D01*
X81173664Y-122653377D01*
X81166127Y-122363375D01*
X81150269Y-122145696D01*
X81123393Y-121987676D01*
X81082801Y-121876654D01*
X81025797Y-121799965D01*
X80949683Y-121744947D01*
X80896552Y-121718355D01*
X80803093Y-121698578D01*
X80626621Y-121682691D01*
X80381766Y-121671515D01*
X80083158Y-121665871D01*
X79952125Y-121665347D01*
X79490385Y-121665347D01*
X79124038Y-121665347D01*
X78830962Y-121665347D01*
X78830962Y-115706116D01*
X79124038Y-115706116D01*
X79124038Y-121421116D01*
X79490385Y-121421116D01*
X79856731Y-121421116D01*
X79856731Y-120370924D01*
X79856731Y-119320731D01*
X81200000Y-119320731D01*
X82543269Y-119320731D01*
X82543269Y-118783424D01*
X82543269Y-118246116D01*
X81493077Y-118246116D01*
X81200000Y-118246116D01*
X80342767Y-118246116D01*
X79856731Y-118246116D01*
X79856731Y-114118616D01*
X79856731Y-110968039D01*
X80442885Y-110968039D01*
X80442885Y-113019578D01*
X80442885Y-115071116D01*
X81493077Y-115071116D01*
X82543269Y-115071116D01*
X82543269Y-112433424D01*
X82543269Y-109795731D01*
X82176923Y-109795731D01*
X81810577Y-109795731D01*
X81810577Y-111896116D01*
X81810577Y-113996501D01*
X81493077Y-113996501D01*
X81175577Y-113996501D01*
X81175577Y-112482270D01*
X81175577Y-110968039D01*
X80809231Y-110968039D01*
X80442885Y-110968039D01*
X79856731Y-110968039D01*
X79856731Y-109991116D01*
X79490385Y-109991116D01*
X79124038Y-109991116D01*
X79124038Y-115706116D01*
X78830962Y-115706116D01*
X78830962Y-108281501D01*
X78830962Y-97877270D01*
X79124038Y-97877270D01*
X79124038Y-98439001D01*
X79124038Y-99000731D01*
X79783462Y-99000731D01*
X80442885Y-99000731D01*
X80442885Y-100539385D01*
X80442885Y-102078039D01*
X79783462Y-102078039D01*
X79124038Y-102078039D01*
X79124038Y-105592664D01*
X79124479Y-106315334D01*
X79125854Y-106945196D01*
X79128240Y-107487131D01*
X79131716Y-107946020D01*
X79136361Y-108326744D01*
X79142252Y-108634183D01*
X79149467Y-108873219D01*
X79158086Y-109048731D01*
X79168185Y-109165602D01*
X79179844Y-109228711D01*
X79182394Y-109235366D01*
X79233756Y-109325472D01*
X79303549Y-109393075D01*
X79405300Y-109441292D01*
X79552536Y-109473238D01*
X79758783Y-109492029D01*
X80037567Y-109500781D01*
X80342767Y-109502655D01*
X81175577Y-109502655D01*
X81175577Y-107377847D01*
X81175577Y-105253039D01*
X81517500Y-105253039D01*
X81859423Y-105253039D01*
X81859423Y-107377847D01*
X81859423Y-109502655D01*
X82202630Y-109502655D01*
X82545836Y-109502655D01*
X82532341Y-106982822D01*
X82518846Y-104462990D01*
X82381795Y-104345130D01*
X82330258Y-104303630D01*
X82276272Y-104273227D01*
X82204641Y-104252197D01*
X82100168Y-104238813D01*
X81947657Y-104231350D01*
X81731911Y-104228083D01*
X81437735Y-104227286D01*
X81343815Y-104227270D01*
X80442885Y-104227270D01*
X80442885Y-106327655D01*
X80442885Y-108428039D01*
X80149808Y-108428039D01*
X79856731Y-108428039D01*
X79856731Y-105790347D01*
X79856731Y-103152655D01*
X81200000Y-103152655D01*
X82543269Y-103152655D01*
X82543269Y-102615347D01*
X82543269Y-102078039D01*
X81859423Y-102078039D01*
X81175577Y-102078039D01*
X81175577Y-100539385D01*
X81175577Y-99000731D01*
X81859423Y-99000731D01*
X82543269Y-99000731D01*
X82543269Y-98439001D01*
X82543269Y-97877270D01*
X80833654Y-97877270D01*
X79124038Y-97877270D01*
X78830962Y-97877270D01*
X78830962Y-96509578D01*
X79124038Y-96509578D01*
X79124038Y-97046885D01*
X79124038Y-97584193D01*
X80833654Y-97584193D01*
X82543269Y-97584193D01*
X82543269Y-97046885D01*
X82543269Y-96509578D01*
X81015484Y-96509578D01*
X80833654Y-96509578D01*
X79124038Y-96509578D01*
X78830962Y-96509578D01*
X78830962Y-90566023D01*
X79124002Y-90566023D01*
X79124022Y-91391152D01*
X79124291Y-92128709D01*
X79125004Y-92783757D01*
X79126354Y-93361354D01*
X79128533Y-93866561D01*
X79131736Y-94304440D01*
X79136156Y-94680049D01*
X79141987Y-94998451D01*
X79149422Y-95264706D01*
X79158654Y-95483873D01*
X79169877Y-95661014D01*
X79183285Y-95801189D01*
X79199070Y-95909459D01*
X79217427Y-95990883D01*
X79238549Y-96050524D01*
X79262629Y-96093440D01*
X79289861Y-96124694D01*
X79320438Y-96149344D01*
X79354554Y-96172452D01*
X79373978Y-96185694D01*
X79416334Y-96208295D01*
X79478821Y-96226252D01*
X79572047Y-96240080D01*
X79706621Y-96250294D01*
X79893151Y-96257408D01*
X80142247Y-96261938D01*
X80464516Y-96264397D01*
X80870569Y-96265302D01*
X81015484Y-96265347D01*
X82543269Y-96265347D01*
X82543269Y-95752462D01*
X82543269Y-95239578D01*
X81859423Y-95239578D01*
X81175577Y-95239578D01*
X81175577Y-93725347D01*
X81175577Y-92211116D01*
X80833654Y-92211116D01*
X80491731Y-92211116D01*
X80491731Y-93725347D01*
X80491731Y-95239578D01*
X80174231Y-95239578D01*
X79856731Y-95239578D01*
X79856731Y-91527270D01*
X79856731Y-87814962D01*
X81200000Y-87814962D01*
X82543269Y-87814962D01*
X82543269Y-87277655D01*
X82543269Y-86740347D01*
X81200000Y-86740347D01*
X79856731Y-86740347D01*
X79856731Y-85128424D01*
X79856731Y-83516501D01*
X79490385Y-83516501D01*
X79124038Y-83516501D01*
X79124038Y-89648262D01*
X79124002Y-90566023D01*
X78830962Y-90566023D01*
X78830962Y-83272270D01*
X80882500Y-83272270D01*
X82934038Y-83272270D01*
X82934038Y-108281501D01*
G37*
D14*
%TO.C,J2*%
X141520000Y-76520000D02*
X142850000Y-76520000D01*
X141520000Y-77850000D02*
X141520000Y-76520000D01*
X141520000Y-79120000D02*
X141520000Y-84260000D01*
X141520000Y-79120000D02*
X144180000Y-79120000D01*
X141520000Y-84260000D02*
X144180000Y-84260000D01*
X144180000Y-79120000D02*
X144180000Y-84260000D01*
%TO.C,U1*%
X154710000Y-89070000D02*
X154710000Y-139990000D01*
X154710000Y-139990000D02*
X166830000Y-139990000D01*
X159770000Y-89070000D02*
X154710000Y-89070000D01*
X166830000Y-89070000D02*
X161770000Y-89070000D01*
X166830000Y-139990000D02*
X166830000Y-89070000D01*
X151710000Y-89010000D02*
X169830000Y-89010000D01*
X169830000Y-140050000D01*
X151710000Y-140050000D01*
X151710000Y-89010000D01*
X161770000Y-89070000D02*
G75*
G02*
X159770000Y-89070000I-1000000J0D01*
G01*
%TO.C,U3*%
X100900000Y-113345000D02*
X98950000Y-113345000D01*
X100900000Y-113345000D02*
X102850000Y-113345000D01*
X100900000Y-123465000D02*
X98950000Y-123465000D01*
X100900000Y-123465000D02*
X102850000Y-123465000D01*
X98200000Y-113400000D02*
X97960000Y-113070000D01*
X98440000Y-113070000D01*
X98200000Y-113400000D01*
G36*
X98200000Y-113400000D02*
G01*
X97960000Y-113070000D01*
X98440000Y-113070000D01*
X98200000Y-113400000D01*
G37*
%TO.C,J3*%
X165770000Y-76570000D02*
X167100000Y-76570000D01*
X165770000Y-77900000D02*
X165770000Y-76570000D01*
X165770000Y-79170000D02*
X165770000Y-86850000D01*
X165770000Y-79170000D02*
X168430000Y-79170000D01*
X165770000Y-86850000D02*
X168430000Y-86850000D01*
X168430000Y-79170000D02*
X168430000Y-86850000D01*
%TO.C,J4*%
X154420000Y-76520000D02*
X155750000Y-76520000D01*
X154420000Y-77850000D02*
X154420000Y-76520000D01*
X154420000Y-79120000D02*
X154420000Y-81720000D01*
X154420000Y-79120000D02*
X157080000Y-79120000D01*
X154420000Y-81720000D02*
X157080000Y-81720000D01*
X157080000Y-79120000D02*
X157080000Y-81720000D01*
%TO.C,Y1*%
X133550000Y-108950000D02*
X145550000Y-108950000D01*
X133550000Y-109070000D02*
X133550000Y-108950000D01*
X133900000Y-95550000D02*
X133900000Y-108950000D01*
X133900000Y-108950000D02*
X145200000Y-108950000D01*
X137100000Y-108950000D02*
X137100000Y-109800000D01*
X137100000Y-109800000D02*
X137100000Y-109800000D01*
X142000000Y-108950000D02*
X142000000Y-109800000D01*
X142000000Y-109800000D02*
X142000000Y-109800000D01*
X145200000Y-95550000D02*
X133900000Y-95550000D01*
X145200000Y-108950000D02*
X145200000Y-95550000D01*
X145550000Y-108950000D02*
X145550000Y-109070000D01*
X145550000Y-109070000D02*
X133550000Y-109070000D01*
%TO.C,U5*%
X100900000Y-131365000D02*
X98950000Y-131365000D01*
X100900000Y-131365000D02*
X102850000Y-131365000D01*
X100900000Y-140235000D02*
X98950000Y-140235000D01*
X100900000Y-140235000D02*
X102850000Y-140235000D01*
X98200000Y-131430000D02*
X97960000Y-131100000D01*
X98440000Y-131100000D01*
X98200000Y-131430000D01*
G36*
X98200000Y-131430000D02*
G01*
X97960000Y-131100000D01*
X98440000Y-131100000D01*
X98200000Y-131430000D01*
G37*
%TO.C,J5*%
X91770000Y-89420000D02*
X93100000Y-89420000D01*
X91770000Y-90750000D02*
X91770000Y-89420000D01*
X91770000Y-92020000D02*
X91770000Y-94620000D01*
X91770000Y-92020000D02*
X94430000Y-92020000D01*
X91770000Y-94620000D02*
X94430000Y-94620000D01*
X94430000Y-92020000D02*
X94430000Y-94620000D01*
%TD*%
M02*
