%TF.GenerationSoftware,KiCad,Pcbnew,9.0.0*%
%TF.CreationDate,2025-03-16T19:10:30-05:00*%
%TF.ProjectId,Model I RS232,4d6f6465-6c20-4492-9052-533233322e6b,rev?*%
%TF.SameCoordinates,Original*%
%TF.FileFunction,Legend,Top*%
%TF.FilePolarity,Positive*%
%FSLAX46Y46*%
G04 Gerber Fmt 4.6, Leading zero omitted, Abs format (unit mm)*
G04 Created by KiCad (PCBNEW 9.0.0) date 2025-03-16 19:10:30*
%MOMM*%
%LPD*%
G01*
G04 APERTURE LIST*
%ADD10C,0.300000*%
%ADD11C,0.150000*%
%ADD12C,0.100000*%
%ADD13C,0.120000*%
G04 APERTURE END LIST*
D10*
X90483082Y-144978447D02*
X92197368Y-144978447D01*
X91340225Y-147478447D02*
X91340225Y-144978447D01*
X94911653Y-147478447D02*
X93911653Y-146287971D01*
X93197367Y-147478447D02*
X93197367Y-144978447D01*
X93197367Y-144978447D02*
X94340224Y-144978447D01*
X94340224Y-144978447D02*
X94625939Y-145097495D01*
X94625939Y-145097495D02*
X94768796Y-145216542D01*
X94768796Y-145216542D02*
X94911653Y-145454638D01*
X94911653Y-145454638D02*
X94911653Y-145811780D01*
X94911653Y-145811780D02*
X94768796Y-146049876D01*
X94768796Y-146049876D02*
X94625939Y-146168923D01*
X94625939Y-146168923D02*
X94340224Y-146287971D01*
X94340224Y-146287971D02*
X93197367Y-146287971D01*
X96054510Y-147359400D02*
X96483082Y-147478447D01*
X96483082Y-147478447D02*
X97197367Y-147478447D01*
X97197367Y-147478447D02*
X97483082Y-147359400D01*
X97483082Y-147359400D02*
X97625939Y-147240352D01*
X97625939Y-147240352D02*
X97768796Y-147002257D01*
X97768796Y-147002257D02*
X97768796Y-146764161D01*
X97768796Y-146764161D02*
X97625939Y-146526066D01*
X97625939Y-146526066D02*
X97483082Y-146407019D01*
X97483082Y-146407019D02*
X97197367Y-146287971D01*
X97197367Y-146287971D02*
X96625939Y-146168923D01*
X96625939Y-146168923D02*
X96340224Y-146049876D01*
X96340224Y-146049876D02*
X96197367Y-145930828D01*
X96197367Y-145930828D02*
X96054510Y-145692733D01*
X96054510Y-145692733D02*
X96054510Y-145454638D01*
X96054510Y-145454638D02*
X96197367Y-145216542D01*
X96197367Y-145216542D02*
X96340224Y-145097495D01*
X96340224Y-145097495D02*
X96625939Y-144978447D01*
X96625939Y-144978447D02*
X97340224Y-144978447D01*
X97340224Y-144978447D02*
X97768796Y-145097495D01*
X99054510Y-146526066D02*
X101340225Y-146526066D01*
X103197368Y-146049876D02*
X102911653Y-145930828D01*
X102911653Y-145930828D02*
X102768796Y-145811780D01*
X102768796Y-145811780D02*
X102625939Y-145573685D01*
X102625939Y-145573685D02*
X102625939Y-145454638D01*
X102625939Y-145454638D02*
X102768796Y-145216542D01*
X102768796Y-145216542D02*
X102911653Y-145097495D01*
X102911653Y-145097495D02*
X103197368Y-144978447D01*
X103197368Y-144978447D02*
X103768796Y-144978447D01*
X103768796Y-144978447D02*
X104054511Y-145097495D01*
X104054511Y-145097495D02*
X104197368Y-145216542D01*
X104197368Y-145216542D02*
X104340225Y-145454638D01*
X104340225Y-145454638D02*
X104340225Y-145573685D01*
X104340225Y-145573685D02*
X104197368Y-145811780D01*
X104197368Y-145811780D02*
X104054511Y-145930828D01*
X104054511Y-145930828D02*
X103768796Y-146049876D01*
X103768796Y-146049876D02*
X103197368Y-146049876D01*
X103197368Y-146049876D02*
X102911653Y-146168923D01*
X102911653Y-146168923D02*
X102768796Y-146287971D01*
X102768796Y-146287971D02*
X102625939Y-146526066D01*
X102625939Y-146526066D02*
X102625939Y-147002257D01*
X102625939Y-147002257D02*
X102768796Y-147240352D01*
X102768796Y-147240352D02*
X102911653Y-147359400D01*
X102911653Y-147359400D02*
X103197368Y-147478447D01*
X103197368Y-147478447D02*
X103768796Y-147478447D01*
X103768796Y-147478447D02*
X104054511Y-147359400D01*
X104054511Y-147359400D02*
X104197368Y-147240352D01*
X104197368Y-147240352D02*
X104340225Y-147002257D01*
X104340225Y-147002257D02*
X104340225Y-146526066D01*
X104340225Y-146526066D02*
X104197368Y-146287971D01*
X104197368Y-146287971D02*
X104054511Y-146168923D01*
X104054511Y-146168923D02*
X103768796Y-146049876D01*
X106197368Y-144978447D02*
X106483082Y-144978447D01*
X106483082Y-144978447D02*
X106768796Y-145097495D01*
X106768796Y-145097495D02*
X106911654Y-145216542D01*
X106911654Y-145216542D02*
X107054511Y-145454638D01*
X107054511Y-145454638D02*
X107197368Y-145930828D01*
X107197368Y-145930828D02*
X107197368Y-146526066D01*
X107197368Y-146526066D02*
X107054511Y-147002257D01*
X107054511Y-147002257D02*
X106911654Y-147240352D01*
X106911654Y-147240352D02*
X106768796Y-147359400D01*
X106768796Y-147359400D02*
X106483082Y-147478447D01*
X106483082Y-147478447D02*
X106197368Y-147478447D01*
X106197368Y-147478447D02*
X105911654Y-147359400D01*
X105911654Y-147359400D02*
X105768796Y-147240352D01*
X105768796Y-147240352D02*
X105625939Y-147002257D01*
X105625939Y-147002257D02*
X105483082Y-146526066D01*
X105483082Y-146526066D02*
X105483082Y-145930828D01*
X105483082Y-145930828D02*
X105625939Y-145454638D01*
X105625939Y-145454638D02*
X105768796Y-145216542D01*
X105768796Y-145216542D02*
X105911654Y-145097495D01*
X105911654Y-145097495D02*
X106197368Y-144978447D01*
X110768796Y-147478447D02*
X110768796Y-144978447D01*
X110768796Y-144978447D02*
X111768796Y-146764161D01*
X111768796Y-146764161D02*
X112768796Y-144978447D01*
X112768796Y-144978447D02*
X112768796Y-147478447D01*
X114625939Y-147478447D02*
X114340224Y-147359400D01*
X114340224Y-147359400D02*
X114197367Y-147240352D01*
X114197367Y-147240352D02*
X114054510Y-147002257D01*
X114054510Y-147002257D02*
X114054510Y-146287971D01*
X114054510Y-146287971D02*
X114197367Y-146049876D01*
X114197367Y-146049876D02*
X114340224Y-145930828D01*
X114340224Y-145930828D02*
X114625939Y-145811780D01*
X114625939Y-145811780D02*
X115054510Y-145811780D01*
X115054510Y-145811780D02*
X115340224Y-145930828D01*
X115340224Y-145930828D02*
X115483082Y-146049876D01*
X115483082Y-146049876D02*
X115625939Y-146287971D01*
X115625939Y-146287971D02*
X115625939Y-147002257D01*
X115625939Y-147002257D02*
X115483082Y-147240352D01*
X115483082Y-147240352D02*
X115340224Y-147359400D01*
X115340224Y-147359400D02*
X115054510Y-147478447D01*
X115054510Y-147478447D02*
X114625939Y-147478447D01*
X118197368Y-147478447D02*
X118197368Y-144978447D01*
X118197368Y-147359400D02*
X117911653Y-147478447D01*
X117911653Y-147478447D02*
X117340225Y-147478447D01*
X117340225Y-147478447D02*
X117054510Y-147359400D01*
X117054510Y-147359400D02*
X116911653Y-147240352D01*
X116911653Y-147240352D02*
X116768796Y-147002257D01*
X116768796Y-147002257D02*
X116768796Y-146287971D01*
X116768796Y-146287971D02*
X116911653Y-146049876D01*
X116911653Y-146049876D02*
X117054510Y-145930828D01*
X117054510Y-145930828D02*
X117340225Y-145811780D01*
X117340225Y-145811780D02*
X117911653Y-145811780D01*
X117911653Y-145811780D02*
X118197368Y-145930828D01*
X120768796Y-147359400D02*
X120483082Y-147478447D01*
X120483082Y-147478447D02*
X119911654Y-147478447D01*
X119911654Y-147478447D02*
X119625939Y-147359400D01*
X119625939Y-147359400D02*
X119483082Y-147121304D01*
X119483082Y-147121304D02*
X119483082Y-146168923D01*
X119483082Y-146168923D02*
X119625939Y-145930828D01*
X119625939Y-145930828D02*
X119911654Y-145811780D01*
X119911654Y-145811780D02*
X120483082Y-145811780D01*
X120483082Y-145811780D02*
X120768796Y-145930828D01*
X120768796Y-145930828D02*
X120911654Y-146168923D01*
X120911654Y-146168923D02*
X120911654Y-146407019D01*
X120911654Y-146407019D02*
X119483082Y-146645114D01*
X122625940Y-147478447D02*
X122340225Y-147359400D01*
X122340225Y-147359400D02*
X122197368Y-147121304D01*
X122197368Y-147121304D02*
X122197368Y-144978447D01*
X126054511Y-147478447D02*
X126054511Y-144978447D01*
X131483082Y-147478447D02*
X130483082Y-146287971D01*
X129768796Y-147478447D02*
X129768796Y-144978447D01*
X129768796Y-144978447D02*
X130911653Y-144978447D01*
X130911653Y-144978447D02*
X131197368Y-145097495D01*
X131197368Y-145097495D02*
X131340225Y-145216542D01*
X131340225Y-145216542D02*
X131483082Y-145454638D01*
X131483082Y-145454638D02*
X131483082Y-145811780D01*
X131483082Y-145811780D02*
X131340225Y-146049876D01*
X131340225Y-146049876D02*
X131197368Y-146168923D01*
X131197368Y-146168923D02*
X130911653Y-146287971D01*
X130911653Y-146287971D02*
X129768796Y-146287971D01*
X132625939Y-147359400D02*
X133054511Y-147478447D01*
X133054511Y-147478447D02*
X133768796Y-147478447D01*
X133768796Y-147478447D02*
X134054511Y-147359400D01*
X134054511Y-147359400D02*
X134197368Y-147240352D01*
X134197368Y-147240352D02*
X134340225Y-147002257D01*
X134340225Y-147002257D02*
X134340225Y-146764161D01*
X134340225Y-146764161D02*
X134197368Y-146526066D01*
X134197368Y-146526066D02*
X134054511Y-146407019D01*
X134054511Y-146407019D02*
X133768796Y-146287971D01*
X133768796Y-146287971D02*
X133197368Y-146168923D01*
X133197368Y-146168923D02*
X132911653Y-146049876D01*
X132911653Y-146049876D02*
X132768796Y-145930828D01*
X132768796Y-145930828D02*
X132625939Y-145692733D01*
X132625939Y-145692733D02*
X132625939Y-145454638D01*
X132625939Y-145454638D02*
X132768796Y-145216542D01*
X132768796Y-145216542D02*
X132911653Y-145097495D01*
X132911653Y-145097495D02*
X133197368Y-144978447D01*
X133197368Y-144978447D02*
X133911653Y-144978447D01*
X133911653Y-144978447D02*
X134340225Y-145097495D01*
X135625939Y-146526066D02*
X137911654Y-146526066D01*
X139197368Y-145216542D02*
X139340225Y-145097495D01*
X139340225Y-145097495D02*
X139625940Y-144978447D01*
X139625940Y-144978447D02*
X140340225Y-144978447D01*
X140340225Y-144978447D02*
X140625940Y-145097495D01*
X140625940Y-145097495D02*
X140768797Y-145216542D01*
X140768797Y-145216542D02*
X140911654Y-145454638D01*
X140911654Y-145454638D02*
X140911654Y-145692733D01*
X140911654Y-145692733D02*
X140768797Y-146049876D01*
X140768797Y-146049876D02*
X139054511Y-147478447D01*
X139054511Y-147478447D02*
X140911654Y-147478447D01*
X141911654Y-144978447D02*
X143768797Y-144978447D01*
X143768797Y-144978447D02*
X142768797Y-145930828D01*
X142768797Y-145930828D02*
X143197368Y-145930828D01*
X143197368Y-145930828D02*
X143483083Y-146049876D01*
X143483083Y-146049876D02*
X143625940Y-146168923D01*
X143625940Y-146168923D02*
X143768797Y-146407019D01*
X143768797Y-146407019D02*
X143768797Y-147002257D01*
X143768797Y-147002257D02*
X143625940Y-147240352D01*
X143625940Y-147240352D02*
X143483083Y-147359400D01*
X143483083Y-147359400D02*
X143197368Y-147478447D01*
X143197368Y-147478447D02*
X142340225Y-147478447D01*
X142340225Y-147478447D02*
X142054511Y-147359400D01*
X142054511Y-147359400D02*
X141911654Y-147240352D01*
X144911654Y-145216542D02*
X145054511Y-145097495D01*
X145054511Y-145097495D02*
X145340226Y-144978447D01*
X145340226Y-144978447D02*
X146054511Y-144978447D01*
X146054511Y-144978447D02*
X146340226Y-145097495D01*
X146340226Y-145097495D02*
X146483083Y-145216542D01*
X146483083Y-145216542D02*
X146625940Y-145454638D01*
X146625940Y-145454638D02*
X146625940Y-145692733D01*
X146625940Y-145692733D02*
X146483083Y-146049876D01*
X146483083Y-146049876D02*
X144768797Y-147478447D01*
X144768797Y-147478447D02*
X146625940Y-147478447D01*
X150197368Y-147478447D02*
X150197368Y-144978447D01*
X151625939Y-145811780D02*
X151625939Y-147478447D01*
X151625939Y-146049876D02*
X151768796Y-145930828D01*
X151768796Y-145930828D02*
X152054511Y-145811780D01*
X152054511Y-145811780D02*
X152483082Y-145811780D01*
X152483082Y-145811780D02*
X152768796Y-145930828D01*
X152768796Y-145930828D02*
X152911654Y-146168923D01*
X152911654Y-146168923D02*
X152911654Y-147478447D01*
X153911654Y-145811780D02*
X155054511Y-145811780D01*
X154340225Y-144978447D02*
X154340225Y-147121304D01*
X154340225Y-147121304D02*
X154483082Y-147359400D01*
X154483082Y-147359400D02*
X154768797Y-147478447D01*
X154768797Y-147478447D02*
X155054511Y-147478447D01*
X157197368Y-147359400D02*
X156911654Y-147478447D01*
X156911654Y-147478447D02*
X156340226Y-147478447D01*
X156340226Y-147478447D02*
X156054511Y-147359400D01*
X156054511Y-147359400D02*
X155911654Y-147121304D01*
X155911654Y-147121304D02*
X155911654Y-146168923D01*
X155911654Y-146168923D02*
X156054511Y-145930828D01*
X156054511Y-145930828D02*
X156340226Y-145811780D01*
X156340226Y-145811780D02*
X156911654Y-145811780D01*
X156911654Y-145811780D02*
X157197368Y-145930828D01*
X157197368Y-145930828D02*
X157340226Y-146168923D01*
X157340226Y-146168923D02*
X157340226Y-146407019D01*
X157340226Y-146407019D02*
X155911654Y-146645114D01*
X158625940Y-147478447D02*
X158625940Y-145811780D01*
X158625940Y-146287971D02*
X158768797Y-146049876D01*
X158768797Y-146049876D02*
X158911655Y-145930828D01*
X158911655Y-145930828D02*
X159197369Y-145811780D01*
X159197369Y-145811780D02*
X159483083Y-145811780D01*
X160054512Y-145811780D02*
X161197369Y-145811780D01*
X160483083Y-147478447D02*
X160483083Y-145335590D01*
X160483083Y-145335590D02*
X160625940Y-145097495D01*
X160625940Y-145097495D02*
X160911655Y-144978447D01*
X160911655Y-144978447D02*
X161197369Y-144978447D01*
X163483084Y-147478447D02*
X163483084Y-146168923D01*
X163483084Y-146168923D02*
X163340226Y-145930828D01*
X163340226Y-145930828D02*
X163054512Y-145811780D01*
X163054512Y-145811780D02*
X162483084Y-145811780D01*
X162483084Y-145811780D02*
X162197369Y-145930828D01*
X163483084Y-147359400D02*
X163197369Y-147478447D01*
X163197369Y-147478447D02*
X162483084Y-147478447D01*
X162483084Y-147478447D02*
X162197369Y-147359400D01*
X162197369Y-147359400D02*
X162054512Y-147121304D01*
X162054512Y-147121304D02*
X162054512Y-146883209D01*
X162054512Y-146883209D02*
X162197369Y-146645114D01*
X162197369Y-146645114D02*
X162483084Y-146526066D01*
X162483084Y-146526066D02*
X163197369Y-146526066D01*
X163197369Y-146526066D02*
X163483084Y-146407019D01*
X166197370Y-147359400D02*
X165911655Y-147478447D01*
X165911655Y-147478447D02*
X165340227Y-147478447D01*
X165340227Y-147478447D02*
X165054512Y-147359400D01*
X165054512Y-147359400D02*
X164911655Y-147240352D01*
X164911655Y-147240352D02*
X164768798Y-147002257D01*
X164768798Y-147002257D02*
X164768798Y-146287971D01*
X164768798Y-146287971D02*
X164911655Y-146049876D01*
X164911655Y-146049876D02*
X165054512Y-145930828D01*
X165054512Y-145930828D02*
X165340227Y-145811780D01*
X165340227Y-145811780D02*
X165911655Y-145811780D01*
X165911655Y-145811780D02*
X166197370Y-145930828D01*
X168625941Y-147359400D02*
X168340227Y-147478447D01*
X168340227Y-147478447D02*
X167768799Y-147478447D01*
X167768799Y-147478447D02*
X167483084Y-147359400D01*
X167483084Y-147359400D02*
X167340227Y-147121304D01*
X167340227Y-147121304D02*
X167340227Y-146168923D01*
X167340227Y-146168923D02*
X167483084Y-145930828D01*
X167483084Y-145930828D02*
X167768799Y-145811780D01*
X167768799Y-145811780D02*
X168340227Y-145811780D01*
X168340227Y-145811780D02*
X168625941Y-145930828D01*
X168625941Y-145930828D02*
X168768799Y-146168923D01*
X168768799Y-146168923D02*
X168768799Y-146407019D01*
X168768799Y-146407019D02*
X167340227Y-146645114D01*
X171911656Y-144978447D02*
X172911656Y-147478447D01*
X172911656Y-147478447D02*
X173911656Y-144978447D01*
X176054513Y-147359400D02*
X175768799Y-147478447D01*
X175768799Y-147478447D02*
X175197371Y-147478447D01*
X175197371Y-147478447D02*
X174911656Y-147359400D01*
X174911656Y-147359400D02*
X174768799Y-147121304D01*
X174768799Y-147121304D02*
X174768799Y-146168923D01*
X174768799Y-146168923D02*
X174911656Y-145930828D01*
X174911656Y-145930828D02*
X175197371Y-145811780D01*
X175197371Y-145811780D02*
X175768799Y-145811780D01*
X175768799Y-145811780D02*
X176054513Y-145930828D01*
X176054513Y-145930828D02*
X176197371Y-146168923D01*
X176197371Y-146168923D02*
X176197371Y-146407019D01*
X176197371Y-146407019D02*
X174768799Y-146645114D01*
X177483085Y-147478447D02*
X177483085Y-145811780D01*
X177483085Y-146287971D02*
X177625942Y-146049876D01*
X177625942Y-146049876D02*
X177768800Y-145930828D01*
X177768800Y-145930828D02*
X178054514Y-145811780D01*
X178054514Y-145811780D02*
X178340228Y-145811780D01*
X179340228Y-147240352D02*
X179483085Y-147359400D01*
X179483085Y-147359400D02*
X179340228Y-147478447D01*
X179340228Y-147478447D02*
X179197371Y-147359400D01*
X179197371Y-147359400D02*
X179340228Y-147240352D01*
X179340228Y-147240352D02*
X179340228Y-147478447D01*
X184625942Y-147478447D02*
X182911656Y-147478447D01*
X183768799Y-147478447D02*
X183768799Y-144978447D01*
X183768799Y-144978447D02*
X183483085Y-145335590D01*
X183483085Y-145335590D02*
X183197370Y-145573685D01*
X183197370Y-145573685D02*
X182911656Y-145692733D01*
X185911656Y-147240352D02*
X186054513Y-147359400D01*
X186054513Y-147359400D02*
X185911656Y-147478447D01*
X185911656Y-147478447D02*
X185768799Y-147359400D01*
X185768799Y-147359400D02*
X185911656Y-147240352D01*
X185911656Y-147240352D02*
X185911656Y-147478447D01*
X187911656Y-144978447D02*
X188197370Y-144978447D01*
X188197370Y-144978447D02*
X188483084Y-145097495D01*
X188483084Y-145097495D02*
X188625942Y-145216542D01*
X188625942Y-145216542D02*
X188768799Y-145454638D01*
X188768799Y-145454638D02*
X188911656Y-145930828D01*
X188911656Y-145930828D02*
X188911656Y-146526066D01*
X188911656Y-146526066D02*
X188768799Y-147002257D01*
X188768799Y-147002257D02*
X188625942Y-147240352D01*
X188625942Y-147240352D02*
X188483084Y-147359400D01*
X188483084Y-147359400D02*
X188197370Y-147478447D01*
X188197370Y-147478447D02*
X187911656Y-147478447D01*
X187911656Y-147478447D02*
X187625942Y-147359400D01*
X187625942Y-147359400D02*
X187483084Y-147240352D01*
X187483084Y-147240352D02*
X187340227Y-147002257D01*
X187340227Y-147002257D02*
X187197370Y-146526066D01*
X187197370Y-146526066D02*
X187197370Y-145930828D01*
X187197370Y-145930828D02*
X187340227Y-145454638D01*
X187340227Y-145454638D02*
X187483084Y-145216542D01*
X187483084Y-145216542D02*
X187625942Y-145097495D01*
X187625942Y-145097495D02*
X187911656Y-144978447D01*
X158873558Y-104977733D02*
X160397368Y-104977733D01*
X159635463Y-105739638D02*
X159635463Y-104215828D01*
G36*
X148176720Y-118108610D02*
G01*
X148279000Y-118149943D01*
X148356934Y-118215558D01*
X148415067Y-118304587D01*
X148449937Y-118403273D01*
X148461898Y-118514511D01*
X148461898Y-119040610D01*
X148452752Y-119153734D01*
X148428012Y-119240204D01*
X148390273Y-119305858D01*
X148322523Y-119377508D01*
X148251238Y-119427857D01*
X148320664Y-119501130D01*
X148390273Y-119582646D01*
X148443209Y-119683663D01*
X148461898Y-119812723D01*
X148461898Y-120369047D01*
X148449013Y-120498958D01*
X148413345Y-120601553D01*
X148356934Y-120682838D01*
X148280431Y-120738354D01*
X148178241Y-120774205D01*
X148042411Y-120787435D01*
X144300000Y-120787435D01*
X144300000Y-120753913D01*
X144300000Y-120228913D01*
X145108932Y-120228913D01*
X147652965Y-120228913D01*
X147652965Y-119707210D01*
X145108932Y-119707210D01*
X145108932Y-120228913D01*
X144300000Y-120228913D01*
X144300000Y-119968061D01*
X144300000Y-119148688D01*
X147652965Y-119148688D01*
X147652965Y-118652081D01*
X144300000Y-118652081D01*
X144300000Y-118093558D01*
X148042411Y-118093558D01*
X148176720Y-118108610D01*
G37*
G36*
X152427424Y-119148688D02*
G01*
X151126831Y-119148688D01*
X150301779Y-119148688D01*
X149514829Y-119148688D01*
X149481123Y-119148688D01*
X149481123Y-118093558D01*
X148675854Y-118093558D01*
X148675854Y-119249071D01*
X148691556Y-119406809D01*
X148733436Y-119520765D01*
X148797487Y-119602063D01*
X148927438Y-119684664D01*
X149023900Y-119707210D01*
X150563363Y-119707210D01*
X150563363Y-120790000D01*
X151372295Y-120790000D01*
X151372295Y-119707210D01*
X152876038Y-119707210D01*
X152975754Y-119684234D01*
X153102817Y-119602063D01*
X153166626Y-119523177D01*
X153208709Y-119409636D01*
X153224633Y-119249071D01*
X153224633Y-118093558D01*
X152427424Y-118093558D01*
X152427424Y-119148688D01*
G37*
G36*
X158473900Y-118093558D02*
G01*
X153432728Y-118093558D01*
X153432728Y-118652081D01*
X155074040Y-118652081D01*
X155074040Y-120790000D01*
X155918143Y-120790000D01*
X155918143Y-118652081D01*
X158473900Y-118652081D01*
X158473900Y-118093558D01*
G37*
G36*
X158438729Y-118093558D02*
G01*
X158438729Y-118652081D01*
X162459944Y-118652081D01*
X162459944Y-118093558D01*
X158438729Y-118093558D01*
G37*
G36*
X158438729Y-119148688D02*
G01*
X158438729Y-120790000D01*
X162606489Y-120790000D01*
X162606489Y-120192093D01*
X159282833Y-120192093D01*
X159282833Y-119707210D01*
X161692777Y-119707210D01*
X161692777Y-119148688D01*
X158438729Y-119148688D01*
G37*
G36*
X163234621Y-118093558D02*
G01*
X163099922Y-118108605D01*
X162997480Y-118149893D01*
X162919548Y-118215375D01*
X162862084Y-118299206D01*
X162826909Y-118397372D01*
X162814584Y-118513778D01*
X162814584Y-119707210D01*
X166167550Y-119707210D01*
X166167550Y-120231477D01*
X162814584Y-120231477D01*
X162814584Y-120790000D01*
X166556995Y-120790000D01*
X166692825Y-120776769D01*
X166795016Y-120740919D01*
X166871519Y-120685403D01*
X166927914Y-120604110D01*
X166963590Y-120501405D01*
X166976482Y-120371245D01*
X166976482Y-119148688D01*
X163658688Y-119148688D01*
X163658688Y-118652081D01*
X167849895Y-118652081D01*
X167849895Y-118093558D01*
X163234621Y-118093558D01*
G37*
G36*
X171103210Y-118093558D02*
G01*
X171103210Y-119148688D01*
X168664689Y-119148688D01*
X168664689Y-118093558D01*
X167820586Y-118093558D01*
X167820586Y-120790000D01*
X168664689Y-120790000D01*
X168664689Y-119707210D01*
X171103210Y-119707210D01*
X171103210Y-120790000D01*
X171982484Y-120790000D01*
X171982484Y-118093558D01*
X171103210Y-118093558D01*
G37*
G36*
X172196441Y-120790000D02*
G01*
X173040544Y-120790000D01*
X173040544Y-118093558D01*
X172196441Y-118093558D01*
X172196441Y-120790000D01*
G37*
G36*
X178281018Y-118093558D02*
G01*
X173770708Y-118093558D01*
X173636664Y-118105504D01*
X173514253Y-118140497D01*
X173401046Y-118198522D01*
X173315509Y-118279235D01*
X173263996Y-118381870D01*
X173245708Y-118513595D01*
X173245708Y-120790000D01*
X174054640Y-120790000D01*
X174054640Y-119711423D01*
X176428681Y-119711423D01*
X176428681Y-119183859D01*
X174054640Y-119183859D01*
X174054640Y-118720225D01*
X174062821Y-118690744D01*
X174088346Y-118668934D01*
X174159603Y-118652081D01*
X178281018Y-118652081D01*
X178281018Y-118093558D01*
G37*
G36*
X183292882Y-118093558D02*
G01*
X178251709Y-118093558D01*
X178251709Y-118652081D01*
X179893021Y-118652081D01*
X179893021Y-120790000D01*
X180737124Y-120790000D01*
X180737124Y-118652081D01*
X183292882Y-118652081D01*
X183292882Y-118093558D01*
G37*
D11*
X126713095Y-77999819D02*
X126713095Y-78809342D01*
X126713095Y-78809342D02*
X126760714Y-78904580D01*
X126760714Y-78904580D02*
X126808333Y-78952200D01*
X126808333Y-78952200D02*
X126903571Y-78999819D01*
X126903571Y-78999819D02*
X127094047Y-78999819D01*
X127094047Y-78999819D02*
X127189285Y-78952200D01*
X127189285Y-78952200D02*
X127236904Y-78904580D01*
X127236904Y-78904580D02*
X127284523Y-78809342D01*
X127284523Y-78809342D02*
X127284523Y-77999819D01*
X127665476Y-77999819D02*
X128332142Y-77999819D01*
X128332142Y-77999819D02*
X127903571Y-78999819D01*
X124355952Y-89799819D02*
X125022618Y-89799819D01*
X125022618Y-89799819D02*
X124594047Y-90799819D01*
X125832142Y-90133152D02*
X125832142Y-90799819D01*
X125594047Y-89752200D02*
X125355952Y-90466485D01*
X125355952Y-90466485D02*
X125974999Y-90466485D01*
X126832142Y-90799819D02*
X126355952Y-90799819D01*
X126355952Y-90799819D02*
X126355952Y-89799819D01*
X127117857Y-90752200D02*
X127260714Y-90799819D01*
X127260714Y-90799819D02*
X127498809Y-90799819D01*
X127498809Y-90799819D02*
X127594047Y-90752200D01*
X127594047Y-90752200D02*
X127641666Y-90704580D01*
X127641666Y-90704580D02*
X127689285Y-90609342D01*
X127689285Y-90609342D02*
X127689285Y-90514104D01*
X127689285Y-90514104D02*
X127641666Y-90418866D01*
X127641666Y-90418866D02*
X127594047Y-90371247D01*
X127594047Y-90371247D02*
X127498809Y-90323628D01*
X127498809Y-90323628D02*
X127308333Y-90276009D01*
X127308333Y-90276009D02*
X127213095Y-90228390D01*
X127213095Y-90228390D02*
X127165476Y-90180771D01*
X127165476Y-90180771D02*
X127117857Y-90085533D01*
X127117857Y-90085533D02*
X127117857Y-89990295D01*
X127117857Y-89990295D02*
X127165476Y-89895057D01*
X127165476Y-89895057D02*
X127213095Y-89847438D01*
X127213095Y-89847438D02*
X127308333Y-89799819D01*
X127308333Y-89799819D02*
X127546428Y-89799819D01*
X127546428Y-89799819D02*
X127689285Y-89847438D01*
X128022619Y-89799819D02*
X128641666Y-89799819D01*
X128641666Y-89799819D02*
X128308333Y-90180771D01*
X128308333Y-90180771D02*
X128451190Y-90180771D01*
X128451190Y-90180771D02*
X128546428Y-90228390D01*
X128546428Y-90228390D02*
X128594047Y-90276009D01*
X128594047Y-90276009D02*
X128641666Y-90371247D01*
X128641666Y-90371247D02*
X128641666Y-90609342D01*
X128641666Y-90609342D02*
X128594047Y-90704580D01*
X128594047Y-90704580D02*
X128546428Y-90752200D01*
X128546428Y-90752200D02*
X128451190Y-90799819D01*
X128451190Y-90799819D02*
X128165476Y-90799819D01*
X128165476Y-90799819D02*
X128070238Y-90752200D01*
X128070238Y-90752200D02*
X128022619Y-90704580D01*
X129498809Y-89799819D02*
X129308333Y-89799819D01*
X129308333Y-89799819D02*
X129213095Y-89847438D01*
X129213095Y-89847438D02*
X129165476Y-89895057D01*
X129165476Y-89895057D02*
X129070238Y-90037914D01*
X129070238Y-90037914D02*
X129022619Y-90228390D01*
X129022619Y-90228390D02*
X129022619Y-90609342D01*
X129022619Y-90609342D02*
X129070238Y-90704580D01*
X129070238Y-90704580D02*
X129117857Y-90752200D01*
X129117857Y-90752200D02*
X129213095Y-90799819D01*
X129213095Y-90799819D02*
X129403571Y-90799819D01*
X129403571Y-90799819D02*
X129498809Y-90752200D01*
X129498809Y-90752200D02*
X129546428Y-90704580D01*
X129546428Y-90704580D02*
X129594047Y-90609342D01*
X129594047Y-90609342D02*
X129594047Y-90371247D01*
X129594047Y-90371247D02*
X129546428Y-90276009D01*
X129546428Y-90276009D02*
X129498809Y-90228390D01*
X129498809Y-90228390D02*
X129403571Y-90180771D01*
X129403571Y-90180771D02*
X129213095Y-90180771D01*
X129213095Y-90180771D02*
X129117857Y-90228390D01*
X129117857Y-90228390D02*
X129070238Y-90276009D01*
X129070238Y-90276009D02*
X129022619Y-90371247D01*
X129927381Y-89799819D02*
X130594047Y-89799819D01*
X130594047Y-89799819D02*
X130165476Y-90799819D01*
X116539580Y-82166666D02*
X116587200Y-82214285D01*
X116587200Y-82214285D02*
X116634819Y-82357142D01*
X116634819Y-82357142D02*
X116634819Y-82452380D01*
X116634819Y-82452380D02*
X116587200Y-82595237D01*
X116587200Y-82595237D02*
X116491961Y-82690475D01*
X116491961Y-82690475D02*
X116396723Y-82738094D01*
X116396723Y-82738094D02*
X116206247Y-82785713D01*
X116206247Y-82785713D02*
X116063390Y-82785713D01*
X116063390Y-82785713D02*
X115872914Y-82738094D01*
X115872914Y-82738094D02*
X115777676Y-82690475D01*
X115777676Y-82690475D02*
X115682438Y-82595237D01*
X115682438Y-82595237D02*
X115634819Y-82452380D01*
X115634819Y-82452380D02*
X115634819Y-82357142D01*
X115634819Y-82357142D02*
X115682438Y-82214285D01*
X115682438Y-82214285D02*
X115730057Y-82166666D01*
X116063390Y-81595237D02*
X116015771Y-81690475D01*
X116015771Y-81690475D02*
X115968152Y-81738094D01*
X115968152Y-81738094D02*
X115872914Y-81785713D01*
X115872914Y-81785713D02*
X115825295Y-81785713D01*
X115825295Y-81785713D02*
X115730057Y-81738094D01*
X115730057Y-81738094D02*
X115682438Y-81690475D01*
X115682438Y-81690475D02*
X115634819Y-81595237D01*
X115634819Y-81595237D02*
X115634819Y-81404761D01*
X115634819Y-81404761D02*
X115682438Y-81309523D01*
X115682438Y-81309523D02*
X115730057Y-81261904D01*
X115730057Y-81261904D02*
X115825295Y-81214285D01*
X115825295Y-81214285D02*
X115872914Y-81214285D01*
X115872914Y-81214285D02*
X115968152Y-81261904D01*
X115968152Y-81261904D02*
X116015771Y-81309523D01*
X116015771Y-81309523D02*
X116063390Y-81404761D01*
X116063390Y-81404761D02*
X116063390Y-81595237D01*
X116063390Y-81595237D02*
X116111009Y-81690475D01*
X116111009Y-81690475D02*
X116158628Y-81738094D01*
X116158628Y-81738094D02*
X116253866Y-81785713D01*
X116253866Y-81785713D02*
X116444342Y-81785713D01*
X116444342Y-81785713D02*
X116539580Y-81738094D01*
X116539580Y-81738094D02*
X116587200Y-81690475D01*
X116587200Y-81690475D02*
X116634819Y-81595237D01*
X116634819Y-81595237D02*
X116634819Y-81404761D01*
X116634819Y-81404761D02*
X116587200Y-81309523D01*
X116587200Y-81309523D02*
X116539580Y-81261904D01*
X116539580Y-81261904D02*
X116444342Y-81214285D01*
X116444342Y-81214285D02*
X116253866Y-81214285D01*
X116253866Y-81214285D02*
X116158628Y-81261904D01*
X116158628Y-81261904D02*
X116111009Y-81309523D01*
X116111009Y-81309523D02*
X116063390Y-81404761D01*
X112274819Y-83642856D02*
X112274819Y-83547618D01*
X112274819Y-83547618D02*
X112322438Y-83452380D01*
X112322438Y-83452380D02*
X112370057Y-83404761D01*
X112370057Y-83404761D02*
X112465295Y-83357142D01*
X112465295Y-83357142D02*
X112655771Y-83309523D01*
X112655771Y-83309523D02*
X112893866Y-83309523D01*
X112893866Y-83309523D02*
X113084342Y-83357142D01*
X113084342Y-83357142D02*
X113179580Y-83404761D01*
X113179580Y-83404761D02*
X113227200Y-83452380D01*
X113227200Y-83452380D02*
X113274819Y-83547618D01*
X113274819Y-83547618D02*
X113274819Y-83642856D01*
X113274819Y-83642856D02*
X113227200Y-83738094D01*
X113227200Y-83738094D02*
X113179580Y-83785713D01*
X113179580Y-83785713D02*
X113084342Y-83833332D01*
X113084342Y-83833332D02*
X112893866Y-83880951D01*
X112893866Y-83880951D02*
X112655771Y-83880951D01*
X112655771Y-83880951D02*
X112465295Y-83833332D01*
X112465295Y-83833332D02*
X112370057Y-83785713D01*
X112370057Y-83785713D02*
X112322438Y-83738094D01*
X112322438Y-83738094D02*
X112274819Y-83642856D01*
X113179580Y-82880951D02*
X113227200Y-82833332D01*
X113227200Y-82833332D02*
X113274819Y-82880951D01*
X113274819Y-82880951D02*
X113227200Y-82928570D01*
X113227200Y-82928570D02*
X113179580Y-82880951D01*
X113179580Y-82880951D02*
X113274819Y-82880951D01*
X113274819Y-81880952D02*
X113274819Y-82452380D01*
X113274819Y-82166666D02*
X112274819Y-82166666D01*
X112274819Y-82166666D02*
X112417676Y-82261904D01*
X112417676Y-82261904D02*
X112512914Y-82357142D01*
X112512914Y-82357142D02*
X112560533Y-82452380D01*
X112608152Y-81023809D02*
X113274819Y-81023809D01*
X112608152Y-81452380D02*
X113131961Y-81452380D01*
X113131961Y-81452380D02*
X113227200Y-81404761D01*
X113227200Y-81404761D02*
X113274819Y-81309523D01*
X113274819Y-81309523D02*
X113274819Y-81166666D01*
X113274819Y-81166666D02*
X113227200Y-81071428D01*
X113227200Y-81071428D02*
X113179580Y-81023809D01*
X112751009Y-80214285D02*
X112751009Y-80547618D01*
X113274819Y-80547618D02*
X112274819Y-80547618D01*
X112274819Y-80547618D02*
X112274819Y-80071428D01*
X105428095Y-119584819D02*
X105428095Y-120394342D01*
X105428095Y-120394342D02*
X105475714Y-120489580D01*
X105475714Y-120489580D02*
X105523333Y-120537200D01*
X105523333Y-120537200D02*
X105618571Y-120584819D01*
X105618571Y-120584819D02*
X105809047Y-120584819D01*
X105809047Y-120584819D02*
X105904285Y-120537200D01*
X105904285Y-120537200D02*
X105951904Y-120489580D01*
X105951904Y-120489580D02*
X105999523Y-120394342D01*
X105999523Y-120394342D02*
X105999523Y-119584819D01*
X106380476Y-119584819D02*
X106999523Y-119584819D01*
X106999523Y-119584819D02*
X106666190Y-119965771D01*
X106666190Y-119965771D02*
X106809047Y-119965771D01*
X106809047Y-119965771D02*
X106904285Y-120013390D01*
X106904285Y-120013390D02*
X106951904Y-120061009D01*
X106951904Y-120061009D02*
X106999523Y-120156247D01*
X106999523Y-120156247D02*
X106999523Y-120394342D01*
X106999523Y-120394342D02*
X106951904Y-120489580D01*
X106951904Y-120489580D02*
X106904285Y-120537200D01*
X106904285Y-120537200D02*
X106809047Y-120584819D01*
X106809047Y-120584819D02*
X106523333Y-120584819D01*
X106523333Y-120584819D02*
X106428095Y-120537200D01*
X106428095Y-120537200D02*
X106380476Y-120489580D01*
X103070952Y-142024819D02*
X103737618Y-142024819D01*
X103737618Y-142024819D02*
X103309047Y-143024819D01*
X104547142Y-142358152D02*
X104547142Y-143024819D01*
X104309047Y-141977200D02*
X104070952Y-142691485D01*
X104070952Y-142691485D02*
X104689999Y-142691485D01*
X105547142Y-143024819D02*
X105070952Y-143024819D01*
X105070952Y-143024819D02*
X105070952Y-142024819D01*
X105832857Y-142977200D02*
X105975714Y-143024819D01*
X105975714Y-143024819D02*
X106213809Y-143024819D01*
X106213809Y-143024819D02*
X106309047Y-142977200D01*
X106309047Y-142977200D02*
X106356666Y-142929580D01*
X106356666Y-142929580D02*
X106404285Y-142834342D01*
X106404285Y-142834342D02*
X106404285Y-142739104D01*
X106404285Y-142739104D02*
X106356666Y-142643866D01*
X106356666Y-142643866D02*
X106309047Y-142596247D01*
X106309047Y-142596247D02*
X106213809Y-142548628D01*
X106213809Y-142548628D02*
X106023333Y-142501009D01*
X106023333Y-142501009D02*
X105928095Y-142453390D01*
X105928095Y-142453390D02*
X105880476Y-142405771D01*
X105880476Y-142405771D02*
X105832857Y-142310533D01*
X105832857Y-142310533D02*
X105832857Y-142215295D01*
X105832857Y-142215295D02*
X105880476Y-142120057D01*
X105880476Y-142120057D02*
X105928095Y-142072438D01*
X105928095Y-142072438D02*
X106023333Y-142024819D01*
X106023333Y-142024819D02*
X106261428Y-142024819D01*
X106261428Y-142024819D02*
X106404285Y-142072438D01*
X107356666Y-143024819D02*
X106785238Y-143024819D01*
X107070952Y-143024819D02*
X107070952Y-142024819D01*
X107070952Y-142024819D02*
X106975714Y-142167676D01*
X106975714Y-142167676D02*
X106880476Y-142262914D01*
X106880476Y-142262914D02*
X106785238Y-142310533D01*
X108261428Y-142024819D02*
X107785238Y-142024819D01*
X107785238Y-142024819D02*
X107737619Y-142501009D01*
X107737619Y-142501009D02*
X107785238Y-142453390D01*
X107785238Y-142453390D02*
X107880476Y-142405771D01*
X107880476Y-142405771D02*
X108118571Y-142405771D01*
X108118571Y-142405771D02*
X108213809Y-142453390D01*
X108213809Y-142453390D02*
X108261428Y-142501009D01*
X108261428Y-142501009D02*
X108309047Y-142596247D01*
X108309047Y-142596247D02*
X108309047Y-142834342D01*
X108309047Y-142834342D02*
X108261428Y-142929580D01*
X108261428Y-142929580D02*
X108213809Y-142977200D01*
X108213809Y-142977200D02*
X108118571Y-143024819D01*
X108118571Y-143024819D02*
X107880476Y-143024819D01*
X107880476Y-143024819D02*
X107785238Y-142977200D01*
X107785238Y-142977200D02*
X107737619Y-142929580D01*
X109213809Y-142024819D02*
X108737619Y-142024819D01*
X108737619Y-142024819D02*
X108690000Y-142501009D01*
X108690000Y-142501009D02*
X108737619Y-142453390D01*
X108737619Y-142453390D02*
X108832857Y-142405771D01*
X108832857Y-142405771D02*
X109070952Y-142405771D01*
X109070952Y-142405771D02*
X109166190Y-142453390D01*
X109166190Y-142453390D02*
X109213809Y-142501009D01*
X109213809Y-142501009D02*
X109261428Y-142596247D01*
X109261428Y-142596247D02*
X109261428Y-142834342D01*
X109261428Y-142834342D02*
X109213809Y-142929580D01*
X109213809Y-142929580D02*
X109166190Y-142977200D01*
X109166190Y-142977200D02*
X109070952Y-143024819D01*
X109070952Y-143024819D02*
X108832857Y-143024819D01*
X108832857Y-143024819D02*
X108737619Y-142977200D01*
X108737619Y-142977200D02*
X108690000Y-142929580D01*
X105638095Y-77429819D02*
X105638095Y-78239342D01*
X105638095Y-78239342D02*
X105685714Y-78334580D01*
X105685714Y-78334580D02*
X105733333Y-78382200D01*
X105733333Y-78382200D02*
X105828571Y-78429819D01*
X105828571Y-78429819D02*
X106019047Y-78429819D01*
X106019047Y-78429819D02*
X106114285Y-78382200D01*
X106114285Y-78382200D02*
X106161904Y-78334580D01*
X106161904Y-78334580D02*
X106209523Y-78239342D01*
X106209523Y-78239342D02*
X106209523Y-77429819D01*
X106733333Y-78429819D02*
X106923809Y-78429819D01*
X106923809Y-78429819D02*
X107019047Y-78382200D01*
X107019047Y-78382200D02*
X107066666Y-78334580D01*
X107066666Y-78334580D02*
X107161904Y-78191723D01*
X107161904Y-78191723D02*
X107209523Y-78001247D01*
X107209523Y-78001247D02*
X107209523Y-77620295D01*
X107209523Y-77620295D02*
X107161904Y-77525057D01*
X107161904Y-77525057D02*
X107114285Y-77477438D01*
X107114285Y-77477438D02*
X107019047Y-77429819D01*
X107019047Y-77429819D02*
X106828571Y-77429819D01*
X106828571Y-77429819D02*
X106733333Y-77477438D01*
X106733333Y-77477438D02*
X106685714Y-77525057D01*
X106685714Y-77525057D02*
X106638095Y-77620295D01*
X106638095Y-77620295D02*
X106638095Y-77858390D01*
X106638095Y-77858390D02*
X106685714Y-77953628D01*
X106685714Y-77953628D02*
X106733333Y-78001247D01*
X106733333Y-78001247D02*
X106828571Y-78048866D01*
X106828571Y-78048866D02*
X107019047Y-78048866D01*
X107019047Y-78048866D02*
X107114285Y-78001247D01*
X107114285Y-78001247D02*
X107161904Y-77953628D01*
X107161904Y-77953628D02*
X107209523Y-77858390D01*
X99900000Y-90882200D02*
X100042857Y-90929819D01*
X100042857Y-90929819D02*
X100280952Y-90929819D01*
X100280952Y-90929819D02*
X100376190Y-90882200D01*
X100376190Y-90882200D02*
X100423809Y-90834580D01*
X100423809Y-90834580D02*
X100471428Y-90739342D01*
X100471428Y-90739342D02*
X100471428Y-90644104D01*
X100471428Y-90644104D02*
X100423809Y-90548866D01*
X100423809Y-90548866D02*
X100376190Y-90501247D01*
X100376190Y-90501247D02*
X100280952Y-90453628D01*
X100280952Y-90453628D02*
X100090476Y-90406009D01*
X100090476Y-90406009D02*
X99995238Y-90358390D01*
X99995238Y-90358390D02*
X99947619Y-90310771D01*
X99947619Y-90310771D02*
X99900000Y-90215533D01*
X99900000Y-90215533D02*
X99900000Y-90120295D01*
X99900000Y-90120295D02*
X99947619Y-90025057D01*
X99947619Y-90025057D02*
X99995238Y-89977438D01*
X99995238Y-89977438D02*
X100090476Y-89929819D01*
X100090476Y-89929819D02*
X100328571Y-89929819D01*
X100328571Y-89929819D02*
X100471428Y-89977438D01*
X100900000Y-90929819D02*
X100900000Y-89929819D01*
X100900000Y-89929819D02*
X101280952Y-89929819D01*
X101280952Y-89929819D02*
X101376190Y-89977438D01*
X101376190Y-89977438D02*
X101423809Y-90025057D01*
X101423809Y-90025057D02*
X101471428Y-90120295D01*
X101471428Y-90120295D02*
X101471428Y-90263152D01*
X101471428Y-90263152D02*
X101423809Y-90358390D01*
X101423809Y-90358390D02*
X101376190Y-90406009D01*
X101376190Y-90406009D02*
X101280952Y-90453628D01*
X101280952Y-90453628D02*
X100900000Y-90453628D01*
X101804762Y-89929819D02*
X102423809Y-89929819D01*
X102423809Y-89929819D02*
X102090476Y-90310771D01*
X102090476Y-90310771D02*
X102233333Y-90310771D01*
X102233333Y-90310771D02*
X102328571Y-90358390D01*
X102328571Y-90358390D02*
X102376190Y-90406009D01*
X102376190Y-90406009D02*
X102423809Y-90501247D01*
X102423809Y-90501247D02*
X102423809Y-90739342D01*
X102423809Y-90739342D02*
X102376190Y-90834580D01*
X102376190Y-90834580D02*
X102328571Y-90882200D01*
X102328571Y-90882200D02*
X102233333Y-90929819D01*
X102233333Y-90929819D02*
X101947619Y-90929819D01*
X101947619Y-90929819D02*
X101852381Y-90882200D01*
X101852381Y-90882200D02*
X101804762Y-90834580D01*
X102804762Y-90025057D02*
X102852381Y-89977438D01*
X102852381Y-89977438D02*
X102947619Y-89929819D01*
X102947619Y-89929819D02*
X103185714Y-89929819D01*
X103185714Y-89929819D02*
X103280952Y-89977438D01*
X103280952Y-89977438D02*
X103328571Y-90025057D01*
X103328571Y-90025057D02*
X103376190Y-90120295D01*
X103376190Y-90120295D02*
X103376190Y-90215533D01*
X103376190Y-90215533D02*
X103328571Y-90358390D01*
X103328571Y-90358390D02*
X102757143Y-90929819D01*
X102757143Y-90929819D02*
X103376190Y-90929819D01*
X104233333Y-90263152D02*
X104233333Y-90929819D01*
X103995238Y-89882200D02*
X103757143Y-90596485D01*
X103757143Y-90596485D02*
X104376190Y-90596485D01*
X104661905Y-89929819D02*
X105280952Y-89929819D01*
X105280952Y-89929819D02*
X104947619Y-90310771D01*
X104947619Y-90310771D02*
X105090476Y-90310771D01*
X105090476Y-90310771D02*
X105185714Y-90358390D01*
X105185714Y-90358390D02*
X105233333Y-90406009D01*
X105233333Y-90406009D02*
X105280952Y-90501247D01*
X105280952Y-90501247D02*
X105280952Y-90739342D01*
X105280952Y-90739342D02*
X105233333Y-90834580D01*
X105233333Y-90834580D02*
X105185714Y-90882200D01*
X105185714Y-90882200D02*
X105090476Y-90929819D01*
X105090476Y-90929819D02*
X104804762Y-90929819D01*
X104804762Y-90929819D02*
X104709524Y-90882200D01*
X104709524Y-90882200D02*
X104661905Y-90834580D01*
X105709524Y-90406009D02*
X106042857Y-90406009D01*
X106185714Y-90929819D02*
X105709524Y-90929819D01*
X105709524Y-90929819D02*
X105709524Y-89929819D01*
X105709524Y-89929819D02*
X106185714Y-89929819D01*
X107185714Y-90834580D02*
X107138095Y-90882200D01*
X107138095Y-90882200D02*
X106995238Y-90929819D01*
X106995238Y-90929819D02*
X106900000Y-90929819D01*
X106900000Y-90929819D02*
X106757143Y-90882200D01*
X106757143Y-90882200D02*
X106661905Y-90786961D01*
X106661905Y-90786961D02*
X106614286Y-90691723D01*
X106614286Y-90691723D02*
X106566667Y-90501247D01*
X106566667Y-90501247D02*
X106566667Y-90358390D01*
X106566667Y-90358390D02*
X106614286Y-90167914D01*
X106614286Y-90167914D02*
X106661905Y-90072676D01*
X106661905Y-90072676D02*
X106757143Y-89977438D01*
X106757143Y-89977438D02*
X106900000Y-89929819D01*
X106900000Y-89929819D02*
X106995238Y-89929819D01*
X106995238Y-89929819D02*
X107138095Y-89977438D01*
X107138095Y-89977438D02*
X107185714Y-90025057D01*
X107566667Y-90644104D02*
X108042857Y-90644104D01*
X107471429Y-90929819D02*
X107804762Y-89929819D01*
X107804762Y-89929819D02*
X108138095Y-90929819D01*
X108471429Y-90548866D02*
X109233334Y-90548866D01*
X110185714Y-90929819D02*
X109709524Y-90929819D01*
X109709524Y-90929819D02*
X109709524Y-89929819D01*
X111233333Y-89882200D02*
X110376191Y-91167914D01*
X111423810Y-89929819D02*
X111995238Y-89929819D01*
X111709524Y-90929819D02*
X111709524Y-89929819D01*
X112900000Y-90929819D02*
X112566667Y-90453628D01*
X112328572Y-90929819D02*
X112328572Y-89929819D01*
X112328572Y-89929819D02*
X112709524Y-89929819D01*
X112709524Y-89929819D02*
X112804762Y-89977438D01*
X112804762Y-89977438D02*
X112852381Y-90025057D01*
X112852381Y-90025057D02*
X112900000Y-90120295D01*
X112900000Y-90120295D02*
X112900000Y-90263152D01*
X112900000Y-90263152D02*
X112852381Y-90358390D01*
X112852381Y-90358390D02*
X112804762Y-90406009D01*
X112804762Y-90406009D02*
X112709524Y-90453628D01*
X112709524Y-90453628D02*
X112328572Y-90453628D01*
X187504819Y-133381904D02*
X188314342Y-133381904D01*
X188314342Y-133381904D02*
X188409580Y-133334285D01*
X188409580Y-133334285D02*
X188457200Y-133286666D01*
X188457200Y-133286666D02*
X188504819Y-133191428D01*
X188504819Y-133191428D02*
X188504819Y-133000952D01*
X188504819Y-133000952D02*
X188457200Y-132905714D01*
X188457200Y-132905714D02*
X188409580Y-132858095D01*
X188409580Y-132858095D02*
X188314342Y-132810476D01*
X188314342Y-132810476D02*
X187504819Y-132810476D01*
X188504819Y-131810476D02*
X188504819Y-132381904D01*
X188504819Y-132096190D02*
X187504819Y-132096190D01*
X187504819Y-132096190D02*
X187647676Y-132191428D01*
X187647676Y-132191428D02*
X187742914Y-132286666D01*
X187742914Y-132286666D02*
X187790533Y-132381904D01*
X135584819Y-135310475D02*
X134584819Y-135310475D01*
X135061009Y-135310475D02*
X135061009Y-134739047D01*
X135584819Y-134739047D02*
X134584819Y-134739047D01*
X135584819Y-134262856D02*
X134584819Y-134262856D01*
X134584819Y-134262856D02*
X134584819Y-134024761D01*
X134584819Y-134024761D02*
X134632438Y-133881904D01*
X134632438Y-133881904D02*
X134727676Y-133786666D01*
X134727676Y-133786666D02*
X134822914Y-133739047D01*
X134822914Y-133739047D02*
X135013390Y-133691428D01*
X135013390Y-133691428D02*
X135156247Y-133691428D01*
X135156247Y-133691428D02*
X135346723Y-133739047D01*
X135346723Y-133739047D02*
X135441961Y-133786666D01*
X135441961Y-133786666D02*
X135537200Y-133881904D01*
X135537200Y-133881904D02*
X135584819Y-134024761D01*
X135584819Y-134024761D02*
X135584819Y-134262856D01*
X134584819Y-132834285D02*
X134584819Y-133024761D01*
X134584819Y-133024761D02*
X134632438Y-133119999D01*
X134632438Y-133119999D02*
X134680057Y-133167618D01*
X134680057Y-133167618D02*
X134822914Y-133262856D01*
X134822914Y-133262856D02*
X135013390Y-133310475D01*
X135013390Y-133310475D02*
X135394342Y-133310475D01*
X135394342Y-133310475D02*
X135489580Y-133262856D01*
X135489580Y-133262856D02*
X135537200Y-133215237D01*
X135537200Y-133215237D02*
X135584819Y-133119999D01*
X135584819Y-133119999D02*
X135584819Y-132929523D01*
X135584819Y-132929523D02*
X135537200Y-132834285D01*
X135537200Y-132834285D02*
X135489580Y-132786666D01*
X135489580Y-132786666D02*
X135394342Y-132739047D01*
X135394342Y-132739047D02*
X135156247Y-132739047D01*
X135156247Y-132739047D02*
X135061009Y-132786666D01*
X135061009Y-132786666D02*
X135013390Y-132834285D01*
X135013390Y-132834285D02*
X134965771Y-132929523D01*
X134965771Y-132929523D02*
X134965771Y-133119999D01*
X134965771Y-133119999D02*
X135013390Y-133215237D01*
X135013390Y-133215237D02*
X135061009Y-133262856D01*
X135061009Y-133262856D02*
X135156247Y-133310475D01*
X134918152Y-131881904D02*
X135584819Y-131881904D01*
X134537200Y-132119999D02*
X135251485Y-132358094D01*
X135251485Y-132358094D02*
X135251485Y-131739047D01*
X134584819Y-131167618D02*
X134584819Y-131072380D01*
X134584819Y-131072380D02*
X134632438Y-130977142D01*
X134632438Y-130977142D02*
X134680057Y-130929523D01*
X134680057Y-130929523D02*
X134775295Y-130881904D01*
X134775295Y-130881904D02*
X134965771Y-130834285D01*
X134965771Y-130834285D02*
X135203866Y-130834285D01*
X135203866Y-130834285D02*
X135394342Y-130881904D01*
X135394342Y-130881904D02*
X135489580Y-130929523D01*
X135489580Y-130929523D02*
X135537200Y-130977142D01*
X135537200Y-130977142D02*
X135584819Y-131072380D01*
X135584819Y-131072380D02*
X135584819Y-131167618D01*
X135584819Y-131167618D02*
X135537200Y-131262856D01*
X135537200Y-131262856D02*
X135489580Y-131310475D01*
X135489580Y-131310475D02*
X135394342Y-131358094D01*
X135394342Y-131358094D02*
X135203866Y-131405713D01*
X135203866Y-131405713D02*
X134965771Y-131405713D01*
X134965771Y-131405713D02*
X134775295Y-131358094D01*
X134775295Y-131358094D02*
X134680057Y-131310475D01*
X134680057Y-131310475D02*
X134632438Y-131262856D01*
X134632438Y-131262856D02*
X134584819Y-131167618D01*
X134680057Y-130453332D02*
X134632438Y-130405713D01*
X134632438Y-130405713D02*
X134584819Y-130310475D01*
X134584819Y-130310475D02*
X134584819Y-130072380D01*
X134584819Y-130072380D02*
X134632438Y-129977142D01*
X134632438Y-129977142D02*
X134680057Y-129929523D01*
X134680057Y-129929523D02*
X134775295Y-129881904D01*
X134775295Y-129881904D02*
X134870533Y-129881904D01*
X134870533Y-129881904D02*
X135013390Y-129929523D01*
X135013390Y-129929523D02*
X135584819Y-130500951D01*
X135584819Y-130500951D02*
X135584819Y-129881904D01*
D12*
X81246666Y-99607419D02*
X81246666Y-100321704D01*
X81246666Y-100321704D02*
X81199047Y-100464561D01*
X81199047Y-100464561D02*
X81103809Y-100559800D01*
X81103809Y-100559800D02*
X80960952Y-100607419D01*
X80960952Y-100607419D02*
X80865714Y-100607419D01*
X82246666Y-100607419D02*
X81675238Y-100607419D01*
X81960952Y-100607419D02*
X81960952Y-99607419D01*
X81960952Y-99607419D02*
X81865714Y-99750276D01*
X81865714Y-99750276D02*
X81770476Y-99845514D01*
X81770476Y-99845514D02*
X81675238Y-99893133D01*
D11*
X81318095Y-97683866D02*
X81365714Y-97636247D01*
X81365714Y-97636247D02*
X81460952Y-97588628D01*
X81460952Y-97588628D02*
X81651428Y-97683866D01*
X81651428Y-97683866D02*
X81746666Y-97636247D01*
X81746666Y-97636247D02*
X81794285Y-97588628D01*
X81246666Y-94524819D02*
X81246666Y-95239104D01*
X81246666Y-95239104D02*
X81199047Y-95381961D01*
X81199047Y-95381961D02*
X81103809Y-95477200D01*
X81103809Y-95477200D02*
X80960952Y-95524819D01*
X80960952Y-95524819D02*
X80865714Y-95524819D01*
X82246666Y-95524819D02*
X81675238Y-95524819D01*
X81960952Y-95524819D02*
X81960952Y-94524819D01*
X81960952Y-94524819D02*
X81865714Y-94667676D01*
X81865714Y-94667676D02*
X81770476Y-94762914D01*
X81770476Y-94762914D02*
X81675238Y-94810533D01*
X95179580Y-81954166D02*
X95227200Y-82001785D01*
X95227200Y-82001785D02*
X95274819Y-82144642D01*
X95274819Y-82144642D02*
X95274819Y-82239880D01*
X95274819Y-82239880D02*
X95227200Y-82382737D01*
X95227200Y-82382737D02*
X95131961Y-82477975D01*
X95131961Y-82477975D02*
X95036723Y-82525594D01*
X95036723Y-82525594D02*
X94846247Y-82573213D01*
X94846247Y-82573213D02*
X94703390Y-82573213D01*
X94703390Y-82573213D02*
X94512914Y-82525594D01*
X94512914Y-82525594D02*
X94417676Y-82477975D01*
X94417676Y-82477975D02*
X94322438Y-82382737D01*
X94322438Y-82382737D02*
X94274819Y-82239880D01*
X94274819Y-82239880D02*
X94274819Y-82144642D01*
X94274819Y-82144642D02*
X94322438Y-82001785D01*
X94322438Y-82001785D02*
X94370057Y-81954166D01*
X95274819Y-81477975D02*
X95274819Y-81287499D01*
X95274819Y-81287499D02*
X95227200Y-81192261D01*
X95227200Y-81192261D02*
X95179580Y-81144642D01*
X95179580Y-81144642D02*
X95036723Y-81049404D01*
X95036723Y-81049404D02*
X94846247Y-81001785D01*
X94846247Y-81001785D02*
X94465295Y-81001785D01*
X94465295Y-81001785D02*
X94370057Y-81049404D01*
X94370057Y-81049404D02*
X94322438Y-81097023D01*
X94322438Y-81097023D02*
X94274819Y-81192261D01*
X94274819Y-81192261D02*
X94274819Y-81382737D01*
X94274819Y-81382737D02*
X94322438Y-81477975D01*
X94322438Y-81477975D02*
X94370057Y-81525594D01*
X94370057Y-81525594D02*
X94465295Y-81573213D01*
X94465295Y-81573213D02*
X94703390Y-81573213D01*
X94703390Y-81573213D02*
X94798628Y-81525594D01*
X94798628Y-81525594D02*
X94846247Y-81477975D01*
X94846247Y-81477975D02*
X94893866Y-81382737D01*
X94893866Y-81382737D02*
X94893866Y-81192261D01*
X94893866Y-81192261D02*
X94846247Y-81097023D01*
X94846247Y-81097023D02*
X94798628Y-81049404D01*
X94798628Y-81049404D02*
X94703390Y-81001785D01*
X97634819Y-83430356D02*
X97634819Y-83335118D01*
X97634819Y-83335118D02*
X97682438Y-83239880D01*
X97682438Y-83239880D02*
X97730057Y-83192261D01*
X97730057Y-83192261D02*
X97825295Y-83144642D01*
X97825295Y-83144642D02*
X98015771Y-83097023D01*
X98015771Y-83097023D02*
X98253866Y-83097023D01*
X98253866Y-83097023D02*
X98444342Y-83144642D01*
X98444342Y-83144642D02*
X98539580Y-83192261D01*
X98539580Y-83192261D02*
X98587200Y-83239880D01*
X98587200Y-83239880D02*
X98634819Y-83335118D01*
X98634819Y-83335118D02*
X98634819Y-83430356D01*
X98634819Y-83430356D02*
X98587200Y-83525594D01*
X98587200Y-83525594D02*
X98539580Y-83573213D01*
X98539580Y-83573213D02*
X98444342Y-83620832D01*
X98444342Y-83620832D02*
X98253866Y-83668451D01*
X98253866Y-83668451D02*
X98015771Y-83668451D01*
X98015771Y-83668451D02*
X97825295Y-83620832D01*
X97825295Y-83620832D02*
X97730057Y-83573213D01*
X97730057Y-83573213D02*
X97682438Y-83525594D01*
X97682438Y-83525594D02*
X97634819Y-83430356D01*
X98539580Y-82668451D02*
X98587200Y-82620832D01*
X98587200Y-82620832D02*
X98634819Y-82668451D01*
X98634819Y-82668451D02*
X98587200Y-82716070D01*
X98587200Y-82716070D02*
X98539580Y-82668451D01*
X98539580Y-82668451D02*
X98634819Y-82668451D01*
X98634819Y-81668452D02*
X98634819Y-82239880D01*
X98634819Y-81954166D02*
X97634819Y-81954166D01*
X97634819Y-81954166D02*
X97777676Y-82049404D01*
X97777676Y-82049404D02*
X97872914Y-82144642D01*
X97872914Y-82144642D02*
X97920533Y-82239880D01*
X97968152Y-80811309D02*
X98634819Y-80811309D01*
X97968152Y-81239880D02*
X98491961Y-81239880D01*
X98491961Y-81239880D02*
X98587200Y-81192261D01*
X98587200Y-81192261D02*
X98634819Y-81097023D01*
X98634819Y-81097023D02*
X98634819Y-80954166D01*
X98634819Y-80954166D02*
X98587200Y-80858928D01*
X98587200Y-80858928D02*
X98539580Y-80811309D01*
X98111009Y-80001785D02*
X98111009Y-80335118D01*
X98634819Y-80335118D02*
X97634819Y-80335118D01*
X97634819Y-80335118D02*
X97634819Y-79858928D01*
X135204819Y-100966666D02*
X134728628Y-101299999D01*
X135204819Y-101538094D02*
X134204819Y-101538094D01*
X134204819Y-101538094D02*
X134204819Y-101157142D01*
X134204819Y-101157142D02*
X134252438Y-101061904D01*
X134252438Y-101061904D02*
X134300057Y-101014285D01*
X134300057Y-101014285D02*
X134395295Y-100966666D01*
X134395295Y-100966666D02*
X134538152Y-100966666D01*
X134538152Y-100966666D02*
X134633390Y-101014285D01*
X134633390Y-101014285D02*
X134681009Y-101061904D01*
X134681009Y-101061904D02*
X134728628Y-101157142D01*
X134728628Y-101157142D02*
X134728628Y-101538094D01*
X135204819Y-100014285D02*
X135204819Y-100585713D01*
X135204819Y-100299999D02*
X134204819Y-100299999D01*
X134204819Y-100299999D02*
X134347676Y-100395237D01*
X134347676Y-100395237D02*
X134442914Y-100490475D01*
X134442914Y-100490475D02*
X134490533Y-100585713D01*
X131238152Y-101823809D02*
X131904819Y-101823809D01*
X130857200Y-102061904D02*
X131571485Y-102299999D01*
X131571485Y-102299999D02*
X131571485Y-101680952D01*
X131809580Y-101299999D02*
X131857200Y-101252380D01*
X131857200Y-101252380D02*
X131904819Y-101299999D01*
X131904819Y-101299999D02*
X131857200Y-101347618D01*
X131857200Y-101347618D02*
X131809580Y-101299999D01*
X131809580Y-101299999D02*
X131904819Y-101299999D01*
X130904819Y-100919047D02*
X130904819Y-100252381D01*
X130904819Y-100252381D02*
X131904819Y-100680952D01*
X131904819Y-99871428D02*
X130904819Y-99871428D01*
X131904819Y-99300000D02*
X131333390Y-99728571D01*
X130904819Y-99300000D02*
X131476247Y-99871428D01*
X178048095Y-91884819D02*
X178048095Y-92694342D01*
X178048095Y-92694342D02*
X178095714Y-92789580D01*
X178095714Y-92789580D02*
X178143333Y-92837200D01*
X178143333Y-92837200D02*
X178238571Y-92884819D01*
X178238571Y-92884819D02*
X178429047Y-92884819D01*
X178429047Y-92884819D02*
X178524285Y-92837200D01*
X178524285Y-92837200D02*
X178571904Y-92789580D01*
X178571904Y-92789580D02*
X178619523Y-92694342D01*
X178619523Y-92694342D02*
X178619523Y-91884819D01*
X179048095Y-91980057D02*
X179095714Y-91932438D01*
X179095714Y-91932438D02*
X179190952Y-91884819D01*
X179190952Y-91884819D02*
X179429047Y-91884819D01*
X179429047Y-91884819D02*
X179524285Y-91932438D01*
X179524285Y-91932438D02*
X179571904Y-91980057D01*
X179571904Y-91980057D02*
X179619523Y-92075295D01*
X179619523Y-92075295D02*
X179619523Y-92170533D01*
X179619523Y-92170533D02*
X179571904Y-92313390D01*
X179571904Y-92313390D02*
X179000476Y-92884819D01*
X179000476Y-92884819D02*
X179619523Y-92884819D01*
X176119523Y-117769580D02*
X176071904Y-117817200D01*
X176071904Y-117817200D02*
X175929047Y-117864819D01*
X175929047Y-117864819D02*
X175833809Y-117864819D01*
X175833809Y-117864819D02*
X175690952Y-117817200D01*
X175690952Y-117817200D02*
X175595714Y-117721961D01*
X175595714Y-117721961D02*
X175548095Y-117626723D01*
X175548095Y-117626723D02*
X175500476Y-117436247D01*
X175500476Y-117436247D02*
X175500476Y-117293390D01*
X175500476Y-117293390D02*
X175548095Y-117102914D01*
X175548095Y-117102914D02*
X175595714Y-117007676D01*
X175595714Y-117007676D02*
X175690952Y-116912438D01*
X175690952Y-116912438D02*
X175833809Y-116864819D01*
X175833809Y-116864819D02*
X175929047Y-116864819D01*
X175929047Y-116864819D02*
X176071904Y-116912438D01*
X176071904Y-116912438D02*
X176119523Y-116960057D01*
X176738571Y-116864819D02*
X176929047Y-116864819D01*
X176929047Y-116864819D02*
X177024285Y-116912438D01*
X177024285Y-116912438D02*
X177119523Y-117007676D01*
X177119523Y-117007676D02*
X177167142Y-117198152D01*
X177167142Y-117198152D02*
X177167142Y-117531485D01*
X177167142Y-117531485D02*
X177119523Y-117721961D01*
X177119523Y-117721961D02*
X177024285Y-117817200D01*
X177024285Y-117817200D02*
X176929047Y-117864819D01*
X176929047Y-117864819D02*
X176738571Y-117864819D01*
X176738571Y-117864819D02*
X176643333Y-117817200D01*
X176643333Y-117817200D02*
X176548095Y-117721961D01*
X176548095Y-117721961D02*
X176500476Y-117531485D01*
X176500476Y-117531485D02*
X176500476Y-117198152D01*
X176500476Y-117198152D02*
X176548095Y-117007676D01*
X176548095Y-117007676D02*
X176643333Y-116912438D01*
X176643333Y-116912438D02*
X176738571Y-116864819D01*
X177595714Y-117864819D02*
X177595714Y-116864819D01*
X177595714Y-116864819D02*
X177929047Y-117579104D01*
X177929047Y-117579104D02*
X178262380Y-116864819D01*
X178262380Y-116864819D02*
X178262380Y-117864819D01*
X178881428Y-117293390D02*
X178786190Y-117245771D01*
X178786190Y-117245771D02*
X178738571Y-117198152D01*
X178738571Y-117198152D02*
X178690952Y-117102914D01*
X178690952Y-117102914D02*
X178690952Y-117055295D01*
X178690952Y-117055295D02*
X178738571Y-116960057D01*
X178738571Y-116960057D02*
X178786190Y-116912438D01*
X178786190Y-116912438D02*
X178881428Y-116864819D01*
X178881428Y-116864819D02*
X179071904Y-116864819D01*
X179071904Y-116864819D02*
X179167142Y-116912438D01*
X179167142Y-116912438D02*
X179214761Y-116960057D01*
X179214761Y-116960057D02*
X179262380Y-117055295D01*
X179262380Y-117055295D02*
X179262380Y-117102914D01*
X179262380Y-117102914D02*
X179214761Y-117198152D01*
X179214761Y-117198152D02*
X179167142Y-117245771D01*
X179167142Y-117245771D02*
X179071904Y-117293390D01*
X179071904Y-117293390D02*
X178881428Y-117293390D01*
X178881428Y-117293390D02*
X178786190Y-117341009D01*
X178786190Y-117341009D02*
X178738571Y-117388628D01*
X178738571Y-117388628D02*
X178690952Y-117483866D01*
X178690952Y-117483866D02*
X178690952Y-117674342D01*
X178690952Y-117674342D02*
X178738571Y-117769580D01*
X178738571Y-117769580D02*
X178786190Y-117817200D01*
X178786190Y-117817200D02*
X178881428Y-117864819D01*
X178881428Y-117864819D02*
X179071904Y-117864819D01*
X179071904Y-117864819D02*
X179167142Y-117817200D01*
X179167142Y-117817200D02*
X179214761Y-117769580D01*
X179214761Y-117769580D02*
X179262380Y-117674342D01*
X179262380Y-117674342D02*
X179262380Y-117483866D01*
X179262380Y-117483866D02*
X179214761Y-117388628D01*
X179214761Y-117388628D02*
X179167142Y-117341009D01*
X179167142Y-117341009D02*
X179071904Y-117293390D01*
X180214761Y-117864819D02*
X179643333Y-117864819D01*
X179929047Y-117864819D02*
X179929047Y-116864819D01*
X179929047Y-116864819D02*
X179833809Y-117007676D01*
X179833809Y-117007676D02*
X179738571Y-117102914D01*
X179738571Y-117102914D02*
X179643333Y-117150533D01*
X181167142Y-117864819D02*
X180595714Y-117864819D01*
X180881428Y-117864819D02*
X180881428Y-116864819D01*
X180881428Y-116864819D02*
X180786190Y-117007676D01*
X180786190Y-117007676D02*
X180690952Y-117102914D01*
X180690952Y-117102914D02*
X180595714Y-117150533D01*
X182024285Y-116864819D02*
X181833809Y-116864819D01*
X181833809Y-116864819D02*
X181738571Y-116912438D01*
X181738571Y-116912438D02*
X181690952Y-116960057D01*
X181690952Y-116960057D02*
X181595714Y-117102914D01*
X181595714Y-117102914D02*
X181548095Y-117293390D01*
X181548095Y-117293390D02*
X181548095Y-117674342D01*
X181548095Y-117674342D02*
X181595714Y-117769580D01*
X181595714Y-117769580D02*
X181643333Y-117817200D01*
X181643333Y-117817200D02*
X181738571Y-117864819D01*
X181738571Y-117864819D02*
X181929047Y-117864819D01*
X181929047Y-117864819D02*
X182024285Y-117817200D01*
X182024285Y-117817200D02*
X182071904Y-117769580D01*
X182071904Y-117769580D02*
X182119523Y-117674342D01*
X182119523Y-117674342D02*
X182119523Y-117436247D01*
X182119523Y-117436247D02*
X182071904Y-117341009D01*
X182071904Y-117341009D02*
X182024285Y-117293390D01*
X182024285Y-117293390D02*
X181929047Y-117245771D01*
X181929047Y-117245771D02*
X181738571Y-117245771D01*
X181738571Y-117245771D02*
X181643333Y-117293390D01*
X181643333Y-117293390D02*
X181595714Y-117341009D01*
X181595714Y-117341009D02*
X181548095Y-117436247D01*
X146236905Y-97984819D02*
X146236905Y-98794342D01*
X146236905Y-98794342D02*
X146284524Y-98889580D01*
X146284524Y-98889580D02*
X146332143Y-98937200D01*
X146332143Y-98937200D02*
X146427381Y-98984819D01*
X146427381Y-98984819D02*
X146617857Y-98984819D01*
X146617857Y-98984819D02*
X146713095Y-98937200D01*
X146713095Y-98937200D02*
X146760714Y-98889580D01*
X146760714Y-98889580D02*
X146808333Y-98794342D01*
X146808333Y-98794342D02*
X146808333Y-97984819D01*
X147808333Y-98984819D02*
X147236905Y-98984819D01*
X147522619Y-98984819D02*
X147522619Y-97984819D01*
X147522619Y-97984819D02*
X147427381Y-98127676D01*
X147427381Y-98127676D02*
X147332143Y-98222914D01*
X147332143Y-98222914D02*
X147236905Y-98270533D01*
X148427381Y-97984819D02*
X148522619Y-97984819D01*
X148522619Y-97984819D02*
X148617857Y-98032438D01*
X148617857Y-98032438D02*
X148665476Y-98080057D01*
X148665476Y-98080057D02*
X148713095Y-98175295D01*
X148713095Y-98175295D02*
X148760714Y-98365771D01*
X148760714Y-98365771D02*
X148760714Y-98603866D01*
X148760714Y-98603866D02*
X148713095Y-98794342D01*
X148713095Y-98794342D02*
X148665476Y-98889580D01*
X148665476Y-98889580D02*
X148617857Y-98937200D01*
X148617857Y-98937200D02*
X148522619Y-98984819D01*
X148522619Y-98984819D02*
X148427381Y-98984819D01*
X148427381Y-98984819D02*
X148332143Y-98937200D01*
X148332143Y-98937200D02*
X148284524Y-98889580D01*
X148284524Y-98889580D02*
X148236905Y-98794342D01*
X148236905Y-98794342D02*
X148189286Y-98603866D01*
X148189286Y-98603866D02*
X148189286Y-98365771D01*
X148189286Y-98365771D02*
X148236905Y-98175295D01*
X148236905Y-98175295D02*
X148284524Y-98080057D01*
X148284524Y-98080057D02*
X148332143Y-98032438D01*
X148332143Y-98032438D02*
X148427381Y-97984819D01*
X144832143Y-108544819D02*
X145498809Y-108544819D01*
X145498809Y-108544819D02*
X145070238Y-109544819D01*
X146308333Y-108878152D02*
X146308333Y-109544819D01*
X146070238Y-108497200D02*
X145832143Y-109211485D01*
X145832143Y-109211485D02*
X146451190Y-109211485D01*
X147308333Y-109544819D02*
X146832143Y-109544819D01*
X146832143Y-109544819D02*
X146832143Y-108544819D01*
X147594048Y-109497200D02*
X147736905Y-109544819D01*
X147736905Y-109544819D02*
X147975000Y-109544819D01*
X147975000Y-109544819D02*
X148070238Y-109497200D01*
X148070238Y-109497200D02*
X148117857Y-109449580D01*
X148117857Y-109449580D02*
X148165476Y-109354342D01*
X148165476Y-109354342D02*
X148165476Y-109259104D01*
X148165476Y-109259104D02*
X148117857Y-109163866D01*
X148117857Y-109163866D02*
X148070238Y-109116247D01*
X148070238Y-109116247D02*
X147975000Y-109068628D01*
X147975000Y-109068628D02*
X147784524Y-109021009D01*
X147784524Y-109021009D02*
X147689286Y-108973390D01*
X147689286Y-108973390D02*
X147641667Y-108925771D01*
X147641667Y-108925771D02*
X147594048Y-108830533D01*
X147594048Y-108830533D02*
X147594048Y-108735295D01*
X147594048Y-108735295D02*
X147641667Y-108640057D01*
X147641667Y-108640057D02*
X147689286Y-108592438D01*
X147689286Y-108592438D02*
X147784524Y-108544819D01*
X147784524Y-108544819D02*
X148022619Y-108544819D01*
X148022619Y-108544819D02*
X148165476Y-108592438D01*
X148784524Y-108544819D02*
X148879762Y-108544819D01*
X148879762Y-108544819D02*
X148975000Y-108592438D01*
X148975000Y-108592438D02*
X149022619Y-108640057D01*
X149022619Y-108640057D02*
X149070238Y-108735295D01*
X149070238Y-108735295D02*
X149117857Y-108925771D01*
X149117857Y-108925771D02*
X149117857Y-109163866D01*
X149117857Y-109163866D02*
X149070238Y-109354342D01*
X149070238Y-109354342D02*
X149022619Y-109449580D01*
X149022619Y-109449580D02*
X148975000Y-109497200D01*
X148975000Y-109497200D02*
X148879762Y-109544819D01*
X148879762Y-109544819D02*
X148784524Y-109544819D01*
X148784524Y-109544819D02*
X148689286Y-109497200D01*
X148689286Y-109497200D02*
X148641667Y-109449580D01*
X148641667Y-109449580D02*
X148594048Y-109354342D01*
X148594048Y-109354342D02*
X148546429Y-109163866D01*
X148546429Y-109163866D02*
X148546429Y-108925771D01*
X148546429Y-108925771D02*
X148594048Y-108735295D01*
X148594048Y-108735295D02*
X148641667Y-108640057D01*
X148641667Y-108640057D02*
X148689286Y-108592438D01*
X148689286Y-108592438D02*
X148784524Y-108544819D01*
X149689286Y-108973390D02*
X149594048Y-108925771D01*
X149594048Y-108925771D02*
X149546429Y-108878152D01*
X149546429Y-108878152D02*
X149498810Y-108782914D01*
X149498810Y-108782914D02*
X149498810Y-108735295D01*
X149498810Y-108735295D02*
X149546429Y-108640057D01*
X149546429Y-108640057D02*
X149594048Y-108592438D01*
X149594048Y-108592438D02*
X149689286Y-108544819D01*
X149689286Y-108544819D02*
X149879762Y-108544819D01*
X149879762Y-108544819D02*
X149975000Y-108592438D01*
X149975000Y-108592438D02*
X150022619Y-108640057D01*
X150022619Y-108640057D02*
X150070238Y-108735295D01*
X150070238Y-108735295D02*
X150070238Y-108782914D01*
X150070238Y-108782914D02*
X150022619Y-108878152D01*
X150022619Y-108878152D02*
X149975000Y-108925771D01*
X149975000Y-108925771D02*
X149879762Y-108973390D01*
X149879762Y-108973390D02*
X149689286Y-108973390D01*
X149689286Y-108973390D02*
X149594048Y-109021009D01*
X149594048Y-109021009D02*
X149546429Y-109068628D01*
X149546429Y-109068628D02*
X149498810Y-109163866D01*
X149498810Y-109163866D02*
X149498810Y-109354342D01*
X149498810Y-109354342D02*
X149546429Y-109449580D01*
X149546429Y-109449580D02*
X149594048Y-109497200D01*
X149594048Y-109497200D02*
X149689286Y-109544819D01*
X149689286Y-109544819D02*
X149879762Y-109544819D01*
X149879762Y-109544819D02*
X149975000Y-109497200D01*
X149975000Y-109497200D02*
X150022619Y-109449580D01*
X150022619Y-109449580D02*
X150070238Y-109354342D01*
X150070238Y-109354342D02*
X150070238Y-109163866D01*
X150070238Y-109163866D02*
X150022619Y-109068628D01*
X150022619Y-109068628D02*
X149975000Y-109021009D01*
X149975000Y-109021009D02*
X149879762Y-108973390D01*
X126713095Y-97984819D02*
X126713095Y-98794342D01*
X126713095Y-98794342D02*
X126760714Y-98889580D01*
X126760714Y-98889580D02*
X126808333Y-98937200D01*
X126808333Y-98937200D02*
X126903571Y-98984819D01*
X126903571Y-98984819D02*
X127094047Y-98984819D01*
X127094047Y-98984819D02*
X127189285Y-98937200D01*
X127189285Y-98937200D02*
X127236904Y-98889580D01*
X127236904Y-98889580D02*
X127284523Y-98794342D01*
X127284523Y-98794342D02*
X127284523Y-97984819D01*
X128236904Y-97984819D02*
X127760714Y-97984819D01*
X127760714Y-97984819D02*
X127713095Y-98461009D01*
X127713095Y-98461009D02*
X127760714Y-98413390D01*
X127760714Y-98413390D02*
X127855952Y-98365771D01*
X127855952Y-98365771D02*
X128094047Y-98365771D01*
X128094047Y-98365771D02*
X128189285Y-98413390D01*
X128189285Y-98413390D02*
X128236904Y-98461009D01*
X128236904Y-98461009D02*
X128284523Y-98556247D01*
X128284523Y-98556247D02*
X128284523Y-98794342D01*
X128284523Y-98794342D02*
X128236904Y-98889580D01*
X128236904Y-98889580D02*
X128189285Y-98937200D01*
X128189285Y-98937200D02*
X128094047Y-98984819D01*
X128094047Y-98984819D02*
X127855952Y-98984819D01*
X127855952Y-98984819D02*
X127760714Y-98937200D01*
X127760714Y-98937200D02*
X127713095Y-98889580D01*
X124832143Y-108544819D02*
X125498809Y-108544819D01*
X125498809Y-108544819D02*
X125070238Y-109544819D01*
X126308333Y-108878152D02*
X126308333Y-109544819D01*
X126070238Y-108497200D02*
X125832143Y-109211485D01*
X125832143Y-109211485D02*
X126451190Y-109211485D01*
X127308333Y-109544819D02*
X126832143Y-109544819D01*
X126832143Y-109544819D02*
X126832143Y-108544819D01*
X127594048Y-109497200D02*
X127736905Y-109544819D01*
X127736905Y-109544819D02*
X127975000Y-109544819D01*
X127975000Y-109544819D02*
X128070238Y-109497200D01*
X128070238Y-109497200D02*
X128117857Y-109449580D01*
X128117857Y-109449580D02*
X128165476Y-109354342D01*
X128165476Y-109354342D02*
X128165476Y-109259104D01*
X128165476Y-109259104D02*
X128117857Y-109163866D01*
X128117857Y-109163866D02*
X128070238Y-109116247D01*
X128070238Y-109116247D02*
X127975000Y-109068628D01*
X127975000Y-109068628D02*
X127784524Y-109021009D01*
X127784524Y-109021009D02*
X127689286Y-108973390D01*
X127689286Y-108973390D02*
X127641667Y-108925771D01*
X127641667Y-108925771D02*
X127594048Y-108830533D01*
X127594048Y-108830533D02*
X127594048Y-108735295D01*
X127594048Y-108735295D02*
X127641667Y-108640057D01*
X127641667Y-108640057D02*
X127689286Y-108592438D01*
X127689286Y-108592438D02*
X127784524Y-108544819D01*
X127784524Y-108544819D02*
X128022619Y-108544819D01*
X128022619Y-108544819D02*
X128165476Y-108592438D01*
X128784524Y-108544819D02*
X128879762Y-108544819D01*
X128879762Y-108544819D02*
X128975000Y-108592438D01*
X128975000Y-108592438D02*
X129022619Y-108640057D01*
X129022619Y-108640057D02*
X129070238Y-108735295D01*
X129070238Y-108735295D02*
X129117857Y-108925771D01*
X129117857Y-108925771D02*
X129117857Y-109163866D01*
X129117857Y-109163866D02*
X129070238Y-109354342D01*
X129070238Y-109354342D02*
X129022619Y-109449580D01*
X129022619Y-109449580D02*
X128975000Y-109497200D01*
X128975000Y-109497200D02*
X128879762Y-109544819D01*
X128879762Y-109544819D02*
X128784524Y-109544819D01*
X128784524Y-109544819D02*
X128689286Y-109497200D01*
X128689286Y-109497200D02*
X128641667Y-109449580D01*
X128641667Y-109449580D02*
X128594048Y-109354342D01*
X128594048Y-109354342D02*
X128546429Y-109163866D01*
X128546429Y-109163866D02*
X128546429Y-108925771D01*
X128546429Y-108925771D02*
X128594048Y-108735295D01*
X128594048Y-108735295D02*
X128641667Y-108640057D01*
X128641667Y-108640057D02*
X128689286Y-108592438D01*
X128689286Y-108592438D02*
X128784524Y-108544819D01*
X129736905Y-108544819D02*
X129832143Y-108544819D01*
X129832143Y-108544819D02*
X129927381Y-108592438D01*
X129927381Y-108592438D02*
X129975000Y-108640057D01*
X129975000Y-108640057D02*
X130022619Y-108735295D01*
X130022619Y-108735295D02*
X130070238Y-108925771D01*
X130070238Y-108925771D02*
X130070238Y-109163866D01*
X130070238Y-109163866D02*
X130022619Y-109354342D01*
X130022619Y-109354342D02*
X129975000Y-109449580D01*
X129975000Y-109449580D02*
X129927381Y-109497200D01*
X129927381Y-109497200D02*
X129832143Y-109544819D01*
X129832143Y-109544819D02*
X129736905Y-109544819D01*
X129736905Y-109544819D02*
X129641667Y-109497200D01*
X129641667Y-109497200D02*
X129594048Y-109449580D01*
X129594048Y-109449580D02*
X129546429Y-109354342D01*
X129546429Y-109354342D02*
X129498810Y-109163866D01*
X129498810Y-109163866D02*
X129498810Y-108925771D01*
X129498810Y-108925771D02*
X129546429Y-108735295D01*
X129546429Y-108735295D02*
X129594048Y-108640057D01*
X129594048Y-108640057D02*
X129641667Y-108592438D01*
X129641667Y-108592438D02*
X129736905Y-108544819D01*
X148888095Y-77659819D02*
X148888095Y-78469342D01*
X148888095Y-78469342D02*
X148935714Y-78564580D01*
X148935714Y-78564580D02*
X148983333Y-78612200D01*
X148983333Y-78612200D02*
X149078571Y-78659819D01*
X149078571Y-78659819D02*
X149269047Y-78659819D01*
X149269047Y-78659819D02*
X149364285Y-78612200D01*
X149364285Y-78612200D02*
X149411904Y-78564580D01*
X149411904Y-78564580D02*
X149459523Y-78469342D01*
X149459523Y-78469342D02*
X149459523Y-77659819D01*
X150364285Y-77659819D02*
X150173809Y-77659819D01*
X150173809Y-77659819D02*
X150078571Y-77707438D01*
X150078571Y-77707438D02*
X150030952Y-77755057D01*
X150030952Y-77755057D02*
X149935714Y-77897914D01*
X149935714Y-77897914D02*
X149888095Y-78088390D01*
X149888095Y-78088390D02*
X149888095Y-78469342D01*
X149888095Y-78469342D02*
X149935714Y-78564580D01*
X149935714Y-78564580D02*
X149983333Y-78612200D01*
X149983333Y-78612200D02*
X150078571Y-78659819D01*
X150078571Y-78659819D02*
X150269047Y-78659819D01*
X150269047Y-78659819D02*
X150364285Y-78612200D01*
X150364285Y-78612200D02*
X150411904Y-78564580D01*
X150411904Y-78564580D02*
X150459523Y-78469342D01*
X150459523Y-78469342D02*
X150459523Y-78231247D01*
X150459523Y-78231247D02*
X150411904Y-78136009D01*
X150411904Y-78136009D02*
X150364285Y-78088390D01*
X150364285Y-78088390D02*
X150269047Y-78040771D01*
X150269047Y-78040771D02*
X150078571Y-78040771D01*
X150078571Y-78040771D02*
X149983333Y-78088390D01*
X149983333Y-78088390D02*
X149935714Y-78136009D01*
X149935714Y-78136009D02*
X149888095Y-78231247D01*
X146530952Y-92359819D02*
X147197618Y-92359819D01*
X147197618Y-92359819D02*
X146769047Y-93359819D01*
X148007142Y-92693152D02*
X148007142Y-93359819D01*
X147769047Y-92312200D02*
X147530952Y-93026485D01*
X147530952Y-93026485D02*
X148149999Y-93026485D01*
X149007142Y-93359819D02*
X148530952Y-93359819D01*
X148530952Y-93359819D02*
X148530952Y-92359819D01*
X149292857Y-93312200D02*
X149435714Y-93359819D01*
X149435714Y-93359819D02*
X149673809Y-93359819D01*
X149673809Y-93359819D02*
X149769047Y-93312200D01*
X149769047Y-93312200D02*
X149816666Y-93264580D01*
X149816666Y-93264580D02*
X149864285Y-93169342D01*
X149864285Y-93169342D02*
X149864285Y-93074104D01*
X149864285Y-93074104D02*
X149816666Y-92978866D01*
X149816666Y-92978866D02*
X149769047Y-92931247D01*
X149769047Y-92931247D02*
X149673809Y-92883628D01*
X149673809Y-92883628D02*
X149483333Y-92836009D01*
X149483333Y-92836009D02*
X149388095Y-92788390D01*
X149388095Y-92788390D02*
X149340476Y-92740771D01*
X149340476Y-92740771D02*
X149292857Y-92645533D01*
X149292857Y-92645533D02*
X149292857Y-92550295D01*
X149292857Y-92550295D02*
X149340476Y-92455057D01*
X149340476Y-92455057D02*
X149388095Y-92407438D01*
X149388095Y-92407438D02*
X149483333Y-92359819D01*
X149483333Y-92359819D02*
X149721428Y-92359819D01*
X149721428Y-92359819D02*
X149864285Y-92407438D01*
X150245238Y-92455057D02*
X150292857Y-92407438D01*
X150292857Y-92407438D02*
X150388095Y-92359819D01*
X150388095Y-92359819D02*
X150626190Y-92359819D01*
X150626190Y-92359819D02*
X150721428Y-92407438D01*
X150721428Y-92407438D02*
X150769047Y-92455057D01*
X150769047Y-92455057D02*
X150816666Y-92550295D01*
X150816666Y-92550295D02*
X150816666Y-92645533D01*
X150816666Y-92645533D02*
X150769047Y-92788390D01*
X150769047Y-92788390D02*
X150197619Y-93359819D01*
X150197619Y-93359819D02*
X150816666Y-93359819D01*
X151673809Y-92693152D02*
X151673809Y-93359819D01*
X151435714Y-92312200D02*
X151197619Y-93026485D01*
X151197619Y-93026485D02*
X151816666Y-93026485D01*
X152626190Y-92693152D02*
X152626190Y-93359819D01*
X152388095Y-92312200D02*
X152150000Y-93026485D01*
X152150000Y-93026485D02*
X152769047Y-93026485D01*
X163107142Y-100959580D02*
X163059523Y-101007200D01*
X163059523Y-101007200D02*
X162916666Y-101054819D01*
X162916666Y-101054819D02*
X162821428Y-101054819D01*
X162821428Y-101054819D02*
X162678571Y-101007200D01*
X162678571Y-101007200D02*
X162583333Y-100911961D01*
X162583333Y-100911961D02*
X162535714Y-100816723D01*
X162535714Y-100816723D02*
X162488095Y-100626247D01*
X162488095Y-100626247D02*
X162488095Y-100483390D01*
X162488095Y-100483390D02*
X162535714Y-100292914D01*
X162535714Y-100292914D02*
X162583333Y-100197676D01*
X162583333Y-100197676D02*
X162678571Y-100102438D01*
X162678571Y-100102438D02*
X162821428Y-100054819D01*
X162821428Y-100054819D02*
X162916666Y-100054819D01*
X162916666Y-100054819D02*
X163059523Y-100102438D01*
X163059523Y-100102438D02*
X163107142Y-100150057D01*
X164059523Y-101054819D02*
X163488095Y-101054819D01*
X163773809Y-101054819D02*
X163773809Y-100054819D01*
X163773809Y-100054819D02*
X163678571Y-100197676D01*
X163678571Y-100197676D02*
X163583333Y-100292914D01*
X163583333Y-100292914D02*
X163488095Y-100340533D01*
X164964285Y-100054819D02*
X164488095Y-100054819D01*
X164488095Y-100054819D02*
X164440476Y-100531009D01*
X164440476Y-100531009D02*
X164488095Y-100483390D01*
X164488095Y-100483390D02*
X164583333Y-100435771D01*
X164583333Y-100435771D02*
X164821428Y-100435771D01*
X164821428Y-100435771D02*
X164916666Y-100483390D01*
X164916666Y-100483390D02*
X164964285Y-100531009D01*
X164964285Y-100531009D02*
X165011904Y-100626247D01*
X165011904Y-100626247D02*
X165011904Y-100864342D01*
X165011904Y-100864342D02*
X164964285Y-100959580D01*
X164964285Y-100959580D02*
X164916666Y-101007200D01*
X164916666Y-101007200D02*
X164821428Y-101054819D01*
X164821428Y-101054819D02*
X164583333Y-101054819D01*
X164583333Y-101054819D02*
X164488095Y-101007200D01*
X164488095Y-101007200D02*
X164440476Y-100959580D01*
X162345238Y-109188152D02*
X162345238Y-109854819D01*
X162107143Y-108807200D02*
X161869048Y-109521485D01*
X161869048Y-109521485D02*
X162488095Y-109521485D01*
X162869048Y-109759580D02*
X162916667Y-109807200D01*
X162916667Y-109807200D02*
X162869048Y-109854819D01*
X162869048Y-109854819D02*
X162821429Y-109807200D01*
X162821429Y-109807200D02*
X162869048Y-109759580D01*
X162869048Y-109759580D02*
X162869048Y-109854819D01*
X163250000Y-108854819D02*
X163916666Y-108854819D01*
X163916666Y-108854819D02*
X163488095Y-109854819D01*
X164726190Y-109188152D02*
X164726190Y-109854819D01*
X164297619Y-109188152D02*
X164297619Y-109711961D01*
X164297619Y-109711961D02*
X164345238Y-109807200D01*
X164345238Y-109807200D02*
X164440476Y-109854819D01*
X164440476Y-109854819D02*
X164583333Y-109854819D01*
X164583333Y-109854819D02*
X164678571Y-109807200D01*
X164678571Y-109807200D02*
X164726190Y-109759580D01*
X165535714Y-109331009D02*
X165202381Y-109331009D01*
X165202381Y-109854819D02*
X165202381Y-108854819D01*
X165202381Y-108854819D02*
X165678571Y-108854819D01*
X123488095Y-122804819D02*
X123488095Y-123614342D01*
X123488095Y-123614342D02*
X123535714Y-123709580D01*
X123535714Y-123709580D02*
X123583333Y-123757200D01*
X123583333Y-123757200D02*
X123678571Y-123804819D01*
X123678571Y-123804819D02*
X123869047Y-123804819D01*
X123869047Y-123804819D02*
X123964285Y-123757200D01*
X123964285Y-123757200D02*
X124011904Y-123709580D01*
X124011904Y-123709580D02*
X124059523Y-123614342D01*
X124059523Y-123614342D02*
X124059523Y-122804819D01*
X124678571Y-123233390D02*
X124583333Y-123185771D01*
X124583333Y-123185771D02*
X124535714Y-123138152D01*
X124535714Y-123138152D02*
X124488095Y-123042914D01*
X124488095Y-123042914D02*
X124488095Y-122995295D01*
X124488095Y-122995295D02*
X124535714Y-122900057D01*
X124535714Y-122900057D02*
X124583333Y-122852438D01*
X124583333Y-122852438D02*
X124678571Y-122804819D01*
X124678571Y-122804819D02*
X124869047Y-122804819D01*
X124869047Y-122804819D02*
X124964285Y-122852438D01*
X124964285Y-122852438D02*
X125011904Y-122900057D01*
X125011904Y-122900057D02*
X125059523Y-122995295D01*
X125059523Y-122995295D02*
X125059523Y-123042914D01*
X125059523Y-123042914D02*
X125011904Y-123138152D01*
X125011904Y-123138152D02*
X124964285Y-123185771D01*
X124964285Y-123185771D02*
X124869047Y-123233390D01*
X124869047Y-123233390D02*
X124678571Y-123233390D01*
X124678571Y-123233390D02*
X124583333Y-123281009D01*
X124583333Y-123281009D02*
X124535714Y-123328628D01*
X124535714Y-123328628D02*
X124488095Y-123423866D01*
X124488095Y-123423866D02*
X124488095Y-123614342D01*
X124488095Y-123614342D02*
X124535714Y-123709580D01*
X124535714Y-123709580D02*
X124583333Y-123757200D01*
X124583333Y-123757200D02*
X124678571Y-123804819D01*
X124678571Y-123804819D02*
X124869047Y-123804819D01*
X124869047Y-123804819D02*
X124964285Y-123757200D01*
X124964285Y-123757200D02*
X125011904Y-123709580D01*
X125011904Y-123709580D02*
X125059523Y-123614342D01*
X125059523Y-123614342D02*
X125059523Y-123423866D01*
X125059523Y-123423866D02*
X125011904Y-123328628D01*
X125011904Y-123328628D02*
X124964285Y-123281009D01*
X124964285Y-123281009D02*
X124869047Y-123233390D01*
X121130952Y-134604819D02*
X121797618Y-134604819D01*
X121797618Y-134604819D02*
X121369047Y-135604819D01*
X122607142Y-134938152D02*
X122607142Y-135604819D01*
X122369047Y-134557200D02*
X122130952Y-135271485D01*
X122130952Y-135271485D02*
X122749999Y-135271485D01*
X123607142Y-135604819D02*
X123130952Y-135604819D01*
X123130952Y-135604819D02*
X123130952Y-134604819D01*
X123892857Y-135557200D02*
X124035714Y-135604819D01*
X124035714Y-135604819D02*
X124273809Y-135604819D01*
X124273809Y-135604819D02*
X124369047Y-135557200D01*
X124369047Y-135557200D02*
X124416666Y-135509580D01*
X124416666Y-135509580D02*
X124464285Y-135414342D01*
X124464285Y-135414342D02*
X124464285Y-135319104D01*
X124464285Y-135319104D02*
X124416666Y-135223866D01*
X124416666Y-135223866D02*
X124369047Y-135176247D01*
X124369047Y-135176247D02*
X124273809Y-135128628D01*
X124273809Y-135128628D02*
X124083333Y-135081009D01*
X124083333Y-135081009D02*
X123988095Y-135033390D01*
X123988095Y-135033390D02*
X123940476Y-134985771D01*
X123940476Y-134985771D02*
X123892857Y-134890533D01*
X123892857Y-134890533D02*
X123892857Y-134795295D01*
X123892857Y-134795295D02*
X123940476Y-134700057D01*
X123940476Y-134700057D02*
X123988095Y-134652438D01*
X123988095Y-134652438D02*
X124083333Y-134604819D01*
X124083333Y-134604819D02*
X124321428Y-134604819D01*
X124321428Y-134604819D02*
X124464285Y-134652438D01*
X125416666Y-135604819D02*
X124845238Y-135604819D01*
X125130952Y-135604819D02*
X125130952Y-134604819D01*
X125130952Y-134604819D02*
X125035714Y-134747676D01*
X125035714Y-134747676D02*
X124940476Y-134842914D01*
X124940476Y-134842914D02*
X124845238Y-134890533D01*
X125750000Y-134604819D02*
X126416666Y-134604819D01*
X126416666Y-134604819D02*
X125988095Y-135604819D01*
X127226190Y-134938152D02*
X127226190Y-135604819D01*
X126988095Y-134557200D02*
X126750000Y-135271485D01*
X126750000Y-135271485D02*
X127369047Y-135271485D01*
X106763095Y-97984819D02*
X106763095Y-98794342D01*
X106763095Y-98794342D02*
X106810714Y-98889580D01*
X106810714Y-98889580D02*
X106858333Y-98937200D01*
X106858333Y-98937200D02*
X106953571Y-98984819D01*
X106953571Y-98984819D02*
X107144047Y-98984819D01*
X107144047Y-98984819D02*
X107239285Y-98937200D01*
X107239285Y-98937200D02*
X107286904Y-98889580D01*
X107286904Y-98889580D02*
X107334523Y-98794342D01*
X107334523Y-98794342D02*
X107334523Y-97984819D01*
X108239285Y-98318152D02*
X108239285Y-98984819D01*
X108001190Y-97937200D02*
X107763095Y-98651485D01*
X107763095Y-98651485D02*
X108382142Y-98651485D01*
X104882143Y-108544819D02*
X105548809Y-108544819D01*
X105548809Y-108544819D02*
X105120238Y-109544819D01*
X106358333Y-108878152D02*
X106358333Y-109544819D01*
X106120238Y-108497200D02*
X105882143Y-109211485D01*
X105882143Y-109211485D02*
X106501190Y-109211485D01*
X107358333Y-109544819D02*
X106882143Y-109544819D01*
X106882143Y-109544819D02*
X106882143Y-108544819D01*
X107644048Y-109497200D02*
X107786905Y-109544819D01*
X107786905Y-109544819D02*
X108025000Y-109544819D01*
X108025000Y-109544819D02*
X108120238Y-109497200D01*
X108120238Y-109497200D02*
X108167857Y-109449580D01*
X108167857Y-109449580D02*
X108215476Y-109354342D01*
X108215476Y-109354342D02*
X108215476Y-109259104D01*
X108215476Y-109259104D02*
X108167857Y-109163866D01*
X108167857Y-109163866D02*
X108120238Y-109116247D01*
X108120238Y-109116247D02*
X108025000Y-109068628D01*
X108025000Y-109068628D02*
X107834524Y-109021009D01*
X107834524Y-109021009D02*
X107739286Y-108973390D01*
X107739286Y-108973390D02*
X107691667Y-108925771D01*
X107691667Y-108925771D02*
X107644048Y-108830533D01*
X107644048Y-108830533D02*
X107644048Y-108735295D01*
X107644048Y-108735295D02*
X107691667Y-108640057D01*
X107691667Y-108640057D02*
X107739286Y-108592438D01*
X107739286Y-108592438D02*
X107834524Y-108544819D01*
X107834524Y-108544819D02*
X108072619Y-108544819D01*
X108072619Y-108544819D02*
X108215476Y-108592438D01*
X108834524Y-108544819D02*
X108929762Y-108544819D01*
X108929762Y-108544819D02*
X109025000Y-108592438D01*
X109025000Y-108592438D02*
X109072619Y-108640057D01*
X109072619Y-108640057D02*
X109120238Y-108735295D01*
X109120238Y-108735295D02*
X109167857Y-108925771D01*
X109167857Y-108925771D02*
X109167857Y-109163866D01*
X109167857Y-109163866D02*
X109120238Y-109354342D01*
X109120238Y-109354342D02*
X109072619Y-109449580D01*
X109072619Y-109449580D02*
X109025000Y-109497200D01*
X109025000Y-109497200D02*
X108929762Y-109544819D01*
X108929762Y-109544819D02*
X108834524Y-109544819D01*
X108834524Y-109544819D02*
X108739286Y-109497200D01*
X108739286Y-109497200D02*
X108691667Y-109449580D01*
X108691667Y-109449580D02*
X108644048Y-109354342D01*
X108644048Y-109354342D02*
X108596429Y-109163866D01*
X108596429Y-109163866D02*
X108596429Y-108925771D01*
X108596429Y-108925771D02*
X108644048Y-108735295D01*
X108644048Y-108735295D02*
X108691667Y-108640057D01*
X108691667Y-108640057D02*
X108739286Y-108592438D01*
X108739286Y-108592438D02*
X108834524Y-108544819D01*
X110025000Y-108878152D02*
X110025000Y-109544819D01*
X109786905Y-108497200D02*
X109548810Y-109211485D01*
X109548810Y-109211485D02*
X110167857Y-109211485D01*
X178861309Y-78153628D02*
X178861309Y-78629819D01*
X178527976Y-77629819D02*
X178861309Y-78153628D01*
X178861309Y-78153628D02*
X179194642Y-77629819D01*
X180051785Y-78629819D02*
X179480357Y-78629819D01*
X179766071Y-78629819D02*
X179766071Y-77629819D01*
X179766071Y-77629819D02*
X179670833Y-77772676D01*
X179670833Y-77772676D02*
X179575595Y-77867914D01*
X179575595Y-77867914D02*
X179480357Y-77915533D01*
X168214285Y-77654819D02*
X167738095Y-77654819D01*
X167738095Y-77654819D02*
X167690476Y-78131009D01*
X167690476Y-78131009D02*
X167738095Y-78083390D01*
X167738095Y-78083390D02*
X167833333Y-78035771D01*
X167833333Y-78035771D02*
X168071428Y-78035771D01*
X168071428Y-78035771D02*
X168166666Y-78083390D01*
X168166666Y-78083390D02*
X168214285Y-78131009D01*
X168214285Y-78131009D02*
X168261904Y-78226247D01*
X168261904Y-78226247D02*
X168261904Y-78464342D01*
X168261904Y-78464342D02*
X168214285Y-78559580D01*
X168214285Y-78559580D02*
X168166666Y-78607200D01*
X168166666Y-78607200D02*
X168071428Y-78654819D01*
X168071428Y-78654819D02*
X167833333Y-78654819D01*
X167833333Y-78654819D02*
X167738095Y-78607200D01*
X167738095Y-78607200D02*
X167690476Y-78559580D01*
X168690476Y-78559580D02*
X168738095Y-78607200D01*
X168738095Y-78607200D02*
X168690476Y-78654819D01*
X168690476Y-78654819D02*
X168642857Y-78607200D01*
X168642857Y-78607200D02*
X168690476Y-78559580D01*
X168690476Y-78559580D02*
X168690476Y-78654819D01*
X169357142Y-77654819D02*
X169452380Y-77654819D01*
X169452380Y-77654819D02*
X169547618Y-77702438D01*
X169547618Y-77702438D02*
X169595237Y-77750057D01*
X169595237Y-77750057D02*
X169642856Y-77845295D01*
X169642856Y-77845295D02*
X169690475Y-78035771D01*
X169690475Y-78035771D02*
X169690475Y-78273866D01*
X169690475Y-78273866D02*
X169642856Y-78464342D01*
X169642856Y-78464342D02*
X169595237Y-78559580D01*
X169595237Y-78559580D02*
X169547618Y-78607200D01*
X169547618Y-78607200D02*
X169452380Y-78654819D01*
X169452380Y-78654819D02*
X169357142Y-78654819D01*
X169357142Y-78654819D02*
X169261904Y-78607200D01*
X169261904Y-78607200D02*
X169214285Y-78559580D01*
X169214285Y-78559580D02*
X169166666Y-78464342D01*
X169166666Y-78464342D02*
X169119047Y-78273866D01*
X169119047Y-78273866D02*
X169119047Y-78035771D01*
X169119047Y-78035771D02*
X169166666Y-77845295D01*
X169166666Y-77845295D02*
X169214285Y-77750057D01*
X169214285Y-77750057D02*
X169261904Y-77702438D01*
X169261904Y-77702438D02*
X169357142Y-77654819D01*
X170547618Y-77654819D02*
X170357142Y-77654819D01*
X170357142Y-77654819D02*
X170261904Y-77702438D01*
X170261904Y-77702438D02*
X170214285Y-77750057D01*
X170214285Y-77750057D02*
X170119047Y-77892914D01*
X170119047Y-77892914D02*
X170071428Y-78083390D01*
X170071428Y-78083390D02*
X170071428Y-78464342D01*
X170071428Y-78464342D02*
X170119047Y-78559580D01*
X170119047Y-78559580D02*
X170166666Y-78607200D01*
X170166666Y-78607200D02*
X170261904Y-78654819D01*
X170261904Y-78654819D02*
X170452380Y-78654819D01*
X170452380Y-78654819D02*
X170547618Y-78607200D01*
X170547618Y-78607200D02*
X170595237Y-78559580D01*
X170595237Y-78559580D02*
X170642856Y-78464342D01*
X170642856Y-78464342D02*
X170642856Y-78226247D01*
X170642856Y-78226247D02*
X170595237Y-78131009D01*
X170595237Y-78131009D02*
X170547618Y-78083390D01*
X170547618Y-78083390D02*
X170452380Y-78035771D01*
X170452380Y-78035771D02*
X170261904Y-78035771D01*
X170261904Y-78035771D02*
X170166666Y-78083390D01*
X170166666Y-78083390D02*
X170119047Y-78131009D01*
X170119047Y-78131009D02*
X170071428Y-78226247D01*
X171214285Y-78083390D02*
X171119047Y-78035771D01*
X171119047Y-78035771D02*
X171071428Y-77988152D01*
X171071428Y-77988152D02*
X171023809Y-77892914D01*
X171023809Y-77892914D02*
X171023809Y-77845295D01*
X171023809Y-77845295D02*
X171071428Y-77750057D01*
X171071428Y-77750057D02*
X171119047Y-77702438D01*
X171119047Y-77702438D02*
X171214285Y-77654819D01*
X171214285Y-77654819D02*
X171404761Y-77654819D01*
X171404761Y-77654819D02*
X171499999Y-77702438D01*
X171499999Y-77702438D02*
X171547618Y-77750057D01*
X171547618Y-77750057D02*
X171595237Y-77845295D01*
X171595237Y-77845295D02*
X171595237Y-77892914D01*
X171595237Y-77892914D02*
X171547618Y-77988152D01*
X171547618Y-77988152D02*
X171499999Y-78035771D01*
X171499999Y-78035771D02*
X171404761Y-78083390D01*
X171404761Y-78083390D02*
X171214285Y-78083390D01*
X171214285Y-78083390D02*
X171119047Y-78131009D01*
X171119047Y-78131009D02*
X171071428Y-78178628D01*
X171071428Y-78178628D02*
X171023809Y-78273866D01*
X171023809Y-78273866D02*
X171023809Y-78464342D01*
X171023809Y-78464342D02*
X171071428Y-78559580D01*
X171071428Y-78559580D02*
X171119047Y-78607200D01*
X171119047Y-78607200D02*
X171214285Y-78654819D01*
X171214285Y-78654819D02*
X171404761Y-78654819D01*
X171404761Y-78654819D02*
X171499999Y-78607200D01*
X171499999Y-78607200D02*
X171547618Y-78559580D01*
X171547618Y-78559580D02*
X171595237Y-78464342D01*
X171595237Y-78464342D02*
X171595237Y-78273866D01*
X171595237Y-78273866D02*
X171547618Y-78178628D01*
X171547618Y-78178628D02*
X171499999Y-78131009D01*
X171499999Y-78131009D02*
X171404761Y-78083390D01*
X172166666Y-78083390D02*
X172071428Y-78035771D01*
X172071428Y-78035771D02*
X172023809Y-77988152D01*
X172023809Y-77988152D02*
X171976190Y-77892914D01*
X171976190Y-77892914D02*
X171976190Y-77845295D01*
X171976190Y-77845295D02*
X172023809Y-77750057D01*
X172023809Y-77750057D02*
X172071428Y-77702438D01*
X172071428Y-77702438D02*
X172166666Y-77654819D01*
X172166666Y-77654819D02*
X172357142Y-77654819D01*
X172357142Y-77654819D02*
X172452380Y-77702438D01*
X172452380Y-77702438D02*
X172499999Y-77750057D01*
X172499999Y-77750057D02*
X172547618Y-77845295D01*
X172547618Y-77845295D02*
X172547618Y-77892914D01*
X172547618Y-77892914D02*
X172499999Y-77988152D01*
X172499999Y-77988152D02*
X172452380Y-78035771D01*
X172452380Y-78035771D02*
X172357142Y-78083390D01*
X172357142Y-78083390D02*
X172166666Y-78083390D01*
X172166666Y-78083390D02*
X172071428Y-78131009D01*
X172071428Y-78131009D02*
X172023809Y-78178628D01*
X172023809Y-78178628D02*
X171976190Y-78273866D01*
X171976190Y-78273866D02*
X171976190Y-78464342D01*
X171976190Y-78464342D02*
X172023809Y-78559580D01*
X172023809Y-78559580D02*
X172071428Y-78607200D01*
X172071428Y-78607200D02*
X172166666Y-78654819D01*
X172166666Y-78654819D02*
X172357142Y-78654819D01*
X172357142Y-78654819D02*
X172452380Y-78607200D01*
X172452380Y-78607200D02*
X172499999Y-78559580D01*
X172499999Y-78559580D02*
X172547618Y-78464342D01*
X172547618Y-78464342D02*
X172547618Y-78273866D01*
X172547618Y-78273866D02*
X172499999Y-78178628D01*
X172499999Y-78178628D02*
X172452380Y-78131009D01*
X172452380Y-78131009D02*
X172357142Y-78083390D01*
X173738095Y-78654819D02*
X173738095Y-77654819D01*
X173738095Y-77654819D02*
X174071428Y-78369104D01*
X174071428Y-78369104D02*
X174404761Y-77654819D01*
X174404761Y-77654819D02*
X174404761Y-78654819D01*
X174880952Y-78654819D02*
X174880952Y-77654819D01*
X174880952Y-78131009D02*
X175452380Y-78131009D01*
X175452380Y-78654819D02*
X175452380Y-77654819D01*
X175833333Y-77988152D02*
X176357142Y-77988152D01*
X176357142Y-77988152D02*
X175833333Y-78654819D01*
X175833333Y-78654819D02*
X176357142Y-78654819D01*
D13*
%TO.C,U7*%
X127475000Y-79385000D02*
X125525000Y-79385000D01*
X127475000Y-79385000D02*
X129425000Y-79385000D01*
X127475000Y-89505000D02*
X125525000Y-89505000D01*
X127475000Y-89505000D02*
X129425000Y-89505000D01*
X124775000Y-79440000D02*
X124535000Y-79110000D01*
X125015000Y-79110000D01*
X124775000Y-79440000D01*
G36*
X124775000Y-79440000D02*
G01*
X124535000Y-79110000D01*
X125015000Y-79110000D01*
X124775000Y-79440000D01*
G37*
%TO.C,C8*%
X113765000Y-81738748D02*
X113765000Y-82261252D01*
X115235000Y-81738748D02*
X115235000Y-82261252D01*
%TO.C,U3*%
X103940000Y-121130000D02*
X103940000Y-141570000D01*
X103940000Y-141570000D02*
X108440000Y-141570000D01*
X105190000Y-121130000D02*
X103940000Y-121130000D01*
X108440000Y-121130000D02*
X107190000Y-121130000D01*
X108440000Y-141570000D02*
X108440000Y-121130000D01*
X100940000Y-121070000D02*
X111440000Y-121070000D01*
X111440000Y-141630000D01*
X100940000Y-141630000D01*
X100940000Y-121070000D01*
X107190000Y-121130000D02*
G75*
G02*
X105190000Y-121130000I-1000000J0D01*
G01*
D11*
%TO.C,U9*%
X103525000Y-78900000D02*
X103525000Y-79475000D01*
X103525000Y-78900000D02*
X109275000Y-78900000D01*
X103525000Y-88975000D02*
X103525000Y-89550000D01*
X103525000Y-89550000D02*
X109275000Y-89550000D01*
X109275000Y-78900000D02*
X109275000Y-79475000D01*
X109275000Y-88975000D02*
X109275000Y-89550000D01*
D13*
X103025000Y-79475000D02*
X102785000Y-79145000D01*
X103265000Y-79145000D01*
X103025000Y-79475000D01*
G36*
X103025000Y-79475000D02*
G01*
X102785000Y-79145000D01*
X103265000Y-79145000D01*
X103025000Y-79475000D01*
G37*
%TO.C,U1*%
X136130000Y-126560000D02*
X136130000Y-138680000D01*
X136130000Y-138680000D02*
X187050000Y-138680000D01*
X187050000Y-126560000D02*
X136130000Y-126560000D01*
X187050000Y-131620000D02*
X187050000Y-126560000D01*
X187050000Y-138680000D02*
X187050000Y-133620000D01*
X187110000Y-123560000D02*
X136070000Y-123560000D01*
X136070000Y-141680000D01*
X187110000Y-141680000D01*
X187110000Y-123560000D01*
X187050000Y-133620000D02*
G75*
G02*
X187050000Y-131620000I0J1000000D01*
G01*
%TO.C,J1*%
D12*
X75230000Y-74750000D02*
X87930000Y-74750000D01*
X87930000Y-142060000D01*
X75230000Y-142060000D01*
X75230000Y-74750000D01*
D13*
%TO.C,C9*%
X95765000Y-82048752D02*
X95765000Y-81526248D01*
X97235000Y-82048752D02*
X97235000Y-81526248D01*
%TO.C,R1*%
X132365000Y-100572936D02*
X132365000Y-101027064D01*
X133835000Y-100572936D02*
X133835000Y-101027064D01*
%TO.C,U2*%
X176560000Y-93430000D02*
X176560000Y-116410000D01*
X176560000Y-116410000D02*
X181060000Y-116410000D01*
X177810000Y-93430000D02*
X176560000Y-93430000D01*
X181060000Y-93430000D02*
X179810000Y-93430000D01*
X181060000Y-116410000D02*
X181060000Y-93430000D01*
X173560000Y-93370000D02*
X184060000Y-93370000D01*
X184060000Y-116470000D01*
X173560000Y-116470000D01*
X173560000Y-93370000D01*
X179810000Y-93430000D02*
G75*
G02*
X177810000Y-93430000I-1000000J0D01*
G01*
%TO.C,U10*%
X147475000Y-99375000D02*
X145525000Y-99375000D01*
X147475000Y-99375000D02*
X149425000Y-99375000D01*
X147475000Y-108245000D02*
X145525000Y-108245000D01*
X147475000Y-108245000D02*
X149425000Y-108245000D01*
X144775000Y-99440000D02*
X144535000Y-99110000D01*
X145015000Y-99110000D01*
X144775000Y-99440000D01*
G36*
X144775000Y-99440000D02*
G01*
X144535000Y-99110000D01*
X145015000Y-99110000D01*
X144775000Y-99440000D01*
G37*
%TO.C,U5*%
X127475000Y-99375000D02*
X125525000Y-99375000D01*
X127475000Y-99375000D02*
X129425000Y-99375000D01*
X127475000Y-108245000D02*
X125525000Y-108245000D01*
X127475000Y-108245000D02*
X129425000Y-108245000D01*
X124775000Y-99440000D02*
X124535000Y-99110000D01*
X125015000Y-99110000D01*
X124775000Y-99440000D01*
G36*
X124775000Y-99440000D02*
G01*
X124535000Y-99110000D01*
X125015000Y-99110000D01*
X124775000Y-99440000D01*
G37*
%TO.C,U6*%
X145790000Y-79045000D02*
X145790000Y-79280000D01*
X145790000Y-92065000D02*
X145790000Y-91830000D01*
X149650000Y-79045000D02*
X145790000Y-79045000D01*
X149650000Y-79045000D02*
X153510000Y-79045000D01*
X149650000Y-92065000D02*
X145790000Y-92065000D01*
X149650000Y-92065000D02*
X153510000Y-92065000D01*
X153510000Y-79045000D02*
X153510000Y-79280000D01*
X153510000Y-92065000D02*
X153510000Y-91830000D01*
X144937500Y-79280000D02*
X144597500Y-78810000D01*
X145277500Y-78810000D01*
X144937500Y-79280000D01*
G36*
X144937500Y-79280000D02*
G01*
X144597500Y-78810000D01*
X145277500Y-78810000D01*
X144937500Y-79280000D01*
G37*
%TO.C,C15*%
X167020000Y-105000000D02*
G75*
G02*
X160480000Y-105000000I-3270000J0D01*
G01*
X160480000Y-105000000D02*
G75*
G02*
X167020000Y-105000000I3270000J0D01*
G01*
%TO.C,U8*%
X124250000Y-124190000D02*
X122300000Y-124190000D01*
X124250000Y-124190000D02*
X126200000Y-124190000D01*
X124250000Y-134310000D02*
X122300000Y-134310000D01*
X124250000Y-134310000D02*
X126200000Y-134310000D01*
X121550000Y-124245000D02*
X121310000Y-123915000D01*
X121790000Y-123915000D01*
X121550000Y-124245000D01*
G36*
X121550000Y-124245000D02*
G01*
X121310000Y-123915000D01*
X121790000Y-123915000D01*
X121550000Y-124245000D01*
G37*
%TO.C,U4*%
X107525000Y-99375000D02*
X105575000Y-99375000D01*
X107525000Y-99375000D02*
X109475000Y-99375000D01*
X107525000Y-108245000D02*
X105575000Y-108245000D01*
X107525000Y-108245000D02*
X109475000Y-108245000D01*
X104825000Y-99440000D02*
X104585000Y-99110000D01*
X105065000Y-99110000D01*
X104825000Y-99440000D01*
G36*
X104825000Y-99440000D02*
G01*
X104585000Y-99110000D01*
X105065000Y-99110000D01*
X104825000Y-99440000D01*
G37*
%TO.C,Y1*%
X167450000Y-79350000D02*
X167450000Y-90650000D01*
X167450000Y-90650000D02*
X180850000Y-90650000D01*
X180850000Y-79000000D02*
X180970000Y-79000000D01*
X180850000Y-79350000D02*
X167450000Y-79350000D01*
X180850000Y-82550000D02*
X181700000Y-82550000D01*
X180850000Y-87450000D02*
X181700000Y-87450000D01*
X180850000Y-90650000D02*
X180850000Y-79350000D01*
X180850000Y-91000000D02*
X180850000Y-79000000D01*
X180970000Y-79000000D02*
X180970000Y-91000000D01*
X180970000Y-91000000D02*
X180850000Y-91000000D01*
X181700000Y-82550000D02*
X181700000Y-82550000D01*
X181700000Y-87450000D02*
X181700000Y-87450000D01*
%TD*%
M02*
