%TF.GenerationSoftware,KiCad,Pcbnew,9.0.0*%
%TF.CreationDate,2025-05-12T21:33:30-05:00*%
%TF.ProjectId,Model I RS232,4d6f6465-6c20-4492-9052-533233322e6b,2.1*%
%TF.SameCoordinates,Original*%
%TF.FileFunction,Soldermask,Bot*%
%TF.FilePolarity,Negative*%
%FSLAX46Y46*%
G04 Gerber Fmt 4.6, Leading zero omitted, Abs format (unit mm)*
G04 Created by KiCad (PCBNEW 9.0.0) date 2025-05-12 21:33:30*
%MOMM*%
%LPD*%
G01*
G04 APERTURE LIST*
G04 Aperture macros list*
%AMRoundRect*
0 Rectangle with rounded corners*
0 $1 Rounding radius*
0 $2 $3 $4 $5 $6 $7 $8 $9 X,Y pos of 4 corners*
0 Add a 4 corners polygon primitive as box body*
4,1,4,$2,$3,$4,$5,$6,$7,$8,$9,$2,$3,0*
0 Add four circle primitives for the rounded corners*
1,1,$1+$1,$2,$3*
1,1,$1+$1,$4,$5*
1,1,$1+$1,$6,$7*
1,1,$1+$1,$8,$9*
0 Add four rect primitives between the rounded corners*
20,1,$1+$1,$2,$3,$4,$5,0*
20,1,$1+$1,$4,$5,$6,$7,0*
20,1,$1+$1,$6,$7,$8,$9,0*
20,1,$1+$1,$8,$9,$2,$3,0*%
G04 Aperture macros list end*
%ADD10C,0.150000*%
%ADD11RoundRect,0.250000X-0.950000X-0.550000X0.950000X-0.550000X0.950000X0.550000X-0.950000X0.550000X0*%
%ADD12O,2.400000X1.600000*%
%ADD13C,4.775200*%
%ADD14C,3.175000*%
%ADD15R,1.700000X1.700000*%
%ADD16O,1.700000X1.700000*%
%ADD17C,1.500000*%
%ADD18RoundRect,0.250000X0.337500X0.475000X-0.337500X0.475000X-0.337500X-0.475000X0.337500X-0.475000X0*%
%ADD19RoundRect,0.250000X0.475000X-0.337500X0.475000X0.337500X-0.475000X0.337500X-0.475000X-0.337500X0*%
%ADD20RoundRect,0.250000X-0.337500X-0.475000X0.337500X-0.475000X0.337500X0.475000X-0.337500X0.475000X0*%
%ADD21RoundRect,0.250000X-0.475000X0.337500X-0.475000X-0.337500X0.475000X-0.337500X0.475000X0.337500X0*%
G04 APERTURE END LIST*
%TO.C,J1*%
D10*
X78025000Y-81802000D02*
X83613000Y-81802000D01*
X83613000Y-134888000D01*
X78025000Y-134888000D01*
X78025000Y-81802000D01*
G36*
X78025000Y-81802000D02*
G01*
X83613000Y-81802000D01*
X83613000Y-134888000D01*
X78025000Y-134888000D01*
X78025000Y-81802000D01*
G37*
%TD*%
D11*
%TO.C,U2*%
X135900000Y-118350000D03*
D12*
X135900000Y-120890000D03*
X135900000Y-123430000D03*
X135900000Y-125970000D03*
X135900000Y-128510000D03*
X135900000Y-131050000D03*
X135900000Y-133590000D03*
X135900000Y-136130000D03*
X135900000Y-138670000D03*
X143520000Y-138670000D03*
X143520000Y-136130000D03*
X143520000Y-133590000D03*
X143520000Y-131050000D03*
X143520000Y-128510000D03*
X143520000Y-125970000D03*
X143520000Y-123430000D03*
X143520000Y-120890000D03*
X143520000Y-118350000D03*
%TD*%
D13*
%TO.C,J1*%
X80819000Y-78500000D03*
D14*
X80819000Y-138190000D03*
%TD*%
D15*
%TO.C,J2*%
X142850000Y-77850000D03*
D16*
X142850000Y-80390000D03*
X142850000Y-82930000D03*
%TD*%
D11*
%TO.C,U1*%
X153150000Y-90400000D03*
D12*
X153150000Y-92940000D03*
X153150000Y-95480000D03*
X153150000Y-98020000D03*
X153150000Y-100560000D03*
X153150000Y-103100000D03*
X153150000Y-105640000D03*
X153150000Y-108180000D03*
X153150000Y-110720000D03*
X153150000Y-113260000D03*
X153150000Y-115800000D03*
X153150000Y-118340000D03*
X153150000Y-120880000D03*
X153150000Y-123420000D03*
X153150000Y-125960000D03*
X153150000Y-128500000D03*
X153150000Y-131040000D03*
X153150000Y-133580000D03*
X153150000Y-136120000D03*
X153150000Y-138660000D03*
X168390000Y-138660000D03*
X168390000Y-136120000D03*
X168390000Y-133580000D03*
X168390000Y-131040000D03*
X168390000Y-128500000D03*
X168390000Y-125960000D03*
X168390000Y-123420000D03*
X168390000Y-120880000D03*
X168390000Y-118340000D03*
X168390000Y-115800000D03*
X168390000Y-113260000D03*
X168390000Y-110720000D03*
X168390000Y-108180000D03*
X168390000Y-105640000D03*
X168390000Y-103100000D03*
X168390000Y-100560000D03*
X168390000Y-98020000D03*
X168390000Y-95480000D03*
X168390000Y-92940000D03*
X168390000Y-90400000D03*
%TD*%
D15*
%TO.C,J3*%
X167100000Y-77900000D03*
D16*
X167100000Y-80440000D03*
X167100000Y-82980000D03*
X167100000Y-85520000D03*
%TD*%
D15*
%TO.C,J4*%
X155750000Y-77850000D03*
D16*
X155750000Y-80390000D03*
%TD*%
D17*
%TO.C,Y1*%
X142000000Y-110750000D03*
X137100000Y-110750000D03*
%TD*%
D15*
%TO.C,J5*%
X93100000Y-90750000D03*
D16*
X93100000Y-93290000D03*
%TD*%
D18*
%TO.C,C11*%
X109287500Y-83450000D03*
X107212500Y-83450000D03*
%TD*%
%TO.C,C4*%
X104837500Y-78850000D03*
X102762500Y-78850000D03*
%TD*%
D19*
%TO.C,C2*%
X106600000Y-113825000D03*
X106600000Y-111750000D03*
%TD*%
D20*
%TO.C,C3*%
X122912500Y-78800000D03*
X124987500Y-78800000D03*
%TD*%
D19*
%TO.C,C6*%
X128100000Y-119287500D03*
X128100000Y-117212500D03*
%TD*%
D18*
%TO.C,C9*%
X97837500Y-78850000D03*
X95762500Y-78850000D03*
%TD*%
D20*
%TO.C,C1*%
X156012500Y-88100000D03*
X158087500Y-88100000D03*
%TD*%
%TO.C,C13*%
X106062500Y-97735000D03*
X108137500Y-97735000D03*
%TD*%
%TO.C,C10*%
X108362500Y-78850000D03*
X110437500Y-78850000D03*
%TD*%
%TO.C,C12*%
X105962500Y-131800000D03*
X108037500Y-131800000D03*
%TD*%
D21*
%TO.C,C8*%
X100800000Y-83550000D03*
X100800000Y-85625000D03*
%TD*%
D20*
%TO.C,C14*%
X137512500Y-78850000D03*
X139587500Y-78850000D03*
%TD*%
%TO.C,C7*%
X124862500Y-99850000D03*
X126937500Y-99850000D03*
%TD*%
D19*
%TO.C,C15*%
X90650000Y-135437500D03*
X90650000Y-133362500D03*
%TD*%
D20*
%TO.C,C5*%
X138312500Y-120900000D03*
X140387500Y-120900000D03*
%TD*%
M02*
