%TF.GenerationSoftware,KiCad,Pcbnew,9.0.0*%
%TF.CreationDate,2025-05-12T21:33:30-05:00*%
%TF.ProjectId,Model I RS232,4d6f6465-6c20-4492-9052-533233322e6b,2.1*%
%TF.SameCoordinates,Original*%
%TF.FileFunction,Paste,Top*%
%TF.FilePolarity,Positive*%
%FSLAX46Y46*%
G04 Gerber Fmt 4.6, Leading zero omitted, Abs format (unit mm)*
G04 Created by KiCad (PCBNEW 9.0.0) date 2025-05-12 21:33:30*
%MOMM*%
%LPD*%
G01*
G04 APERTURE LIST*
G04 Aperture macros list*
%AMRoundRect*
0 Rectangle with rounded corners*
0 $1 Rounding radius*
0 $2 $3 $4 $5 $6 $7 $8 $9 X,Y pos of 4 corners*
0 Add a 4 corners polygon primitive as box body*
4,1,4,$2,$3,$4,$5,$6,$7,$8,$9,$2,$3,0*
0 Add four circle primitives for the rounded corners*
1,1,$1+$1,$2,$3*
1,1,$1+$1,$4,$5*
1,1,$1+$1,$6,$7*
1,1,$1+$1,$8,$9*
0 Add four rect primitives between the rounded corners*
20,1,$1+$1,$2,$3,$4,$5,0*
20,1,$1+$1,$4,$5,$6,$7,0*
20,1,$1+$1,$6,$7,$8,$9,0*
20,1,$1+$1,$8,$9,$2,$3,0*%
G04 Aperture macros list end*
%ADD10RoundRect,0.150000X-0.825000X-0.150000X0.825000X-0.150000X0.825000X0.150000X-0.825000X0.150000X0*%
%ADD11RoundRect,0.150000X-0.875000X-0.150000X0.875000X-0.150000X0.875000X0.150000X-0.875000X0.150000X0*%
%ADD12R,1.750000X0.450000*%
%ADD13RoundRect,0.250000X-0.350000X-0.450000X0.350000X-0.450000X0.350000X0.450000X-0.350000X0.450000X0*%
G04 APERTURE END LIST*
D10*
%TO.C,U10*%
X132625000Y-81940000D03*
X132625000Y-83210000D03*
X132625000Y-84480000D03*
X132625000Y-85750000D03*
X132625000Y-87020000D03*
X132625000Y-88290000D03*
X132625000Y-89560000D03*
X137575000Y-89560000D03*
X137575000Y-88290000D03*
X137575000Y-87020000D03*
X137575000Y-85750000D03*
X137575000Y-84480000D03*
X137575000Y-83210000D03*
X137575000Y-81940000D03*
%TD*%
%TO.C,U4*%
X98375000Y-97690000D03*
X98375000Y-98960000D03*
X98375000Y-100230000D03*
X98375000Y-101500000D03*
X98375000Y-102770000D03*
X98375000Y-104040000D03*
X98375000Y-105310000D03*
X103325000Y-105310000D03*
X103325000Y-104040000D03*
X103325000Y-102770000D03*
X103325000Y-101500000D03*
X103325000Y-100230000D03*
X103325000Y-98960000D03*
X103325000Y-97690000D03*
%TD*%
D11*
%TO.C,U6*%
X115300000Y-119320000D03*
X115300000Y-120590000D03*
X115300000Y-121860000D03*
X115300000Y-123130000D03*
X115300000Y-124400000D03*
X115300000Y-125670000D03*
X115300000Y-126940000D03*
X115300000Y-128210000D03*
X115300000Y-129480000D03*
X115300000Y-130750000D03*
X124600000Y-130750000D03*
X124600000Y-129480000D03*
X124600000Y-128210000D03*
X124600000Y-126940000D03*
X124600000Y-125670000D03*
X124600000Y-124400000D03*
X124600000Y-123130000D03*
X124600000Y-121860000D03*
X124600000Y-120590000D03*
X124600000Y-119320000D03*
%TD*%
D12*
%TO.C,U9*%
X97350000Y-81475000D03*
X97350000Y-82125000D03*
X97350000Y-82775000D03*
X97350000Y-83425000D03*
X97350000Y-84075000D03*
X97350000Y-84725000D03*
X97350000Y-85375000D03*
X97350000Y-86025000D03*
X97350000Y-86675000D03*
X97350000Y-87325000D03*
X97350000Y-87975000D03*
X97350000Y-88625000D03*
X97350000Y-89275000D03*
X97350000Y-89925000D03*
X104550000Y-89925000D03*
X104550000Y-89275000D03*
X104550000Y-88625000D03*
X104550000Y-87975000D03*
X104550000Y-87325000D03*
X104550000Y-86675000D03*
X104550000Y-86025000D03*
X104550000Y-85375000D03*
X104550000Y-84725000D03*
X104550000Y-84075000D03*
X104550000Y-83425000D03*
X104550000Y-82775000D03*
X104550000Y-82125000D03*
X104550000Y-81475000D03*
%TD*%
D13*
%TO.C,R1*%
X126900000Y-85750000D03*
X128900000Y-85750000D03*
%TD*%
D10*
%TO.C,U8*%
X117425000Y-99855000D03*
X117425000Y-101125000D03*
X117425000Y-102395000D03*
X117425000Y-103665000D03*
X117425000Y-104935000D03*
X117425000Y-106205000D03*
X117425000Y-107475000D03*
X117425000Y-108745000D03*
X122375000Y-108745000D03*
X122375000Y-107475000D03*
X122375000Y-106205000D03*
X122375000Y-104935000D03*
X122375000Y-103665000D03*
X122375000Y-102395000D03*
X122375000Y-101125000D03*
X122375000Y-99855000D03*
%TD*%
%TO.C,U7*%
X117375000Y-81205000D03*
X117375000Y-82475000D03*
X117375000Y-83745000D03*
X117375000Y-85015000D03*
X117375000Y-86285000D03*
X117375000Y-87555000D03*
X117375000Y-88825000D03*
X117375000Y-90095000D03*
X122325000Y-90095000D03*
X122325000Y-88825000D03*
X122325000Y-87555000D03*
X122325000Y-86285000D03*
X122325000Y-85015000D03*
X122325000Y-83745000D03*
X122325000Y-82475000D03*
X122325000Y-81205000D03*
%TD*%
%TO.C,U3*%
X98425000Y-113960000D03*
X98425000Y-115230000D03*
X98425000Y-116500000D03*
X98425000Y-117770000D03*
X98425000Y-119040000D03*
X98425000Y-120310000D03*
X98425000Y-121580000D03*
X98425000Y-122850000D03*
X103375000Y-122850000D03*
X103375000Y-121580000D03*
X103375000Y-120310000D03*
X103375000Y-119040000D03*
X103375000Y-117770000D03*
X103375000Y-116500000D03*
X103375000Y-115230000D03*
X103375000Y-113960000D03*
%TD*%
%TO.C,U5*%
X98425000Y-131990000D03*
X98425000Y-133260000D03*
X98425000Y-134530000D03*
X98425000Y-135800000D03*
X98425000Y-137070000D03*
X98425000Y-138340000D03*
X98425000Y-139610000D03*
X103375000Y-139610000D03*
X103375000Y-138340000D03*
X103375000Y-137070000D03*
X103375000Y-135800000D03*
X103375000Y-134530000D03*
X103375000Y-133260000D03*
X103375000Y-131990000D03*
%TD*%
M02*
