%TF.GenerationSoftware,KiCad,Pcbnew,9.0.0*%
%TF.CreationDate,2025-05-12T21:33:30-05:00*%
%TF.ProjectId,Model I RS232,4d6f6465-6c20-4492-9052-533233322e6b,2.1*%
%TF.SameCoordinates,Original*%
%TF.FileFunction,Legend,Bot*%
%TF.FilePolarity,Positive*%
%FSLAX46Y46*%
G04 Gerber Fmt 4.6, Leading zero omitted, Abs format (unit mm)*
G04 Created by KiCad (PCBNEW 9.0.0) date 2025-05-12 21:33:30*
%MOMM*%
%LPD*%
G01*
G04 APERTURE LIST*
%ADD10C,0.300000*%
%ADD11C,0.150000*%
%ADD12C,0.120000*%
G04 APERTURE END LIST*
D10*
X172495489Y-145200828D02*
X172495489Y-144200828D01*
X172495489Y-144343685D02*
X172424060Y-144272257D01*
X172424060Y-144272257D02*
X172281203Y-144200828D01*
X172281203Y-144200828D02*
X172066917Y-144200828D01*
X172066917Y-144200828D02*
X171924060Y-144272257D01*
X171924060Y-144272257D02*
X171852632Y-144415114D01*
X171852632Y-144415114D02*
X171852632Y-145200828D01*
X171852632Y-144415114D02*
X171781203Y-144272257D01*
X171781203Y-144272257D02*
X171638346Y-144200828D01*
X171638346Y-144200828D02*
X171424060Y-144200828D01*
X171424060Y-144200828D02*
X171281203Y-144272257D01*
X171281203Y-144272257D02*
X171209774Y-144415114D01*
X171209774Y-144415114D02*
X171209774Y-145200828D01*
X169852632Y-145200828D02*
X169852632Y-144415114D01*
X169852632Y-144415114D02*
X169924060Y-144272257D01*
X169924060Y-144272257D02*
X170066917Y-144200828D01*
X170066917Y-144200828D02*
X170352632Y-144200828D01*
X170352632Y-144200828D02*
X170495489Y-144272257D01*
X169852632Y-145129400D02*
X169995489Y-145200828D01*
X169995489Y-145200828D02*
X170352632Y-145200828D01*
X170352632Y-145200828D02*
X170495489Y-145129400D01*
X170495489Y-145129400D02*
X170566917Y-144986542D01*
X170566917Y-144986542D02*
X170566917Y-144843685D01*
X170566917Y-144843685D02*
X170495489Y-144700828D01*
X170495489Y-144700828D02*
X170352632Y-144629400D01*
X170352632Y-144629400D02*
X169995489Y-144629400D01*
X169995489Y-144629400D02*
X169852632Y-144557971D01*
X168495489Y-145200828D02*
X168495489Y-143700828D01*
X168495489Y-145129400D02*
X168638346Y-145200828D01*
X168638346Y-145200828D02*
X168924060Y-145200828D01*
X168924060Y-145200828D02*
X169066917Y-145129400D01*
X169066917Y-145129400D02*
X169138346Y-145057971D01*
X169138346Y-145057971D02*
X169209774Y-144915114D01*
X169209774Y-144915114D02*
X169209774Y-144486542D01*
X169209774Y-144486542D02*
X169138346Y-144343685D01*
X169138346Y-144343685D02*
X169066917Y-144272257D01*
X169066917Y-144272257D02*
X168924060Y-144200828D01*
X168924060Y-144200828D02*
X168638346Y-144200828D01*
X168638346Y-144200828D02*
X168495489Y-144272257D01*
X167209774Y-145129400D02*
X167352631Y-145200828D01*
X167352631Y-145200828D02*
X167638346Y-145200828D01*
X167638346Y-145200828D02*
X167781203Y-145129400D01*
X167781203Y-145129400D02*
X167852631Y-144986542D01*
X167852631Y-144986542D02*
X167852631Y-144415114D01*
X167852631Y-144415114D02*
X167781203Y-144272257D01*
X167781203Y-144272257D02*
X167638346Y-144200828D01*
X167638346Y-144200828D02*
X167352631Y-144200828D01*
X167352631Y-144200828D02*
X167209774Y-144272257D01*
X167209774Y-144272257D02*
X167138346Y-144415114D01*
X167138346Y-144415114D02*
X167138346Y-144557971D01*
X167138346Y-144557971D02*
X167852631Y-144700828D01*
X165352632Y-145200828D02*
X165352632Y-144200828D01*
X165352632Y-143700828D02*
X165424060Y-143772257D01*
X165424060Y-143772257D02*
X165352632Y-143843685D01*
X165352632Y-143843685D02*
X165281203Y-143772257D01*
X165281203Y-143772257D02*
X165352632Y-143700828D01*
X165352632Y-143700828D02*
X165352632Y-143843685D01*
X164638346Y-144200828D02*
X164638346Y-145200828D01*
X164638346Y-144343685D02*
X164566917Y-144272257D01*
X164566917Y-144272257D02*
X164424060Y-144200828D01*
X164424060Y-144200828D02*
X164209774Y-144200828D01*
X164209774Y-144200828D02*
X164066917Y-144272257D01*
X164066917Y-144272257D02*
X163995489Y-144415114D01*
X163995489Y-144415114D02*
X163995489Y-145200828D01*
X162352631Y-144200828D02*
X161781203Y-144200828D01*
X162138346Y-145200828D02*
X162138346Y-143915114D01*
X162138346Y-143915114D02*
X162066917Y-143772257D01*
X162066917Y-143772257D02*
X161924060Y-143700828D01*
X161924060Y-143700828D02*
X161781203Y-143700828D01*
X161281203Y-145200828D02*
X161281203Y-144200828D01*
X161281203Y-144486542D02*
X161209774Y-144343685D01*
X161209774Y-144343685D02*
X161138346Y-144272257D01*
X161138346Y-144272257D02*
X160995488Y-144200828D01*
X160995488Y-144200828D02*
X160852631Y-144200828D01*
X159709775Y-144200828D02*
X159709775Y-145200828D01*
X160352632Y-144200828D02*
X160352632Y-144986542D01*
X160352632Y-144986542D02*
X160281203Y-145129400D01*
X160281203Y-145129400D02*
X160138346Y-145200828D01*
X160138346Y-145200828D02*
X159924060Y-145200828D01*
X159924060Y-145200828D02*
X159781203Y-145129400D01*
X159781203Y-145129400D02*
X159709775Y-145057971D01*
X159066917Y-145129400D02*
X158924060Y-145200828D01*
X158924060Y-145200828D02*
X158638346Y-145200828D01*
X158638346Y-145200828D02*
X158495489Y-145129400D01*
X158495489Y-145129400D02*
X158424060Y-144986542D01*
X158424060Y-144986542D02*
X158424060Y-144915114D01*
X158424060Y-144915114D02*
X158495489Y-144772257D01*
X158495489Y-144772257D02*
X158638346Y-144700828D01*
X158638346Y-144700828D02*
X158852632Y-144700828D01*
X158852632Y-144700828D02*
X158995489Y-144629400D01*
X158995489Y-144629400D02*
X159066917Y-144486542D01*
X159066917Y-144486542D02*
X159066917Y-144415114D01*
X159066917Y-144415114D02*
X158995489Y-144272257D01*
X158995489Y-144272257D02*
X158852632Y-144200828D01*
X158852632Y-144200828D02*
X158638346Y-144200828D01*
X158638346Y-144200828D02*
X158495489Y-144272257D01*
X157995488Y-144200828D02*
X157424060Y-144200828D01*
X157781203Y-143700828D02*
X157781203Y-144986542D01*
X157781203Y-144986542D02*
X157709774Y-145129400D01*
X157709774Y-145129400D02*
X157566917Y-145200828D01*
X157566917Y-145200828D02*
X157424060Y-145200828D01*
X156924060Y-145200828D02*
X156924060Y-144200828D01*
X156924060Y-144486542D02*
X156852631Y-144343685D01*
X156852631Y-144343685D02*
X156781203Y-144272257D01*
X156781203Y-144272257D02*
X156638345Y-144200828D01*
X156638345Y-144200828D02*
X156495488Y-144200828D01*
X155352632Y-145200828D02*
X155352632Y-144415114D01*
X155352632Y-144415114D02*
X155424060Y-144272257D01*
X155424060Y-144272257D02*
X155566917Y-144200828D01*
X155566917Y-144200828D02*
X155852632Y-144200828D01*
X155852632Y-144200828D02*
X155995489Y-144272257D01*
X155352632Y-145129400D02*
X155495489Y-145200828D01*
X155495489Y-145200828D02*
X155852632Y-145200828D01*
X155852632Y-145200828D02*
X155995489Y-145129400D01*
X155995489Y-145129400D02*
X156066917Y-144986542D01*
X156066917Y-144986542D02*
X156066917Y-144843685D01*
X156066917Y-144843685D02*
X155995489Y-144700828D01*
X155995489Y-144700828D02*
X155852632Y-144629400D01*
X155852632Y-144629400D02*
X155495489Y-144629400D01*
X155495489Y-144629400D02*
X155352632Y-144557971D01*
X154852631Y-144200828D02*
X154281203Y-144200828D01*
X154638346Y-143700828D02*
X154638346Y-144986542D01*
X154638346Y-144986542D02*
X154566917Y-145129400D01*
X154566917Y-145129400D02*
X154424060Y-145200828D01*
X154424060Y-145200828D02*
X154281203Y-145200828D01*
X153781203Y-145200828D02*
X153781203Y-144200828D01*
X153781203Y-143700828D02*
X153852631Y-143772257D01*
X153852631Y-143772257D02*
X153781203Y-143843685D01*
X153781203Y-143843685D02*
X153709774Y-143772257D01*
X153709774Y-143772257D02*
X153781203Y-143700828D01*
X153781203Y-143700828D02*
X153781203Y-143843685D01*
X152852631Y-145200828D02*
X152995488Y-145129400D01*
X152995488Y-145129400D02*
X153066917Y-145057971D01*
X153066917Y-145057971D02*
X153138345Y-144915114D01*
X153138345Y-144915114D02*
X153138345Y-144486542D01*
X153138345Y-144486542D02*
X153066917Y-144343685D01*
X153066917Y-144343685D02*
X152995488Y-144272257D01*
X152995488Y-144272257D02*
X152852631Y-144200828D01*
X152852631Y-144200828D02*
X152638345Y-144200828D01*
X152638345Y-144200828D02*
X152495488Y-144272257D01*
X152495488Y-144272257D02*
X152424060Y-144343685D01*
X152424060Y-144343685D02*
X152352631Y-144486542D01*
X152352631Y-144486542D02*
X152352631Y-144915114D01*
X152352631Y-144915114D02*
X152424060Y-145057971D01*
X152424060Y-145057971D02*
X152495488Y-145129400D01*
X152495488Y-145129400D02*
X152638345Y-145200828D01*
X152638345Y-145200828D02*
X152852631Y-145200828D01*
X151709774Y-144200828D02*
X151709774Y-145200828D01*
X151709774Y-144343685D02*
X151638345Y-144272257D01*
X151638345Y-144272257D02*
X151495488Y-144200828D01*
X151495488Y-144200828D02*
X151281202Y-144200828D01*
X151281202Y-144200828D02*
X151138345Y-144272257D01*
X151138345Y-144272257D02*
X151066917Y-144415114D01*
X151066917Y-144415114D02*
X151066917Y-145200828D01*
D11*
X108892857Y-82129580D02*
X108940476Y-82177200D01*
X108940476Y-82177200D02*
X109083333Y-82224819D01*
X109083333Y-82224819D02*
X109178571Y-82224819D01*
X109178571Y-82224819D02*
X109321428Y-82177200D01*
X109321428Y-82177200D02*
X109416666Y-82081961D01*
X109416666Y-82081961D02*
X109464285Y-81986723D01*
X109464285Y-81986723D02*
X109511904Y-81796247D01*
X109511904Y-81796247D02*
X109511904Y-81653390D01*
X109511904Y-81653390D02*
X109464285Y-81462914D01*
X109464285Y-81462914D02*
X109416666Y-81367676D01*
X109416666Y-81367676D02*
X109321428Y-81272438D01*
X109321428Y-81272438D02*
X109178571Y-81224819D01*
X109178571Y-81224819D02*
X109083333Y-81224819D01*
X109083333Y-81224819D02*
X108940476Y-81272438D01*
X108940476Y-81272438D02*
X108892857Y-81320057D01*
X107940476Y-82224819D02*
X108511904Y-82224819D01*
X108226190Y-82224819D02*
X108226190Y-81224819D01*
X108226190Y-81224819D02*
X108321428Y-81367676D01*
X108321428Y-81367676D02*
X108416666Y-81462914D01*
X108416666Y-81462914D02*
X108511904Y-81510533D01*
X106988095Y-82224819D02*
X107559523Y-82224819D01*
X107273809Y-82224819D02*
X107273809Y-81224819D01*
X107273809Y-81224819D02*
X107369047Y-81367676D01*
X107369047Y-81367676D02*
X107464285Y-81462914D01*
X107464285Y-81462914D02*
X107559523Y-81510533D01*
X109892856Y-84584819D02*
X109797618Y-84584819D01*
X109797618Y-84584819D02*
X109702380Y-84632438D01*
X109702380Y-84632438D02*
X109654761Y-84680057D01*
X109654761Y-84680057D02*
X109607142Y-84775295D01*
X109607142Y-84775295D02*
X109559523Y-84965771D01*
X109559523Y-84965771D02*
X109559523Y-85203866D01*
X109559523Y-85203866D02*
X109607142Y-85394342D01*
X109607142Y-85394342D02*
X109654761Y-85489580D01*
X109654761Y-85489580D02*
X109702380Y-85537200D01*
X109702380Y-85537200D02*
X109797618Y-85584819D01*
X109797618Y-85584819D02*
X109892856Y-85584819D01*
X109892856Y-85584819D02*
X109988094Y-85537200D01*
X109988094Y-85537200D02*
X110035713Y-85489580D01*
X110035713Y-85489580D02*
X110083332Y-85394342D01*
X110083332Y-85394342D02*
X110130951Y-85203866D01*
X110130951Y-85203866D02*
X110130951Y-84965771D01*
X110130951Y-84965771D02*
X110083332Y-84775295D01*
X110083332Y-84775295D02*
X110035713Y-84680057D01*
X110035713Y-84680057D02*
X109988094Y-84632438D01*
X109988094Y-84632438D02*
X109892856Y-84584819D01*
X109130951Y-85489580D02*
X109083332Y-85537200D01*
X109083332Y-85537200D02*
X109130951Y-85584819D01*
X109130951Y-85584819D02*
X109178570Y-85537200D01*
X109178570Y-85537200D02*
X109130951Y-85489580D01*
X109130951Y-85489580D02*
X109130951Y-85584819D01*
X108130952Y-85584819D02*
X108702380Y-85584819D01*
X108416666Y-85584819D02*
X108416666Y-84584819D01*
X108416666Y-84584819D02*
X108511904Y-84727676D01*
X108511904Y-84727676D02*
X108607142Y-84822914D01*
X108607142Y-84822914D02*
X108702380Y-84870533D01*
X107273809Y-84918152D02*
X107273809Y-85584819D01*
X107702380Y-84918152D02*
X107702380Y-85441961D01*
X107702380Y-85441961D02*
X107654761Y-85537200D01*
X107654761Y-85537200D02*
X107559523Y-85584819D01*
X107559523Y-85584819D02*
X107416666Y-85584819D01*
X107416666Y-85584819D02*
X107321428Y-85537200D01*
X107321428Y-85537200D02*
X107273809Y-85489580D01*
X106464285Y-85061009D02*
X106797618Y-85061009D01*
X106797618Y-85584819D02*
X106797618Y-84584819D01*
X106797618Y-84584819D02*
X106321428Y-84584819D01*
X103966666Y-77529580D02*
X104014285Y-77577200D01*
X104014285Y-77577200D02*
X104157142Y-77624819D01*
X104157142Y-77624819D02*
X104252380Y-77624819D01*
X104252380Y-77624819D02*
X104395237Y-77577200D01*
X104395237Y-77577200D02*
X104490475Y-77481961D01*
X104490475Y-77481961D02*
X104538094Y-77386723D01*
X104538094Y-77386723D02*
X104585713Y-77196247D01*
X104585713Y-77196247D02*
X104585713Y-77053390D01*
X104585713Y-77053390D02*
X104538094Y-76862914D01*
X104538094Y-76862914D02*
X104490475Y-76767676D01*
X104490475Y-76767676D02*
X104395237Y-76672438D01*
X104395237Y-76672438D02*
X104252380Y-76624819D01*
X104252380Y-76624819D02*
X104157142Y-76624819D01*
X104157142Y-76624819D02*
X104014285Y-76672438D01*
X104014285Y-76672438D02*
X103966666Y-76720057D01*
X103109523Y-76958152D02*
X103109523Y-77624819D01*
X103347618Y-76577200D02*
X103585713Y-77291485D01*
X103585713Y-77291485D02*
X102966666Y-77291485D01*
X105919047Y-79984819D02*
X105823809Y-79984819D01*
X105823809Y-79984819D02*
X105728571Y-80032438D01*
X105728571Y-80032438D02*
X105680952Y-80080057D01*
X105680952Y-80080057D02*
X105633333Y-80175295D01*
X105633333Y-80175295D02*
X105585714Y-80365771D01*
X105585714Y-80365771D02*
X105585714Y-80603866D01*
X105585714Y-80603866D02*
X105633333Y-80794342D01*
X105633333Y-80794342D02*
X105680952Y-80889580D01*
X105680952Y-80889580D02*
X105728571Y-80937200D01*
X105728571Y-80937200D02*
X105823809Y-80984819D01*
X105823809Y-80984819D02*
X105919047Y-80984819D01*
X105919047Y-80984819D02*
X106014285Y-80937200D01*
X106014285Y-80937200D02*
X106061904Y-80889580D01*
X106061904Y-80889580D02*
X106109523Y-80794342D01*
X106109523Y-80794342D02*
X106157142Y-80603866D01*
X106157142Y-80603866D02*
X106157142Y-80365771D01*
X106157142Y-80365771D02*
X106109523Y-80175295D01*
X106109523Y-80175295D02*
X106061904Y-80080057D01*
X106061904Y-80080057D02*
X106014285Y-80032438D01*
X106014285Y-80032438D02*
X105919047Y-79984819D01*
X105157142Y-80889580D02*
X105109523Y-80937200D01*
X105109523Y-80937200D02*
X105157142Y-80984819D01*
X105157142Y-80984819D02*
X105204761Y-80937200D01*
X105204761Y-80937200D02*
X105157142Y-80889580D01*
X105157142Y-80889580D02*
X105157142Y-80984819D01*
X104252381Y-80318152D02*
X104252381Y-80984819D01*
X104490476Y-79937200D02*
X104728571Y-80651485D01*
X104728571Y-80651485D02*
X104109524Y-80651485D01*
X103823809Y-79984819D02*
X103157143Y-79984819D01*
X103157143Y-79984819D02*
X103585714Y-80984819D01*
X102347619Y-80318152D02*
X102347619Y-80984819D01*
X102776190Y-80318152D02*
X102776190Y-80841961D01*
X102776190Y-80841961D02*
X102728571Y-80937200D01*
X102728571Y-80937200D02*
X102633333Y-80984819D01*
X102633333Y-80984819D02*
X102490476Y-80984819D01*
X102490476Y-80984819D02*
X102395238Y-80937200D01*
X102395238Y-80937200D02*
X102347619Y-80889580D01*
X101538095Y-80461009D02*
X101871428Y-80461009D01*
X101871428Y-80984819D02*
X101871428Y-79984819D01*
X101871428Y-79984819D02*
X101395238Y-79984819D01*
X108639580Y-112620833D02*
X108687200Y-112573214D01*
X108687200Y-112573214D02*
X108734819Y-112430357D01*
X108734819Y-112430357D02*
X108734819Y-112335119D01*
X108734819Y-112335119D02*
X108687200Y-112192262D01*
X108687200Y-112192262D02*
X108591961Y-112097024D01*
X108591961Y-112097024D02*
X108496723Y-112049405D01*
X108496723Y-112049405D02*
X108306247Y-112001786D01*
X108306247Y-112001786D02*
X108163390Y-112001786D01*
X108163390Y-112001786D02*
X107972914Y-112049405D01*
X107972914Y-112049405D02*
X107877676Y-112097024D01*
X107877676Y-112097024D02*
X107782438Y-112192262D01*
X107782438Y-112192262D02*
X107734819Y-112335119D01*
X107734819Y-112335119D02*
X107734819Y-112430357D01*
X107734819Y-112430357D02*
X107782438Y-112573214D01*
X107782438Y-112573214D02*
X107830057Y-112620833D01*
X107830057Y-113001786D02*
X107782438Y-113049405D01*
X107782438Y-113049405D02*
X107734819Y-113144643D01*
X107734819Y-113144643D02*
X107734819Y-113382738D01*
X107734819Y-113382738D02*
X107782438Y-113477976D01*
X107782438Y-113477976D02*
X107830057Y-113525595D01*
X107830057Y-113525595D02*
X107925295Y-113573214D01*
X107925295Y-113573214D02*
X108020533Y-113573214D01*
X108020533Y-113573214D02*
X108163390Y-113525595D01*
X108163390Y-113525595D02*
X108734819Y-112954167D01*
X108734819Y-112954167D02*
X108734819Y-113573214D01*
X104374819Y-111144643D02*
X104374819Y-111239881D01*
X104374819Y-111239881D02*
X104422438Y-111335119D01*
X104422438Y-111335119D02*
X104470057Y-111382738D01*
X104470057Y-111382738D02*
X104565295Y-111430357D01*
X104565295Y-111430357D02*
X104755771Y-111477976D01*
X104755771Y-111477976D02*
X104993866Y-111477976D01*
X104993866Y-111477976D02*
X105184342Y-111430357D01*
X105184342Y-111430357D02*
X105279580Y-111382738D01*
X105279580Y-111382738D02*
X105327200Y-111335119D01*
X105327200Y-111335119D02*
X105374819Y-111239881D01*
X105374819Y-111239881D02*
X105374819Y-111144643D01*
X105374819Y-111144643D02*
X105327200Y-111049405D01*
X105327200Y-111049405D02*
X105279580Y-111001786D01*
X105279580Y-111001786D02*
X105184342Y-110954167D01*
X105184342Y-110954167D02*
X104993866Y-110906548D01*
X104993866Y-110906548D02*
X104755771Y-110906548D01*
X104755771Y-110906548D02*
X104565295Y-110954167D01*
X104565295Y-110954167D02*
X104470057Y-111001786D01*
X104470057Y-111001786D02*
X104422438Y-111049405D01*
X104422438Y-111049405D02*
X104374819Y-111144643D01*
X105279580Y-111906548D02*
X105327200Y-111954167D01*
X105327200Y-111954167D02*
X105374819Y-111906548D01*
X105374819Y-111906548D02*
X105327200Y-111858929D01*
X105327200Y-111858929D02*
X105279580Y-111906548D01*
X105279580Y-111906548D02*
X105374819Y-111906548D01*
X105374819Y-112906547D02*
X105374819Y-112335119D01*
X105374819Y-112620833D02*
X104374819Y-112620833D01*
X104374819Y-112620833D02*
X104517676Y-112525595D01*
X104517676Y-112525595D02*
X104612914Y-112430357D01*
X104612914Y-112430357D02*
X104660533Y-112335119D01*
X104708152Y-113763690D02*
X105374819Y-113763690D01*
X104708152Y-113335119D02*
X105231961Y-113335119D01*
X105231961Y-113335119D02*
X105327200Y-113382738D01*
X105327200Y-113382738D02*
X105374819Y-113477976D01*
X105374819Y-113477976D02*
X105374819Y-113620833D01*
X105374819Y-113620833D02*
X105327200Y-113716071D01*
X105327200Y-113716071D02*
X105279580Y-113763690D01*
X104851009Y-114573214D02*
X104851009Y-114239881D01*
X105374819Y-114239881D02*
X104374819Y-114239881D01*
X104374819Y-114239881D02*
X104374819Y-114716071D01*
X124116666Y-80839580D02*
X124164285Y-80887200D01*
X124164285Y-80887200D02*
X124307142Y-80934819D01*
X124307142Y-80934819D02*
X124402380Y-80934819D01*
X124402380Y-80934819D02*
X124545237Y-80887200D01*
X124545237Y-80887200D02*
X124640475Y-80791961D01*
X124640475Y-80791961D02*
X124688094Y-80696723D01*
X124688094Y-80696723D02*
X124735713Y-80506247D01*
X124735713Y-80506247D02*
X124735713Y-80363390D01*
X124735713Y-80363390D02*
X124688094Y-80172914D01*
X124688094Y-80172914D02*
X124640475Y-80077676D01*
X124640475Y-80077676D02*
X124545237Y-79982438D01*
X124545237Y-79982438D02*
X124402380Y-79934819D01*
X124402380Y-79934819D02*
X124307142Y-79934819D01*
X124307142Y-79934819D02*
X124164285Y-79982438D01*
X124164285Y-79982438D02*
X124116666Y-80030057D01*
X123783332Y-79934819D02*
X123164285Y-79934819D01*
X123164285Y-79934819D02*
X123497618Y-80315771D01*
X123497618Y-80315771D02*
X123354761Y-80315771D01*
X123354761Y-80315771D02*
X123259523Y-80363390D01*
X123259523Y-80363390D02*
X123211904Y-80411009D01*
X123211904Y-80411009D02*
X123164285Y-80506247D01*
X123164285Y-80506247D02*
X123164285Y-80744342D01*
X123164285Y-80744342D02*
X123211904Y-80839580D01*
X123211904Y-80839580D02*
X123259523Y-80887200D01*
X123259523Y-80887200D02*
X123354761Y-80934819D01*
X123354761Y-80934819D02*
X123640475Y-80934819D01*
X123640475Y-80934819D02*
X123735713Y-80887200D01*
X123735713Y-80887200D02*
X123783332Y-80839580D01*
X125592856Y-76574819D02*
X125497618Y-76574819D01*
X125497618Y-76574819D02*
X125402380Y-76622438D01*
X125402380Y-76622438D02*
X125354761Y-76670057D01*
X125354761Y-76670057D02*
X125307142Y-76765295D01*
X125307142Y-76765295D02*
X125259523Y-76955771D01*
X125259523Y-76955771D02*
X125259523Y-77193866D01*
X125259523Y-77193866D02*
X125307142Y-77384342D01*
X125307142Y-77384342D02*
X125354761Y-77479580D01*
X125354761Y-77479580D02*
X125402380Y-77527200D01*
X125402380Y-77527200D02*
X125497618Y-77574819D01*
X125497618Y-77574819D02*
X125592856Y-77574819D01*
X125592856Y-77574819D02*
X125688094Y-77527200D01*
X125688094Y-77527200D02*
X125735713Y-77479580D01*
X125735713Y-77479580D02*
X125783332Y-77384342D01*
X125783332Y-77384342D02*
X125830951Y-77193866D01*
X125830951Y-77193866D02*
X125830951Y-76955771D01*
X125830951Y-76955771D02*
X125783332Y-76765295D01*
X125783332Y-76765295D02*
X125735713Y-76670057D01*
X125735713Y-76670057D02*
X125688094Y-76622438D01*
X125688094Y-76622438D02*
X125592856Y-76574819D01*
X124830951Y-77479580D02*
X124783332Y-77527200D01*
X124783332Y-77527200D02*
X124830951Y-77574819D01*
X124830951Y-77574819D02*
X124878570Y-77527200D01*
X124878570Y-77527200D02*
X124830951Y-77479580D01*
X124830951Y-77479580D02*
X124830951Y-77574819D01*
X123830952Y-77574819D02*
X124402380Y-77574819D01*
X124116666Y-77574819D02*
X124116666Y-76574819D01*
X124116666Y-76574819D02*
X124211904Y-76717676D01*
X124211904Y-76717676D02*
X124307142Y-76812914D01*
X124307142Y-76812914D02*
X124402380Y-76860533D01*
X122973809Y-76908152D02*
X122973809Y-77574819D01*
X123402380Y-76908152D02*
X123402380Y-77431961D01*
X123402380Y-77431961D02*
X123354761Y-77527200D01*
X123354761Y-77527200D02*
X123259523Y-77574819D01*
X123259523Y-77574819D02*
X123116666Y-77574819D01*
X123116666Y-77574819D02*
X123021428Y-77527200D01*
X123021428Y-77527200D02*
X122973809Y-77479580D01*
X122164285Y-77051009D02*
X122497618Y-77051009D01*
X122497618Y-77574819D02*
X122497618Y-76574819D01*
X122497618Y-76574819D02*
X122021428Y-76574819D01*
X130139580Y-118083333D02*
X130187200Y-118035714D01*
X130187200Y-118035714D02*
X130234819Y-117892857D01*
X130234819Y-117892857D02*
X130234819Y-117797619D01*
X130234819Y-117797619D02*
X130187200Y-117654762D01*
X130187200Y-117654762D02*
X130091961Y-117559524D01*
X130091961Y-117559524D02*
X129996723Y-117511905D01*
X129996723Y-117511905D02*
X129806247Y-117464286D01*
X129806247Y-117464286D02*
X129663390Y-117464286D01*
X129663390Y-117464286D02*
X129472914Y-117511905D01*
X129472914Y-117511905D02*
X129377676Y-117559524D01*
X129377676Y-117559524D02*
X129282438Y-117654762D01*
X129282438Y-117654762D02*
X129234819Y-117797619D01*
X129234819Y-117797619D02*
X129234819Y-117892857D01*
X129234819Y-117892857D02*
X129282438Y-118035714D01*
X129282438Y-118035714D02*
X129330057Y-118083333D01*
X129234819Y-118940476D02*
X129234819Y-118750000D01*
X129234819Y-118750000D02*
X129282438Y-118654762D01*
X129282438Y-118654762D02*
X129330057Y-118607143D01*
X129330057Y-118607143D02*
X129472914Y-118511905D01*
X129472914Y-118511905D02*
X129663390Y-118464286D01*
X129663390Y-118464286D02*
X130044342Y-118464286D01*
X130044342Y-118464286D02*
X130139580Y-118511905D01*
X130139580Y-118511905D02*
X130187200Y-118559524D01*
X130187200Y-118559524D02*
X130234819Y-118654762D01*
X130234819Y-118654762D02*
X130234819Y-118845238D01*
X130234819Y-118845238D02*
X130187200Y-118940476D01*
X130187200Y-118940476D02*
X130139580Y-118988095D01*
X130139580Y-118988095D02*
X130044342Y-119035714D01*
X130044342Y-119035714D02*
X129806247Y-119035714D01*
X129806247Y-119035714D02*
X129711009Y-118988095D01*
X129711009Y-118988095D02*
X129663390Y-118940476D01*
X129663390Y-118940476D02*
X129615771Y-118845238D01*
X129615771Y-118845238D02*
X129615771Y-118654762D01*
X129615771Y-118654762D02*
X129663390Y-118559524D01*
X129663390Y-118559524D02*
X129711009Y-118511905D01*
X129711009Y-118511905D02*
X129806247Y-118464286D01*
X125874819Y-116607143D02*
X125874819Y-116702381D01*
X125874819Y-116702381D02*
X125922438Y-116797619D01*
X125922438Y-116797619D02*
X125970057Y-116845238D01*
X125970057Y-116845238D02*
X126065295Y-116892857D01*
X126065295Y-116892857D02*
X126255771Y-116940476D01*
X126255771Y-116940476D02*
X126493866Y-116940476D01*
X126493866Y-116940476D02*
X126684342Y-116892857D01*
X126684342Y-116892857D02*
X126779580Y-116845238D01*
X126779580Y-116845238D02*
X126827200Y-116797619D01*
X126827200Y-116797619D02*
X126874819Y-116702381D01*
X126874819Y-116702381D02*
X126874819Y-116607143D01*
X126874819Y-116607143D02*
X126827200Y-116511905D01*
X126827200Y-116511905D02*
X126779580Y-116464286D01*
X126779580Y-116464286D02*
X126684342Y-116416667D01*
X126684342Y-116416667D02*
X126493866Y-116369048D01*
X126493866Y-116369048D02*
X126255771Y-116369048D01*
X126255771Y-116369048D02*
X126065295Y-116416667D01*
X126065295Y-116416667D02*
X125970057Y-116464286D01*
X125970057Y-116464286D02*
X125922438Y-116511905D01*
X125922438Y-116511905D02*
X125874819Y-116607143D01*
X126779580Y-117369048D02*
X126827200Y-117416667D01*
X126827200Y-117416667D02*
X126874819Y-117369048D01*
X126874819Y-117369048D02*
X126827200Y-117321429D01*
X126827200Y-117321429D02*
X126779580Y-117369048D01*
X126779580Y-117369048D02*
X126874819Y-117369048D01*
X126874819Y-118369047D02*
X126874819Y-117797619D01*
X126874819Y-118083333D02*
X125874819Y-118083333D01*
X125874819Y-118083333D02*
X126017676Y-117988095D01*
X126017676Y-117988095D02*
X126112914Y-117892857D01*
X126112914Y-117892857D02*
X126160533Y-117797619D01*
X126208152Y-119226190D02*
X126874819Y-119226190D01*
X126208152Y-118797619D02*
X126731961Y-118797619D01*
X126731961Y-118797619D02*
X126827200Y-118845238D01*
X126827200Y-118845238D02*
X126874819Y-118940476D01*
X126874819Y-118940476D02*
X126874819Y-119083333D01*
X126874819Y-119083333D02*
X126827200Y-119178571D01*
X126827200Y-119178571D02*
X126779580Y-119226190D01*
X126351009Y-120035714D02*
X126351009Y-119702381D01*
X126874819Y-119702381D02*
X125874819Y-119702381D01*
X125874819Y-119702381D02*
X125874819Y-120178571D01*
X96966666Y-77529580D02*
X97014285Y-77577200D01*
X97014285Y-77577200D02*
X97157142Y-77624819D01*
X97157142Y-77624819D02*
X97252380Y-77624819D01*
X97252380Y-77624819D02*
X97395237Y-77577200D01*
X97395237Y-77577200D02*
X97490475Y-77481961D01*
X97490475Y-77481961D02*
X97538094Y-77386723D01*
X97538094Y-77386723D02*
X97585713Y-77196247D01*
X97585713Y-77196247D02*
X97585713Y-77053390D01*
X97585713Y-77053390D02*
X97538094Y-76862914D01*
X97538094Y-76862914D02*
X97490475Y-76767676D01*
X97490475Y-76767676D02*
X97395237Y-76672438D01*
X97395237Y-76672438D02*
X97252380Y-76624819D01*
X97252380Y-76624819D02*
X97157142Y-76624819D01*
X97157142Y-76624819D02*
X97014285Y-76672438D01*
X97014285Y-76672438D02*
X96966666Y-76720057D01*
X96490475Y-77624819D02*
X96299999Y-77624819D01*
X96299999Y-77624819D02*
X96204761Y-77577200D01*
X96204761Y-77577200D02*
X96157142Y-77529580D01*
X96157142Y-77529580D02*
X96061904Y-77386723D01*
X96061904Y-77386723D02*
X96014285Y-77196247D01*
X96014285Y-77196247D02*
X96014285Y-76815295D01*
X96014285Y-76815295D02*
X96061904Y-76720057D01*
X96061904Y-76720057D02*
X96109523Y-76672438D01*
X96109523Y-76672438D02*
X96204761Y-76624819D01*
X96204761Y-76624819D02*
X96395237Y-76624819D01*
X96395237Y-76624819D02*
X96490475Y-76672438D01*
X96490475Y-76672438D02*
X96538094Y-76720057D01*
X96538094Y-76720057D02*
X96585713Y-76815295D01*
X96585713Y-76815295D02*
X96585713Y-77053390D01*
X96585713Y-77053390D02*
X96538094Y-77148628D01*
X96538094Y-77148628D02*
X96490475Y-77196247D01*
X96490475Y-77196247D02*
X96395237Y-77243866D01*
X96395237Y-77243866D02*
X96204761Y-77243866D01*
X96204761Y-77243866D02*
X96109523Y-77196247D01*
X96109523Y-77196247D02*
X96061904Y-77148628D01*
X96061904Y-77148628D02*
X96014285Y-77053390D01*
X98442856Y-79984819D02*
X98347618Y-79984819D01*
X98347618Y-79984819D02*
X98252380Y-80032438D01*
X98252380Y-80032438D02*
X98204761Y-80080057D01*
X98204761Y-80080057D02*
X98157142Y-80175295D01*
X98157142Y-80175295D02*
X98109523Y-80365771D01*
X98109523Y-80365771D02*
X98109523Y-80603866D01*
X98109523Y-80603866D02*
X98157142Y-80794342D01*
X98157142Y-80794342D02*
X98204761Y-80889580D01*
X98204761Y-80889580D02*
X98252380Y-80937200D01*
X98252380Y-80937200D02*
X98347618Y-80984819D01*
X98347618Y-80984819D02*
X98442856Y-80984819D01*
X98442856Y-80984819D02*
X98538094Y-80937200D01*
X98538094Y-80937200D02*
X98585713Y-80889580D01*
X98585713Y-80889580D02*
X98633332Y-80794342D01*
X98633332Y-80794342D02*
X98680951Y-80603866D01*
X98680951Y-80603866D02*
X98680951Y-80365771D01*
X98680951Y-80365771D02*
X98633332Y-80175295D01*
X98633332Y-80175295D02*
X98585713Y-80080057D01*
X98585713Y-80080057D02*
X98538094Y-80032438D01*
X98538094Y-80032438D02*
X98442856Y-79984819D01*
X97680951Y-80889580D02*
X97633332Y-80937200D01*
X97633332Y-80937200D02*
X97680951Y-80984819D01*
X97680951Y-80984819D02*
X97728570Y-80937200D01*
X97728570Y-80937200D02*
X97680951Y-80889580D01*
X97680951Y-80889580D02*
X97680951Y-80984819D01*
X96680952Y-80984819D02*
X97252380Y-80984819D01*
X96966666Y-80984819D02*
X96966666Y-79984819D01*
X96966666Y-79984819D02*
X97061904Y-80127676D01*
X97061904Y-80127676D02*
X97157142Y-80222914D01*
X97157142Y-80222914D02*
X97252380Y-80270533D01*
X95823809Y-80318152D02*
X95823809Y-80984819D01*
X96252380Y-80318152D02*
X96252380Y-80841961D01*
X96252380Y-80841961D02*
X96204761Y-80937200D01*
X96204761Y-80937200D02*
X96109523Y-80984819D01*
X96109523Y-80984819D02*
X95966666Y-80984819D01*
X95966666Y-80984819D02*
X95871428Y-80937200D01*
X95871428Y-80937200D02*
X95823809Y-80889580D01*
X95014285Y-80461009D02*
X95347618Y-80461009D01*
X95347618Y-80984819D02*
X95347618Y-79984819D01*
X95347618Y-79984819D02*
X94871428Y-79984819D01*
X157216666Y-90139580D02*
X157264285Y-90187200D01*
X157264285Y-90187200D02*
X157407142Y-90234819D01*
X157407142Y-90234819D02*
X157502380Y-90234819D01*
X157502380Y-90234819D02*
X157645237Y-90187200D01*
X157645237Y-90187200D02*
X157740475Y-90091961D01*
X157740475Y-90091961D02*
X157788094Y-89996723D01*
X157788094Y-89996723D02*
X157835713Y-89806247D01*
X157835713Y-89806247D02*
X157835713Y-89663390D01*
X157835713Y-89663390D02*
X157788094Y-89472914D01*
X157788094Y-89472914D02*
X157740475Y-89377676D01*
X157740475Y-89377676D02*
X157645237Y-89282438D01*
X157645237Y-89282438D02*
X157502380Y-89234819D01*
X157502380Y-89234819D02*
X157407142Y-89234819D01*
X157407142Y-89234819D02*
X157264285Y-89282438D01*
X157264285Y-89282438D02*
X157216666Y-89330057D01*
X156264285Y-90234819D02*
X156835713Y-90234819D01*
X156549999Y-90234819D02*
X156549999Y-89234819D01*
X156549999Y-89234819D02*
X156645237Y-89377676D01*
X156645237Y-89377676D02*
X156740475Y-89472914D01*
X156740475Y-89472914D02*
X156835713Y-89520533D01*
X158692856Y-85874819D02*
X158597618Y-85874819D01*
X158597618Y-85874819D02*
X158502380Y-85922438D01*
X158502380Y-85922438D02*
X158454761Y-85970057D01*
X158454761Y-85970057D02*
X158407142Y-86065295D01*
X158407142Y-86065295D02*
X158359523Y-86255771D01*
X158359523Y-86255771D02*
X158359523Y-86493866D01*
X158359523Y-86493866D02*
X158407142Y-86684342D01*
X158407142Y-86684342D02*
X158454761Y-86779580D01*
X158454761Y-86779580D02*
X158502380Y-86827200D01*
X158502380Y-86827200D02*
X158597618Y-86874819D01*
X158597618Y-86874819D02*
X158692856Y-86874819D01*
X158692856Y-86874819D02*
X158788094Y-86827200D01*
X158788094Y-86827200D02*
X158835713Y-86779580D01*
X158835713Y-86779580D02*
X158883332Y-86684342D01*
X158883332Y-86684342D02*
X158930951Y-86493866D01*
X158930951Y-86493866D02*
X158930951Y-86255771D01*
X158930951Y-86255771D02*
X158883332Y-86065295D01*
X158883332Y-86065295D02*
X158835713Y-85970057D01*
X158835713Y-85970057D02*
X158788094Y-85922438D01*
X158788094Y-85922438D02*
X158692856Y-85874819D01*
X157930951Y-86779580D02*
X157883332Y-86827200D01*
X157883332Y-86827200D02*
X157930951Y-86874819D01*
X157930951Y-86874819D02*
X157978570Y-86827200D01*
X157978570Y-86827200D02*
X157930951Y-86779580D01*
X157930951Y-86779580D02*
X157930951Y-86874819D01*
X156930952Y-86874819D02*
X157502380Y-86874819D01*
X157216666Y-86874819D02*
X157216666Y-85874819D01*
X157216666Y-85874819D02*
X157311904Y-86017676D01*
X157311904Y-86017676D02*
X157407142Y-86112914D01*
X157407142Y-86112914D02*
X157502380Y-86160533D01*
X156073809Y-86208152D02*
X156073809Y-86874819D01*
X156502380Y-86208152D02*
X156502380Y-86731961D01*
X156502380Y-86731961D02*
X156454761Y-86827200D01*
X156454761Y-86827200D02*
X156359523Y-86874819D01*
X156359523Y-86874819D02*
X156216666Y-86874819D01*
X156216666Y-86874819D02*
X156121428Y-86827200D01*
X156121428Y-86827200D02*
X156073809Y-86779580D01*
X155264285Y-86351009D02*
X155597618Y-86351009D01*
X155597618Y-86874819D02*
X155597618Y-85874819D01*
X155597618Y-85874819D02*
X155121428Y-85874819D01*
X107742857Y-99774580D02*
X107790476Y-99822200D01*
X107790476Y-99822200D02*
X107933333Y-99869819D01*
X107933333Y-99869819D02*
X108028571Y-99869819D01*
X108028571Y-99869819D02*
X108171428Y-99822200D01*
X108171428Y-99822200D02*
X108266666Y-99726961D01*
X108266666Y-99726961D02*
X108314285Y-99631723D01*
X108314285Y-99631723D02*
X108361904Y-99441247D01*
X108361904Y-99441247D02*
X108361904Y-99298390D01*
X108361904Y-99298390D02*
X108314285Y-99107914D01*
X108314285Y-99107914D02*
X108266666Y-99012676D01*
X108266666Y-99012676D02*
X108171428Y-98917438D01*
X108171428Y-98917438D02*
X108028571Y-98869819D01*
X108028571Y-98869819D02*
X107933333Y-98869819D01*
X107933333Y-98869819D02*
X107790476Y-98917438D01*
X107790476Y-98917438D02*
X107742857Y-98965057D01*
X106790476Y-99869819D02*
X107361904Y-99869819D01*
X107076190Y-99869819D02*
X107076190Y-98869819D01*
X107076190Y-98869819D02*
X107171428Y-99012676D01*
X107171428Y-99012676D02*
X107266666Y-99107914D01*
X107266666Y-99107914D02*
X107361904Y-99155533D01*
X106457142Y-98869819D02*
X105838095Y-98869819D01*
X105838095Y-98869819D02*
X106171428Y-99250771D01*
X106171428Y-99250771D02*
X106028571Y-99250771D01*
X106028571Y-99250771D02*
X105933333Y-99298390D01*
X105933333Y-99298390D02*
X105885714Y-99346009D01*
X105885714Y-99346009D02*
X105838095Y-99441247D01*
X105838095Y-99441247D02*
X105838095Y-99679342D01*
X105838095Y-99679342D02*
X105885714Y-99774580D01*
X105885714Y-99774580D02*
X105933333Y-99822200D01*
X105933333Y-99822200D02*
X106028571Y-99869819D01*
X106028571Y-99869819D02*
X106314285Y-99869819D01*
X106314285Y-99869819D02*
X106409523Y-99822200D01*
X106409523Y-99822200D02*
X106457142Y-99774580D01*
X108742856Y-95509819D02*
X108647618Y-95509819D01*
X108647618Y-95509819D02*
X108552380Y-95557438D01*
X108552380Y-95557438D02*
X108504761Y-95605057D01*
X108504761Y-95605057D02*
X108457142Y-95700295D01*
X108457142Y-95700295D02*
X108409523Y-95890771D01*
X108409523Y-95890771D02*
X108409523Y-96128866D01*
X108409523Y-96128866D02*
X108457142Y-96319342D01*
X108457142Y-96319342D02*
X108504761Y-96414580D01*
X108504761Y-96414580D02*
X108552380Y-96462200D01*
X108552380Y-96462200D02*
X108647618Y-96509819D01*
X108647618Y-96509819D02*
X108742856Y-96509819D01*
X108742856Y-96509819D02*
X108838094Y-96462200D01*
X108838094Y-96462200D02*
X108885713Y-96414580D01*
X108885713Y-96414580D02*
X108933332Y-96319342D01*
X108933332Y-96319342D02*
X108980951Y-96128866D01*
X108980951Y-96128866D02*
X108980951Y-95890771D01*
X108980951Y-95890771D02*
X108933332Y-95700295D01*
X108933332Y-95700295D02*
X108885713Y-95605057D01*
X108885713Y-95605057D02*
X108838094Y-95557438D01*
X108838094Y-95557438D02*
X108742856Y-95509819D01*
X107980951Y-96414580D02*
X107933332Y-96462200D01*
X107933332Y-96462200D02*
X107980951Y-96509819D01*
X107980951Y-96509819D02*
X108028570Y-96462200D01*
X108028570Y-96462200D02*
X107980951Y-96414580D01*
X107980951Y-96414580D02*
X107980951Y-96509819D01*
X106980952Y-96509819D02*
X107552380Y-96509819D01*
X107266666Y-96509819D02*
X107266666Y-95509819D01*
X107266666Y-95509819D02*
X107361904Y-95652676D01*
X107361904Y-95652676D02*
X107457142Y-95747914D01*
X107457142Y-95747914D02*
X107552380Y-95795533D01*
X106123809Y-95843152D02*
X106123809Y-96509819D01*
X106552380Y-95843152D02*
X106552380Y-96366961D01*
X106552380Y-96366961D02*
X106504761Y-96462200D01*
X106504761Y-96462200D02*
X106409523Y-96509819D01*
X106409523Y-96509819D02*
X106266666Y-96509819D01*
X106266666Y-96509819D02*
X106171428Y-96462200D01*
X106171428Y-96462200D02*
X106123809Y-96414580D01*
X105314285Y-95986009D02*
X105647618Y-95986009D01*
X105647618Y-96509819D02*
X105647618Y-95509819D01*
X105647618Y-95509819D02*
X105171428Y-95509819D01*
X110042857Y-80889580D02*
X110090476Y-80937200D01*
X110090476Y-80937200D02*
X110233333Y-80984819D01*
X110233333Y-80984819D02*
X110328571Y-80984819D01*
X110328571Y-80984819D02*
X110471428Y-80937200D01*
X110471428Y-80937200D02*
X110566666Y-80841961D01*
X110566666Y-80841961D02*
X110614285Y-80746723D01*
X110614285Y-80746723D02*
X110661904Y-80556247D01*
X110661904Y-80556247D02*
X110661904Y-80413390D01*
X110661904Y-80413390D02*
X110614285Y-80222914D01*
X110614285Y-80222914D02*
X110566666Y-80127676D01*
X110566666Y-80127676D02*
X110471428Y-80032438D01*
X110471428Y-80032438D02*
X110328571Y-79984819D01*
X110328571Y-79984819D02*
X110233333Y-79984819D01*
X110233333Y-79984819D02*
X110090476Y-80032438D01*
X110090476Y-80032438D02*
X110042857Y-80080057D01*
X109090476Y-80984819D02*
X109661904Y-80984819D01*
X109376190Y-80984819D02*
X109376190Y-79984819D01*
X109376190Y-79984819D02*
X109471428Y-80127676D01*
X109471428Y-80127676D02*
X109566666Y-80222914D01*
X109566666Y-80222914D02*
X109661904Y-80270533D01*
X108471428Y-79984819D02*
X108376190Y-79984819D01*
X108376190Y-79984819D02*
X108280952Y-80032438D01*
X108280952Y-80032438D02*
X108233333Y-80080057D01*
X108233333Y-80080057D02*
X108185714Y-80175295D01*
X108185714Y-80175295D02*
X108138095Y-80365771D01*
X108138095Y-80365771D02*
X108138095Y-80603866D01*
X108138095Y-80603866D02*
X108185714Y-80794342D01*
X108185714Y-80794342D02*
X108233333Y-80889580D01*
X108233333Y-80889580D02*
X108280952Y-80937200D01*
X108280952Y-80937200D02*
X108376190Y-80984819D01*
X108376190Y-80984819D02*
X108471428Y-80984819D01*
X108471428Y-80984819D02*
X108566666Y-80937200D01*
X108566666Y-80937200D02*
X108614285Y-80889580D01*
X108614285Y-80889580D02*
X108661904Y-80794342D01*
X108661904Y-80794342D02*
X108709523Y-80603866D01*
X108709523Y-80603866D02*
X108709523Y-80365771D01*
X108709523Y-80365771D02*
X108661904Y-80175295D01*
X108661904Y-80175295D02*
X108614285Y-80080057D01*
X108614285Y-80080057D02*
X108566666Y-80032438D01*
X108566666Y-80032438D02*
X108471428Y-79984819D01*
X111519047Y-76624819D02*
X111423809Y-76624819D01*
X111423809Y-76624819D02*
X111328571Y-76672438D01*
X111328571Y-76672438D02*
X111280952Y-76720057D01*
X111280952Y-76720057D02*
X111233333Y-76815295D01*
X111233333Y-76815295D02*
X111185714Y-77005771D01*
X111185714Y-77005771D02*
X111185714Y-77243866D01*
X111185714Y-77243866D02*
X111233333Y-77434342D01*
X111233333Y-77434342D02*
X111280952Y-77529580D01*
X111280952Y-77529580D02*
X111328571Y-77577200D01*
X111328571Y-77577200D02*
X111423809Y-77624819D01*
X111423809Y-77624819D02*
X111519047Y-77624819D01*
X111519047Y-77624819D02*
X111614285Y-77577200D01*
X111614285Y-77577200D02*
X111661904Y-77529580D01*
X111661904Y-77529580D02*
X111709523Y-77434342D01*
X111709523Y-77434342D02*
X111757142Y-77243866D01*
X111757142Y-77243866D02*
X111757142Y-77005771D01*
X111757142Y-77005771D02*
X111709523Y-76815295D01*
X111709523Y-76815295D02*
X111661904Y-76720057D01*
X111661904Y-76720057D02*
X111614285Y-76672438D01*
X111614285Y-76672438D02*
X111519047Y-76624819D01*
X110757142Y-77529580D02*
X110709523Y-77577200D01*
X110709523Y-77577200D02*
X110757142Y-77624819D01*
X110757142Y-77624819D02*
X110804761Y-77577200D01*
X110804761Y-77577200D02*
X110757142Y-77529580D01*
X110757142Y-77529580D02*
X110757142Y-77624819D01*
X109852381Y-76958152D02*
X109852381Y-77624819D01*
X110090476Y-76577200D02*
X110328571Y-77291485D01*
X110328571Y-77291485D02*
X109709524Y-77291485D01*
X109423809Y-76624819D02*
X108757143Y-76624819D01*
X108757143Y-76624819D02*
X109185714Y-77624819D01*
X107947619Y-76958152D02*
X107947619Y-77624819D01*
X108376190Y-76958152D02*
X108376190Y-77481961D01*
X108376190Y-77481961D02*
X108328571Y-77577200D01*
X108328571Y-77577200D02*
X108233333Y-77624819D01*
X108233333Y-77624819D02*
X108090476Y-77624819D01*
X108090476Y-77624819D02*
X107995238Y-77577200D01*
X107995238Y-77577200D02*
X107947619Y-77529580D01*
X107138095Y-77101009D02*
X107471428Y-77101009D01*
X107471428Y-77624819D02*
X107471428Y-76624819D01*
X107471428Y-76624819D02*
X106995238Y-76624819D01*
X107642857Y-133839580D02*
X107690476Y-133887200D01*
X107690476Y-133887200D02*
X107833333Y-133934819D01*
X107833333Y-133934819D02*
X107928571Y-133934819D01*
X107928571Y-133934819D02*
X108071428Y-133887200D01*
X108071428Y-133887200D02*
X108166666Y-133791961D01*
X108166666Y-133791961D02*
X108214285Y-133696723D01*
X108214285Y-133696723D02*
X108261904Y-133506247D01*
X108261904Y-133506247D02*
X108261904Y-133363390D01*
X108261904Y-133363390D02*
X108214285Y-133172914D01*
X108214285Y-133172914D02*
X108166666Y-133077676D01*
X108166666Y-133077676D02*
X108071428Y-132982438D01*
X108071428Y-132982438D02*
X107928571Y-132934819D01*
X107928571Y-132934819D02*
X107833333Y-132934819D01*
X107833333Y-132934819D02*
X107690476Y-132982438D01*
X107690476Y-132982438D02*
X107642857Y-133030057D01*
X106690476Y-133934819D02*
X107261904Y-133934819D01*
X106976190Y-133934819D02*
X106976190Y-132934819D01*
X106976190Y-132934819D02*
X107071428Y-133077676D01*
X107071428Y-133077676D02*
X107166666Y-133172914D01*
X107166666Y-133172914D02*
X107261904Y-133220533D01*
X106309523Y-133030057D02*
X106261904Y-132982438D01*
X106261904Y-132982438D02*
X106166666Y-132934819D01*
X106166666Y-132934819D02*
X105928571Y-132934819D01*
X105928571Y-132934819D02*
X105833333Y-132982438D01*
X105833333Y-132982438D02*
X105785714Y-133030057D01*
X105785714Y-133030057D02*
X105738095Y-133125295D01*
X105738095Y-133125295D02*
X105738095Y-133220533D01*
X105738095Y-133220533D02*
X105785714Y-133363390D01*
X105785714Y-133363390D02*
X106357142Y-133934819D01*
X106357142Y-133934819D02*
X105738095Y-133934819D01*
X108642856Y-129574819D02*
X108547618Y-129574819D01*
X108547618Y-129574819D02*
X108452380Y-129622438D01*
X108452380Y-129622438D02*
X108404761Y-129670057D01*
X108404761Y-129670057D02*
X108357142Y-129765295D01*
X108357142Y-129765295D02*
X108309523Y-129955771D01*
X108309523Y-129955771D02*
X108309523Y-130193866D01*
X108309523Y-130193866D02*
X108357142Y-130384342D01*
X108357142Y-130384342D02*
X108404761Y-130479580D01*
X108404761Y-130479580D02*
X108452380Y-130527200D01*
X108452380Y-130527200D02*
X108547618Y-130574819D01*
X108547618Y-130574819D02*
X108642856Y-130574819D01*
X108642856Y-130574819D02*
X108738094Y-130527200D01*
X108738094Y-130527200D02*
X108785713Y-130479580D01*
X108785713Y-130479580D02*
X108833332Y-130384342D01*
X108833332Y-130384342D02*
X108880951Y-130193866D01*
X108880951Y-130193866D02*
X108880951Y-129955771D01*
X108880951Y-129955771D02*
X108833332Y-129765295D01*
X108833332Y-129765295D02*
X108785713Y-129670057D01*
X108785713Y-129670057D02*
X108738094Y-129622438D01*
X108738094Y-129622438D02*
X108642856Y-129574819D01*
X107880951Y-130479580D02*
X107833332Y-130527200D01*
X107833332Y-130527200D02*
X107880951Y-130574819D01*
X107880951Y-130574819D02*
X107928570Y-130527200D01*
X107928570Y-130527200D02*
X107880951Y-130479580D01*
X107880951Y-130479580D02*
X107880951Y-130574819D01*
X106880952Y-130574819D02*
X107452380Y-130574819D01*
X107166666Y-130574819D02*
X107166666Y-129574819D01*
X107166666Y-129574819D02*
X107261904Y-129717676D01*
X107261904Y-129717676D02*
X107357142Y-129812914D01*
X107357142Y-129812914D02*
X107452380Y-129860533D01*
X106023809Y-129908152D02*
X106023809Y-130574819D01*
X106452380Y-129908152D02*
X106452380Y-130431961D01*
X106452380Y-130431961D02*
X106404761Y-130527200D01*
X106404761Y-130527200D02*
X106309523Y-130574819D01*
X106309523Y-130574819D02*
X106166666Y-130574819D01*
X106166666Y-130574819D02*
X106071428Y-130527200D01*
X106071428Y-130527200D02*
X106023809Y-130479580D01*
X105214285Y-130051009D02*
X105547618Y-130051009D01*
X105547618Y-130574819D02*
X105547618Y-129574819D01*
X105547618Y-129574819D02*
X105071428Y-129574819D01*
X99479580Y-84420833D02*
X99527200Y-84373214D01*
X99527200Y-84373214D02*
X99574819Y-84230357D01*
X99574819Y-84230357D02*
X99574819Y-84135119D01*
X99574819Y-84135119D02*
X99527200Y-83992262D01*
X99527200Y-83992262D02*
X99431961Y-83897024D01*
X99431961Y-83897024D02*
X99336723Y-83849405D01*
X99336723Y-83849405D02*
X99146247Y-83801786D01*
X99146247Y-83801786D02*
X99003390Y-83801786D01*
X99003390Y-83801786D02*
X98812914Y-83849405D01*
X98812914Y-83849405D02*
X98717676Y-83897024D01*
X98717676Y-83897024D02*
X98622438Y-83992262D01*
X98622438Y-83992262D02*
X98574819Y-84135119D01*
X98574819Y-84135119D02*
X98574819Y-84230357D01*
X98574819Y-84230357D02*
X98622438Y-84373214D01*
X98622438Y-84373214D02*
X98670057Y-84420833D01*
X99003390Y-84992262D02*
X98955771Y-84897024D01*
X98955771Y-84897024D02*
X98908152Y-84849405D01*
X98908152Y-84849405D02*
X98812914Y-84801786D01*
X98812914Y-84801786D02*
X98765295Y-84801786D01*
X98765295Y-84801786D02*
X98670057Y-84849405D01*
X98670057Y-84849405D02*
X98622438Y-84897024D01*
X98622438Y-84897024D02*
X98574819Y-84992262D01*
X98574819Y-84992262D02*
X98574819Y-85182738D01*
X98574819Y-85182738D02*
X98622438Y-85277976D01*
X98622438Y-85277976D02*
X98670057Y-85325595D01*
X98670057Y-85325595D02*
X98765295Y-85373214D01*
X98765295Y-85373214D02*
X98812914Y-85373214D01*
X98812914Y-85373214D02*
X98908152Y-85325595D01*
X98908152Y-85325595D02*
X98955771Y-85277976D01*
X98955771Y-85277976D02*
X99003390Y-85182738D01*
X99003390Y-85182738D02*
X99003390Y-84992262D01*
X99003390Y-84992262D02*
X99051009Y-84897024D01*
X99051009Y-84897024D02*
X99098628Y-84849405D01*
X99098628Y-84849405D02*
X99193866Y-84801786D01*
X99193866Y-84801786D02*
X99384342Y-84801786D01*
X99384342Y-84801786D02*
X99479580Y-84849405D01*
X99479580Y-84849405D02*
X99527200Y-84897024D01*
X99527200Y-84897024D02*
X99574819Y-84992262D01*
X99574819Y-84992262D02*
X99574819Y-85182738D01*
X99574819Y-85182738D02*
X99527200Y-85277976D01*
X99527200Y-85277976D02*
X99479580Y-85325595D01*
X99479580Y-85325595D02*
X99384342Y-85373214D01*
X99384342Y-85373214D02*
X99193866Y-85373214D01*
X99193866Y-85373214D02*
X99098628Y-85325595D01*
X99098628Y-85325595D02*
X99051009Y-85277976D01*
X99051009Y-85277976D02*
X99003390Y-85182738D01*
X101934819Y-82944643D02*
X101934819Y-83039881D01*
X101934819Y-83039881D02*
X101982438Y-83135119D01*
X101982438Y-83135119D02*
X102030057Y-83182738D01*
X102030057Y-83182738D02*
X102125295Y-83230357D01*
X102125295Y-83230357D02*
X102315771Y-83277976D01*
X102315771Y-83277976D02*
X102553866Y-83277976D01*
X102553866Y-83277976D02*
X102744342Y-83230357D01*
X102744342Y-83230357D02*
X102839580Y-83182738D01*
X102839580Y-83182738D02*
X102887200Y-83135119D01*
X102887200Y-83135119D02*
X102934819Y-83039881D01*
X102934819Y-83039881D02*
X102934819Y-82944643D01*
X102934819Y-82944643D02*
X102887200Y-82849405D01*
X102887200Y-82849405D02*
X102839580Y-82801786D01*
X102839580Y-82801786D02*
X102744342Y-82754167D01*
X102744342Y-82754167D02*
X102553866Y-82706548D01*
X102553866Y-82706548D02*
X102315771Y-82706548D01*
X102315771Y-82706548D02*
X102125295Y-82754167D01*
X102125295Y-82754167D02*
X102030057Y-82801786D01*
X102030057Y-82801786D02*
X101982438Y-82849405D01*
X101982438Y-82849405D02*
X101934819Y-82944643D01*
X102839580Y-83706548D02*
X102887200Y-83754167D01*
X102887200Y-83754167D02*
X102934819Y-83706548D01*
X102934819Y-83706548D02*
X102887200Y-83658929D01*
X102887200Y-83658929D02*
X102839580Y-83706548D01*
X102839580Y-83706548D02*
X102934819Y-83706548D01*
X102934819Y-84706547D02*
X102934819Y-84135119D01*
X102934819Y-84420833D02*
X101934819Y-84420833D01*
X101934819Y-84420833D02*
X102077676Y-84325595D01*
X102077676Y-84325595D02*
X102172914Y-84230357D01*
X102172914Y-84230357D02*
X102220533Y-84135119D01*
X102268152Y-85563690D02*
X102934819Y-85563690D01*
X102268152Y-85135119D02*
X102791961Y-85135119D01*
X102791961Y-85135119D02*
X102887200Y-85182738D01*
X102887200Y-85182738D02*
X102934819Y-85277976D01*
X102934819Y-85277976D02*
X102934819Y-85420833D01*
X102934819Y-85420833D02*
X102887200Y-85516071D01*
X102887200Y-85516071D02*
X102839580Y-85563690D01*
X102411009Y-86373214D02*
X102411009Y-86039881D01*
X102934819Y-86039881D02*
X101934819Y-86039881D01*
X101934819Y-86039881D02*
X101934819Y-86516071D01*
X139192857Y-80889580D02*
X139240476Y-80937200D01*
X139240476Y-80937200D02*
X139383333Y-80984819D01*
X139383333Y-80984819D02*
X139478571Y-80984819D01*
X139478571Y-80984819D02*
X139621428Y-80937200D01*
X139621428Y-80937200D02*
X139716666Y-80841961D01*
X139716666Y-80841961D02*
X139764285Y-80746723D01*
X139764285Y-80746723D02*
X139811904Y-80556247D01*
X139811904Y-80556247D02*
X139811904Y-80413390D01*
X139811904Y-80413390D02*
X139764285Y-80222914D01*
X139764285Y-80222914D02*
X139716666Y-80127676D01*
X139716666Y-80127676D02*
X139621428Y-80032438D01*
X139621428Y-80032438D02*
X139478571Y-79984819D01*
X139478571Y-79984819D02*
X139383333Y-79984819D01*
X139383333Y-79984819D02*
X139240476Y-80032438D01*
X139240476Y-80032438D02*
X139192857Y-80080057D01*
X138240476Y-80984819D02*
X138811904Y-80984819D01*
X138526190Y-80984819D02*
X138526190Y-79984819D01*
X138526190Y-79984819D02*
X138621428Y-80127676D01*
X138621428Y-80127676D02*
X138716666Y-80222914D01*
X138716666Y-80222914D02*
X138811904Y-80270533D01*
X137383333Y-80318152D02*
X137383333Y-80984819D01*
X137621428Y-79937200D02*
X137859523Y-80651485D01*
X137859523Y-80651485D02*
X137240476Y-80651485D01*
X140192856Y-76624819D02*
X140097618Y-76624819D01*
X140097618Y-76624819D02*
X140002380Y-76672438D01*
X140002380Y-76672438D02*
X139954761Y-76720057D01*
X139954761Y-76720057D02*
X139907142Y-76815295D01*
X139907142Y-76815295D02*
X139859523Y-77005771D01*
X139859523Y-77005771D02*
X139859523Y-77243866D01*
X139859523Y-77243866D02*
X139907142Y-77434342D01*
X139907142Y-77434342D02*
X139954761Y-77529580D01*
X139954761Y-77529580D02*
X140002380Y-77577200D01*
X140002380Y-77577200D02*
X140097618Y-77624819D01*
X140097618Y-77624819D02*
X140192856Y-77624819D01*
X140192856Y-77624819D02*
X140288094Y-77577200D01*
X140288094Y-77577200D02*
X140335713Y-77529580D01*
X140335713Y-77529580D02*
X140383332Y-77434342D01*
X140383332Y-77434342D02*
X140430951Y-77243866D01*
X140430951Y-77243866D02*
X140430951Y-77005771D01*
X140430951Y-77005771D02*
X140383332Y-76815295D01*
X140383332Y-76815295D02*
X140335713Y-76720057D01*
X140335713Y-76720057D02*
X140288094Y-76672438D01*
X140288094Y-76672438D02*
X140192856Y-76624819D01*
X139430951Y-77529580D02*
X139383332Y-77577200D01*
X139383332Y-77577200D02*
X139430951Y-77624819D01*
X139430951Y-77624819D02*
X139478570Y-77577200D01*
X139478570Y-77577200D02*
X139430951Y-77529580D01*
X139430951Y-77529580D02*
X139430951Y-77624819D01*
X138430952Y-77624819D02*
X139002380Y-77624819D01*
X138716666Y-77624819D02*
X138716666Y-76624819D01*
X138716666Y-76624819D02*
X138811904Y-76767676D01*
X138811904Y-76767676D02*
X138907142Y-76862914D01*
X138907142Y-76862914D02*
X139002380Y-76910533D01*
X137573809Y-76958152D02*
X137573809Y-77624819D01*
X138002380Y-76958152D02*
X138002380Y-77481961D01*
X138002380Y-77481961D02*
X137954761Y-77577200D01*
X137954761Y-77577200D02*
X137859523Y-77624819D01*
X137859523Y-77624819D02*
X137716666Y-77624819D01*
X137716666Y-77624819D02*
X137621428Y-77577200D01*
X137621428Y-77577200D02*
X137573809Y-77529580D01*
X136764285Y-77101009D02*
X137097618Y-77101009D01*
X137097618Y-77624819D02*
X137097618Y-76624819D01*
X137097618Y-76624819D02*
X136621428Y-76624819D01*
X126066666Y-101889580D02*
X126114285Y-101937200D01*
X126114285Y-101937200D02*
X126257142Y-101984819D01*
X126257142Y-101984819D02*
X126352380Y-101984819D01*
X126352380Y-101984819D02*
X126495237Y-101937200D01*
X126495237Y-101937200D02*
X126590475Y-101841961D01*
X126590475Y-101841961D02*
X126638094Y-101746723D01*
X126638094Y-101746723D02*
X126685713Y-101556247D01*
X126685713Y-101556247D02*
X126685713Y-101413390D01*
X126685713Y-101413390D02*
X126638094Y-101222914D01*
X126638094Y-101222914D02*
X126590475Y-101127676D01*
X126590475Y-101127676D02*
X126495237Y-101032438D01*
X126495237Y-101032438D02*
X126352380Y-100984819D01*
X126352380Y-100984819D02*
X126257142Y-100984819D01*
X126257142Y-100984819D02*
X126114285Y-101032438D01*
X126114285Y-101032438D02*
X126066666Y-101080057D01*
X125733332Y-100984819D02*
X125066666Y-100984819D01*
X125066666Y-100984819D02*
X125495237Y-101984819D01*
X127542856Y-97624819D02*
X127447618Y-97624819D01*
X127447618Y-97624819D02*
X127352380Y-97672438D01*
X127352380Y-97672438D02*
X127304761Y-97720057D01*
X127304761Y-97720057D02*
X127257142Y-97815295D01*
X127257142Y-97815295D02*
X127209523Y-98005771D01*
X127209523Y-98005771D02*
X127209523Y-98243866D01*
X127209523Y-98243866D02*
X127257142Y-98434342D01*
X127257142Y-98434342D02*
X127304761Y-98529580D01*
X127304761Y-98529580D02*
X127352380Y-98577200D01*
X127352380Y-98577200D02*
X127447618Y-98624819D01*
X127447618Y-98624819D02*
X127542856Y-98624819D01*
X127542856Y-98624819D02*
X127638094Y-98577200D01*
X127638094Y-98577200D02*
X127685713Y-98529580D01*
X127685713Y-98529580D02*
X127733332Y-98434342D01*
X127733332Y-98434342D02*
X127780951Y-98243866D01*
X127780951Y-98243866D02*
X127780951Y-98005771D01*
X127780951Y-98005771D02*
X127733332Y-97815295D01*
X127733332Y-97815295D02*
X127685713Y-97720057D01*
X127685713Y-97720057D02*
X127638094Y-97672438D01*
X127638094Y-97672438D02*
X127542856Y-97624819D01*
X126780951Y-98529580D02*
X126733332Y-98577200D01*
X126733332Y-98577200D02*
X126780951Y-98624819D01*
X126780951Y-98624819D02*
X126828570Y-98577200D01*
X126828570Y-98577200D02*
X126780951Y-98529580D01*
X126780951Y-98529580D02*
X126780951Y-98624819D01*
X125780952Y-98624819D02*
X126352380Y-98624819D01*
X126066666Y-98624819D02*
X126066666Y-97624819D01*
X126066666Y-97624819D02*
X126161904Y-97767676D01*
X126161904Y-97767676D02*
X126257142Y-97862914D01*
X126257142Y-97862914D02*
X126352380Y-97910533D01*
X124923809Y-97958152D02*
X124923809Y-98624819D01*
X125352380Y-97958152D02*
X125352380Y-98481961D01*
X125352380Y-98481961D02*
X125304761Y-98577200D01*
X125304761Y-98577200D02*
X125209523Y-98624819D01*
X125209523Y-98624819D02*
X125066666Y-98624819D01*
X125066666Y-98624819D02*
X124971428Y-98577200D01*
X124971428Y-98577200D02*
X124923809Y-98529580D01*
X124114285Y-98101009D02*
X124447618Y-98101009D01*
X124447618Y-98624819D02*
X124447618Y-97624819D01*
X124447618Y-97624819D02*
X123971428Y-97624819D01*
X92689580Y-133757142D02*
X92737200Y-133709523D01*
X92737200Y-133709523D02*
X92784819Y-133566666D01*
X92784819Y-133566666D02*
X92784819Y-133471428D01*
X92784819Y-133471428D02*
X92737200Y-133328571D01*
X92737200Y-133328571D02*
X92641961Y-133233333D01*
X92641961Y-133233333D02*
X92546723Y-133185714D01*
X92546723Y-133185714D02*
X92356247Y-133138095D01*
X92356247Y-133138095D02*
X92213390Y-133138095D01*
X92213390Y-133138095D02*
X92022914Y-133185714D01*
X92022914Y-133185714D02*
X91927676Y-133233333D01*
X91927676Y-133233333D02*
X91832438Y-133328571D01*
X91832438Y-133328571D02*
X91784819Y-133471428D01*
X91784819Y-133471428D02*
X91784819Y-133566666D01*
X91784819Y-133566666D02*
X91832438Y-133709523D01*
X91832438Y-133709523D02*
X91880057Y-133757142D01*
X92784819Y-134709523D02*
X92784819Y-134138095D01*
X92784819Y-134423809D02*
X91784819Y-134423809D01*
X91784819Y-134423809D02*
X91927676Y-134328571D01*
X91927676Y-134328571D02*
X92022914Y-134233333D01*
X92022914Y-134233333D02*
X92070533Y-134138095D01*
X91784819Y-135614285D02*
X91784819Y-135138095D01*
X91784819Y-135138095D02*
X92261009Y-135090476D01*
X92261009Y-135090476D02*
X92213390Y-135138095D01*
X92213390Y-135138095D02*
X92165771Y-135233333D01*
X92165771Y-135233333D02*
X92165771Y-135471428D01*
X92165771Y-135471428D02*
X92213390Y-135566666D01*
X92213390Y-135566666D02*
X92261009Y-135614285D01*
X92261009Y-135614285D02*
X92356247Y-135661904D01*
X92356247Y-135661904D02*
X92594342Y-135661904D01*
X92594342Y-135661904D02*
X92689580Y-135614285D01*
X92689580Y-135614285D02*
X92737200Y-135566666D01*
X92737200Y-135566666D02*
X92784819Y-135471428D01*
X92784819Y-135471428D02*
X92784819Y-135233333D01*
X92784819Y-135233333D02*
X92737200Y-135138095D01*
X92737200Y-135138095D02*
X92689580Y-135090476D01*
X88758152Y-132995238D02*
X89424819Y-132995238D01*
X88377200Y-132757143D02*
X89091485Y-132519048D01*
X89091485Y-132519048D02*
X89091485Y-133138095D01*
X89329580Y-133519048D02*
X89377200Y-133566667D01*
X89377200Y-133566667D02*
X89424819Y-133519048D01*
X89424819Y-133519048D02*
X89377200Y-133471429D01*
X89377200Y-133471429D02*
X89329580Y-133519048D01*
X89329580Y-133519048D02*
X89424819Y-133519048D01*
X88424819Y-133900000D02*
X88424819Y-134566666D01*
X88424819Y-134566666D02*
X89424819Y-134138095D01*
X88758152Y-135376190D02*
X89424819Y-135376190D01*
X88758152Y-134947619D02*
X89281961Y-134947619D01*
X89281961Y-134947619D02*
X89377200Y-134995238D01*
X89377200Y-134995238D02*
X89424819Y-135090476D01*
X89424819Y-135090476D02*
X89424819Y-135233333D01*
X89424819Y-135233333D02*
X89377200Y-135328571D01*
X89377200Y-135328571D02*
X89329580Y-135376190D01*
X88901009Y-136185714D02*
X88901009Y-135852381D01*
X89424819Y-135852381D02*
X88424819Y-135852381D01*
X88424819Y-135852381D02*
X88424819Y-136328571D01*
X139516666Y-122939580D02*
X139564285Y-122987200D01*
X139564285Y-122987200D02*
X139707142Y-123034819D01*
X139707142Y-123034819D02*
X139802380Y-123034819D01*
X139802380Y-123034819D02*
X139945237Y-122987200D01*
X139945237Y-122987200D02*
X140040475Y-122891961D01*
X140040475Y-122891961D02*
X140088094Y-122796723D01*
X140088094Y-122796723D02*
X140135713Y-122606247D01*
X140135713Y-122606247D02*
X140135713Y-122463390D01*
X140135713Y-122463390D02*
X140088094Y-122272914D01*
X140088094Y-122272914D02*
X140040475Y-122177676D01*
X140040475Y-122177676D02*
X139945237Y-122082438D01*
X139945237Y-122082438D02*
X139802380Y-122034819D01*
X139802380Y-122034819D02*
X139707142Y-122034819D01*
X139707142Y-122034819D02*
X139564285Y-122082438D01*
X139564285Y-122082438D02*
X139516666Y-122130057D01*
X138611904Y-122034819D02*
X139088094Y-122034819D01*
X139088094Y-122034819D02*
X139135713Y-122511009D01*
X139135713Y-122511009D02*
X139088094Y-122463390D01*
X139088094Y-122463390D02*
X138992856Y-122415771D01*
X138992856Y-122415771D02*
X138754761Y-122415771D01*
X138754761Y-122415771D02*
X138659523Y-122463390D01*
X138659523Y-122463390D02*
X138611904Y-122511009D01*
X138611904Y-122511009D02*
X138564285Y-122606247D01*
X138564285Y-122606247D02*
X138564285Y-122844342D01*
X138564285Y-122844342D02*
X138611904Y-122939580D01*
X138611904Y-122939580D02*
X138659523Y-122987200D01*
X138659523Y-122987200D02*
X138754761Y-123034819D01*
X138754761Y-123034819D02*
X138992856Y-123034819D01*
X138992856Y-123034819D02*
X139088094Y-122987200D01*
X139088094Y-122987200D02*
X139135713Y-122939580D01*
X140992856Y-118674819D02*
X140897618Y-118674819D01*
X140897618Y-118674819D02*
X140802380Y-118722438D01*
X140802380Y-118722438D02*
X140754761Y-118770057D01*
X140754761Y-118770057D02*
X140707142Y-118865295D01*
X140707142Y-118865295D02*
X140659523Y-119055771D01*
X140659523Y-119055771D02*
X140659523Y-119293866D01*
X140659523Y-119293866D02*
X140707142Y-119484342D01*
X140707142Y-119484342D02*
X140754761Y-119579580D01*
X140754761Y-119579580D02*
X140802380Y-119627200D01*
X140802380Y-119627200D02*
X140897618Y-119674819D01*
X140897618Y-119674819D02*
X140992856Y-119674819D01*
X140992856Y-119674819D02*
X141088094Y-119627200D01*
X141088094Y-119627200D02*
X141135713Y-119579580D01*
X141135713Y-119579580D02*
X141183332Y-119484342D01*
X141183332Y-119484342D02*
X141230951Y-119293866D01*
X141230951Y-119293866D02*
X141230951Y-119055771D01*
X141230951Y-119055771D02*
X141183332Y-118865295D01*
X141183332Y-118865295D02*
X141135713Y-118770057D01*
X141135713Y-118770057D02*
X141088094Y-118722438D01*
X141088094Y-118722438D02*
X140992856Y-118674819D01*
X140230951Y-119579580D02*
X140183332Y-119627200D01*
X140183332Y-119627200D02*
X140230951Y-119674819D01*
X140230951Y-119674819D02*
X140278570Y-119627200D01*
X140278570Y-119627200D02*
X140230951Y-119579580D01*
X140230951Y-119579580D02*
X140230951Y-119674819D01*
X139230952Y-119674819D02*
X139802380Y-119674819D01*
X139516666Y-119674819D02*
X139516666Y-118674819D01*
X139516666Y-118674819D02*
X139611904Y-118817676D01*
X139611904Y-118817676D02*
X139707142Y-118912914D01*
X139707142Y-118912914D02*
X139802380Y-118960533D01*
X138373809Y-119008152D02*
X138373809Y-119674819D01*
X138802380Y-119008152D02*
X138802380Y-119531961D01*
X138802380Y-119531961D02*
X138754761Y-119627200D01*
X138754761Y-119627200D02*
X138659523Y-119674819D01*
X138659523Y-119674819D02*
X138516666Y-119674819D01*
X138516666Y-119674819D02*
X138421428Y-119627200D01*
X138421428Y-119627200D02*
X138373809Y-119579580D01*
X137564285Y-119151009D02*
X137897618Y-119151009D01*
X137897618Y-119674819D02*
X137897618Y-118674819D01*
X137897618Y-118674819D02*
X137421428Y-118674819D01*
D12*
%TO.C,C11*%
X108511252Y-82715000D02*
X107988748Y-82715000D01*
X108511252Y-84185000D02*
X107988748Y-84185000D01*
%TO.C,C4*%
X104061252Y-78115000D02*
X103538748Y-78115000D01*
X104061252Y-79585000D02*
X103538748Y-79585000D01*
%TO.C,C2*%
X105865000Y-113048752D02*
X105865000Y-112526248D01*
X107335000Y-113048752D02*
X107335000Y-112526248D01*
%TO.C,C3*%
X123688748Y-78065000D02*
X124211252Y-78065000D01*
X123688748Y-79535000D02*
X124211252Y-79535000D01*
%TO.C,C6*%
X127365000Y-118511252D02*
X127365000Y-117988748D01*
X128835000Y-118511252D02*
X128835000Y-117988748D01*
%TO.C,C9*%
X97061252Y-78115000D02*
X96538748Y-78115000D01*
X97061252Y-79585000D02*
X96538748Y-79585000D01*
%TO.C,C1*%
X156788748Y-87365000D02*
X157311252Y-87365000D01*
X156788748Y-88835000D02*
X157311252Y-88835000D01*
%TO.C,C13*%
X106838748Y-97000000D02*
X107361252Y-97000000D01*
X106838748Y-98470000D02*
X107361252Y-98470000D01*
%TO.C,C10*%
X109138748Y-78115000D02*
X109661252Y-78115000D01*
X109138748Y-79585000D02*
X109661252Y-79585000D01*
%TO.C,C12*%
X106738748Y-131065000D02*
X107261252Y-131065000D01*
X106738748Y-132535000D02*
X107261252Y-132535000D01*
%TO.C,C8*%
X100065000Y-84326248D02*
X100065000Y-84848752D01*
X101535000Y-84326248D02*
X101535000Y-84848752D01*
%TO.C,C14*%
X138288748Y-78115000D02*
X138811252Y-78115000D01*
X138288748Y-79585000D02*
X138811252Y-79585000D01*
%TO.C,C7*%
X125638748Y-99115000D02*
X126161252Y-99115000D01*
X125638748Y-100585000D02*
X126161252Y-100585000D01*
%TO.C,C15*%
X89915000Y-134661252D02*
X89915000Y-134138748D01*
X91385000Y-134661252D02*
X91385000Y-134138748D01*
%TO.C,C5*%
X139088748Y-120165000D02*
X139611252Y-120165000D01*
X139088748Y-121635000D02*
X139611252Y-121635000D01*
%TD*%
M02*
