M48
; DRILL file {KiCad 9.0.0} date 2025-04-05T18:35:05-0500
; FORMAT={-:-/ absolute / inch / decimal}
; #@! TF.CreationDate,2025-04-05T18:35:05-05:00
; #@! TF.GenerationSoftware,Kicad,Pcbnew,9.0.0
; #@! TF.FileFunction,Plated,1,2,PTH
FMAT,2
INCH
; #@! TA.AperFunction,Plated,PTH,ViaDrill
T1C0.0157
; #@! TA.AperFunction,Plated,PTH,ComponentDrill
T2C0.0315
%
G90
G05
T1
X3.061Y-5.1417
X3.061Y-5.1929
X3.3386Y-5.1417
X3.3386Y-5.1929
X3.5197Y-3.6535
X3.5197Y-3.7429
X3.5756Y-3.3929
X3.6063Y-3.4921
X3.622Y-5.0669
X3.626Y-4.6112
X3.6559Y-5.0315
X3.6575Y-4.6417
X3.6614Y-4.0157
X3.6614Y-4.3234
X3.6791Y-3.4429
X3.6909Y-4.8878
X3.6969Y-3.9449
X3.7087Y-3.7441
X3.7205Y-3.378
X3.7323Y-3.9764
X3.7323Y-4.9449
X3.7411Y-3.2608
X3.7638Y-4.0394
X3.7638Y-4.9843
X3.8071Y-4.2624
X3.8071Y-4.7283
X3.8346Y-4.8583
X3.8808Y-3.2588
X3.8821Y-3.3006
X3.9222Y-5.4213
X3.937Y-3.1496
X3.939Y-3.1929
X3.9528Y-5.6142
X3.9646Y-3.3425
X4.0Y-4.4016
X4.0Y-4.689
X4.0079Y-3.5728
X4.0354Y-3.9724
X4.0394Y-4.4016
X4.0394Y-4.689
X4.0669Y-4.2929
X4.0748Y-4.0394
X4.0787Y-4.087
X4.0787Y-4.4016
X4.0787Y-4.689
X4.1014Y-3.5709
X4.1181Y-4.3189
X4.1319Y-3.689
X4.1634Y-3.6516
X4.1949Y-3.6102
X4.1969Y-4.187
X4.1969Y-4.2362
X4.1976Y-4.3664
X4.2441Y-3.2008
X4.25Y-3.126
X4.3622Y-3.8819
X4.3661Y-3.4616
X4.378Y-4.752
X4.4035Y-3.2146
X4.4291Y-5.6024
X4.4409Y-3.189
X4.4567Y-4.4409
X4.4567Y-4.6496
X4.4918Y-4.4413
X4.4921Y-4.6496
X4.4921Y-4.9134
X4.4961Y-4.9528
X4.5172Y-4.3804
X4.5276Y-3.8386
X4.5276Y-3.9528
X4.5433Y-5.3213
X4.5846Y-3.4301
X4.613Y-3.3996
X4.6142Y-3.689
X4.6457Y-3.6535
X4.6535Y-3.3558
X4.6841Y-3.7323
X4.7144Y-3.7574
X4.7244Y-4.0866
X4.7283Y-3.9409
X4.7323Y-5.2136
X4.7323Y-5.2636
X4.749Y-4.6024
X4.7598Y-3.9882
X4.7635Y-4.091
X4.7638Y-4.8393
X4.7717Y-3.8898
X4.8031Y-4.189
X4.8356Y-4.5797
X4.8396Y-3.318
X4.8496Y-4.1134
X4.8544Y-5.0
X4.8622Y-5.1654
X4.8661Y-3.1496
X4.8661Y-4.2884
X4.8661Y-4.4852
X4.8661Y-5.063
X4.9094Y-4.5167
X4.9764Y-4.2362
X4.9803Y-3.937
X4.9843Y-3.248
X4.9843Y-3.3199
X4.9843Y-3.9843
X4.9921Y-3.3809
X4.9961Y-3.5
X5.0102Y-3.429
X5.0197Y-4.8504
X5.0472Y-3.3504
X5.0512Y-3.4488
X5.063Y-5.1575
X5.0709Y-5.0157
X5.0709Y-5.2598
X5.1181Y-3.5433
X5.1417Y-3.0827
X5.1457Y-3.8819
X5.1969Y-3.252
X5.1969Y-3.5
X5.227Y-4.3537
X5.2283Y-3.6929
X5.2402Y-4.0906
X5.2559Y-4.3268
X5.2835Y-4.437
X5.2835Y-5.2244
X5.3268Y-3.8622
X5.3937Y-3.811
X5.3937Y-4.2913
X5.4528Y-3.9409
X5.4528Y-4.4409
X5.4961Y-4.6732
X5.5187Y-4.7092
X5.5335Y-3.6437
X5.5551Y-4.0551
X5.557Y-4.5847
X5.563Y-3.8622
X5.563Y-5.3307
X5.5709Y-3.748
X5.5748Y-3.2795
X5.5866Y-3.9882
X5.5886Y-3.5
X5.6335Y-3.3933
X5.6339Y-3.3504
X5.6378Y-3.9409
X5.664Y-4.4685
X5.664Y-4.5866
X5.7008Y-4.3465
X5.7008Y-4.4685
X5.748Y-4.3465
X5.752Y-4.4685
X5.7677Y-4.2362
X5.7795Y-3.5433
X5.7795Y-4.0906
X5.7835Y-3.5945
X5.7835Y-3.7441
X5.7876Y-3.3504
X5.7913Y-3.8819
X5.8386Y-3.2441
X5.8386Y-3.2894
X5.8386Y-3.3287
X5.8406Y-4.3602
X5.8563Y-3.4597
X5.8858Y-4.7244
X5.8937Y-3.8071
X5.9094Y-5.1142
X5.9173Y-3.689
X5.9478Y-3.377
X5.9488Y-3.8858
X6.0118Y-5.1555
X6.0669Y-4.2835
X6.0945Y-3.0827
X6.1142Y-5.2244
X6.1457Y-4.7244
X6.1496Y-4.8425
X6.1633Y-4.6398
X6.1654Y-4.7795
X6.1693Y-3.9173
X6.185Y-3.6575
X6.264Y-4.815
X6.3031Y-4.8228
X6.311Y-4.6181
X6.312Y-4.5778
X6.315Y-5.0
X6.3425Y-3.8622
X6.3661Y-3.2008
X6.3661Y-3.2835
X6.374Y-4.7717
X6.3898Y-4.2835
X6.3937Y-3.7087
X6.4055Y-3.8504
X6.4055Y-3.9921
X6.4409Y-4.4449
X6.4528Y-3.8504
X6.4528Y-3.9921
X6.4724Y-4.3504
X6.4921Y-5.0611
X6.4961Y-3.8504
X6.4961Y-3.9921
X6.5354Y-5.063
X6.5394Y-3.7953
X6.5433Y-4.7717
X6.5787Y-4.1299
X6.5827Y-4.2441
X6.5886Y-4.7244
X6.5945Y-4.5778
X6.5945Y-4.6181
X6.6193Y-5.2138
X6.626Y-4.4803
X6.6299Y-4.4016
X6.6417Y-4.1772
X6.6535Y-4.0307
X6.6772Y-4.6063
X6.685Y-4.3346
X6.689Y-5.2992
X6.7205Y-3.7205
X6.7205Y-4.1149
X6.7323Y-4.7992
X6.7362Y-4.4803
X6.7402Y-5.3307
X6.7717Y-5.437
X6.8037Y-4.1736
X6.9134Y-5.1339
X6.9173Y-5.6457
X6.9764Y-3.8543
X6.9921Y-4.122
X7.0315Y-4.3858
X7.0512Y-4.8228
X7.0866Y-3.4173
X7.1102Y-4.2283
X7.2047Y-4.8228
X7.2118Y-5.437
X7.311Y-5.0118
X7.3268Y-4.2002
X7.3283Y-4.0132
X7.3583Y-4.4213
X7.3609Y-4.2198
X7.3888Y-4.3504
X7.3937Y-5.5236
T2
X4.0307Y-4.8213
X4.0307Y-4.9213
X4.0307Y-5.0213
X4.0307Y-5.1213
X4.0307Y-5.2213
X4.0307Y-5.3213
X4.0307Y-5.4213
X4.0307Y-5.5213
X4.3307Y-4.8213
X4.3307Y-4.9213
X4.3307Y-5.0213
X4.3307Y-5.1213
X4.3307Y-5.2213
X4.3307Y-5.3213
X4.3307Y-5.4213
X4.3307Y-5.5213
X5.4118Y-4.9213
X5.4118Y-5.5213
X5.5118Y-4.9213
X5.5118Y-5.5213
X5.6118Y-4.9213
X5.6118Y-5.5213
X5.7118Y-4.9213
X5.7118Y-5.5213
X5.8118Y-4.9213
X5.8118Y-5.5213
X5.9118Y-4.9213
X5.9118Y-5.5213
X6.0118Y-4.9213
X6.0118Y-5.5213
X6.1118Y-4.9213
X6.1118Y-5.5213
X6.2118Y-4.9213
X6.2118Y-5.5213
X6.3118Y-4.9213
X6.3118Y-5.5213
X6.3976Y-4.1339
X6.4118Y-4.9213
X6.4118Y-5.5213
X6.4961Y-4.1339
X6.5118Y-4.9213
X6.5118Y-5.5213
X6.6118Y-4.9213
X6.6118Y-5.5213
X6.7118Y-4.9213
X6.7118Y-5.5213
X6.8118Y-4.9213
X6.8118Y-5.5213
X6.8898Y-3.7307
X6.8898Y-3.8307
X6.8898Y-3.9307
X6.8898Y-4.0307
X6.8898Y-4.1307
X6.8898Y-4.2307
X6.8898Y-4.3307
X6.8898Y-4.4307
X6.8898Y-4.5307
X6.9118Y-4.9213
X6.9118Y-5.5213
X7.0118Y-4.9213
X7.0118Y-5.5213
X7.1118Y-4.9213
X7.1118Y-5.5213
X7.1898Y-3.7307
X7.1898Y-3.8307
X7.1898Y-3.9307
X7.1898Y-4.0307
X7.1898Y-4.1307
X7.1898Y-4.2307
X7.1898Y-4.3307
X7.1898Y-4.4307
X7.1898Y-4.5307
X7.1909Y-3.25
X7.1909Y-3.4429
X7.2118Y-4.9213
X7.2118Y-5.5213
X7.3118Y-4.9213
X7.3118Y-5.5213
M30
