%TF.GenerationSoftware,KiCad,Pcbnew,9.0.0*%
%TF.CreationDate,2025-03-15T18:23:44-05:00*%
%TF.ProjectId,Model I RS232,4d6f6465-6c20-4492-9052-533233322e6b,rev?*%
%TF.SameCoordinates,Original*%
%TF.FileFunction,Drillmap*%
%TF.FilePolarity,Positive*%
%FSLAX45Y45*%
G04 Gerber Fmt 4.5, Leading zero omitted, Abs format (unit mm)*
G04 Created by KiCad (PCBNEW 9.0.0) date 2025-03-15 18:23:44*
%MOMM*%
%LPD*%
G01*
G04 APERTURE LIST*
%ADD10C,0.200000*%
%ADD11C,0.317500*%
%ADD12C,0.477520*%
G04 APERTURE END LIST*
D10*
X7510000Y-7460000D02*
X19010000Y-7460000D01*
X19010000Y-14860000D01*
X7510000Y-14860000D01*
X7510000Y-7460000D01*
D11*
X7999250Y-13666250D02*
X8316750Y-13983750D01*
X8316750Y-13666250D02*
X7999250Y-13983750D01*
D12*
X8396760Y-7856000D02*
G75*
G02*
X7919240Y-7856000I-238760J0D01*
G01*
X7919240Y-7856000D02*
G75*
G02*
X8396760Y-7856000I238760J0D01*
G01*
D10*
X7760777Y-15181484D02*
X7760777Y-14981484D01*
X7760777Y-14981484D02*
X7808396Y-14981484D01*
X7808396Y-14981484D02*
X7836967Y-14991008D01*
X7836967Y-14991008D02*
X7856015Y-15010055D01*
X7856015Y-15010055D02*
X7865539Y-15029103D01*
X7865539Y-15029103D02*
X7875062Y-15067198D01*
X7875062Y-15067198D02*
X7875062Y-15095769D01*
X7875062Y-15095769D02*
X7865539Y-15133865D01*
X7865539Y-15133865D02*
X7856015Y-15152912D01*
X7856015Y-15152912D02*
X7836967Y-15171960D01*
X7836967Y-15171960D02*
X7808396Y-15181484D01*
X7808396Y-15181484D02*
X7760777Y-15181484D01*
X7960777Y-15181484D02*
X7960777Y-15048150D01*
X7960777Y-15086246D02*
X7970301Y-15067198D01*
X7970301Y-15067198D02*
X7979824Y-15057674D01*
X7979824Y-15057674D02*
X7998872Y-15048150D01*
X7998872Y-15048150D02*
X8017920Y-15048150D01*
X8084586Y-15181484D02*
X8084586Y-15048150D01*
X8084586Y-14981484D02*
X8075062Y-14991008D01*
X8075062Y-14991008D02*
X8084586Y-15000531D01*
X8084586Y-15000531D02*
X8094110Y-14991008D01*
X8094110Y-14991008D02*
X8084586Y-14981484D01*
X8084586Y-14981484D02*
X8084586Y-15000531D01*
X8208396Y-15181484D02*
X8189348Y-15171960D01*
X8189348Y-15171960D02*
X8179824Y-15152912D01*
X8179824Y-15152912D02*
X8179824Y-14981484D01*
X8313158Y-15181484D02*
X8294110Y-15171960D01*
X8294110Y-15171960D02*
X8284586Y-15152912D01*
X8284586Y-15152912D02*
X8284586Y-14981484D01*
X8541729Y-15181484D02*
X8541729Y-14981484D01*
X8541729Y-14981484D02*
X8608396Y-15124341D01*
X8608396Y-15124341D02*
X8675063Y-14981484D01*
X8675063Y-14981484D02*
X8675063Y-15181484D01*
X8856015Y-15181484D02*
X8856015Y-15076722D01*
X8856015Y-15076722D02*
X8846491Y-15057674D01*
X8846491Y-15057674D02*
X8827444Y-15048150D01*
X8827444Y-15048150D02*
X8789348Y-15048150D01*
X8789348Y-15048150D02*
X8770301Y-15057674D01*
X8856015Y-15171960D02*
X8836967Y-15181484D01*
X8836967Y-15181484D02*
X8789348Y-15181484D01*
X8789348Y-15181484D02*
X8770301Y-15171960D01*
X8770301Y-15171960D02*
X8760777Y-15152912D01*
X8760777Y-15152912D02*
X8760777Y-15133865D01*
X8760777Y-15133865D02*
X8770301Y-15114817D01*
X8770301Y-15114817D02*
X8789348Y-15105293D01*
X8789348Y-15105293D02*
X8836967Y-15105293D01*
X8836967Y-15105293D02*
X8856015Y-15095769D01*
X8951253Y-15048150D02*
X8951253Y-15248150D01*
X8951253Y-15057674D02*
X8970301Y-15048150D01*
X8970301Y-15048150D02*
X9008396Y-15048150D01*
X9008396Y-15048150D02*
X9027444Y-15057674D01*
X9027444Y-15057674D02*
X9036967Y-15067198D01*
X9036967Y-15067198D02*
X9046491Y-15086246D01*
X9046491Y-15086246D02*
X9046491Y-15143388D01*
X9046491Y-15143388D02*
X9036967Y-15162436D01*
X9036967Y-15162436D02*
X9027444Y-15171960D01*
X9027444Y-15171960D02*
X9008396Y-15181484D01*
X9008396Y-15181484D02*
X8970301Y-15181484D01*
X8970301Y-15181484D02*
X8951253Y-15171960D01*
X9132205Y-15162436D02*
X9141729Y-15171960D01*
X9141729Y-15171960D02*
X9132205Y-15181484D01*
X9132205Y-15181484D02*
X9122682Y-15171960D01*
X9122682Y-15171960D02*
X9132205Y-15162436D01*
X9132205Y-15162436D02*
X9132205Y-15181484D01*
X9132205Y-15057674D02*
X9141729Y-15067198D01*
X9141729Y-15067198D02*
X9132205Y-15076722D01*
X9132205Y-15076722D02*
X9122682Y-15067198D01*
X9122682Y-15067198D02*
X9132205Y-15057674D01*
X9132205Y-15057674D02*
X9132205Y-15076722D01*
X7300000Y-15410000D02*
X7500000Y-15610000D01*
X7500000Y-15410000D02*
X7300000Y-15610000D01*
X7741729Y-15401484D02*
X7865539Y-15401484D01*
X7865539Y-15401484D02*
X7798872Y-15477674D01*
X7798872Y-15477674D02*
X7827443Y-15477674D01*
X7827443Y-15477674D02*
X7846491Y-15487198D01*
X7846491Y-15487198D02*
X7856015Y-15496722D01*
X7856015Y-15496722D02*
X7865539Y-15515769D01*
X7865539Y-15515769D02*
X7865539Y-15563388D01*
X7865539Y-15563388D02*
X7856015Y-15582436D01*
X7856015Y-15582436D02*
X7846491Y-15591960D01*
X7846491Y-15591960D02*
X7827443Y-15601484D01*
X7827443Y-15601484D02*
X7770301Y-15601484D01*
X7770301Y-15601484D02*
X7751253Y-15591960D01*
X7751253Y-15591960D02*
X7741729Y-15582436D01*
X7951253Y-15582436D02*
X7960777Y-15591960D01*
X7960777Y-15591960D02*
X7951253Y-15601484D01*
X7951253Y-15601484D02*
X7941729Y-15591960D01*
X7941729Y-15591960D02*
X7951253Y-15582436D01*
X7951253Y-15582436D02*
X7951253Y-15601484D01*
X8151253Y-15601484D02*
X8036967Y-15601484D01*
X8094110Y-15601484D02*
X8094110Y-15401484D01*
X8094110Y-15401484D02*
X8075062Y-15430055D01*
X8075062Y-15430055D02*
X8056015Y-15449103D01*
X8056015Y-15449103D02*
X8036967Y-15458627D01*
X8217920Y-15401484D02*
X8351253Y-15401484D01*
X8351253Y-15401484D02*
X8265539Y-15601484D01*
X8522682Y-15401484D02*
X8427444Y-15401484D01*
X8427444Y-15401484D02*
X8417920Y-15496722D01*
X8417920Y-15496722D02*
X8427444Y-15487198D01*
X8427444Y-15487198D02*
X8446491Y-15477674D01*
X8446491Y-15477674D02*
X8494110Y-15477674D01*
X8494110Y-15477674D02*
X8513158Y-15487198D01*
X8513158Y-15487198D02*
X8522682Y-15496722D01*
X8522682Y-15496722D02*
X8532205Y-15515769D01*
X8532205Y-15515769D02*
X8532205Y-15563388D01*
X8532205Y-15563388D02*
X8522682Y-15582436D01*
X8522682Y-15582436D02*
X8513158Y-15591960D01*
X8513158Y-15591960D02*
X8494110Y-15601484D01*
X8494110Y-15601484D02*
X8446491Y-15601484D01*
X8446491Y-15601484D02*
X8427444Y-15591960D01*
X8427444Y-15591960D02*
X8417920Y-15582436D01*
X8617920Y-15601484D02*
X8617920Y-15468150D01*
X8617920Y-15487198D02*
X8627444Y-15477674D01*
X8627444Y-15477674D02*
X8646491Y-15468150D01*
X8646491Y-15468150D02*
X8675063Y-15468150D01*
X8675063Y-15468150D02*
X8694110Y-15477674D01*
X8694110Y-15477674D02*
X8703634Y-15496722D01*
X8703634Y-15496722D02*
X8703634Y-15601484D01*
X8703634Y-15496722D02*
X8713158Y-15477674D01*
X8713158Y-15477674D02*
X8732205Y-15468150D01*
X8732205Y-15468150D02*
X8760777Y-15468150D01*
X8760777Y-15468150D02*
X8779825Y-15477674D01*
X8779825Y-15477674D02*
X8789348Y-15496722D01*
X8789348Y-15496722D02*
X8789348Y-15601484D01*
X8884586Y-15601484D02*
X8884586Y-15468150D01*
X8884586Y-15487198D02*
X8894110Y-15477674D01*
X8894110Y-15477674D02*
X8913158Y-15468150D01*
X8913158Y-15468150D02*
X8941729Y-15468150D01*
X8941729Y-15468150D02*
X8960777Y-15477674D01*
X8960777Y-15477674D02*
X8970301Y-15496722D01*
X8970301Y-15496722D02*
X8970301Y-15601484D01*
X8970301Y-15496722D02*
X8979825Y-15477674D01*
X8979825Y-15477674D02*
X8998872Y-15468150D01*
X8998872Y-15468150D02*
X9027444Y-15468150D01*
X9027444Y-15468150D02*
X9046491Y-15477674D01*
X9046491Y-15477674D02*
X9056015Y-15496722D01*
X9056015Y-15496722D02*
X9056015Y-15601484D01*
X9446491Y-15391960D02*
X9275063Y-15649103D01*
X9703634Y-15401484D02*
X9722682Y-15401484D01*
X9722682Y-15401484D02*
X9741729Y-15411008D01*
X9741729Y-15411008D02*
X9751253Y-15420531D01*
X9751253Y-15420531D02*
X9760777Y-15439579D01*
X9760777Y-15439579D02*
X9770301Y-15477674D01*
X9770301Y-15477674D02*
X9770301Y-15525293D01*
X9770301Y-15525293D02*
X9760777Y-15563388D01*
X9760777Y-15563388D02*
X9751253Y-15582436D01*
X9751253Y-15582436D02*
X9741729Y-15591960D01*
X9741729Y-15591960D02*
X9722682Y-15601484D01*
X9722682Y-15601484D02*
X9703634Y-15601484D01*
X9703634Y-15601484D02*
X9684587Y-15591960D01*
X9684587Y-15591960D02*
X9675063Y-15582436D01*
X9675063Y-15582436D02*
X9665539Y-15563388D01*
X9665539Y-15563388D02*
X9656015Y-15525293D01*
X9656015Y-15525293D02*
X9656015Y-15477674D01*
X9656015Y-15477674D02*
X9665539Y-15439579D01*
X9665539Y-15439579D02*
X9675063Y-15420531D01*
X9675063Y-15420531D02*
X9684587Y-15411008D01*
X9684587Y-15411008D02*
X9703634Y-15401484D01*
X9856015Y-15582436D02*
X9865539Y-15591960D01*
X9865539Y-15591960D02*
X9856015Y-15601484D01*
X9856015Y-15601484D02*
X9846491Y-15591960D01*
X9846491Y-15591960D02*
X9856015Y-15582436D01*
X9856015Y-15582436D02*
X9856015Y-15601484D01*
X10056015Y-15601484D02*
X9941729Y-15601484D01*
X9998872Y-15601484D02*
X9998872Y-15401484D01*
X9998872Y-15401484D02*
X9979825Y-15430055D01*
X9979825Y-15430055D02*
X9960777Y-15449103D01*
X9960777Y-15449103D02*
X9941729Y-15458627D01*
X10132206Y-15420531D02*
X10141729Y-15411008D01*
X10141729Y-15411008D02*
X10160777Y-15401484D01*
X10160777Y-15401484D02*
X10208396Y-15401484D01*
X10208396Y-15401484D02*
X10227444Y-15411008D01*
X10227444Y-15411008D02*
X10236968Y-15420531D01*
X10236968Y-15420531D02*
X10246491Y-15439579D01*
X10246491Y-15439579D02*
X10246491Y-15458627D01*
X10246491Y-15458627D02*
X10236968Y-15487198D01*
X10236968Y-15487198D02*
X10122682Y-15601484D01*
X10122682Y-15601484D02*
X10246491Y-15601484D01*
X10427444Y-15401484D02*
X10332206Y-15401484D01*
X10332206Y-15401484D02*
X10322682Y-15496722D01*
X10322682Y-15496722D02*
X10332206Y-15487198D01*
X10332206Y-15487198D02*
X10351253Y-15477674D01*
X10351253Y-15477674D02*
X10398872Y-15477674D01*
X10398872Y-15477674D02*
X10417920Y-15487198D01*
X10417920Y-15487198D02*
X10427444Y-15496722D01*
X10427444Y-15496722D02*
X10436968Y-15515769D01*
X10436968Y-15515769D02*
X10436968Y-15563388D01*
X10436968Y-15563388D02*
X10427444Y-15582436D01*
X10427444Y-15582436D02*
X10417920Y-15591960D01*
X10417920Y-15591960D02*
X10398872Y-15601484D01*
X10398872Y-15601484D02*
X10351253Y-15601484D01*
X10351253Y-15601484D02*
X10332206Y-15591960D01*
X10332206Y-15591960D02*
X10322682Y-15582436D01*
X10560777Y-15401484D02*
X10579825Y-15401484D01*
X10579825Y-15401484D02*
X10598872Y-15411008D01*
X10598872Y-15411008D02*
X10608396Y-15420531D01*
X10608396Y-15420531D02*
X10617920Y-15439579D01*
X10617920Y-15439579D02*
X10627444Y-15477674D01*
X10627444Y-15477674D02*
X10627444Y-15525293D01*
X10627444Y-15525293D02*
X10617920Y-15563388D01*
X10617920Y-15563388D02*
X10608396Y-15582436D01*
X10608396Y-15582436D02*
X10598872Y-15591960D01*
X10598872Y-15591960D02*
X10579825Y-15601484D01*
X10579825Y-15601484D02*
X10560777Y-15601484D01*
X10560777Y-15601484D02*
X10541729Y-15591960D01*
X10541729Y-15591960D02*
X10532206Y-15582436D01*
X10532206Y-15582436D02*
X10522682Y-15563388D01*
X10522682Y-15563388D02*
X10513158Y-15525293D01*
X10513158Y-15525293D02*
X10513158Y-15477674D01*
X10513158Y-15477674D02*
X10522682Y-15439579D01*
X10522682Y-15439579D02*
X10532206Y-15420531D01*
X10532206Y-15420531D02*
X10541729Y-15411008D01*
X10541729Y-15411008D02*
X10560777Y-15401484D01*
X10703634Y-15401484D02*
X10703634Y-15439579D01*
X10779825Y-15401484D02*
X10779825Y-15439579D01*
X11075063Y-15677674D02*
X11065539Y-15668150D01*
X11065539Y-15668150D02*
X11046491Y-15639579D01*
X11046491Y-15639579D02*
X11036968Y-15620531D01*
X11036968Y-15620531D02*
X11027444Y-15591960D01*
X11027444Y-15591960D02*
X11017920Y-15544341D01*
X11017920Y-15544341D02*
X11017920Y-15506246D01*
X11017920Y-15506246D02*
X11027444Y-15458627D01*
X11027444Y-15458627D02*
X11036968Y-15430055D01*
X11036968Y-15430055D02*
X11046491Y-15411008D01*
X11046491Y-15411008D02*
X11065539Y-15382436D01*
X11065539Y-15382436D02*
X11075063Y-15372912D01*
X11256015Y-15601484D02*
X11141730Y-15601484D01*
X11198872Y-15601484D02*
X11198872Y-15401484D01*
X11198872Y-15401484D02*
X11179825Y-15430055D01*
X11179825Y-15430055D02*
X11160777Y-15449103D01*
X11160777Y-15449103D02*
X11141730Y-15458627D01*
X11494110Y-15601484D02*
X11494110Y-15401484D01*
X11579825Y-15601484D02*
X11579825Y-15496722D01*
X11579825Y-15496722D02*
X11570301Y-15477674D01*
X11570301Y-15477674D02*
X11551253Y-15468150D01*
X11551253Y-15468150D02*
X11522682Y-15468150D01*
X11522682Y-15468150D02*
X11503634Y-15477674D01*
X11503634Y-15477674D02*
X11494110Y-15487198D01*
X11703634Y-15601484D02*
X11684587Y-15591960D01*
X11684587Y-15591960D02*
X11675063Y-15582436D01*
X11675063Y-15582436D02*
X11665539Y-15563388D01*
X11665539Y-15563388D02*
X11665539Y-15506246D01*
X11665539Y-15506246D02*
X11675063Y-15487198D01*
X11675063Y-15487198D02*
X11684587Y-15477674D01*
X11684587Y-15477674D02*
X11703634Y-15468150D01*
X11703634Y-15468150D02*
X11732206Y-15468150D01*
X11732206Y-15468150D02*
X11751253Y-15477674D01*
X11751253Y-15477674D02*
X11760777Y-15487198D01*
X11760777Y-15487198D02*
X11770301Y-15506246D01*
X11770301Y-15506246D02*
X11770301Y-15563388D01*
X11770301Y-15563388D02*
X11760777Y-15582436D01*
X11760777Y-15582436D02*
X11751253Y-15591960D01*
X11751253Y-15591960D02*
X11732206Y-15601484D01*
X11732206Y-15601484D02*
X11703634Y-15601484D01*
X11884587Y-15601484D02*
X11865539Y-15591960D01*
X11865539Y-15591960D02*
X11856015Y-15572912D01*
X11856015Y-15572912D02*
X11856015Y-15401484D01*
X12036968Y-15591960D02*
X12017920Y-15601484D01*
X12017920Y-15601484D02*
X11979825Y-15601484D01*
X11979825Y-15601484D02*
X11960777Y-15591960D01*
X11960777Y-15591960D02*
X11951253Y-15572912D01*
X11951253Y-15572912D02*
X11951253Y-15496722D01*
X11951253Y-15496722D02*
X11960777Y-15477674D01*
X11960777Y-15477674D02*
X11979825Y-15468150D01*
X11979825Y-15468150D02*
X12017920Y-15468150D01*
X12017920Y-15468150D02*
X12036968Y-15477674D01*
X12036968Y-15477674D02*
X12046491Y-15496722D01*
X12046491Y-15496722D02*
X12046491Y-15515769D01*
X12046491Y-15515769D02*
X11951253Y-15534817D01*
X12113158Y-15677674D02*
X12122682Y-15668150D01*
X12122682Y-15668150D02*
X12141730Y-15639579D01*
X12141730Y-15639579D02*
X12151253Y-15620531D01*
X12151253Y-15620531D02*
X12160777Y-15591960D01*
X12160777Y-15591960D02*
X12170301Y-15544341D01*
X12170301Y-15544341D02*
X12170301Y-15506246D01*
X12170301Y-15506246D02*
X12160777Y-15458627D01*
X12160777Y-15458627D02*
X12151253Y-15430055D01*
X12151253Y-15430055D02*
X12141730Y-15411008D01*
X12141730Y-15411008D02*
X12122682Y-15382436D01*
X12122682Y-15382436D02*
X12113158Y-15372912D01*
X12475063Y-15677674D02*
X12465539Y-15668150D01*
X12465539Y-15668150D02*
X12446491Y-15639579D01*
X12446491Y-15639579D02*
X12436968Y-15620531D01*
X12436968Y-15620531D02*
X12427444Y-15591960D01*
X12427444Y-15591960D02*
X12417920Y-15544341D01*
X12417920Y-15544341D02*
X12417920Y-15506246D01*
X12417920Y-15506246D02*
X12427444Y-15458627D01*
X12427444Y-15458627D02*
X12436968Y-15430055D01*
X12436968Y-15430055D02*
X12446491Y-15411008D01*
X12446491Y-15411008D02*
X12465539Y-15382436D01*
X12465539Y-15382436D02*
X12475063Y-15372912D01*
X12551253Y-15468150D02*
X12551253Y-15601484D01*
X12551253Y-15487198D02*
X12560777Y-15477674D01*
X12560777Y-15477674D02*
X12579825Y-15468150D01*
X12579825Y-15468150D02*
X12608396Y-15468150D01*
X12608396Y-15468150D02*
X12627444Y-15477674D01*
X12627444Y-15477674D02*
X12636968Y-15496722D01*
X12636968Y-15496722D02*
X12636968Y-15601484D01*
X12760777Y-15601484D02*
X12741730Y-15591960D01*
X12741730Y-15591960D02*
X12732206Y-15582436D01*
X12732206Y-15582436D02*
X12722682Y-15563388D01*
X12722682Y-15563388D02*
X12722682Y-15506246D01*
X12722682Y-15506246D02*
X12732206Y-15487198D01*
X12732206Y-15487198D02*
X12741730Y-15477674D01*
X12741730Y-15477674D02*
X12760777Y-15468150D01*
X12760777Y-15468150D02*
X12789349Y-15468150D01*
X12789349Y-15468150D02*
X12808396Y-15477674D01*
X12808396Y-15477674D02*
X12817920Y-15487198D01*
X12817920Y-15487198D02*
X12827444Y-15506246D01*
X12827444Y-15506246D02*
X12827444Y-15563388D01*
X12827444Y-15563388D02*
X12817920Y-15582436D01*
X12817920Y-15582436D02*
X12808396Y-15591960D01*
X12808396Y-15591960D02*
X12789349Y-15601484D01*
X12789349Y-15601484D02*
X12760777Y-15601484D01*
X12884587Y-15468150D02*
X12960777Y-15468150D01*
X12913158Y-15401484D02*
X12913158Y-15572912D01*
X12913158Y-15572912D02*
X12922682Y-15591960D01*
X12922682Y-15591960D02*
X12941730Y-15601484D01*
X12941730Y-15601484D02*
X12960777Y-15601484D01*
X13179825Y-15468150D02*
X13179825Y-15668150D01*
X13179825Y-15477674D02*
X13198872Y-15468150D01*
X13198872Y-15468150D02*
X13236968Y-15468150D01*
X13236968Y-15468150D02*
X13256015Y-15477674D01*
X13256015Y-15477674D02*
X13265539Y-15487198D01*
X13265539Y-15487198D02*
X13275063Y-15506246D01*
X13275063Y-15506246D02*
X13275063Y-15563388D01*
X13275063Y-15563388D02*
X13265539Y-15582436D01*
X13265539Y-15582436D02*
X13256015Y-15591960D01*
X13256015Y-15591960D02*
X13236968Y-15601484D01*
X13236968Y-15601484D02*
X13198872Y-15601484D01*
X13198872Y-15601484D02*
X13179825Y-15591960D01*
X13389349Y-15601484D02*
X13370301Y-15591960D01*
X13370301Y-15591960D02*
X13360777Y-15572912D01*
X13360777Y-15572912D02*
X13360777Y-15401484D01*
X13551253Y-15601484D02*
X13551253Y-15496722D01*
X13551253Y-15496722D02*
X13541730Y-15477674D01*
X13541730Y-15477674D02*
X13522682Y-15468150D01*
X13522682Y-15468150D02*
X13484587Y-15468150D01*
X13484587Y-15468150D02*
X13465539Y-15477674D01*
X13551253Y-15591960D02*
X13532206Y-15601484D01*
X13532206Y-15601484D02*
X13484587Y-15601484D01*
X13484587Y-15601484D02*
X13465539Y-15591960D01*
X13465539Y-15591960D02*
X13456015Y-15572912D01*
X13456015Y-15572912D02*
X13456015Y-15553865D01*
X13456015Y-15553865D02*
X13465539Y-15534817D01*
X13465539Y-15534817D02*
X13484587Y-15525293D01*
X13484587Y-15525293D02*
X13532206Y-15525293D01*
X13532206Y-15525293D02*
X13551253Y-15515769D01*
X13617920Y-15468150D02*
X13694111Y-15468150D01*
X13646492Y-15401484D02*
X13646492Y-15572912D01*
X13646492Y-15572912D02*
X13656015Y-15591960D01*
X13656015Y-15591960D02*
X13675063Y-15601484D01*
X13675063Y-15601484D02*
X13694111Y-15601484D01*
X13836968Y-15591960D02*
X13817920Y-15601484D01*
X13817920Y-15601484D02*
X13779825Y-15601484D01*
X13779825Y-15601484D02*
X13760777Y-15591960D01*
X13760777Y-15591960D02*
X13751253Y-15572912D01*
X13751253Y-15572912D02*
X13751253Y-15496722D01*
X13751253Y-15496722D02*
X13760777Y-15477674D01*
X13760777Y-15477674D02*
X13779825Y-15468150D01*
X13779825Y-15468150D02*
X13817920Y-15468150D01*
X13817920Y-15468150D02*
X13836968Y-15477674D01*
X13836968Y-15477674D02*
X13846492Y-15496722D01*
X13846492Y-15496722D02*
X13846492Y-15515769D01*
X13846492Y-15515769D02*
X13751253Y-15534817D01*
X14017920Y-15601484D02*
X14017920Y-15401484D01*
X14017920Y-15591960D02*
X13998873Y-15601484D01*
X13998873Y-15601484D02*
X13960777Y-15601484D01*
X13960777Y-15601484D02*
X13941730Y-15591960D01*
X13941730Y-15591960D02*
X13932206Y-15582436D01*
X13932206Y-15582436D02*
X13922682Y-15563388D01*
X13922682Y-15563388D02*
X13922682Y-15506246D01*
X13922682Y-15506246D02*
X13932206Y-15487198D01*
X13932206Y-15487198D02*
X13941730Y-15477674D01*
X13941730Y-15477674D02*
X13960777Y-15468150D01*
X13960777Y-15468150D02*
X13998873Y-15468150D01*
X13998873Y-15468150D02*
X14017920Y-15477674D01*
X14094111Y-15677674D02*
X14103634Y-15668150D01*
X14103634Y-15668150D02*
X14122682Y-15639579D01*
X14122682Y-15639579D02*
X14132206Y-15620531D01*
X14132206Y-15620531D02*
X14141730Y-15591960D01*
X14141730Y-15591960D02*
X14151253Y-15544341D01*
X14151253Y-15544341D02*
X14151253Y-15506246D01*
X14151253Y-15506246D02*
X14141730Y-15458627D01*
X14141730Y-15458627D02*
X14132206Y-15430055D01*
X14132206Y-15430055D02*
X14122682Y-15411008D01*
X14122682Y-15411008D02*
X14103634Y-15382436D01*
X14103634Y-15382436D02*
X14094111Y-15372912D01*
X7500000Y-15830000D02*
G75*
G02*
X7300000Y-15830000I-100000J0D01*
G01*
X7300000Y-15830000D02*
G75*
G02*
X7500000Y-15830000I100000J0D01*
G01*
X7846491Y-15788150D02*
X7846491Y-15921484D01*
X7798872Y-15711960D02*
X7751253Y-15854817D01*
X7751253Y-15854817D02*
X7875062Y-15854817D01*
X7951253Y-15902436D02*
X7960777Y-15911960D01*
X7960777Y-15911960D02*
X7951253Y-15921484D01*
X7951253Y-15921484D02*
X7941729Y-15911960D01*
X7941729Y-15911960D02*
X7951253Y-15902436D01*
X7951253Y-15902436D02*
X7951253Y-15921484D01*
X8027443Y-15721484D02*
X8160777Y-15721484D01*
X8160777Y-15721484D02*
X8075062Y-15921484D01*
X8217920Y-15721484D02*
X8351253Y-15721484D01*
X8351253Y-15721484D02*
X8265539Y-15921484D01*
X8522682Y-15721484D02*
X8427444Y-15721484D01*
X8427444Y-15721484D02*
X8417920Y-15816722D01*
X8417920Y-15816722D02*
X8427444Y-15807198D01*
X8427444Y-15807198D02*
X8446491Y-15797674D01*
X8446491Y-15797674D02*
X8494110Y-15797674D01*
X8494110Y-15797674D02*
X8513158Y-15807198D01*
X8513158Y-15807198D02*
X8522682Y-15816722D01*
X8522682Y-15816722D02*
X8532205Y-15835769D01*
X8532205Y-15835769D02*
X8532205Y-15883388D01*
X8532205Y-15883388D02*
X8522682Y-15902436D01*
X8522682Y-15902436D02*
X8513158Y-15911960D01*
X8513158Y-15911960D02*
X8494110Y-15921484D01*
X8494110Y-15921484D02*
X8446491Y-15921484D01*
X8446491Y-15921484D02*
X8427444Y-15911960D01*
X8427444Y-15911960D02*
X8417920Y-15902436D01*
X8617920Y-15921484D02*
X8617920Y-15788150D01*
X8617920Y-15807198D02*
X8627444Y-15797674D01*
X8627444Y-15797674D02*
X8646491Y-15788150D01*
X8646491Y-15788150D02*
X8675063Y-15788150D01*
X8675063Y-15788150D02*
X8694110Y-15797674D01*
X8694110Y-15797674D02*
X8703634Y-15816722D01*
X8703634Y-15816722D02*
X8703634Y-15921484D01*
X8703634Y-15816722D02*
X8713158Y-15797674D01*
X8713158Y-15797674D02*
X8732205Y-15788150D01*
X8732205Y-15788150D02*
X8760777Y-15788150D01*
X8760777Y-15788150D02*
X8779825Y-15797674D01*
X8779825Y-15797674D02*
X8789348Y-15816722D01*
X8789348Y-15816722D02*
X8789348Y-15921484D01*
X8884586Y-15921484D02*
X8884586Y-15788150D01*
X8884586Y-15807198D02*
X8894110Y-15797674D01*
X8894110Y-15797674D02*
X8913158Y-15788150D01*
X8913158Y-15788150D02*
X8941729Y-15788150D01*
X8941729Y-15788150D02*
X8960777Y-15797674D01*
X8960777Y-15797674D02*
X8970301Y-15816722D01*
X8970301Y-15816722D02*
X8970301Y-15921484D01*
X8970301Y-15816722D02*
X8979825Y-15797674D01*
X8979825Y-15797674D02*
X8998872Y-15788150D01*
X8998872Y-15788150D02*
X9027444Y-15788150D01*
X9027444Y-15788150D02*
X9046491Y-15797674D01*
X9046491Y-15797674D02*
X9056015Y-15816722D01*
X9056015Y-15816722D02*
X9056015Y-15921484D01*
X9446491Y-15711960D02*
X9275063Y-15969103D01*
X9703634Y-15721484D02*
X9722682Y-15721484D01*
X9722682Y-15721484D02*
X9741729Y-15731008D01*
X9741729Y-15731008D02*
X9751253Y-15740531D01*
X9751253Y-15740531D02*
X9760777Y-15759579D01*
X9760777Y-15759579D02*
X9770301Y-15797674D01*
X9770301Y-15797674D02*
X9770301Y-15845293D01*
X9770301Y-15845293D02*
X9760777Y-15883388D01*
X9760777Y-15883388D02*
X9751253Y-15902436D01*
X9751253Y-15902436D02*
X9741729Y-15911960D01*
X9741729Y-15911960D02*
X9722682Y-15921484D01*
X9722682Y-15921484D02*
X9703634Y-15921484D01*
X9703634Y-15921484D02*
X9684587Y-15911960D01*
X9684587Y-15911960D02*
X9675063Y-15902436D01*
X9675063Y-15902436D02*
X9665539Y-15883388D01*
X9665539Y-15883388D02*
X9656015Y-15845293D01*
X9656015Y-15845293D02*
X9656015Y-15797674D01*
X9656015Y-15797674D02*
X9665539Y-15759579D01*
X9665539Y-15759579D02*
X9675063Y-15740531D01*
X9675063Y-15740531D02*
X9684587Y-15731008D01*
X9684587Y-15731008D02*
X9703634Y-15721484D01*
X9856015Y-15902436D02*
X9865539Y-15911960D01*
X9865539Y-15911960D02*
X9856015Y-15921484D01*
X9856015Y-15921484D02*
X9846491Y-15911960D01*
X9846491Y-15911960D02*
X9856015Y-15902436D01*
X9856015Y-15902436D02*
X9856015Y-15921484D01*
X10056015Y-15921484D02*
X9941729Y-15921484D01*
X9998872Y-15921484D02*
X9998872Y-15721484D01*
X9998872Y-15721484D02*
X9979825Y-15750055D01*
X9979825Y-15750055D02*
X9960777Y-15769103D01*
X9960777Y-15769103D02*
X9941729Y-15778627D01*
X10170301Y-15807198D02*
X10151253Y-15797674D01*
X10151253Y-15797674D02*
X10141729Y-15788150D01*
X10141729Y-15788150D02*
X10132206Y-15769103D01*
X10132206Y-15769103D02*
X10132206Y-15759579D01*
X10132206Y-15759579D02*
X10141729Y-15740531D01*
X10141729Y-15740531D02*
X10151253Y-15731008D01*
X10151253Y-15731008D02*
X10170301Y-15721484D01*
X10170301Y-15721484D02*
X10208396Y-15721484D01*
X10208396Y-15721484D02*
X10227444Y-15731008D01*
X10227444Y-15731008D02*
X10236968Y-15740531D01*
X10236968Y-15740531D02*
X10246491Y-15759579D01*
X10246491Y-15759579D02*
X10246491Y-15769103D01*
X10246491Y-15769103D02*
X10236968Y-15788150D01*
X10236968Y-15788150D02*
X10227444Y-15797674D01*
X10227444Y-15797674D02*
X10208396Y-15807198D01*
X10208396Y-15807198D02*
X10170301Y-15807198D01*
X10170301Y-15807198D02*
X10151253Y-15816722D01*
X10151253Y-15816722D02*
X10141729Y-15826246D01*
X10141729Y-15826246D02*
X10132206Y-15845293D01*
X10132206Y-15845293D02*
X10132206Y-15883388D01*
X10132206Y-15883388D02*
X10141729Y-15902436D01*
X10141729Y-15902436D02*
X10151253Y-15911960D01*
X10151253Y-15911960D02*
X10170301Y-15921484D01*
X10170301Y-15921484D02*
X10208396Y-15921484D01*
X10208396Y-15921484D02*
X10227444Y-15911960D01*
X10227444Y-15911960D02*
X10236968Y-15902436D01*
X10236968Y-15902436D02*
X10246491Y-15883388D01*
X10246491Y-15883388D02*
X10246491Y-15845293D01*
X10246491Y-15845293D02*
X10236968Y-15826246D01*
X10236968Y-15826246D02*
X10227444Y-15816722D01*
X10227444Y-15816722D02*
X10208396Y-15807198D01*
X10360777Y-15807198D02*
X10341729Y-15797674D01*
X10341729Y-15797674D02*
X10332206Y-15788150D01*
X10332206Y-15788150D02*
X10322682Y-15769103D01*
X10322682Y-15769103D02*
X10322682Y-15759579D01*
X10322682Y-15759579D02*
X10332206Y-15740531D01*
X10332206Y-15740531D02*
X10341729Y-15731008D01*
X10341729Y-15731008D02*
X10360777Y-15721484D01*
X10360777Y-15721484D02*
X10398872Y-15721484D01*
X10398872Y-15721484D02*
X10417920Y-15731008D01*
X10417920Y-15731008D02*
X10427444Y-15740531D01*
X10427444Y-15740531D02*
X10436968Y-15759579D01*
X10436968Y-15759579D02*
X10436968Y-15769103D01*
X10436968Y-15769103D02*
X10427444Y-15788150D01*
X10427444Y-15788150D02*
X10417920Y-15797674D01*
X10417920Y-15797674D02*
X10398872Y-15807198D01*
X10398872Y-15807198D02*
X10360777Y-15807198D01*
X10360777Y-15807198D02*
X10341729Y-15816722D01*
X10341729Y-15816722D02*
X10332206Y-15826246D01*
X10332206Y-15826246D02*
X10322682Y-15845293D01*
X10322682Y-15845293D02*
X10322682Y-15883388D01*
X10322682Y-15883388D02*
X10332206Y-15902436D01*
X10332206Y-15902436D02*
X10341729Y-15911960D01*
X10341729Y-15911960D02*
X10360777Y-15921484D01*
X10360777Y-15921484D02*
X10398872Y-15921484D01*
X10398872Y-15921484D02*
X10417920Y-15911960D01*
X10417920Y-15911960D02*
X10427444Y-15902436D01*
X10427444Y-15902436D02*
X10436968Y-15883388D01*
X10436968Y-15883388D02*
X10436968Y-15845293D01*
X10436968Y-15845293D02*
X10427444Y-15826246D01*
X10427444Y-15826246D02*
X10417920Y-15816722D01*
X10417920Y-15816722D02*
X10398872Y-15807198D01*
X10560777Y-15721484D02*
X10579825Y-15721484D01*
X10579825Y-15721484D02*
X10598872Y-15731008D01*
X10598872Y-15731008D02*
X10608396Y-15740531D01*
X10608396Y-15740531D02*
X10617920Y-15759579D01*
X10617920Y-15759579D02*
X10627444Y-15797674D01*
X10627444Y-15797674D02*
X10627444Y-15845293D01*
X10627444Y-15845293D02*
X10617920Y-15883388D01*
X10617920Y-15883388D02*
X10608396Y-15902436D01*
X10608396Y-15902436D02*
X10598872Y-15911960D01*
X10598872Y-15911960D02*
X10579825Y-15921484D01*
X10579825Y-15921484D02*
X10560777Y-15921484D01*
X10560777Y-15921484D02*
X10541729Y-15911960D01*
X10541729Y-15911960D02*
X10532206Y-15902436D01*
X10532206Y-15902436D02*
X10522682Y-15883388D01*
X10522682Y-15883388D02*
X10513158Y-15845293D01*
X10513158Y-15845293D02*
X10513158Y-15797674D01*
X10513158Y-15797674D02*
X10522682Y-15759579D01*
X10522682Y-15759579D02*
X10532206Y-15740531D01*
X10532206Y-15740531D02*
X10541729Y-15731008D01*
X10541729Y-15731008D02*
X10560777Y-15721484D01*
X10703634Y-15721484D02*
X10703634Y-15759579D01*
X10779825Y-15721484D02*
X10779825Y-15759579D01*
X11075063Y-15997674D02*
X11065539Y-15988150D01*
X11065539Y-15988150D02*
X11046491Y-15959579D01*
X11046491Y-15959579D02*
X11036968Y-15940531D01*
X11036968Y-15940531D02*
X11027444Y-15911960D01*
X11027444Y-15911960D02*
X11017920Y-15864341D01*
X11017920Y-15864341D02*
X11017920Y-15826246D01*
X11017920Y-15826246D02*
X11027444Y-15778627D01*
X11027444Y-15778627D02*
X11036968Y-15750055D01*
X11036968Y-15750055D02*
X11046491Y-15731008D01*
X11046491Y-15731008D02*
X11065539Y-15702436D01*
X11065539Y-15702436D02*
X11075063Y-15692912D01*
X11256015Y-15921484D02*
X11141730Y-15921484D01*
X11198872Y-15921484D02*
X11198872Y-15721484D01*
X11198872Y-15721484D02*
X11179825Y-15750055D01*
X11179825Y-15750055D02*
X11160777Y-15769103D01*
X11160777Y-15769103D02*
X11141730Y-15778627D01*
X11494110Y-15921484D02*
X11494110Y-15721484D01*
X11579825Y-15921484D02*
X11579825Y-15816722D01*
X11579825Y-15816722D02*
X11570301Y-15797674D01*
X11570301Y-15797674D02*
X11551253Y-15788150D01*
X11551253Y-15788150D02*
X11522682Y-15788150D01*
X11522682Y-15788150D02*
X11503634Y-15797674D01*
X11503634Y-15797674D02*
X11494110Y-15807198D01*
X11703634Y-15921484D02*
X11684587Y-15911960D01*
X11684587Y-15911960D02*
X11675063Y-15902436D01*
X11675063Y-15902436D02*
X11665539Y-15883388D01*
X11665539Y-15883388D02*
X11665539Y-15826246D01*
X11665539Y-15826246D02*
X11675063Y-15807198D01*
X11675063Y-15807198D02*
X11684587Y-15797674D01*
X11684587Y-15797674D02*
X11703634Y-15788150D01*
X11703634Y-15788150D02*
X11732206Y-15788150D01*
X11732206Y-15788150D02*
X11751253Y-15797674D01*
X11751253Y-15797674D02*
X11760777Y-15807198D01*
X11760777Y-15807198D02*
X11770301Y-15826246D01*
X11770301Y-15826246D02*
X11770301Y-15883388D01*
X11770301Y-15883388D02*
X11760777Y-15902436D01*
X11760777Y-15902436D02*
X11751253Y-15911960D01*
X11751253Y-15911960D02*
X11732206Y-15921484D01*
X11732206Y-15921484D02*
X11703634Y-15921484D01*
X11884587Y-15921484D02*
X11865539Y-15911960D01*
X11865539Y-15911960D02*
X11856015Y-15892912D01*
X11856015Y-15892912D02*
X11856015Y-15721484D01*
X12036968Y-15911960D02*
X12017920Y-15921484D01*
X12017920Y-15921484D02*
X11979825Y-15921484D01*
X11979825Y-15921484D02*
X11960777Y-15911960D01*
X11960777Y-15911960D02*
X11951253Y-15892912D01*
X11951253Y-15892912D02*
X11951253Y-15816722D01*
X11951253Y-15816722D02*
X11960777Y-15797674D01*
X11960777Y-15797674D02*
X11979825Y-15788150D01*
X11979825Y-15788150D02*
X12017920Y-15788150D01*
X12017920Y-15788150D02*
X12036968Y-15797674D01*
X12036968Y-15797674D02*
X12046491Y-15816722D01*
X12046491Y-15816722D02*
X12046491Y-15835769D01*
X12046491Y-15835769D02*
X11951253Y-15854817D01*
X12113158Y-15997674D02*
X12122682Y-15988150D01*
X12122682Y-15988150D02*
X12141730Y-15959579D01*
X12141730Y-15959579D02*
X12151253Y-15940531D01*
X12151253Y-15940531D02*
X12160777Y-15911960D01*
X12160777Y-15911960D02*
X12170301Y-15864341D01*
X12170301Y-15864341D02*
X12170301Y-15826246D01*
X12170301Y-15826246D02*
X12160777Y-15778627D01*
X12160777Y-15778627D02*
X12151253Y-15750055D01*
X12151253Y-15750055D02*
X12141730Y-15731008D01*
X12141730Y-15731008D02*
X12122682Y-15702436D01*
X12122682Y-15702436D02*
X12113158Y-15692912D01*
X12475063Y-15997674D02*
X12465539Y-15988150D01*
X12465539Y-15988150D02*
X12446491Y-15959579D01*
X12446491Y-15959579D02*
X12436968Y-15940531D01*
X12436968Y-15940531D02*
X12427444Y-15911960D01*
X12427444Y-15911960D02*
X12417920Y-15864341D01*
X12417920Y-15864341D02*
X12417920Y-15826246D01*
X12417920Y-15826246D02*
X12427444Y-15778627D01*
X12427444Y-15778627D02*
X12436968Y-15750055D01*
X12436968Y-15750055D02*
X12446491Y-15731008D01*
X12446491Y-15731008D02*
X12465539Y-15702436D01*
X12465539Y-15702436D02*
X12475063Y-15692912D01*
X12551253Y-15788150D02*
X12551253Y-15921484D01*
X12551253Y-15807198D02*
X12560777Y-15797674D01*
X12560777Y-15797674D02*
X12579825Y-15788150D01*
X12579825Y-15788150D02*
X12608396Y-15788150D01*
X12608396Y-15788150D02*
X12627444Y-15797674D01*
X12627444Y-15797674D02*
X12636968Y-15816722D01*
X12636968Y-15816722D02*
X12636968Y-15921484D01*
X12760777Y-15921484D02*
X12741730Y-15911960D01*
X12741730Y-15911960D02*
X12732206Y-15902436D01*
X12732206Y-15902436D02*
X12722682Y-15883388D01*
X12722682Y-15883388D02*
X12722682Y-15826246D01*
X12722682Y-15826246D02*
X12732206Y-15807198D01*
X12732206Y-15807198D02*
X12741730Y-15797674D01*
X12741730Y-15797674D02*
X12760777Y-15788150D01*
X12760777Y-15788150D02*
X12789349Y-15788150D01*
X12789349Y-15788150D02*
X12808396Y-15797674D01*
X12808396Y-15797674D02*
X12817920Y-15807198D01*
X12817920Y-15807198D02*
X12827444Y-15826246D01*
X12827444Y-15826246D02*
X12827444Y-15883388D01*
X12827444Y-15883388D02*
X12817920Y-15902436D01*
X12817920Y-15902436D02*
X12808396Y-15911960D01*
X12808396Y-15911960D02*
X12789349Y-15921484D01*
X12789349Y-15921484D02*
X12760777Y-15921484D01*
X12884587Y-15788150D02*
X12960777Y-15788150D01*
X12913158Y-15721484D02*
X12913158Y-15892912D01*
X12913158Y-15892912D02*
X12922682Y-15911960D01*
X12922682Y-15911960D02*
X12941730Y-15921484D01*
X12941730Y-15921484D02*
X12960777Y-15921484D01*
X13179825Y-15788150D02*
X13179825Y-15988150D01*
X13179825Y-15797674D02*
X13198872Y-15788150D01*
X13198872Y-15788150D02*
X13236968Y-15788150D01*
X13236968Y-15788150D02*
X13256015Y-15797674D01*
X13256015Y-15797674D02*
X13265539Y-15807198D01*
X13265539Y-15807198D02*
X13275063Y-15826246D01*
X13275063Y-15826246D02*
X13275063Y-15883388D01*
X13275063Y-15883388D02*
X13265539Y-15902436D01*
X13265539Y-15902436D02*
X13256015Y-15911960D01*
X13256015Y-15911960D02*
X13236968Y-15921484D01*
X13236968Y-15921484D02*
X13198872Y-15921484D01*
X13198872Y-15921484D02*
X13179825Y-15911960D01*
X13389349Y-15921484D02*
X13370301Y-15911960D01*
X13370301Y-15911960D02*
X13360777Y-15892912D01*
X13360777Y-15892912D02*
X13360777Y-15721484D01*
X13551253Y-15921484D02*
X13551253Y-15816722D01*
X13551253Y-15816722D02*
X13541730Y-15797674D01*
X13541730Y-15797674D02*
X13522682Y-15788150D01*
X13522682Y-15788150D02*
X13484587Y-15788150D01*
X13484587Y-15788150D02*
X13465539Y-15797674D01*
X13551253Y-15911960D02*
X13532206Y-15921484D01*
X13532206Y-15921484D02*
X13484587Y-15921484D01*
X13484587Y-15921484D02*
X13465539Y-15911960D01*
X13465539Y-15911960D02*
X13456015Y-15892912D01*
X13456015Y-15892912D02*
X13456015Y-15873865D01*
X13456015Y-15873865D02*
X13465539Y-15854817D01*
X13465539Y-15854817D02*
X13484587Y-15845293D01*
X13484587Y-15845293D02*
X13532206Y-15845293D01*
X13532206Y-15845293D02*
X13551253Y-15835769D01*
X13617920Y-15788150D02*
X13694111Y-15788150D01*
X13646492Y-15721484D02*
X13646492Y-15892912D01*
X13646492Y-15892912D02*
X13656015Y-15911960D01*
X13656015Y-15911960D02*
X13675063Y-15921484D01*
X13675063Y-15921484D02*
X13694111Y-15921484D01*
X13836968Y-15911960D02*
X13817920Y-15921484D01*
X13817920Y-15921484D02*
X13779825Y-15921484D01*
X13779825Y-15921484D02*
X13760777Y-15911960D01*
X13760777Y-15911960D02*
X13751253Y-15892912D01*
X13751253Y-15892912D02*
X13751253Y-15816722D01*
X13751253Y-15816722D02*
X13760777Y-15797674D01*
X13760777Y-15797674D02*
X13779825Y-15788150D01*
X13779825Y-15788150D02*
X13817920Y-15788150D01*
X13817920Y-15788150D02*
X13836968Y-15797674D01*
X13836968Y-15797674D02*
X13846492Y-15816722D01*
X13846492Y-15816722D02*
X13846492Y-15835769D01*
X13846492Y-15835769D02*
X13751253Y-15854817D01*
X14017920Y-15921484D02*
X14017920Y-15721484D01*
X14017920Y-15911960D02*
X13998873Y-15921484D01*
X13998873Y-15921484D02*
X13960777Y-15921484D01*
X13960777Y-15921484D02*
X13941730Y-15911960D01*
X13941730Y-15911960D02*
X13932206Y-15902436D01*
X13932206Y-15902436D02*
X13922682Y-15883388D01*
X13922682Y-15883388D02*
X13922682Y-15826246D01*
X13922682Y-15826246D02*
X13932206Y-15807198D01*
X13932206Y-15807198D02*
X13941730Y-15797674D01*
X13941730Y-15797674D02*
X13960777Y-15788150D01*
X13960777Y-15788150D02*
X13998873Y-15788150D01*
X13998873Y-15788150D02*
X14017920Y-15797674D01*
X14094111Y-15997674D02*
X14103634Y-15988150D01*
X14103634Y-15988150D02*
X14122682Y-15959579D01*
X14122682Y-15959579D02*
X14132206Y-15940531D01*
X14132206Y-15940531D02*
X14141730Y-15911960D01*
X14141730Y-15911960D02*
X14151253Y-15864341D01*
X14151253Y-15864341D02*
X14151253Y-15826246D01*
X14151253Y-15826246D02*
X14141730Y-15778627D01*
X14141730Y-15778627D02*
X14132206Y-15750055D01*
X14132206Y-15750055D02*
X14122682Y-15731008D01*
X14122682Y-15731008D02*
X14103634Y-15702436D01*
X14103634Y-15702436D02*
X14094111Y-15692912D01*
M02*
