M48
; DRILL file {KiCad 9.0.0} date 2025-05-12T21:33:36-0500
; FORMAT={-:-/ absolute / inch / decimal}
; #@! TF.CreationDate,2025-05-12T21:33:36-05:00
; #@! TF.GenerationSoftware,Kicad,Pcbnew,9.0.0
; #@! TF.FileFunction,Plated,1,2,PTH
FMAT,2
INCH
; #@! TA.AperFunction,Plated,PTH,ViaDrill
T1C0.0157
; #@! TA.AperFunction,Plated,PTH,ComponentDrill
T2C0.0315
; #@! TA.AperFunction,Plated,PTH,ComponentDrill
T3C0.0394
%
G90
G05
T1
X3.0453Y-5.1417
X3.0453Y-5.1929
X3.3386Y-5.1417
X3.3386Y-5.1929
X3.3445Y-4.5929
X3.3445Y-4.7402
X3.3465Y-4.185
X3.3465Y-4.6909
X3.3465Y-4.8465
X3.3504Y-3.6949
X3.3504Y-3.7429
X3.3543Y-3.4922
X3.3563Y-3.4409
X3.3839Y-4.7953
X3.3839Y-4.7402
X3.3851Y-4.8797
X3.387Y-3.7094
X3.4251Y-4.7383
X3.4264Y-4.7993
X3.4291Y-3.7429
X3.4311Y-4.185
X3.44Y-4.2624
X3.4695Y-4.0472
X3.499Y-3.9488
X3.5295Y-3.8031
X3.56Y-3.9469
X3.5673Y-3.3053
X3.5689Y-5.3839
X3.5787Y-3.3663
X3.6391Y-3.4116
X3.6929Y-3.4117
X3.7076Y-4.8659
X3.7076Y-5.0355
X3.7293Y-4.4866
X3.7293Y-4.5374
X3.7303Y-3.8996
X3.7421Y-3.687
X3.7421Y-3.8012
X3.7598Y-4.1007
X3.7638Y-3.2264
X3.7677Y-3.1614
X3.7854Y-5.2441
X3.7854Y-5.3172
X3.7992Y-4.1457
X3.8051Y-4.8353
X3.8327Y-3.5748
X3.872Y-5.4941
X3.9242Y-5.1476
X3.9331Y-4.0236
X3.9498Y-4.8659
X3.9547Y-5.3976
X3.9803Y-4.7835
X3.9852Y-5.3709
X3.9961Y-3.9606
X3.998Y-4.7323
X4.0472Y-3.2933
X4.0571Y-3.2087
X4.0945Y-5.5379
X4.1319Y-4.8333
X4.1319Y-5.1496
X4.1339Y-4.4843
X4.1339Y-4.5492
X4.1654Y-4.6862
X4.1693Y-3.1043
X4.1732Y-3.8012
X4.1811Y-3.9778
X4.1811Y-4.0171
X4.19Y-3.3435
X4.2441Y-3.3543
X4.2657Y-3.1673
X4.2854Y-4.6707
X4.2854Y-4.0781
X4.2858Y-4.7101
X4.3681Y-3.9852
X4.3682Y-4.0476
X4.3719Y-5.0138
X4.3986Y-4.3701
X4.4173Y-5.4596
X4.4252Y-4.5906
X4.4331Y-5.3769
X4.4587Y-4.9469
X4.4591Y-4.6191
X4.4611Y-5.4602
X4.4636Y-5.3464
X4.5236Y-4.1811
X4.5285Y-3.5059
X4.5345Y-3.8729
X4.5394Y-4.6575
X4.5472Y-4.2815
X4.5571Y-3.1969
X4.5571Y-3.2972
X4.5591Y-3.397
X4.5984Y-5.1442
X4.6571Y-4.7929
X4.6594Y-3.6379
X4.6752Y-5.1043
X4.6752Y-5.2224
X4.6831Y-3.535
X4.6885Y-4.6452
X4.69Y-3.6732
X4.69Y-4.0813
X4.6919Y-4.0313
X4.7323Y-5.1442
X4.7323Y-5.2058
X4.7412Y-4.7942
X4.7474Y-4.561
X4.7618Y-3.2992
X4.8189Y-5.0
X4.8209Y-3.1476
X4.8445Y-4.8956
X4.8543Y-4.6092
X4.8799Y-3.2953
X4.8839Y-3.8898
X4.8917Y-4.128
X4.8996Y-3.4055
X4.9705Y-4.7972
X4.9783Y-4.6976
X4.9783Y-4.4488
X5.0433Y-5.248
X5.0965Y-4.5482
X5.1083Y-3.2283
X5.1083Y-3.6654
X5.1594Y-3.5276
X5.1989Y-4.5167
X5.2175Y-4.9459
X5.2234Y-4.8465
X5.2578Y-5.0
X5.2657Y-5.523
X5.2864Y-4.4329
X5.2933Y-3.3287
X5.3204Y-4.2613
X5.4154Y-3.1831
X5.4764Y-4.5384
X5.5657Y-5.2458
X5.5945Y-4.2091
X5.6461Y-4.4285
X5.7264Y-4.8268
X5.7343Y-4.5906
X5.7482Y-4.1786
X5.813Y-5.1616
X5.8887Y-3.9114
X5.9193Y-3.8169
X5.9587Y-4.626
X5.9606Y-5.3051
X6.0315Y-3.4764
X6.4488Y-3.4902
X6.4783Y-4.311
X6.4791Y-5.4613
X6.7657Y-3.9591
T2
X5.3504Y-4.6594
X5.3504Y-4.7594
X5.3504Y-4.8594
X5.3504Y-4.9594
X5.3504Y-5.0594
X5.3504Y-5.1594
X5.3504Y-5.2594
X5.3504Y-5.3594
X5.3504Y-5.4594
X5.3976Y-4.3602
X5.5906Y-4.3602
X5.6504Y-4.6594
X5.6504Y-4.7594
X5.6504Y-4.8594
X5.6504Y-4.9594
X5.6504Y-5.0594
X5.6504Y-5.1594
X5.6504Y-5.2594
X5.6504Y-5.3594
X5.6504Y-5.4594
X6.0295Y-3.5591
X6.0295Y-3.6591
X6.0295Y-3.7591
X6.0295Y-3.8591
X6.0295Y-3.9591
X6.0295Y-4.0591
X6.0295Y-4.1591
X6.0295Y-4.2591
X6.0295Y-4.3591
X6.0295Y-4.4591
X6.0295Y-4.5591
X6.0295Y-4.6591
X6.0295Y-4.7591
X6.0295Y-4.8591
X6.0295Y-4.9591
X6.0295Y-5.0591
X6.0295Y-5.1591
X6.0295Y-5.2591
X6.0295Y-5.3591
X6.0295Y-5.4591
X6.6295Y-3.5591
X6.6295Y-3.6591
X6.6295Y-3.7591
X6.6295Y-3.8591
X6.6295Y-3.9591
X6.6295Y-4.0591
X6.6295Y-4.1591
X6.6295Y-4.2591
X6.6295Y-4.3591
X6.6295Y-4.4591
X6.6295Y-4.5591
X6.6295Y-4.6591
X6.6295Y-4.7591
X6.6295Y-4.8591
X6.6295Y-4.9591
X6.6295Y-5.0591
X6.6295Y-5.1591
X6.6295Y-5.2591
X6.6295Y-5.3591
X6.6295Y-5.4591
T3
X3.6654Y-3.5728
X3.6654Y-3.6728
X5.624Y-3.065
X5.624Y-3.165
X5.624Y-3.265
X6.1319Y-3.065
X6.1319Y-3.165
X6.5787Y-3.0669
X6.5787Y-3.1669
X6.5787Y-3.2669
X6.5787Y-3.3669
M30
