%TF.GenerationSoftware,KiCad,Pcbnew,9.0.0*%
%TF.CreationDate,2025-04-05T18:35:01-05:00*%
%TF.ProjectId,Model I RS232,4d6f6465-6c20-4492-9052-533233322e6b,1.1*%
%TF.SameCoordinates,Original*%
%TF.FileFunction,Legend,Bot*%
%TF.FilePolarity,Positive*%
%FSLAX46Y46*%
G04 Gerber Fmt 4.6, Leading zero omitted, Abs format (unit mm)*
G04 Created by KiCad (PCBNEW 9.0.0) date 2025-04-05 18:35:01*
%MOMM*%
%LPD*%
G01*
G04 APERTURE LIST*
%ADD10C,0.150000*%
%ADD11C,0.120000*%
G04 APERTURE END LIST*
D10*
X159039580Y-78620833D02*
X159087200Y-78573214D01*
X159087200Y-78573214D02*
X159134819Y-78430357D01*
X159134819Y-78430357D02*
X159134819Y-78335119D01*
X159134819Y-78335119D02*
X159087200Y-78192262D01*
X159087200Y-78192262D02*
X158991961Y-78097024D01*
X158991961Y-78097024D02*
X158896723Y-78049405D01*
X158896723Y-78049405D02*
X158706247Y-78001786D01*
X158706247Y-78001786D02*
X158563390Y-78001786D01*
X158563390Y-78001786D02*
X158372914Y-78049405D01*
X158372914Y-78049405D02*
X158277676Y-78097024D01*
X158277676Y-78097024D02*
X158182438Y-78192262D01*
X158182438Y-78192262D02*
X158134819Y-78335119D01*
X158134819Y-78335119D02*
X158134819Y-78430357D01*
X158134819Y-78430357D02*
X158182438Y-78573214D01*
X158182438Y-78573214D02*
X158230057Y-78620833D01*
X158134819Y-79477976D02*
X158134819Y-79287500D01*
X158134819Y-79287500D02*
X158182438Y-79192262D01*
X158182438Y-79192262D02*
X158230057Y-79144643D01*
X158230057Y-79144643D02*
X158372914Y-79049405D01*
X158372914Y-79049405D02*
X158563390Y-79001786D01*
X158563390Y-79001786D02*
X158944342Y-79001786D01*
X158944342Y-79001786D02*
X159039580Y-79049405D01*
X159039580Y-79049405D02*
X159087200Y-79097024D01*
X159087200Y-79097024D02*
X159134819Y-79192262D01*
X159134819Y-79192262D02*
X159134819Y-79382738D01*
X159134819Y-79382738D02*
X159087200Y-79477976D01*
X159087200Y-79477976D02*
X159039580Y-79525595D01*
X159039580Y-79525595D02*
X158944342Y-79573214D01*
X158944342Y-79573214D02*
X158706247Y-79573214D01*
X158706247Y-79573214D02*
X158611009Y-79525595D01*
X158611009Y-79525595D02*
X158563390Y-79477976D01*
X158563390Y-79477976D02*
X158515771Y-79382738D01*
X158515771Y-79382738D02*
X158515771Y-79192262D01*
X158515771Y-79192262D02*
X158563390Y-79097024D01*
X158563390Y-79097024D02*
X158611009Y-79049405D01*
X158611009Y-79049405D02*
X158706247Y-79001786D01*
X134539580Y-78620833D02*
X134587200Y-78573214D01*
X134587200Y-78573214D02*
X134634819Y-78430357D01*
X134634819Y-78430357D02*
X134634819Y-78335119D01*
X134634819Y-78335119D02*
X134587200Y-78192262D01*
X134587200Y-78192262D02*
X134491961Y-78097024D01*
X134491961Y-78097024D02*
X134396723Y-78049405D01*
X134396723Y-78049405D02*
X134206247Y-78001786D01*
X134206247Y-78001786D02*
X134063390Y-78001786D01*
X134063390Y-78001786D02*
X133872914Y-78049405D01*
X133872914Y-78049405D02*
X133777676Y-78097024D01*
X133777676Y-78097024D02*
X133682438Y-78192262D01*
X133682438Y-78192262D02*
X133634819Y-78335119D01*
X133634819Y-78335119D02*
X133634819Y-78430357D01*
X133634819Y-78430357D02*
X133682438Y-78573214D01*
X133682438Y-78573214D02*
X133730057Y-78620833D01*
X133634819Y-78954167D02*
X133634819Y-79573214D01*
X133634819Y-79573214D02*
X134015771Y-79239881D01*
X134015771Y-79239881D02*
X134015771Y-79382738D01*
X134015771Y-79382738D02*
X134063390Y-79477976D01*
X134063390Y-79477976D02*
X134111009Y-79525595D01*
X134111009Y-79525595D02*
X134206247Y-79573214D01*
X134206247Y-79573214D02*
X134444342Y-79573214D01*
X134444342Y-79573214D02*
X134539580Y-79525595D01*
X134539580Y-79525595D02*
X134587200Y-79477976D01*
X134587200Y-79477976D02*
X134634819Y-79382738D01*
X134634819Y-79382738D02*
X134634819Y-79097024D01*
X134634819Y-79097024D02*
X134587200Y-79001786D01*
X134587200Y-79001786D02*
X134539580Y-78954167D01*
X134539580Y-98144642D02*
X134587200Y-98097023D01*
X134587200Y-98097023D02*
X134634819Y-97954166D01*
X134634819Y-97954166D02*
X134634819Y-97858928D01*
X134634819Y-97858928D02*
X134587200Y-97716071D01*
X134587200Y-97716071D02*
X134491961Y-97620833D01*
X134491961Y-97620833D02*
X134396723Y-97573214D01*
X134396723Y-97573214D02*
X134206247Y-97525595D01*
X134206247Y-97525595D02*
X134063390Y-97525595D01*
X134063390Y-97525595D02*
X133872914Y-97573214D01*
X133872914Y-97573214D02*
X133777676Y-97620833D01*
X133777676Y-97620833D02*
X133682438Y-97716071D01*
X133682438Y-97716071D02*
X133634819Y-97858928D01*
X133634819Y-97858928D02*
X133634819Y-97954166D01*
X133634819Y-97954166D02*
X133682438Y-98097023D01*
X133682438Y-98097023D02*
X133730057Y-98144642D01*
X134634819Y-99097023D02*
X134634819Y-98525595D01*
X134634819Y-98811309D02*
X133634819Y-98811309D01*
X133634819Y-98811309D02*
X133777676Y-98716071D01*
X133777676Y-98716071D02*
X133872914Y-98620833D01*
X133872914Y-98620833D02*
X133920533Y-98525595D01*
X133730057Y-99477976D02*
X133682438Y-99525595D01*
X133682438Y-99525595D02*
X133634819Y-99620833D01*
X133634819Y-99620833D02*
X133634819Y-99858928D01*
X133634819Y-99858928D02*
X133682438Y-99954166D01*
X133682438Y-99954166D02*
X133730057Y-100001785D01*
X133730057Y-100001785D02*
X133825295Y-100049404D01*
X133825295Y-100049404D02*
X133920533Y-100049404D01*
X133920533Y-100049404D02*
X134063390Y-100001785D01*
X134063390Y-100001785D02*
X134634819Y-99430357D01*
X134634819Y-99430357D02*
X134634819Y-100049404D01*
X180789580Y-95620833D02*
X180837200Y-95573214D01*
X180837200Y-95573214D02*
X180884819Y-95430357D01*
X180884819Y-95430357D02*
X180884819Y-95335119D01*
X180884819Y-95335119D02*
X180837200Y-95192262D01*
X180837200Y-95192262D02*
X180741961Y-95097024D01*
X180741961Y-95097024D02*
X180646723Y-95049405D01*
X180646723Y-95049405D02*
X180456247Y-95001786D01*
X180456247Y-95001786D02*
X180313390Y-95001786D01*
X180313390Y-95001786D02*
X180122914Y-95049405D01*
X180122914Y-95049405D02*
X180027676Y-95097024D01*
X180027676Y-95097024D02*
X179932438Y-95192262D01*
X179932438Y-95192262D02*
X179884819Y-95335119D01*
X179884819Y-95335119D02*
X179884819Y-95430357D01*
X179884819Y-95430357D02*
X179932438Y-95573214D01*
X179932438Y-95573214D02*
X179980057Y-95620833D01*
X179884819Y-96525595D02*
X179884819Y-96049405D01*
X179884819Y-96049405D02*
X180361009Y-96001786D01*
X180361009Y-96001786D02*
X180313390Y-96049405D01*
X180313390Y-96049405D02*
X180265771Y-96144643D01*
X180265771Y-96144643D02*
X180265771Y-96382738D01*
X180265771Y-96382738D02*
X180313390Y-96477976D01*
X180313390Y-96477976D02*
X180361009Y-96525595D01*
X180361009Y-96525595D02*
X180456247Y-96573214D01*
X180456247Y-96573214D02*
X180694342Y-96573214D01*
X180694342Y-96573214D02*
X180789580Y-96525595D01*
X180789580Y-96525595D02*
X180837200Y-96477976D01*
X180837200Y-96477976D02*
X180884819Y-96382738D01*
X180884819Y-96382738D02*
X180884819Y-96144643D01*
X180884819Y-96144643D02*
X180837200Y-96049405D01*
X180837200Y-96049405D02*
X180789580Y-96001786D01*
X115289580Y-121120833D02*
X115337200Y-121073214D01*
X115337200Y-121073214D02*
X115384819Y-120930357D01*
X115384819Y-120930357D02*
X115384819Y-120835119D01*
X115384819Y-120835119D02*
X115337200Y-120692262D01*
X115337200Y-120692262D02*
X115241961Y-120597024D01*
X115241961Y-120597024D02*
X115146723Y-120549405D01*
X115146723Y-120549405D02*
X114956247Y-120501786D01*
X114956247Y-120501786D02*
X114813390Y-120501786D01*
X114813390Y-120501786D02*
X114622914Y-120549405D01*
X114622914Y-120549405D02*
X114527676Y-120597024D01*
X114527676Y-120597024D02*
X114432438Y-120692262D01*
X114432438Y-120692262D02*
X114384819Y-120835119D01*
X114384819Y-120835119D02*
X114384819Y-120930357D01*
X114384819Y-120930357D02*
X114432438Y-121073214D01*
X114432438Y-121073214D02*
X114480057Y-121120833D01*
X114480057Y-121501786D02*
X114432438Y-121549405D01*
X114432438Y-121549405D02*
X114384819Y-121644643D01*
X114384819Y-121644643D02*
X114384819Y-121882738D01*
X114384819Y-121882738D02*
X114432438Y-121977976D01*
X114432438Y-121977976D02*
X114480057Y-122025595D01*
X114480057Y-122025595D02*
X114575295Y-122073214D01*
X114575295Y-122073214D02*
X114670533Y-122073214D01*
X114670533Y-122073214D02*
X114813390Y-122025595D01*
X114813390Y-122025595D02*
X115384819Y-121454167D01*
X115384819Y-121454167D02*
X115384819Y-122073214D01*
X95179580Y-81545833D02*
X95227200Y-81498214D01*
X95227200Y-81498214D02*
X95274819Y-81355357D01*
X95274819Y-81355357D02*
X95274819Y-81260119D01*
X95274819Y-81260119D02*
X95227200Y-81117262D01*
X95227200Y-81117262D02*
X95131961Y-81022024D01*
X95131961Y-81022024D02*
X95036723Y-80974405D01*
X95036723Y-80974405D02*
X94846247Y-80926786D01*
X94846247Y-80926786D02*
X94703390Y-80926786D01*
X94703390Y-80926786D02*
X94512914Y-80974405D01*
X94512914Y-80974405D02*
X94417676Y-81022024D01*
X94417676Y-81022024D02*
X94322438Y-81117262D01*
X94322438Y-81117262D02*
X94274819Y-81260119D01*
X94274819Y-81260119D02*
X94274819Y-81355357D01*
X94274819Y-81355357D02*
X94322438Y-81498214D01*
X94322438Y-81498214D02*
X94370057Y-81545833D01*
X94608152Y-82402976D02*
X95274819Y-82402976D01*
X94227200Y-82164881D02*
X94941485Y-81926786D01*
X94941485Y-81926786D02*
X94941485Y-82545833D01*
X108539580Y-81144642D02*
X108587200Y-81097023D01*
X108587200Y-81097023D02*
X108634819Y-80954166D01*
X108634819Y-80954166D02*
X108634819Y-80858928D01*
X108634819Y-80858928D02*
X108587200Y-80716071D01*
X108587200Y-80716071D02*
X108491961Y-80620833D01*
X108491961Y-80620833D02*
X108396723Y-80573214D01*
X108396723Y-80573214D02*
X108206247Y-80525595D01*
X108206247Y-80525595D02*
X108063390Y-80525595D01*
X108063390Y-80525595D02*
X107872914Y-80573214D01*
X107872914Y-80573214D02*
X107777676Y-80620833D01*
X107777676Y-80620833D02*
X107682438Y-80716071D01*
X107682438Y-80716071D02*
X107634819Y-80858928D01*
X107634819Y-80858928D02*
X107634819Y-80954166D01*
X107634819Y-80954166D02*
X107682438Y-81097023D01*
X107682438Y-81097023D02*
X107730057Y-81144642D01*
X108634819Y-82097023D02*
X108634819Y-81525595D01*
X108634819Y-81811309D02*
X107634819Y-81811309D01*
X107634819Y-81811309D02*
X107777676Y-81716071D01*
X107777676Y-81716071D02*
X107872914Y-81620833D01*
X107872914Y-81620833D02*
X107920533Y-81525595D01*
X108634819Y-83049404D02*
X108634819Y-82477976D01*
X108634819Y-82763690D02*
X107634819Y-82763690D01*
X107634819Y-82763690D02*
X107777676Y-82668452D01*
X107777676Y-82668452D02*
X107872914Y-82573214D01*
X107872914Y-82573214D02*
X107920533Y-82477976D01*
X154539580Y-98144642D02*
X154587200Y-98097023D01*
X154587200Y-98097023D02*
X154634819Y-97954166D01*
X154634819Y-97954166D02*
X154634819Y-97858928D01*
X154634819Y-97858928D02*
X154587200Y-97716071D01*
X154587200Y-97716071D02*
X154491961Y-97620833D01*
X154491961Y-97620833D02*
X154396723Y-97573214D01*
X154396723Y-97573214D02*
X154206247Y-97525595D01*
X154206247Y-97525595D02*
X154063390Y-97525595D01*
X154063390Y-97525595D02*
X153872914Y-97573214D01*
X153872914Y-97573214D02*
X153777676Y-97620833D01*
X153777676Y-97620833D02*
X153682438Y-97716071D01*
X153682438Y-97716071D02*
X153634819Y-97858928D01*
X153634819Y-97858928D02*
X153634819Y-97954166D01*
X153634819Y-97954166D02*
X153682438Y-98097023D01*
X153682438Y-98097023D02*
X153730057Y-98144642D01*
X154634819Y-99097023D02*
X154634819Y-98525595D01*
X154634819Y-98811309D02*
X153634819Y-98811309D01*
X153634819Y-98811309D02*
X153777676Y-98716071D01*
X153777676Y-98716071D02*
X153872914Y-98620833D01*
X153872914Y-98620833D02*
X153920533Y-98525595D01*
X153968152Y-99954166D02*
X154634819Y-99954166D01*
X153587200Y-99716071D02*
X154301485Y-99477976D01*
X154301485Y-99477976D02*
X154301485Y-100097023D01*
X114929580Y-81319642D02*
X114977200Y-81272023D01*
X114977200Y-81272023D02*
X115024819Y-81129166D01*
X115024819Y-81129166D02*
X115024819Y-81033928D01*
X115024819Y-81033928D02*
X114977200Y-80891071D01*
X114977200Y-80891071D02*
X114881961Y-80795833D01*
X114881961Y-80795833D02*
X114786723Y-80748214D01*
X114786723Y-80748214D02*
X114596247Y-80700595D01*
X114596247Y-80700595D02*
X114453390Y-80700595D01*
X114453390Y-80700595D02*
X114262914Y-80748214D01*
X114262914Y-80748214D02*
X114167676Y-80795833D01*
X114167676Y-80795833D02*
X114072438Y-80891071D01*
X114072438Y-80891071D02*
X114024819Y-81033928D01*
X114024819Y-81033928D02*
X114024819Y-81129166D01*
X114024819Y-81129166D02*
X114072438Y-81272023D01*
X114072438Y-81272023D02*
X114120057Y-81319642D01*
X115024819Y-82272023D02*
X115024819Y-81700595D01*
X115024819Y-81986309D02*
X114024819Y-81986309D01*
X114024819Y-81986309D02*
X114167676Y-81891071D01*
X114167676Y-81891071D02*
X114262914Y-81795833D01*
X114262914Y-81795833D02*
X114310533Y-81700595D01*
X114024819Y-82891071D02*
X114024819Y-82986309D01*
X114024819Y-82986309D02*
X114072438Y-83081547D01*
X114072438Y-83081547D02*
X114120057Y-83129166D01*
X114120057Y-83129166D02*
X114215295Y-83176785D01*
X114215295Y-83176785D02*
X114405771Y-83224404D01*
X114405771Y-83224404D02*
X114643866Y-83224404D01*
X114643866Y-83224404D02*
X114834342Y-83176785D01*
X114834342Y-83176785D02*
X114929580Y-83129166D01*
X114929580Y-83129166D02*
X114977200Y-83081547D01*
X114977200Y-83081547D02*
X115024819Y-82986309D01*
X115024819Y-82986309D02*
X115024819Y-82891071D01*
X115024819Y-82891071D02*
X114977200Y-82795833D01*
X114977200Y-82795833D02*
X114929580Y-82748214D01*
X114929580Y-82748214D02*
X114834342Y-82700595D01*
X114834342Y-82700595D02*
X114643866Y-82652976D01*
X114643866Y-82652976D02*
X114405771Y-82652976D01*
X114405771Y-82652976D02*
X114215295Y-82700595D01*
X114215295Y-82700595D02*
X114120057Y-82748214D01*
X114120057Y-82748214D02*
X114072438Y-82795833D01*
X114072438Y-82795833D02*
X114024819Y-82891071D01*
X181929166Y-127579580D02*
X181976785Y-127627200D01*
X181976785Y-127627200D02*
X182119642Y-127674819D01*
X182119642Y-127674819D02*
X182214880Y-127674819D01*
X182214880Y-127674819D02*
X182357737Y-127627200D01*
X182357737Y-127627200D02*
X182452975Y-127531961D01*
X182452975Y-127531961D02*
X182500594Y-127436723D01*
X182500594Y-127436723D02*
X182548213Y-127246247D01*
X182548213Y-127246247D02*
X182548213Y-127103390D01*
X182548213Y-127103390D02*
X182500594Y-126912914D01*
X182500594Y-126912914D02*
X182452975Y-126817676D01*
X182452975Y-126817676D02*
X182357737Y-126722438D01*
X182357737Y-126722438D02*
X182214880Y-126674819D01*
X182214880Y-126674819D02*
X182119642Y-126674819D01*
X182119642Y-126674819D02*
X181976785Y-126722438D01*
X181976785Y-126722438D02*
X181929166Y-126770057D01*
X180976785Y-127674819D02*
X181548213Y-127674819D01*
X181262499Y-127674819D02*
X181262499Y-126674819D01*
X181262499Y-126674819D02*
X181357737Y-126817676D01*
X181357737Y-126817676D02*
X181452975Y-126912914D01*
X181452975Y-126912914D02*
X181548213Y-126960533D01*
X114539580Y-98069642D02*
X114587200Y-98022023D01*
X114587200Y-98022023D02*
X114634819Y-97879166D01*
X114634819Y-97879166D02*
X114634819Y-97783928D01*
X114634819Y-97783928D02*
X114587200Y-97641071D01*
X114587200Y-97641071D02*
X114491961Y-97545833D01*
X114491961Y-97545833D02*
X114396723Y-97498214D01*
X114396723Y-97498214D02*
X114206247Y-97450595D01*
X114206247Y-97450595D02*
X114063390Y-97450595D01*
X114063390Y-97450595D02*
X113872914Y-97498214D01*
X113872914Y-97498214D02*
X113777676Y-97545833D01*
X113777676Y-97545833D02*
X113682438Y-97641071D01*
X113682438Y-97641071D02*
X113634819Y-97783928D01*
X113634819Y-97783928D02*
X113634819Y-97879166D01*
X113634819Y-97879166D02*
X113682438Y-98022023D01*
X113682438Y-98022023D02*
X113730057Y-98069642D01*
X114634819Y-99022023D02*
X114634819Y-98450595D01*
X114634819Y-98736309D02*
X113634819Y-98736309D01*
X113634819Y-98736309D02*
X113777676Y-98641071D01*
X113777676Y-98641071D02*
X113872914Y-98545833D01*
X113872914Y-98545833D02*
X113920533Y-98450595D01*
X113634819Y-99355357D02*
X113634819Y-99974404D01*
X113634819Y-99974404D02*
X114015771Y-99641071D01*
X114015771Y-99641071D02*
X114015771Y-99783928D01*
X114015771Y-99783928D02*
X114063390Y-99879166D01*
X114063390Y-99879166D02*
X114111009Y-99926785D01*
X114111009Y-99926785D02*
X114206247Y-99974404D01*
X114206247Y-99974404D02*
X114444342Y-99974404D01*
X114444342Y-99974404D02*
X114539580Y-99926785D01*
X114539580Y-99926785D02*
X114587200Y-99879166D01*
X114587200Y-99879166D02*
X114634819Y-99783928D01*
X114634819Y-99783928D02*
X114634819Y-99498214D01*
X114634819Y-99498214D02*
X114587200Y-99402976D01*
X114587200Y-99402976D02*
X114539580Y-99355357D01*
X131289580Y-123295833D02*
X131337200Y-123248214D01*
X131337200Y-123248214D02*
X131384819Y-123105357D01*
X131384819Y-123105357D02*
X131384819Y-123010119D01*
X131384819Y-123010119D02*
X131337200Y-122867262D01*
X131337200Y-122867262D02*
X131241961Y-122772024D01*
X131241961Y-122772024D02*
X131146723Y-122724405D01*
X131146723Y-122724405D02*
X130956247Y-122676786D01*
X130956247Y-122676786D02*
X130813390Y-122676786D01*
X130813390Y-122676786D02*
X130622914Y-122724405D01*
X130622914Y-122724405D02*
X130527676Y-122772024D01*
X130527676Y-122772024D02*
X130432438Y-122867262D01*
X130432438Y-122867262D02*
X130384819Y-123010119D01*
X130384819Y-123010119D02*
X130384819Y-123105357D01*
X130384819Y-123105357D02*
X130432438Y-123248214D01*
X130432438Y-123248214D02*
X130480057Y-123295833D01*
X130384819Y-123629167D02*
X130384819Y-124295833D01*
X130384819Y-124295833D02*
X131384819Y-123867262D01*
D11*
%TO.C,C6*%
X156265000Y-79048752D02*
X156265000Y-78526248D01*
X157735000Y-79048752D02*
X157735000Y-78526248D01*
%TO.C,C3*%
X131765000Y-79048752D02*
X131765000Y-78526248D01*
X133235000Y-79048752D02*
X133235000Y-78526248D01*
%TO.C,C12*%
X131765000Y-99048752D02*
X131765000Y-98526248D01*
X133235000Y-99048752D02*
X133235000Y-98526248D01*
%TO.C,C5*%
X178015000Y-96048752D02*
X178015000Y-95526248D01*
X179485000Y-96048752D02*
X179485000Y-95526248D01*
%TO.C,C2*%
X112515000Y-121548752D02*
X112515000Y-121026248D01*
X113985000Y-121548752D02*
X113985000Y-121026248D01*
%TO.C,C4*%
X95765000Y-81451248D02*
X95765000Y-81973752D01*
X97235000Y-81451248D02*
X97235000Y-81973752D01*
%TO.C,C11*%
X105765000Y-82048752D02*
X105765000Y-81526248D01*
X107235000Y-82048752D02*
X107235000Y-81526248D01*
%TO.C,C14*%
X151765000Y-99048752D02*
X151765000Y-98526248D01*
X153235000Y-99048752D02*
X153235000Y-98526248D01*
%TO.C,C10*%
X115515000Y-81701248D02*
X115515000Y-82223752D01*
X116985000Y-81701248D02*
X116985000Y-82223752D01*
%TO.C,C1*%
X182023752Y-128165000D02*
X181501248Y-128165000D01*
X182023752Y-129635000D02*
X181501248Y-129635000D01*
%TO.C,C13*%
X111765000Y-98973752D02*
X111765000Y-98451248D01*
X113235000Y-98973752D02*
X113235000Y-98451248D01*
%TO.C,C7*%
X128515000Y-123723752D02*
X128515000Y-123201248D01*
X129985000Y-123723752D02*
X129985000Y-123201248D01*
%TD*%
M02*
