%TF.GenerationSoftware,KiCad,Pcbnew,9.0.0*%
%TF.CreationDate,2025-04-05T18:35:01-05:00*%
%TF.ProjectId,Model I RS232,4d6f6465-6c20-4492-9052-533233322e6b,1.1*%
%TF.SameCoordinates,Original*%
%TF.FileFunction,Soldermask,Top*%
%TF.FilePolarity,Negative*%
%FSLAX46Y46*%
G04 Gerber Fmt 4.6, Leading zero omitted, Abs format (unit mm)*
G04 Created by KiCad (PCBNEW 9.0.0) date 2025-04-05 18:35:01*
%MOMM*%
%LPD*%
G01*
G04 APERTURE LIST*
G04 Aperture macros list*
%AMRoundRect*
0 Rectangle with rounded corners*
0 $1 Rounding radius*
0 $2 $3 $4 $5 $6 $7 $8 $9 X,Y pos of 4 corners*
0 Add a 4 corners polygon primitive as box body*
4,1,4,$2,$3,$4,$5,$6,$7,$8,$9,$2,$3,0*
0 Add four circle primitives for the rounded corners*
1,1,$1+$1,$2,$3*
1,1,$1+$1,$4,$5*
1,1,$1+$1,$6,$7*
1,1,$1+$1,$8,$9*
0 Add four rect primitives between the rounded corners*
20,1,$1+$1,$2,$3,$4,$5,0*
20,1,$1+$1,$4,$5,$6,$7,0*
20,1,$1+$1,$6,$7,$8,$9,0*
20,1,$1+$1,$8,$9,$2,$3,0*%
G04 Aperture macros list end*
%ADD10RoundRect,0.150000X-0.825000X-0.150000X0.825000X-0.150000X0.825000X0.150000X-0.825000X0.150000X0*%
%ADD11RoundRect,0.250000X-0.475000X0.337500X-0.475000X-0.337500X0.475000X-0.337500X0.475000X0.337500X0*%
%ADD12RoundRect,0.250000X-0.950000X-0.550000X0.950000X-0.550000X0.950000X0.550000X-0.950000X0.550000X0*%
%ADD13O,2.400000X1.600000*%
%ADD14RoundRect,0.100000X-0.637500X-0.100000X0.637500X-0.100000X0.637500X0.100000X-0.637500X0.100000X0*%
%ADD15RoundRect,0.250000X-0.550000X0.950000X-0.550000X-0.950000X0.550000X-0.950000X0.550000X0.950000X0*%
%ADD16O,1.600000X2.400000*%
%ADD17C,4.775200*%
%ADD18C,3.175000*%
%ADD19RoundRect,0.250000X0.475000X-0.337500X0.475000X0.337500X-0.475000X0.337500X-0.475000X-0.337500X0*%
%ADD20RoundRect,0.250000X-0.450000X0.350000X-0.450000X-0.350000X0.450000X-0.350000X0.450000X0.350000X0*%
%ADD21RoundRect,0.150000X-0.875000X-0.150000X0.875000X-0.150000X0.875000X0.150000X-0.875000X0.150000X0*%
%ADD22C,1.600000*%
%ADD23C,1.500000*%
G04 APERTURE END LIST*
D10*
%TO.C,U7*%
X125000000Y-80000000D03*
X125000000Y-81270000D03*
X125000000Y-82540000D03*
X125000000Y-83810000D03*
X125000000Y-85080000D03*
X125000000Y-86350000D03*
X125000000Y-87620000D03*
X125000000Y-88890000D03*
X129950000Y-88890000D03*
X129950000Y-87620000D03*
X129950000Y-86350000D03*
X129950000Y-85080000D03*
X129950000Y-83810000D03*
X129950000Y-82540000D03*
X129950000Y-81270000D03*
X129950000Y-80000000D03*
%TD*%
D11*
%TO.C,C8*%
X114500000Y-80962500D03*
X114500000Y-83037500D03*
%TD*%
D12*
%TO.C,U3*%
X102380000Y-122460000D03*
D13*
X102380000Y-125000000D03*
X102380000Y-127540000D03*
X102380000Y-130080000D03*
X102380000Y-132620000D03*
X102380000Y-135160000D03*
X102380000Y-137700000D03*
X102380000Y-140240000D03*
X110000000Y-140240000D03*
X110000000Y-137700000D03*
X110000000Y-135160000D03*
X110000000Y-132620000D03*
X110000000Y-130080000D03*
X110000000Y-127540000D03*
X110000000Y-125000000D03*
X110000000Y-122460000D03*
%TD*%
D14*
%TO.C,U9*%
X103537500Y-80000000D03*
X103537500Y-80650000D03*
X103537500Y-81300000D03*
X103537500Y-81950000D03*
X103537500Y-82600000D03*
X103537500Y-83250000D03*
X103537500Y-83900000D03*
X103537500Y-84550000D03*
X103537500Y-85200000D03*
X103537500Y-85850000D03*
X103537500Y-86500000D03*
X103537500Y-87150000D03*
X103537500Y-87800000D03*
X103537500Y-88450000D03*
X109262500Y-88450000D03*
X109262500Y-87800000D03*
X109262500Y-87150000D03*
X109262500Y-86500000D03*
X109262500Y-85850000D03*
X109262500Y-85200000D03*
X109262500Y-84550000D03*
X109262500Y-83900000D03*
X109262500Y-83250000D03*
X109262500Y-82600000D03*
X109262500Y-81950000D03*
X109262500Y-81300000D03*
X109262500Y-80650000D03*
X109262500Y-80000000D03*
%TD*%
D15*
%TO.C,U1*%
X185720000Y-125000000D03*
D16*
X183180000Y-125000000D03*
X180640000Y-125000000D03*
X178100000Y-125000000D03*
X175560000Y-125000000D03*
X173020000Y-125000000D03*
X170480000Y-125000000D03*
X167940000Y-125000000D03*
X165400000Y-125000000D03*
X162860000Y-125000000D03*
X160320000Y-125000000D03*
X157780000Y-125000000D03*
X155240000Y-125000000D03*
X152700000Y-125000000D03*
X150160000Y-125000000D03*
X147620000Y-125000000D03*
X145080000Y-125000000D03*
X142540000Y-125000000D03*
X140000000Y-125000000D03*
X137460000Y-125000000D03*
X137460000Y-140240000D03*
X140000000Y-140240000D03*
X142540000Y-140240000D03*
X145080000Y-140240000D03*
X147620000Y-140240000D03*
X150160000Y-140240000D03*
X152700000Y-140240000D03*
X155240000Y-140240000D03*
X157780000Y-140240000D03*
X160320000Y-140240000D03*
X162860000Y-140240000D03*
X165400000Y-140240000D03*
X167940000Y-140240000D03*
X170480000Y-140240000D03*
X173020000Y-140240000D03*
X175560000Y-140240000D03*
X178100000Y-140240000D03*
X180640000Y-140240000D03*
X183180000Y-140240000D03*
X185720000Y-140240000D03*
%TD*%
D17*
%TO.C,J1*%
X81580000Y-78560000D03*
D18*
X81580000Y-138250000D03*
%TD*%
D19*
%TO.C,C9*%
X96500000Y-82825000D03*
X96500000Y-80750000D03*
%TD*%
D20*
%TO.C,R1*%
X133100000Y-99800000D03*
X133100000Y-101800000D03*
%TD*%
D12*
%TO.C,U2*%
X175000000Y-94760000D03*
D13*
X175000000Y-97300000D03*
X175000000Y-99840000D03*
X175000000Y-102380000D03*
X175000000Y-104920000D03*
X175000000Y-107460000D03*
X175000000Y-110000000D03*
X175000000Y-112540000D03*
X175000000Y-115080000D03*
X182620000Y-115080000D03*
X182620000Y-112540000D03*
X182620000Y-110000000D03*
X182620000Y-107460000D03*
X182620000Y-104920000D03*
X182620000Y-102380000D03*
X182620000Y-99840000D03*
X182620000Y-97300000D03*
X182620000Y-94760000D03*
%TD*%
D10*
%TO.C,U10*%
X145000000Y-100000000D03*
X145000000Y-101270000D03*
X145000000Y-102540000D03*
X145000000Y-103810000D03*
X145000000Y-105080000D03*
X145000000Y-106350000D03*
X145000000Y-107620000D03*
X149950000Y-107620000D03*
X149950000Y-106350000D03*
X149950000Y-105080000D03*
X149950000Y-103810000D03*
X149950000Y-102540000D03*
X149950000Y-101270000D03*
X149950000Y-100000000D03*
%TD*%
%TO.C,U5*%
X125000000Y-100000000D03*
X125000000Y-101270000D03*
X125000000Y-102540000D03*
X125000000Y-103810000D03*
X125000000Y-105080000D03*
X125000000Y-106350000D03*
X125000000Y-107620000D03*
X129950000Y-107620000D03*
X129950000Y-106350000D03*
X129950000Y-105080000D03*
X129950000Y-103810000D03*
X129950000Y-102540000D03*
X129950000Y-101270000D03*
X129950000Y-100000000D03*
%TD*%
D21*
%TO.C,U6*%
X145000000Y-79840000D03*
X145000000Y-81110000D03*
X145000000Y-82380000D03*
X145000000Y-83650000D03*
X145000000Y-84920000D03*
X145000000Y-86190000D03*
X145000000Y-87460000D03*
X145000000Y-88730000D03*
X145000000Y-90000000D03*
X145000000Y-91270000D03*
X154300000Y-91270000D03*
X154300000Y-90000000D03*
X154300000Y-88730000D03*
X154300000Y-87460000D03*
X154300000Y-86190000D03*
X154300000Y-84920000D03*
X154300000Y-83650000D03*
X154300000Y-82380000D03*
X154300000Y-81110000D03*
X154300000Y-79840000D03*
%TD*%
D22*
%TO.C,C15*%
X162500000Y-105000000D03*
X165000000Y-105000000D03*
%TD*%
D10*
%TO.C,U8*%
X121775000Y-124805000D03*
X121775000Y-126075000D03*
X121775000Y-127345000D03*
X121775000Y-128615000D03*
X121775000Y-129885000D03*
X121775000Y-131155000D03*
X121775000Y-132425000D03*
X121775000Y-133695000D03*
X126725000Y-133695000D03*
X126725000Y-132425000D03*
X126725000Y-131155000D03*
X126725000Y-129885000D03*
X126725000Y-128615000D03*
X126725000Y-127345000D03*
X126725000Y-126075000D03*
X126725000Y-124805000D03*
%TD*%
%TO.C,U4*%
X105050000Y-100000000D03*
X105050000Y-101270000D03*
X105050000Y-102540000D03*
X105050000Y-103810000D03*
X105050000Y-105080000D03*
X105050000Y-106350000D03*
X105050000Y-107620000D03*
X110000000Y-107620000D03*
X110000000Y-106350000D03*
X110000000Y-105080000D03*
X110000000Y-103810000D03*
X110000000Y-102540000D03*
X110000000Y-101270000D03*
X110000000Y-100000000D03*
%TD*%
D23*
%TO.C,Y1*%
X182650000Y-82550000D03*
X182650000Y-87450000D03*
%TD*%
M02*
